<?xml version="1.0" standalone="no"?>
<!DOCTYPE svg PUBLIC "-//W3C//DTD SVG 20010904//EN"
 "http://www.w3.org/TR/2001/REC-SVG-20010904/DTD/svg10.dtd">
<svg version="1.0" xmlns="http://www.w3.org/2000/svg"
 width="260.000000pt" height="260.000000pt" viewBox="0 0 260.000000 260.000000"
 preserveAspectRatio="xMidYMid meet">
<metadata>
Created by potrace 1.14, written by Peter Selinger 2001-2017
</metadata>
<g transform="translate(0.000000,260.000000) scale(0.100000,-0.100000)"
fill="#000000" stroke="none">
<path d="M1235 2254 c-49 -50 -63 -51 -121 -8 -52 40 -81 30 -118 -43 -24 -49
-48 -58 -101 -37 -58 22 -90 13 -104 -27 -6 -18 -11 -39 -11 -49 0 -39 -24
-53 -90 -51 -35 1 -68 -3 -76 -10 -9 -7 -14 -32 -14 -70 0 -67 -13 -85 -68
-94 -86 -15 -98 -32 -75 -107 17 -60 8 -81 -51 -107 -69 -30 -77 -61 -34 -123
30 -43 23 -69 -27 -111 -27 -23 -45 -46 -45 -59 0 -11 18 -40 40 -64 22 -24
40 -49 40 -56 0 -6 -16 -35 -36 -64 -43 -62 -40 -86 15 -113 59 -31 67 -45 52
-94 -31 -104 -27 -118 44 -136 74 -19 85 -44 59 -132 -2 -9 4 -27 14 -40 15
-18 30 -23 71 -25 28 0 57 -7 65 -13 8 -7 18 -37 22 -67 9 -72 33 -91 95 -74
57 16 84 7 98 -32 34 -92 62 -107 125 -69 56 35 82 25 129 -51 24 -39 60 -37
108 7 22 19 48 35 59 35 11 0 37 -16 59 -35 58 -53 73 -49 137 32 30 39 45 40
101 11 60 -32 89 -19 115 49 22 61 42 71 107 53 62 -16 87 2 93 70 3 28 12 58
20 66 8 8 39 17 68 20 77 8 84 16 77 89 -3 33 -2 67 2 74 5 7 33 21 62 30 68
22 81 50 55 109 -25 56 -18 80 34 117 58 41 63 70 21 127 -17 23 -31 48 -31
55 0 7 18 33 40 57 22 24 40 53 40 64 0 12 -18 35 -45 58 -51 42 -56 64 -24
118 31 53 23 87 -29 111 -70 34 -78 47 -64 100 23 87 14 104 -58 116 -72 11
-80 20 -80 94 0 79 -11 90 -84 82 -70 -7 -91 8 -100 68 -12 76 -46 90 -133 54
-30 -12 -34 -11 -58 11 -14 13 -25 29 -25 35 0 22 -41 65 -62 65 -12 0 -35
-11 -52 -24 -58 -43 -72 -42 -121 8 -24 26 -54 46 -65 46 -11 0 -41 -20 -65
-46z m118 -3 c52 -56 71 -59 125 -21 57 40 82 35 107 -21 11 -23 30 -48 42
-57 22 -14 29 -13 79 4 68 23 85 14 99 -51 14 -65 41 -86 105 -78 67 8 80 -4
80 -77 0 -69 17 -88 85 -98 63 -9 73 -26 56 -91 -18 -70 -9 -89 55 -117 45
-20 54 -28 54 -50 0 -14 -9 -38 -19 -53 -33 -46 -31 -83 6 -114 77 -64 78 -71
23 -126 -49 -48 -51 -78 -10 -124 43 -49 40 -81 -8 -106 -69 -35 -80 -68 -46
-142 22 -51 13 -69 -46 -86 -71 -21 -83 -37 -75 -105 9 -74 -1 -88 -65 -88
-67 0 -91 -22 -98 -88 -6 -64 -28 -85 -75 -71 -75 21 -105 6 -129 -65 -19 -57
-39 -66 -91 -38 -67 35 -91 30 -133 -28 -20 -28 -43 -50 -51 -50 -9 0 -33 16
-54 35 -51 46 -83 46 -136 0 -23 -19 -48 -35 -56 -35 -8 0 -31 23 -51 50 -42
58 -66 63 -133 28 -53 -28 -68 -21 -94 46 -10 27 -24 53 -31 58 -7 5 -43 6
-79 2 -77 -7 -84 -1 -92 71 -7 63 -31 85 -97 85 -63 0 -74 14 -65 86 8 67 -6
88 -69 105 -72 19 -81 40 -46 109 26 51 15 80 -44 115 -56 33 -60 61 -16 112
41 46 39 76 -10 124 -22 22 -40 47 -40 55 0 15 46 64 61 64 14 0 36 53 31 75
-2 11 -13 32 -23 47 -11 14 -19 38 -19 52 0 22 9 30 54 50 64 28 73 47 55 117
-17 65 -7 82 56 91 68 10 85 29 85 98 0 73 13 85 80 77 64 -8 91 13 105 78 14
65 31 74 95 51 66 -24 92 -13 123 51 12 26 30 49 40 51 10 2 40 -11 67 -28 59
-38 80 -34 128 21 19 22 41 39 51 39 10 0 34 -18 54 -39z"/>
<path d="M1245 2170 c-25 -22 -51 -40 -58 -40 -6 0 -28 12 -48 26 -51 35 -78
29 -108 -24 -13 -24 -30 -46 -38 -49 -8 -3 -40 0 -70 8 -54 12 -56 12 -74 -10
-11 -13 -19 -33 -19 -45 0 -12 -7 -32 -16 -44 -13 -19 -24 -22 -71 -21 -68 3
-83 -13 -83 -82 0 -56 -23 -79 -77 -79 -49 0 -67 -33 -52 -92 16 -58 9 -73
-45 -99 -57 -26 -64 -49 -35 -103 27 -52 21 -83 -21 -111 -47 -31 -49 -58 -6
-105 43 -47 45 -68 11 -108 -33 -39 -32 -76 1 -99 70 -48 74 -64 43 -140 -11
-28 -11 -34 5 -52 10 -11 32 -23 48 -26 52 -12 68 -37 61 -94 -7 -65 5 -81 63
-81 54 0 84 -26 84 -73 0 -18 7 -43 16 -56 15 -21 21 -22 75 -16 67 8 84 0 94
-46 4 -16 13 -36 22 -44 18 -19 62 -19 87 0 28 21 63 18 84 -7 36 -45 62 -68
76 -68 9 0 31 13 49 30 19 16 45 30 57 30 12 0 38 -14 57 -30 18 -17 40 -30
49 -30 14 0 40 23 76 68 21 25 56 28 84 7 25 -19 69 -19 87 0 9 8 18 28 22 44
10 45 27 54 89 47 69 -9 96 12 96 73 0 49 26 71 86 71 55 0 68 17 61 79 -7 60
9 86 58 95 22 4 41 17 52 32 15 23 15 28 0 60 -28 57 -22 79 26 111 53 36 60
70 23 114 -35 41 -33 61 9 108 19 21 35 45 35 53 0 14 -20 39 -59 70 -27 23
-27 57 0 103 28 46 18 68 -41 97 -49 25 -47 19 -39 132 3 34 -22 56 -61 56
-47 0 -70 26 -70 79 0 69 -15 85 -83 82 -47 -1 -58 2 -71 21 -9 12 -16 32 -16
43 0 11 -7 31 -16 44 -14 19 -22 22 -53 16 -92 -16 -104 -13 -129 32 -31 57
-60 64 -112 28 -45 -31 -67 -28 -103 14 -39 47 -59 47 -112 1z m231 -140 c220
-56 394 -196 494 -394 52 -105 70 -177 77 -306 25 -500 -449 -889 -933 -765
-143 37 -307 140 -395 249 -183 226 -225 534 -108 794 95 212 299 378 524 427
94 21 248 18 341 -5z"/>
<path d="M1214 1954 c3 -26 6 -64 6 -86 0 -35 2 -39 23 -36 13 2 22 10 21 21
0 9 -1 46 -2 82 -2 63 -3 65 -28 65 -26 0 -27 -1 -20 -46z"/>
<path d="M1071 1964 c-24 -7 -46 -15 -48 -18 -3 -3 35 -145 42 -153 6 -9 125
41 122 51 -5 12 -16 12 -64 2 -46 -11 -45 19 1 34 24 8 33 16 29 26 -4 10 -12
12 -27 8 -33 -11 -49 -10 -53 3 -2 7 13 17 36 24 26 8 38 16 34 25 -6 17 -14
16 -72 -2z"/>
<path d="M891 1874 c-34 -28 -40 -64 -16 -84 14 -12 48 -10 88 5 26 11 21 -19
-5 -33 -13 -6 -28 -12 -34 -14 -6 -2 -8 -11 -5 -21 6 -16 9 -16 50 5 54 28 68
58 42 89 -17 22 -21 22 -61 10 -23 -7 -44 -10 -47 -7 -8 8 16 34 38 41 10 4
19 13 19 21 0 22 -36 16 -69 -12z"/>
<path d="M757 1753 c-20 -25 -37 -49 -37 -52 0 -10 107 -101 117 -100 4 0 25
21 46 46 27 32 35 49 28 56 -8 8 -21 1 -45 -22 -40 -39 -58 -26 -26 18 25 37
9 52 -24 22 -21 -20 -46 -28 -46 -15 0 3 11 20 25 38 20 27 23 35 12 44 -10 8
-21 0 -50 -35z"/>
<path d="M1205 1778 c-83 -15 -184 -70 -248 -135 -195 -195 -194 -499 2 -693
108 -107 212 -145 377 -138 84 3 100 7 177 46 172 85 276 251 277 442 0 230
-182 442 -411 480 -74 12 -105 11 -174 -2z m216 -118 c117 -36 212 -132 245
-248 24 -80 15 -190 -19 -263 -32 -67 -118 -152 -182 -180 -59 -26 -152 -41
-190 -30 l-30 8 30 8 c155 37 248 88 291 161 42 71 29 137 -38 200 -45 44
-113 75 -249 118 -160 49 -178 76 -68 96 30 6 95 13 144 18 l90 7 -100 3
c-114 3 -229 -12 -263 -34 -45 -29 -26 -54 83 -111 115 -60 175 -116 175 -162
0 -54 -57 -79 -265 -116 -94 -16 -96 -15 -122 75 -46 157 34 347 179 421 102
53 187 61 289 29z"/>
<path d="M666 1623 c-10 -26 -7 -31 29 -44 41 -15 37 -22 -27 -39 -30 -8 -48
-19 -51 -30 -5 -18 3 -22 139 -77 6 -2 14 5 17 17 5 18 -1 25 -31 37 -41 17
-44 14 41 47 20 8 37 21 37 29 0 7 -33 27 -74 44 -62 26 -76 29 -80 16z"/>
<path d="M596 1398 c-3 -13 -6 -40 -6 -60 0 -42 1 -42 101 -52 l56 -6 7 61 c8
66 5 75 -19 66 -9 -4 -15 -19 -15 -42 0 -24 -4 -35 -15 -35 -11 0 -15 11 -15
40 0 50 -27 57 -32 8 -2 -20 -9 -34 -18 -36 -12 -2 -15 6 -12 38 3 30 1 40
-11 40 -8 0 -17 -10 -21 -22z"/>
<path d="M648 1228 c-63 -11 -59 -4 -43 -83 8 -37 38 -33 33 4 -4 26 -1 30 25
35 58 12 70 8 64 -20 -3 -17 0 -28 10 -31 17 -7 33 13 33 40 0 18 -43 68 -57
66 -4 -1 -34 -6 -65 -11z"/>
</g>
</svg>
