<svg width="260" height="260" viewBox="0 0 260 260" fill="none" xmlns="http://www.w3.org/2000/svg">
<g filter="url(#filter0_d_2016_3004)">
<path d="M125.701 32.0534C127.916 29.3155 132.084 29.3155 134.299 32.0534L137.967 36.5887C139.833 38.8961 143.183 39.3201 145.563 37.5502L150.242 34.0713C153.066 31.9711 157.104 33.0098 158.569 36.2134L160.997 41.5202C162.231 44.22 165.371 45.4653 168.116 44.344L173.511 42.1402C176.768 40.8097 180.421 42.8218 181.045 46.2898L182.079 52.0346C182.604 54.9573 185.336 56.9456 188.273 56.5435L194.046 55.7531C197.531 55.2759 200.57 58.135 200.313 61.6495L199.888 67.4713C199.672 70.4332 201.824 73.0396 204.769 73.3819L210.556 74.0547C214.05 74.4608 216.284 77.9872 215.163 81.3274L213.307 86.8605C212.362 89.6755 213.8 92.7362 216.567 93.8014L222.005 95.895C225.289 97.1589 226.577 101.131 224.662 104.087L221.491 108.984C219.877 111.475 220.509 114.798 222.925 116.519L227.673 119.902C230.54 121.944 230.802 126.112 228.213 128.498L223.926 132.451C221.744 134.462 221.532 137.838 223.445 140.107L227.204 144.566C229.474 147.259 228.693 151.361 225.593 153.028L220.459 155.788C217.847 157.192 216.804 160.409 218.093 163.083L220.627 168.339C222.157 171.513 220.382 175.292 216.967 176.133L211.309 177.528C208.43 178.237 206.621 181.093 207.206 184.004L208.356 189.727C209.05 193.182 206.393 196.4 202.876 196.364L197.05 196.305C194.085 196.274 191.624 198.59 191.468 201.556L191.161 207.385C190.976 210.904 187.603 213.359 184.206 212.448L178.577 210.939C175.714 210.171 172.755 211.801 171.868 214.634L170.124 220.204C169.071 223.566 165.195 225.104 162.13 223.375L157.053 220.511C154.47 219.054 151.199 219.895 149.637 222.419L146.565 227.379C144.71 230.373 140.574 230.897 138.035 228.458L133.828 224.419C131.688 222.365 128.312 222.365 126.172 224.419L121.965 228.458C119.426 230.897 115.29 230.373 113.435 227.379L110.363 222.419C108.801 219.895 105.53 219.054 102.947 220.511L97.8703 223.375C94.8054 225.104 90.9293 223.566 89.8764 220.204L88.1323 214.634C87.245 211.801 84.2862 210.171 81.4227 210.939L75.7943 212.448C72.3965 213.359 69.0238 210.904 68.8387 207.385L68.5319 201.556C68.3758 198.59 65.9146 196.274 62.9504 196.305L57.1243 196.364C53.6071 196.4 50.9498 193.181 51.6439 189.727L52.7938 184.004C53.3788 181.093 51.5696 178.237 48.6911 177.528L43.0333 176.133C39.6177 175.292 37.8427 171.513 39.3726 168.339L41.9068 163.083C43.1961 160.409 42.1527 157.192 39.5407 155.788L34.4067 153.028C31.3074 151.361 30.5262 147.259 32.7957 144.566L36.555 140.107C38.4676 137.838 38.2556 134.462 36.0743 132.451L31.7867 128.498C29.1983 126.112 29.4601 121.944 32.3265 119.902L37.0748 116.519C39.4905 114.798 40.1232 111.475 38.5095 108.984L35.3377 104.087C33.4229 101.131 34.7112 97.1589 37.9945 95.895L43.4333 93.8014C46.2004 92.7362 47.638 89.6755 46.6934 86.8605L44.8367 81.3274C43.7159 77.9872 45.9496 74.4608 49.4436 74.0547L55.2312 73.3819C58.1757 73.0396 60.3279 70.4333 60.1117 67.4713L59.6868 61.6495C59.4303 58.135 62.4693 55.2759 65.9543 55.7531L71.7271 56.5435C74.6641 56.9456 77.3956 54.9573 77.9214 52.0346L78.955 46.2898C79.579 42.8218 83.2322 40.8097 86.4892 42.1402L91.8844 44.344C94.6293 45.4653 97.7686 44.22 99.0034 41.5202L101.431 36.2134C102.896 33.0098 106.934 31.9711 109.758 34.0713L114.437 37.5502C116.817 39.3201 120.167 38.8961 122.033 36.5887L125.701 32.0534Z" fill="white"/>
<path fill-rule="evenodd" clip-rule="evenodd" d="M133.466 32.7295C131.681 30.5221 128.319 30.5221 126.534 32.7295L122.866 37.2648C120.638 40.0193 116.639 40.5254 113.798 38.4125L109.119 34.9337C106.842 33.2404 103.586 34.0778 102.405 36.6608L99.9779 41.9675C98.5039 45.1905 94.7564 46.677 91.4797 45.3385L86.0845 43.1346C83.4585 42.0619 80.513 43.6842 80.01 46.4803L78.9764 52.2251C78.3487 55.7141 75.0879 58.0876 71.5819 57.6075L65.8091 56.8171C62.9993 56.4324 60.5491 58.7376 60.7559 61.5712L61.1808 67.393C61.4389 70.9288 58.8697 74.0401 55.3547 74.4487L49.5671 75.1214C46.7501 75.4489 44.9491 78.2921 45.8528 80.9852L47.7094 86.5182C48.8371 89.8786 47.121 93.5323 43.8178 94.8039L38.379 96.8975C35.7317 97.9165 34.6931 101.119 36.2369 103.502L39.4087 108.399C41.335 111.373 40.5798 115.339 37.696 117.394L37.0748 116.519C39.4905 114.798 40.1232 111.475 38.5095 108.984L35.3377 104.087C33.4229 101.131 34.7112 97.1589 37.9945 95.895L43.4333 93.8014C46.2004 92.7362 47.638 89.6755 46.6934 86.8605L44.8367 81.3274C43.7159 77.9872 45.9496 74.4608 49.4436 74.0547L55.2312 73.3819C58.1757 73.0396 60.3279 70.4333 60.1117 67.4713L59.6868 61.6495C59.4303 58.135 62.4693 55.2759 65.9543 55.7531L71.7271 56.5435C74.6641 56.9456 77.3956 54.9573 77.9214 52.0346L78.955 46.2898C79.579 42.8218 83.2322 40.8097 86.4892 42.1402L91.8844 44.344C94.6293 45.4653 97.7686 44.22 99.0034 41.5202L101.431 36.2134C102.896 33.0098 106.934 31.9711 109.758 34.0713L114.437 37.5502C116.817 39.3201 120.167 38.8961 122.033 36.5887L125.701 32.0534C127.916 29.3155 132.084 29.3155 134.299 32.0534L137.967 36.5887C139.833 38.8961 143.183 39.3201 145.563 37.5502L150.242 34.0713C153.066 31.9711 157.104 33.0098 158.569 36.2134L160.997 41.5202C162.231 44.22 165.371 45.4653 168.116 44.344L173.511 42.1402C176.768 40.8097 180.421 42.8218 181.045 46.2898L182.079 52.0346C182.604 54.9573 185.336 56.9456 188.273 56.5435L194.046 55.7531C197.531 55.2759 200.57 58.135 200.313 61.6495L199.888 67.4713C199.672 70.4332 201.824 73.0396 204.769 73.3819L210.556 74.0547C214.05 74.4608 216.284 77.9872 215.163 81.3274L213.307 86.8605C212.362 89.6755 213.8 92.7362 216.567 93.8014L222.005 95.895C225.289 97.1589 226.577 101.131 224.662 104.087L221.491 108.984C219.877 111.475 220.509 114.798 222.925 116.519L227.673 119.902C230.54 121.944 230.802 126.112 228.213 128.498L223.926 132.451C221.744 134.462 221.532 137.838 223.445 140.107L227.204 144.566C229.474 147.259 228.693 151.361 225.593 153.028L220.459 155.788C217.847 157.192 216.804 160.409 218.093 163.083L220.627 168.339C222.157 171.513 220.382 175.292 216.967 176.133L211.309 177.528C208.43 178.237 206.621 181.093 207.206 184.004L208.356 189.727C209.05 193.182 206.393 196.4 202.876 196.364L197.05 196.305C194.085 196.274 191.624 198.59 191.468 201.556L191.161 207.385C190.976 210.904 187.603 213.359 184.206 212.448L178.577 210.939C175.714 210.171 172.755 211.801 171.868 214.634L170.124 220.204C169.071 223.566 165.195 225.104 162.13 223.375L157.053 220.511C154.47 219.054 151.199 219.895 149.637 222.419L146.565 227.379C144.71 230.373 140.574 230.897 138.035 228.458L133.828 224.419C131.688 222.365 128.312 222.365 126.172 224.419L121.965 228.458C119.426 230.897 115.29 230.373 113.435 227.379L110.363 222.419C108.801 219.895 105.53 219.054 102.947 220.511L97.8703 223.375C94.8054 225.104 90.9293 223.566 89.8764 220.204L88.1323 214.634C87.245 211.801 84.2862 210.171 81.4227 210.939L75.7943 212.448C72.3965 213.359 69.0238 210.904 68.8387 207.385L68.5319 201.556C68.3758 198.59 65.9146 196.274 62.9504 196.305L57.1243 196.364C53.6071 196.4 50.9498 193.181 51.6439 189.727L52.7938 184.004C53.3788 181.093 51.5696 178.237 48.6911 177.528L43.0333 176.133C39.6177 175.292 37.8427 171.513 39.3726 168.339L41.9068 163.083C43.1961 160.409 42.1527 157.192 39.5407 155.788L34.4067 153.028C31.3074 151.361 30.5262 147.259 32.7957 144.566L36.555 140.107C38.4676 137.838 38.2556 134.462 36.0743 132.451L31.7867 128.498C29.1983 126.112 29.4601 121.944 32.3265 119.902L37.0748 116.519L37.696 117.394L32.9477 120.777C30.6366 122.424 30.4256 125.784 32.5125 127.708L36.8001 131.661C39.4041 134.061 39.6572 138.091 37.374 140.8L33.6147 145.259C31.7849 147.43 32.4147 150.738 34.9136 152.081L40.0476 154.841C43.1656 156.518 44.4111 160.358 42.872 163.55L40.3378 168.807C39.1043 171.365 40.5355 174.412 43.2893 175.09L48.9471 176.485C52.3833 177.331 54.543 180.741 53.8446 184.216L52.6948 189.939C52.1351 192.724 54.2776 195.319 57.1134 195.29L62.9395 195.231C66.4779 195.195 69.416 197.959 69.6024 201.499L69.9091 207.328C70.0584 210.166 72.7777 212.145 75.5172 211.41L81.1456 209.901C84.5639 208.985 88.0958 210.93 89.1551 214.313L90.8992 219.883C91.7481 222.594 94.8732 223.833 97.3444 222.439L102.421 219.575C105.505 217.836 109.409 218.84 111.274 221.853L114.346 226.813C115.841 229.227 119.176 229.649 121.223 227.683L125.43 223.644C127.985 221.191 132.015 221.191 134.57 223.644L138.777 227.683C140.824 229.649 144.159 229.227 145.654 226.813L148.726 221.853C150.591 218.84 154.495 217.836 157.579 219.575L162.656 222.439C165.127 223.833 168.252 222.594 169.101 219.883L170.845 214.313C171.904 210.93 175.436 208.985 178.854 209.901L184.483 211.41C187.222 212.145 189.942 210.166 190.091 207.328L190.398 201.499C190.584 197.959 193.522 195.195 197.06 195.231L202.887 195.29C205.722 195.319 207.865 192.724 207.305 189.939L206.155 184.216C205.457 180.741 207.617 177.331 211.053 176.485L216.711 175.09C219.465 174.412 220.896 171.365 219.662 168.807L217.128 163.55C215.589 160.358 216.834 156.518 219.952 154.841L225.086 152.081C227.585 150.738 228.215 147.43 226.385 145.259L222.626 140.8C220.343 138.091 220.596 134.061 223.2 131.661L227.488 127.708C229.574 125.784 229.363 122.424 227.052 120.777L222.304 117.394C219.42 115.339 218.665 111.373 220.591 108.399L223.763 103.502C225.307 101.119 224.268 97.9165 221.621 96.8975L216.182 94.8039C212.879 93.5323 211.163 89.8786 212.291 86.5182L214.147 80.9852C215.051 78.2921 213.25 75.4489 210.433 75.1214L204.645 74.4487C201.13 74.0401 198.561 70.9288 198.819 67.393L199.244 61.5712C199.451 58.7376 197.001 56.4324 194.191 56.8171L188.418 57.6075C184.912 58.0875 181.651 55.7141 181.024 52.2251L179.99 46.4803C179.487 43.6842 176.542 42.0619 173.916 43.1346L168.52 45.3385C165.244 46.677 161.496 45.1905 160.022 41.9675L157.595 36.6608C156.414 34.0778 153.158 33.2404 150.881 34.9337L146.202 38.4125C143.361 40.5254 139.362 40.0193 137.134 37.2648L133.466 32.7295Z" fill="black"/>
<path d="M125.701 41.3717C127.915 38.6338 132.084 38.6338 134.299 41.3717L136.95 44.6502C138.816 46.9576 142.166 47.3816 144.547 45.6116L147.929 43.0968C150.753 40.9967 154.791 42.0353 156.256 45.239L158.011 49.0751C159.245 51.775 162.385 53.0202 165.13 51.899L169.03 50.3058C172.287 48.9754 175.94 50.9875 176.564 54.4555L177.311 58.6083C177.837 61.531 180.568 63.5193 183.505 63.1172L187.678 62.5458C191.163 62.0686 194.202 64.9277 193.946 68.4423L193.639 72.6507C193.423 75.6127 195.575 78.2191 198.519 78.5613L202.703 79.0476C206.197 79.4538 208.431 82.9802 207.31 86.3204L205.968 90.3201C205.023 93.1351 206.461 96.1959 209.228 97.261L213.159 98.7745C216.443 100.038 217.731 104.011 215.816 106.967L213.523 110.506C211.91 112.997 212.542 116.32 214.958 118.041L218.391 120.487C221.257 122.529 221.519 126.697 218.93 129.084L215.831 131.941C213.65 133.952 213.438 137.328 215.35 139.597L218.068 142.82C220.337 145.513 219.556 149.615 216.457 151.281L212.745 153.277C210.133 154.681 209.09 157.898 210.379 160.572L212.211 164.372C213.741 167.545 211.966 171.324 208.551 172.166L204.461 173.174C201.582 173.883 199.773 176.739 200.358 179.65L201.189 183.787C201.883 187.242 199.226 190.46 195.709 190.424L191.497 190.381C188.533 190.351 186.072 192.667 185.916 195.632L185.694 199.846C185.509 203.365 182.136 205.82 178.738 204.909L174.67 203.818C171.806 203.051 168.848 204.68 167.96 207.514L166.699 211.54C165.647 214.902 161.77 216.44 158.706 214.711L155.035 212.641C152.452 211.184 149.182 212.025 147.619 214.548L145.399 218.134C143.544 221.128 139.408 221.652 136.869 219.213L133.828 216.294C131.688 214.239 128.312 214.239 126.171 216.294L123.131 219.213C120.591 221.652 116.455 221.128 114.601 218.134L112.38 214.548C110.817 212.025 107.547 211.184 104.964 212.641L101.294 214.711C98.229 216.44 94.353 214.902 93.3001 211.54L92.0393 207.514C91.152 204.68 88.1932 203.051 85.3297 203.818L81.2611 204.909C77.8633 205.82 74.4906 203.365 74.3054 199.846L74.0837 195.632C73.9276 192.667 71.4663 190.351 68.5022 190.381L64.2906 190.424C60.7734 190.46 58.1161 187.242 58.8102 183.787L59.6414 179.65C60.2264 176.739 58.4173 173.883 55.5388 173.174L51.4488 172.166C48.0333 171.324 46.2583 167.545 47.7881 164.372L49.6201 160.572C50.9094 157.898 49.866 154.681 47.254 153.277L43.5428 151.281C40.4434 149.615 39.6623 145.513 41.9317 142.82L44.6493 139.597C46.5619 137.328 46.3499 133.952 44.1685 131.941L41.0691 129.084C38.4807 126.697 38.7425 122.529 41.6089 120.487L45.0413 118.041C47.4571 116.32 48.0897 112.997 46.4761 110.506L44.1832 106.967C42.2685 104.011 43.5567 100.038 46.8401 98.7745L50.7717 97.261C53.5387 96.1959 54.9763 93.1351 54.0317 90.3201L52.6896 86.3204C51.5687 82.9802 53.8025 79.4538 57.2964 79.0476L61.4802 78.5613C64.4247 78.2191 66.5769 75.6127 66.3607 72.6507L66.0536 68.4423C65.7971 64.9277 68.836 62.0686 72.321 62.5458L76.494 63.1172C79.431 63.5193 82.1626 61.531 82.6884 58.6083L83.4356 54.4555C84.0595 50.9875 87.7127 48.9754 90.9697 50.3058L94.8698 51.899C97.6148 53.0202 100.754 51.775 101.989 49.0751L103.743 45.239C105.209 42.0354 109.246 40.9967 112.071 43.0968L115.453 45.6116C117.833 47.3816 121.183 46.9576 123.049 44.6502L125.701 41.3717Z" fill="#395295"/>
<path fill-rule="evenodd" clip-rule="evenodd" d="M133.553 41.9768C131.723 39.7136 128.277 39.7136 126.446 41.9768L123.795 45.2553C121.605 47.9627 117.674 48.4602 114.881 46.3834L111.499 43.8686C109.164 42.1325 105.827 42.9911 104.615 45.6393L102.861 49.4755C101.412 52.6434 97.7285 54.1046 94.5077 52.7889L90.6076 51.1958C87.9152 50.096 84.8954 51.7592 84.3796 54.626L83.6325 58.7788C83.0155 62.2082 79.8103 64.5412 76.3641 64.0694L72.1911 63.498C69.3104 63.1036 66.7983 65.467 67.0103 68.3722L67.3175 72.5806C67.5711 76.0561 65.0458 79.1144 61.5907 79.516L57.407 80.0023C54.5188 80.338 52.6723 83.2531 53.5988 86.0142L54.941 90.0139C56.0494 93.3169 54.3625 96.9083 51.1157 98.1582L47.1841 99.6716C44.47 100.716 43.4051 104 44.9879 106.443L47.2807 109.983C49.1742 112.906 48.4318 116.805 45.5973 118.825L42.1649 121.27C39.7954 122.958 39.579 126.404 41.7186 128.376L44.818 131.233C47.3776 133.593 47.6264 137.554 45.3821 140.217L42.6646 143.44C40.7886 145.666 41.4343 149.057 43.9963 150.435L47.7076 152.43C50.7725 154.077 51.9967 157.852 50.4839 160.99L48.6519 164.79C47.3873 167.413 48.8546 170.537 51.678 171.232L55.7679 172.24C59.1455 173.073 61.2683 176.424 60.5818 179.84L59.7506 183.977C59.1768 186.832 61.3734 189.493 64.2808 189.463L68.4924 189.42C71.9705 189.385 74.8585 192.102 75.0416 195.582L75.2634 199.796C75.4164 202.704 78.2044 204.734 81.0131 203.981L85.0817 202.89C88.4417 201.989 91.9134 203.901 92.9546 207.226L94.2154 211.252C95.0857 214.032 98.2898 215.303 100.823 213.873L104.493 211.803C107.524 210.093 111.361 211.081 113.195 214.042L115.416 217.627C116.949 220.102 120.368 220.535 122.467 218.52L125.508 215.6C128.019 213.189 131.981 213.189 134.492 215.6L137.533 218.52C139.632 220.535 143.051 220.102 144.584 217.627L146.804 214.042C148.638 211.081 152.475 210.093 155.506 211.803L159.176 213.873C161.71 215.303 164.914 214.032 165.784 211.252L167.045 207.226C168.086 203.901 171.558 201.989 174.918 202.89L178.986 203.981C181.795 204.734 184.583 202.704 184.736 199.796L184.958 195.582C185.141 192.102 188.029 189.385 191.507 189.42L195.719 189.463C198.626 189.493 200.823 186.832 200.249 183.977L199.418 179.84C198.731 176.424 200.854 173.073 204.232 172.24L208.322 171.232C211.145 170.537 212.612 167.413 211.348 164.79L209.516 160.99C208.003 157.852 209.227 154.077 212.292 152.43L216.003 150.435C218.565 149.057 219.211 145.666 217.335 143.44L214.617 140.217C212.373 137.554 212.622 133.593 215.181 131.233L218.281 128.376C220.42 126.404 220.204 122.958 217.835 121.27L214.402 118.825C211.568 116.805 210.825 112.906 212.719 109.983L215.012 106.443C216.594 104 215.529 100.716 212.815 99.6716L208.884 98.1582C205.637 96.9083 203.95 93.3169 205.059 90.0139L206.401 86.0142C207.327 83.2531 205.481 80.338 202.593 80.0023L198.409 79.516C194.954 79.1144 192.428 76.0561 192.682 72.5806L192.989 68.3722C193.201 65.467 190.689 63.1036 187.808 63.498L183.635 64.0694C180.189 64.5412 176.984 62.2082 176.367 58.7788L175.62 54.626C175.104 51.7592 172.084 50.096 169.392 51.1958L165.492 52.7889C162.271 54.1046 158.587 52.6434 157.139 49.4755L155.384 45.6393C154.173 42.9911 150.835 42.1325 148.5 43.8686L145.118 46.3834C142.325 48.4602 138.395 47.9627 136.205 45.2553L133.553 41.9768ZM125.701 41.3717C127.915 38.6338 132.084 38.6338 134.299 41.3717L136.95 44.6502C138.816 46.9576 142.166 47.3816 144.547 45.6116L147.929 43.0968C150.753 40.9967 154.791 42.0353 156.256 45.239L158.011 49.0751C159.245 51.775 162.385 53.0202 165.13 51.899L169.03 50.3058C172.287 48.9754 175.94 50.9875 176.564 54.4555L177.311 58.6083C177.837 61.531 180.568 63.5193 183.505 63.1172L187.678 62.5458C191.163 62.0686 194.202 64.9277 193.946 68.4423L193.639 72.6507C193.423 75.6127 195.575 78.2191 198.519 78.5613L202.703 79.0476C206.197 79.4538 208.431 82.9802 207.31 86.3204L205.968 90.3201C205.023 93.1351 206.461 96.1959 209.228 97.261L213.159 98.7745C216.443 100.038 217.731 104.011 215.816 106.967L213.523 110.506C211.91 112.997 212.542 116.32 214.958 118.041L218.391 120.487C221.257 122.529 221.519 126.697 218.93 129.084L215.831 131.941C213.65 133.952 213.438 137.328 215.35 139.597L218.068 142.82C220.337 145.513 219.556 149.615 216.457 151.281L212.745 153.277C210.133 154.681 209.09 157.898 210.379 160.572L212.211 164.372C213.741 167.545 211.966 171.324 208.551 172.166L204.461 173.174C201.582 173.883 199.773 176.739 200.358 179.65L201.189 183.787C201.883 187.242 199.226 190.46 195.709 190.424L191.497 190.381C188.533 190.351 186.072 192.667 185.916 195.632L185.694 199.846C185.509 203.365 182.136 205.82 178.738 204.909L174.67 203.818C171.806 203.051 168.848 204.68 167.96 207.514L166.699 211.54C165.647 214.902 161.77 216.44 158.706 214.711L155.035 212.641C152.452 211.184 149.182 212.025 147.619 214.548L145.399 218.134C143.544 221.128 139.408 221.652 136.869 219.213L133.828 216.294C131.688 214.239 128.312 214.239 126.171 216.294L123.131 219.213C120.591 221.652 116.455 221.128 114.601 218.134L112.38 214.548C110.817 212.025 107.547 211.184 104.964 212.641L101.294 214.711C98.229 216.44 94.353 214.902 93.3001 211.54L92.0393 207.514C91.152 204.68 88.1932 203.051 85.3297 203.818L81.2611 204.909C77.8633 205.82 74.4906 203.365 74.3054 199.846L74.0837 195.632C73.9276 192.667 71.4663 190.351 68.5022 190.381L64.2906 190.424C60.7734 190.46 58.1161 187.242 58.8102 183.787L59.6414 179.65C60.2264 176.739 58.4173 173.883 55.5388 173.174L51.4488 172.166C48.0333 171.324 46.2583 167.545 47.7881 164.372L49.6201 160.572C50.9094 157.898 49.866 154.681 47.254 153.277L43.5428 151.281C40.4434 149.615 39.6623 145.513 41.9317 142.82L44.6493 139.597C46.5619 137.328 46.3499 133.952 44.1685 131.941L41.0691 129.084C38.4807 126.697 38.7425 122.529 41.6089 120.487L45.0413 118.041C47.4571 116.32 48.0897 112.997 46.4761 110.506L44.1832 106.967C42.2685 104.011 43.5567 100.038 46.8401 98.7745L50.7717 97.261C53.5387 96.1959 54.9763 93.1351 54.0317 90.3201L52.6896 86.3204C51.5687 82.9802 53.8025 79.4538 57.2964 79.0476L61.4802 78.5613C64.4247 78.2191 66.5769 75.6127 66.3607 72.6507L66.0536 68.4423C65.7971 64.9277 68.836 62.0686 72.321 62.5458L76.494 63.1172C79.431 63.5193 82.1626 61.531 82.6884 58.6083L83.4356 54.4555C84.0595 50.9875 87.7127 48.9754 90.9697 50.3058L94.8698 51.899C97.6148 53.0202 100.754 51.775 101.989 49.0751L103.743 45.239C105.209 42.0354 109.246 40.9967 112.071 43.0968L115.453 45.6116C117.833 47.3816 121.183 46.9576 123.049 44.6502L125.701 41.3717Z" fill="black"/>
<path d="M129.735 206.871C87.4856 206.871 53.2358 172.557 53.2358 130.229C53.2358 87.9007 87.4856 53.5869 129.735 53.5869C171.984 53.5869 206.234 87.9007 206.234 130.229C206.234 172.557 171.984 206.871 129.735 206.871Z" fill="#FBBC04"/>
<path fill-rule="evenodd" clip-rule="evenodd" d="M54.1951 130.229C54.1951 172.026 88.0154 205.91 129.735 205.91C171.454 205.91 205.275 172.026 205.275 130.229C205.275 88.4314 171.454 54.5479 129.735 54.5479C88.0154 54.5479 54.1951 88.4314 54.1951 130.229ZM53.2358 130.229C53.2358 172.557 87.4856 206.871 129.735 206.871C171.984 206.871 206.234 172.557 206.234 130.229C206.234 87.9007 171.984 53.5869 129.735 53.5869C87.4856 53.5869 53.2358 87.9007 53.2358 130.229Z" fill="black"/>
<path d="M76.7299 141.725C76.9292 142.921 76.9088 144.042 76.6687 145.089C76.4105 146.122 75.9468 147.022 75.2775 147.788L71.8808 145.77C72.3666 145.241 72.718 144.719 72.935 144.204C73.1364 143.691 73.1945 143.178 73.109 142.666C72.8812 141.299 71.9765 140.747 70.3947 141.012L63.3932 142.183L64.3329 147.822L60.774 148.417L59.0733 138.21L69.3546 136.491C71.4791 136.135 73.1579 136.406 74.391 137.301C75.6086 138.2 76.3882 139.674 76.7299 141.725Z" fill="#395295"/>
<path d="M65.247 126.346L65.9859 119.036L69.4583 119.388L68.7194 126.699L65.247 126.346ZM71.7227 127.003L72.5922 118.4L76.182 118.764L74.8468 131.975L58.4229 130.308L59.7273 117.403L63.3171 117.768L62.4784 126.065L65.247 126.346L68.7194 126.699L71.7227 127.003Z" fill="#395295"/>
<path d="M76.3307 117.111L61.1255 110.671L62.6221 107.124L73.5625 103.831L65.4594 100.4L67.2407 96.1776L82.4459 102.617L80.9492 106.164L70.0089 109.457L78.112 112.889L76.3307 117.111Z" fill="#395295"/>
<path d="M78.9627 90.6895L83.6989 85.0792L86.3638 87.3373L81.6276 92.9476L78.9627 90.6895ZM83.9324 94.9006L89.5062 88.2981L92.2611 90.6325L83.7024 100.771L71.0981 90.0905L79.4589 80.1867L82.2138 82.5211L76.838 88.8891L78.9627 90.6895L81.6276 92.9476L83.9324 94.9006Z" fill="#395295"/>
<path d="M98.6882 86.3502C97.5624 87.1004 96.3845 87.6867 95.1544 88.1091C93.9287 88.5097 92.8405 88.7051 91.8899 88.6954L91.2595 84.9726C92.136 84.9561 93.0605 84.8129 94.0332 84.5431C95.0103 84.2515 95.898 83.8396 96.6966 83.3075C97.2333 82.9499 97.6348 82.6161 97.9011 82.3062C98.1588 81.9832 98.3073 81.6951 98.3468 81.4417C98.3907 81.1666 98.3387 80.9175 98.1907 80.6945C97.9817 80.3798 97.6723 80.2265 97.2624 80.2348C96.8525 80.2431 96.3793 80.3409 95.8427 80.5282C95.3062 80.7155 94.7173 80.9376 94.076 81.1947C93.4479 81.443 92.7914 81.6629 92.1066 81.8544C91.4349 82.0371 90.7742 82.1369 90.1245 82.1537C89.466 82.1573 88.8361 82.019 88.2347 81.7388C87.6245 81.4455 87.0756 80.9316 86.5881 80.1971C86.0395 79.3709 85.7658 78.475 85.7668 77.5095C85.781 76.5354 86.1047 75.544 86.738 74.5356C87.3714 73.5271 88.3622 72.5737 89.7106 71.6752C90.6138 71.0733 91.5671 70.5894 92.5704 70.2235C93.5781 69.8358 94.5529 69.6119 95.4948 69.5517L96.2169 73.2418C95.3272 73.3238 94.5051 73.4933 93.7505 73.7503C92.9871 73.9941 92.3044 74.3166 91.7022 74.7179C91.1655 75.0755 90.7727 75.4224 90.5238 75.7585C90.2662 76.0815 90.1263 76.3828 90.1042 76.6623C90.0821 76.9419 90.1494 77.1997 90.3061 77.4358C90.5064 77.7375 90.8049 77.8885 91.2017 77.8889C91.6029 77.8675 92.0718 77.7632 92.6083 77.5759C93.1492 77.3668 93.7338 77.1381 94.3619 76.8897C95.0032 76.6327 95.6597 76.4128 96.3314 76.23C97.0075 76.0254 97.6747 75.9213 98.3332 75.9176C98.9829 75.9009 99.6063 76.0435 100.203 76.3456C100.805 76.6258 101.345 77.1266 101.824 77.848C102.355 78.648 102.618 79.5416 102.612 80.5289C102.611 81.4944 102.294 82.4813 101.661 83.4898C101.04 84.4895 100.05 85.443 98.6882 86.3502Z" fill="#395295"/>
<path d="M107.833 69.9931L114.822 67.7648L115.881 71.0969L108.892 73.3252L107.833 69.9931ZM109.807 76.207L118.032 73.5846L119.126 77.0293L106.497 81.056L101.491 65.2961L113.828 61.3626L114.922 64.8072L106.989 67.3365L107.833 69.9931L108.892 73.3252L109.807 76.207Z" fill="#395295"/>
<path d="M122.123 76.7926L121.102 60.2855L125.763 59.9963L126.784 76.5034L122.123 76.7926Z" fill="#395295"/>
<path d="M144.811 79.0773C143.525 78.6565 142.336 78.0932 141.243 77.3873C140.17 76.6714 139.343 75.9366 138.762 75.1829L141.289 72.3811C141.844 73.0602 142.529 73.6987 143.343 74.2967C144.177 74.8845 145.05 75.3276 145.961 75.6261C146.574 75.8267 147.084 75.9358 147.492 75.9533C147.905 75.9558 148.222 75.8942 148.445 75.7684C148.688 75.6324 148.851 75.4372 148.934 75.1827C149.051 74.8234 148.98 74.4851 148.719 74.1678C148.459 73.8506 148.089 73.539 147.61 73.233C147.131 72.927 146.592 72.6014 145.994 72.2562C145.41 71.916 144.831 71.5359 144.257 71.1159C143.697 70.7008 143.21 70.2429 142.794 69.7422C142.384 69.2266 142.102 68.6455 141.949 67.9989C141.801 67.3373 141.864 66.5873 142.137 65.7488C142.445 64.8056 142.977 64.0354 143.734 63.4382C144.506 62.8459 145.484 62.4865 146.666 62.3599C147.849 62.2334 149.21 62.4221 150.749 62.9261C151.78 63.2637 152.75 63.7138 153.658 64.2763C154.586 64.8287 155.365 65.4567 155.996 66.1603L153.551 69.0139C152.936 68.365 152.294 67.8233 151.625 67.3889C150.961 66.9396 150.286 66.6024 149.598 66.3773C148.986 66.1767 148.471 66.0826 148.053 66.095C147.64 66.0925 147.318 66.1691 147.085 66.3249C146.852 66.4807 146.692 66.6933 146.604 66.9628C146.491 67.3071 146.558 67.6355 146.803 67.9479C147.069 68.2501 147.441 68.5543 147.92 68.8603C148.419 69.1562 148.96 69.4743 149.544 69.8145C150.143 70.1597 150.722 70.5398 151.281 70.9549C151.86 71.3599 152.355 71.8203 152.766 72.3359C153.181 72.8365 153.455 73.4152 153.589 74.0719C153.742 74.7185 153.684 75.4536 153.415 76.277C153.117 77.1903 152.58 77.9506 151.803 78.5579C151.046 79.1551 150.076 79.5169 148.893 79.6434C147.726 79.7749 146.365 79.5861 144.811 79.0773Z" fill="white"/>
<path d="M160.091 86.545C159.012 85.7822 158.139 84.9046 157.471 83.9124C156.804 82.9201 156.352 81.8681 156.115 80.7561C155.901 79.6404 155.906 78.5262 156.132 77.4134C156.358 76.3007 156.828 75.236 157.545 74.2192C158.261 73.2025 159.104 72.4011 160.075 71.8151C161.046 71.229 162.087 70.8568 163.199 70.6984C164.333 70.5362 165.479 70.6037 166.635 70.901C167.792 71.1983 168.91 71.7283 169.989 72.4911C171.081 73.263 171.954 74.1406 172.609 75.1237C173.276 76.116 173.717 77.17 173.932 78.2857C174.156 79.3885 174.155 80.4963 173.929 81.6091C173.716 82.7309 173.252 83.8002 172.536 84.8169C171.82 85.8336 170.965 86.6369 169.972 87.2267C169.002 87.8128 167.96 88.185 166.848 88.3434C165.736 88.5018 164.602 88.4324 163.445 88.1351C162.301 87.8469 161.183 87.3169 160.091 86.545ZM162.321 83.379C162.835 83.7423 163.373 83.9882 163.937 84.1167C164.514 84.2544 165.08 84.2694 165.637 84.1619C166.216 84.0505 166.763 83.8203 167.278 83.4712C167.806 83.1313 168.274 82.6717 168.682 82.0926C169.099 81.5005 169.374 80.9048 169.508 80.3052C169.663 79.7019 169.692 79.1149 169.594 78.5442C169.517 77.9697 169.318 77.4334 168.995 76.9354C168.685 76.4465 168.273 76.0204 167.759 75.6571C167.245 75.2939 166.7 75.0434 166.124 74.9058C165.56 74.7772 164.989 74.7686 164.41 74.88C163.853 74.9875 163.311 75.2113 162.783 75.5513C162.277 75.8875 161.815 76.3516 161.398 76.9436C160.99 77.5227 160.709 78.1139 160.553 78.7173C160.41 79.3297 160.377 79.9231 160.454 80.4976C160.552 81.0683 160.756 81.5982 161.066 82.0871C161.389 82.5851 161.807 83.0158 162.321 83.379Z" fill="white"/>
<path d="M178.628 90.8251L182.999 96.6667L180.112 98.8349L175.741 92.9933L178.628 90.8251ZM171.213 96.3944L168.412 92.6512L181.621 82.7313L189.386 93.1101L186.499 95.2783L181.534 88.6427L178.628 90.8251L175.741 92.9933L171.213 96.3944Z" fill="white"/>
<path d="M178.615 108.307L190.608 103.81L188.83 99.0523L192.297 97.7518L197.481 111.626L194.014 112.926L192.245 108.191L180.252 112.689L178.615 108.307Z" fill="white"/>
<path d="M183.212 122.14L199.674 116.636L199.715 121.456L189.208 124.873L199.773 128.283L199.81 132.583L189.203 136.015L199.868 139.388L199.906 143.853L183.353 138.631L183.31 133.622L193.336 130.368L183.255 127.149L183.212 122.14Z" fill="white"/>
<path d="M183.154 141.491L195.665 154.519L193.921 158.782L175.873 159.286L177.716 154.783L181.172 154.808L184.882 154.836L190.569 154.878L186.488 150.908L183.827 148.319L181.347 145.907L183.154 141.491ZM183.827 148.319L186.488 150.908L184.882 154.836L181.172 154.808L183.827 148.319Z" fill="white"/>
<path d="M175.386 159.749L187.951 170.476L183.057 176.23C182.078 177.381 181.051 178.212 179.977 178.723C178.892 179.245 177.803 179.433 176.709 179.286C175.628 179.149 174.608 178.672 173.651 177.855C172.705 177.048 172.079 176.12 171.773 175.072C171.497 174.101 171.501 173.079 171.783 172.005C171.802 171.931 172.066 171.553 172.088 171.478C172.692 170.435 172.259 171.183 172.878 170.109L174.043 168.104L175.696 166.16L172.357 163.31L175.386 159.749ZM168.763 167.536L174.043 168.104L171.783 172.005L165.521 171.349L168.763 167.536ZM178.443 168.505L176.76 170.483C176.128 171.226 175.82 171.916 175.838 172.551C175.845 173.199 176.135 173.768 176.71 174.258C177.296 174.758 177.909 174.961 178.548 174.865C179.177 174.781 179.808 174.367 180.44 173.624L182.122 171.646L178.443 168.505Z" fill="white"/>
<path d="M166.095 183.242L159.897 187.172L158.031 184.217L164.228 180.287L165.161 181.765L166.095 183.242ZM162.614 177.732L155.32 182.357L153.391 179.302L164.589 172.201L173.418 186.176L162.478 193.113L160.549 190.058L167.583 185.598L166.095 183.242L165.161 181.765L164.228 180.287L162.614 177.732Z" fill="white"/>
<path d="M178.834 130.374C178.834 157.395 156.97 179.299 130 179.299C103.03 179.299 81.1656 157.395 81.1656 130.374C81.1656 103.353 103.03 81.4482 130 81.4482C156.97 81.4482 178.834 103.353 178.834 130.374Z" fill="#395295"/>
<path fill-rule="evenodd" clip-rule="evenodd" d="M130 178.338C156.441 178.338 177.875 156.864 177.875 130.374C177.875 103.884 156.441 82.4093 130 82.4093C103.559 82.4093 82.1249 103.884 82.1249 130.374C82.1249 156.864 103.559 178.338 130 178.338ZM130 179.299C156.97 179.299 178.834 157.395 178.834 130.374C178.834 103.353 156.97 81.4482 130 81.4482C103.03 81.4482 81.1656 103.353 81.1656 130.374C81.1656 157.395 103.03 179.299 130 179.299Z" fill="black"/>
<path d="M130.823 140.422C135.462 137.247 134.96 132.355 129.452 127.043C126.498 124.193 124.204 122.776 117.526 119.671C108.905 115.662 105.308 113.059 105.308 110.83C105.308 107.013 113.625 104.329 126.881 103.869C133.74 103.631 145.728 104.231 150.935 105.073C153.817 105.539 153.362 105.57 142.888 105.613C131.788 105.659 125.852 106.031 120.709 107.006C117.511 107.612 114.237 108.935 113.927 109.746C113.297 111.395 117.981 113.719 127.019 116.242C142.454 120.551 148.622 123.491 154.087 129.146C155.976 131.101 157.251 132.846 158.096 134.637C159.213 137.002 159.334 137.602 159.323 140.709C159.313 143.788 159.181 144.425 158.097 146.671C154.281 154.568 143.613 161.151 129.84 164.105C128.108 164.477 124.034 165.479 124.034 165.681L124.042 165.682L124.071 165.688C126.338 166.123 128.678 166.351 131.072 166.351C151.496 166.351 168.054 149.763 168.054 129.3C168.054 108.837 151.496 92.2489 131.072 92.2489C110.647 92.2489 94.09 108.837 94.09 129.3C94.09 135.929 95.8277 142.152 98.8716 147.535C99.164 147.485 99.7305 147.397 100.513 147.276C106.76 146.306 126.768 143.197 130.823 140.422Z" fill="white"/>
</g>
<defs>
<filter id="filter0_d_2016_3004" x="18" y="30" width="212" height="212" filterUnits="userSpaceOnUse" color-interpolation-filters="sRGB">
<feFlood flood-opacity="0" result="BackgroundImageFix"/>
<feColorMatrix in="SourceAlpha" type="matrix" values="0 0 0 0 0 0 0 0 0 0 0 0 0 0 0 0 0 0 127 0" result="hardAlpha"/>
<feOffset dx="-6" dy="6"/>
<feGaussianBlur stdDeviation="3"/>
<feComposite in2="hardAlpha" operator="out"/>
<feColorMatrix type="matrix" values="0 0 0 0 0 0 0 0 0 0 0 0 0 0 0 0 0 0 0.25 0"/>
<feBlend mode="normal" in2="BackgroundImageFix" result="effect1_dropShadow_2016_3004"/>
<feBlend mode="normal" in="SourceGraphic" in2="effect1_dropShadow_2016_3004" result="shape"/>
</filter>
</defs>
</svg>
