<svg width="686" height="1024" viewBox="0 0 686 1024" fill="none" xmlns="http://www.w3.org/2000/svg">
<rect width="686" height="1024" />
<g clip-path="url(#clip0_1101_1240)">
<rect width="686" height="1024" />
<g style="mix-blend-mode:hard-light" opacity="0.2">
<path d="M-2029.76 975.808C-1483.98 968.676 -1128.29 1111.71 -898.055 1254.16C-706.122 1372.92 -679.254 1443.13 -497.846 1515.74C-104.18 1673.29 509.145 1638.82 669.338 1294.73C748.249 1125.23 639.475 997.833 583.852 693.741C533.822 420.186 531.415 16.1528 770.713 -524.225" stroke="url(#paint0_radial_1101_1240)" stroke-width="5" stroke-miterlimit="10"/>
<path d="M-2003.39 1036.18C-1481.45 1007.92 -1134.44 1137.29 -909.739 1266.74C-720.652 1375.7 -683.929 1435.56 -495.441 1502.65C-100.035 1643.4 477.549 1614.83 644.708 1286.36C730.818 1117.18 639.894 985.27 595.086 677.609C555.641 406.747 558.599 7.3944 792.475 -526.766" stroke="url(#paint1_radial_1101_1240)" stroke-width="5" stroke-miterlimit="10"/>
<path d="M-1977.02 1096.55C-1478.94 1047.16 -1140.38 1162.86 -921.397 1279.31C-734.84 1378.52 -688.818 1428.08 -493.009 1489.55C-96.3677 1614.06 446.929 1590.92 620.125 1277.98C713.684 1108.92 640.18 972.931 606.358 661.473C577.272 393.467 585.827 -1.35271 814.314 -529.289" stroke="url(#paint2_radial_1101_1240)" stroke-width="5" stroke-miterlimit="10"/>
<path d="M-1950.64 1156.93C-1476.41 1086.42 -1146.06 1188.37 -933.035 1291.93C-748.803 1381.42 -693.928 1420.77 -490.548 1476.43C-93.1077 1585.28 417.263 1567.16 595.554 1269.59C696.861 1100.53 640.303 960.798 617.65 645.317C598.619 380.364 613.08 -10.1106 836.108 -531.824" stroke="url(#paint3_radial_1101_1240)" stroke-width="5" stroke-miterlimit="10"/>
<path d="M-1924.27 1217.3C-1473.86 1125.63 -1151.44 1213.77 -944.708 1304.45C-762.487 1384.37 -699.145 1413.6 -488.165 1463.35C-90.3059 1557.11 388.418 1543.66 570.911 1261.22C680.251 1092.02 640.139 948.864 628.871 629.191C619.648 367.414 640.265 -18.8499 857.873 -534.296" stroke="url(#paint4_radial_1101_1240)" stroke-width="5" stroke-miterlimit="10"/>
<path d="M-1897.9 1277.67C-1471.37 1164.89 -1156.51 1239.05 -956.365 1317.02C-775.843 1387.35 -704.619 1406.67 -485.737 1450.24C-87.7602 1529.49 360.451 1520.39 546.311 1252.85C663.989 1083.45 639.716 937.099 640.131 613.049C640.428 354.56 667.485 -27.5936 879.65 -536.873" stroke="url(#paint5_radial_1101_1240)" stroke-width="5" stroke-miterlimit="10"/>
<path d="M-1871.53 1338.03C-1468.87 1204.09 -1161.25 1264.08 -968.024 1329.59C-788.865 1390.33 -710.18 1399.93 -483.314 1437.15C-85.4475 1502.4 333.265 1497.43 521.707 1244.47C648.037 1074.89 639.115 925.408 651.394 596.915C660.932 341.78 694.739 -36.3516 901.44 -539.396" stroke="url(#paint6_radial_1101_1240)" stroke-width="5" stroke-miterlimit="10"/>
<path d="M-1845.12 1398.4C-1466.31 1243.36 -1165.59 1288.85 -979.649 1342.14C-801.489 1393.22 -715.773 1393.41 -480.858 1424.04C-83.2886 1475.82 306.839 1474.77 497.136 1236.08C632.446 1066.37 638.211 913.824 662.686 580.76C681.147 329.072 721.934 -45.0556 923.234 -541.93" stroke="url(#paint7_radial_1101_1240)" stroke-width="5" stroke-miterlimit="10"/>
<path d="M-1818.78 1458.78C-1463.82 1282.62 -1169.63 1313.27 -991.337 1354.74C-813.769 1396 -721.542 1387.24 -478.463 1410.94C-81.2841 1449.74 281.019 1452.49 472.503 1227.72C617.138 1057.97 636.929 902.299 673.913 564.632C701.106 316.383 749.141 -53.8333 945.071 -544.482" stroke="url(#paint8_radial_1101_1240)" stroke-width="5" stroke-miterlimit="10"/>
<path d="M-1792.42 1519.12C-1461.31 1321.84 -1173.31 1337.21 -1003.01 1367.28C-825.725 1398.58 -727.346 1381.18 -476.052 1397.82C-79.3882 1424.09 255.755 1430.56 447.887 1219.31C602.138 1049.73 635.357 890.747 685.161 548.464C720.786 303.671 776.357 -62.6058 966.804 -547.021" stroke="url(#paint9_radial_1101_1240)" stroke-width="5" stroke-miterlimit="10"/>
<path d="M-1766.03 1579.52C-1458.73 1361.09 -1176.65 1360.69 -1014.64 1379.87C-837.266 1400.87 -733.116 1375.47 -473.61 1384.74C-77.4654 1398.89 231.051 1409.05 423.301 1210.97C587.524 1041.76 633.472 879.218 696.435 532.346C740.239 290.996 803.591 -71.3255 988.62 -549.515" stroke="url(#paint10_radial_1101_1240)" stroke-width="5" stroke-miterlimit="10"/>
<path d="M-1739.66 1639.89C-1456.26 1400.34 -1179.74 1383.56 -1026.3 1392.44C-848.522 1402.73 -738.86 1370 -471.188 1371.64C-75.5458 1374.06 206.779 1387.89 398.696 1202.59C573.24 1034.06 631.25 867.602 707.698 516.213C759.46 278.249 830.807 -80.0778 1010.4 -552.054" stroke="url(#paint11_radial_1101_1240)" stroke-width="5" stroke-miterlimit="10"/>
<path d="M-1713.29 1700.27C-1453.74 1439.59 -1182.66 1405.81 -1037.96 1405.01C-859.554 1404.03 -744.653 1364.81 -468.757 1358.54C-73.5795 1349.57 182.872 1367.14 374.101 1194.2C559.271 1026.74 628.703 855.894 718.957 500.071C778.469 265.443 858.026 -88.8214 1032.2 -554.589" stroke="url(#paint12_radial_1101_1240)" stroke-width="5" stroke-miterlimit="10"/>
<path d="M-1686.92 1760.64C-1451.22 1478.83 -1185.48 1427.4 -1049.61 1417.58C-870.472 1404.63 -750.359 1359.88 -466.354 1345.45C-71.5727 1325.38 159.232 1346.74 349.483 1185.84C545.686 1019.84 625.805 844.057 730.2 483.936C797.291 252.547 885.235 -97.5903 1053.99 -557.094" stroke="url(#paint13_radial_1101_1240)" stroke-width="5" stroke-miterlimit="10"/>
<path d="M-1660.55 1821C-1448.7 1518.07 -1188.34 1448.35 -1061.31 1430.17C-881.479 1404.41 -756.035 1355.21 -463.94 1332.36C-69.4581 1301.48 135.851 1326.82 324.863 1177.46C532.41 1013.47 622.603 832.06 741.432 467.776C815.891 239.545 912.426 -106.332 1075.73 -559.665" stroke="url(#paint14_radial_1101_1240)" stroke-width="5" stroke-miterlimit="10"/>
<path d="M-1634.17 1881.38C-1446.14 1557.3 -1191.35 1468.69 -1072.93 1442.72C-892.676 1403.19 -761.566 1350.77 -461.487 1319.24C-67.2024 1277.85 112.667 1307.22 300.295 1169.08C519.509 1007.66 619.149 819.891 752.739 451.654C834.44 226.447 939.69 -115.065 1097.57 -562.177" stroke="url(#paint15_radial_1101_1240)" stroke-width="5" stroke-miterlimit="10"/>
<path d="M-1607.76 1941.73C-1443.62 1596.54 -1180.71 1518.44 -1084.54 1455.28C-927.242 1351.97 -766.986 1346.57 -459.013 1306.12C-64.8121 1254.37 89.5563 1288.04 275.693 1160.7C506.905 1002.56 615.36 807.457 764 435.512C852.818 213.242 966.911 -123.809 1119.38 -564.678" stroke="url(#paint16_radial_1101_1240)" stroke-width="5" stroke-miterlimit="10"/>
<path d="M-1581.43 2002.12C-1441.14 1635.8 -1185.46 1532 -1096.24 1467.86C-939.859 1355.46 -772.393 1342.63 -456.63 1293.04C-62.2746 1231.14 66.4461 1269.27 251.091 1152.32C494.569 998.161 611.322 794.83 775.255 419.351C871.089 199.873 994.122 -132.579 1141.14 -567.261" stroke="url(#paint17_radial_1101_1240)" stroke-width="5" stroke-miterlimit="10"/>
<path d="M-1555.05 2062.49C-1438.62 1675.04 -1191.78 1545.09 -1107.9 1480.43C-951.317 1359.76 -777.645 1338.9 -454.185 1279.98C-59.6132 1208.06 43.2905 1250.86 226.508 1143.99C482.52 994.647 607.055 781.992 786.539 403.269C889.295 186.453 1021.37 -141.284 1162.96 -569.736" stroke="url(#paint18_radial_1101_1240)" stroke-width="5" stroke-miterlimit="10"/>
<path d="M-1528.68 2122.86C-1436.1 1714.29 -1207.99 1546.32 -1119.55 1493C-945.311 1388.03 -782.758 1335.36 -451.761 1266.86C-56.7752 1185.08 20.0097 1232.78 201.905 1135.59C470.645 991.95 602.518 768.792 797.798 387.077C907.417 172.781 1048.59 -150.06 1184.74 -572.313" stroke="url(#paint19_radial_1101_1240)" stroke-width="5" stroke-miterlimit="10"/>
<path d="M-1502.31 2183.23C-1433.58 1753.53 -1213.74 1565.53 -1131.21 1505.58C-961.521 1382.33 -787.764 1332.03 -449.35 1253.76C-53.7999 1162.24 -3.46528 1215.09 177.292 1127.21C458.959 990.272 597.836 755.436 809.05 370.968C925.478 159.036 1075.8 -158.78 1206.54 -574.819" stroke="url(#paint20_radial_1101_1240)" stroke-width="5" stroke-miterlimit="10"/>
<path d="M-1475.94 2243.61C-1431.06 1792.78 -1220.29 1585.09 -1142.87 1518.15C-979.062 1376.47 -792.625 1328.88 -446.926 1240.64C-50.6415 1139.49 -27.1824 1197.72 152.693 1118.82C447.346 989.524 592.947 741.751 820.315 354.815C943.523 145.159 1103.01 -167.548 1228.32 -577.37" stroke="url(#paint21_radial_1101_1240)" stroke-width="5" stroke-miterlimit="10"/>
</g>
</g>
<defs>
<radialGradient id="paint0_radial_1101_1240" cx="0" cy="0" r="1" gradientUnits="userSpaceOnUse" gradientTransform="translate(-349.086 895.656) rotate(67.2834) scale(877.3 1581.25)">
<stop stop-color="#007AFF"/>
<stop offset="0.49375" stop-color="#312ECB"/>
<stop offset="1" stop-color="#E717AC"/>
</radialGradient>
<radialGradient id="paint1_radial_1101_1240" cx="0" cy="0" r="1" gradientUnits="userSpaceOnUse" gradientTransform="translate(-342.839 882.008) rotate(67.2834) scale(861.063 1591.27)">
<stop stop-color="#007AFF"/>
<stop offset="0.49375" stop-color="#312ECB"/>
<stop offset="1" stop-color="#E717AC"/>
</radialGradient>
<radialGradient id="paint2_radial_1101_1240" cx="0" cy="0" r="1" gradientUnits="userSpaceOnUse" gradientTransform="translate(-336.492 868.512) rotate(67.2834) scale(844.959 1601.33)">
<stop stop-color="#007AFF"/>
<stop offset="0.49375" stop-color="#312ECB"/>
<stop offset="1" stop-color="#E717AC"/>
</radialGradient>
<radialGradient id="paint3_radial_1101_1240" cx="0" cy="0" r="1" gradientUnits="userSpaceOnUse" gradientTransform="translate(-330.103 855.167) rotate(67.2834) scale(829.038 1611.36)">
<stop stop-color="#007AFF"/>
<stop offset="0.49375" stop-color="#312ECB"/>
<stop offset="1" stop-color="#E717AC"/>
</radialGradient>
<radialGradient id="paint4_radial_1101_1240" cx="0" cy="0" r="1" gradientUnits="userSpaceOnUse" gradientTransform="translate(-323.657 842.019) rotate(67.2834) scale(813.275 1621.37)">
<stop stop-color="#007AFF"/>
<stop offset="0.49375" stop-color="#312ECB"/>
<stop offset="1" stop-color="#E717AC"/>
</radialGradient>
<radialGradient id="paint5_radial_1101_1240" cx="0" cy="0" r="1" gradientUnits="userSpaceOnUse" gradientTransform="translate(-317.133 828.993) rotate(67.2834) scale(797.745 1631.4)">
<stop stop-color="#007AFF"/>
<stop offset="0.49375" stop-color="#312ECB"/>
<stop offset="1" stop-color="#E717AC"/>
</radialGradient>
<radialGradient id="paint6_radial_1101_1240" cx="0" cy="0" r="1" gradientUnits="userSpaceOnUse" gradientTransform="translate(-310.53 816.169) rotate(67.2834) scale(782.379 1641.44)">
<stop stop-color="#007AFF"/>
<stop offset="0.49375" stop-color="#312ECB"/>
<stop offset="1" stop-color="#E717AC"/>
</radialGradient>
<radialGradient id="paint7_radial_1101_1240" cx="0" cy="0" r="1" gradientUnits="userSpaceOnUse" gradientTransform="translate(-303.834 803.51) rotate(67.2834) scale(767.209 1651.45)">
<stop stop-color="#007AFF"/>
<stop offset="0.49375" stop-color="#312ECB"/>
<stop offset="1" stop-color="#E717AC"/>
</radialGradient>
<radialGradient id="paint8_radial_1101_1240" cx="0" cy="0" r="1" gradientUnits="userSpaceOnUse" gradientTransform="translate(-297.074 791.035) rotate(67.2834) scale(752.234 1661.53)">
<stop stop-color="#007AFF"/>
<stop offset="0.49375" stop-color="#312ECB"/>
<stop offset="1" stop-color="#E717AC"/>
</radialGradient>
<radialGradient id="paint9_radial_1101_1240" cx="0" cy="0" r="1" gradientUnits="userSpaceOnUse" gradientTransform="translate(-290.284 778.718) rotate(67.2834) scale(737.443 1671.54)">
<stop stop-color="#007AFF"/>
<stop offset="0.49375" stop-color="#312ECB"/>
<stop offset="1" stop-color="#E717AC"/>
</radialGradient>
<radialGradient id="paint10_radial_1101_1240" cx="0" cy="0" r="1" gradientUnits="userSpaceOnUse" gradientTransform="translate(-283.367 766.622) rotate(67.2834) scale(722.833 1681.57)">
<stop stop-color="#007AFF"/>
<stop offset="0.49375" stop-color="#312ECB"/>
<stop offset="1" stop-color="#E717AC"/>
</radialGradient>
<radialGradient id="paint11_radial_1101_1240" cx="0" cy="0" r="1" gradientUnits="userSpaceOnUse" gradientTransform="translate(-276.405 754.656) rotate(67.2834) scale(708.414 1691.6)">
<stop stop-color="#007AFF"/>
<stop offset="0.49375" stop-color="#312ECB"/>
<stop offset="1" stop-color="#E717AC"/>
</radialGradient>
<radialGradient id="paint12_radial_1101_1240" cx="0" cy="0" r="1" gradientUnits="userSpaceOnUse" gradientTransform="translate(-269.368 742.857) rotate(67.2834) scale(694.169 1701.64)">
<stop stop-color="#007AFF"/>
<stop offset="0.49375" stop-color="#312ECB"/>
<stop offset="1" stop-color="#E717AC"/>
</radialGradient>
<radialGradient id="paint13_radial_1101_1240" cx="0" cy="0" r="1" gradientUnits="userSpaceOnUse" gradientTransform="translate(-262.266 731.225) rotate(67.2834) scale(680.076 1711.67)">
<stop stop-color="#007AFF"/>
<stop offset="0.49375" stop-color="#312ECB"/>
<stop offset="1" stop-color="#E717AC"/>
</radialGradient>
<radialGradient id="paint14_radial_1101_1240" cx="0" cy="0" r="1" gradientUnits="userSpaceOnUse" gradientTransform="translate(-255.12 719.734) rotate(67.2834) scale(666.212 1721.68)">
<stop stop-color="#007AFF"/>
<stop offset="0.49375" stop-color="#312ECB"/>
<stop offset="1" stop-color="#E717AC"/>
</radialGradient>
<radialGradient id="paint15_radial_1101_1240" cx="0" cy="0" r="1" gradientUnits="userSpaceOnUse" gradientTransform="translate(-247.862 708.428) rotate(67.2834) scale(652.472 1731.73)">
<stop stop-color="#007AFF"/>
<stop offset="0.49375" stop-color="#312ECB"/>
<stop offset="1" stop-color="#E717AC"/>
</radialGradient>
<radialGradient id="paint16_radial_1101_1240" cx="0" cy="0" r="1" gradientUnits="userSpaceOnUse" gradientTransform="translate(-240.526 697.279) rotate(67.2834) scale(638.905 1741.74)">
<stop stop-color="#007AFF"/>
<stop offset="0.49375" stop-color="#312ECB"/>
<stop offset="1" stop-color="#E717AC"/>
</radialGradient>
<radialGradient id="paint17_radial_1101_1240" cx="0" cy="0" r="1" gradientUnits="userSpaceOnUse" gradientTransform="translate(-220.141 717.428) rotate(67.2834) scale(659.339 1751.8)">
<stop stop-color="#007AFF"/>
<stop offset="0.49375" stop-color="#312ECB"/>
<stop offset="1" stop-color="#E717AC"/>
</radialGradient>
<radialGradient id="paint18_radial_1101_1240" cx="0" cy="0" r="1" gradientUnits="userSpaceOnUse" gradientTransform="translate(-196.045 746.379) rotate(67.2834) scale(689.208 1761.83)">
<stop stop-color="#007AFF"/>
<stop offset="0.49375" stop-color="#312ECB"/>
<stop offset="1" stop-color="#E717AC"/>
</radialGradient>
<radialGradient id="paint19_radial_1101_1240" cx="0" cy="0" r="1" gradientUnits="userSpaceOnUse" gradientTransform="translate(-171.97 775.275) rotate(67.2834) scale(719.126 1771.87)">
<stop stop-color="#007AFF"/>
<stop offset="0.49375" stop-color="#312ECB"/>
<stop offset="1" stop-color="#E717AC"/>
</radialGradient>
<radialGradient id="paint20_radial_1101_1240" cx="0" cy="0" r="1" gradientUnits="userSpaceOnUse" gradientTransform="translate(-147.887 804.206) rotate(67.2834) scale(749.007 1781.9)">
<stop stop-color="#007AFF"/>
<stop offset="0.49375" stop-color="#312ECB"/>
<stop offset="1" stop-color="#E717AC"/>
</radialGradient>
<radialGradient id="paint21_radial_1101_1240" cx="0" cy="0" r="1" gradientUnits="userSpaceOnUse" gradientTransform="translate(-123.806 833.119) rotate(67.2834) scale(778.916 1791.93)">
<stop stop-color="#007AFF"/>
<stop offset="0.49375" stop-color="#312ECB"/>
<stop offset="1" stop-color="#E717AC"/>
</radialGradient>
<clipPath id="clip0_1101_1240">
<rect width="686" height="1024" fill="white"/>
</clipPath>
</defs>
</svg>
