<svg width="24" height="24" viewBox="0 0 24 24" fill="none" xmlns="http://www.w3.org/2000/svg">
<path fill-rule="evenodd" clip-rule="evenodd" d="M17.3264 3.78258C15.7122 3.78258 14.4035 5.09175 14.4035 6.70638C14.4035 8.32101 15.7122 9.63018 17.3264 9.63018C18.9408 9.63018 20.2502 8.32077 20.2502 6.70638C20.2502 5.09199 18.9408 3.78258 17.3264 3.78258ZM12.9035 6.70638C12.9035 4.26381 14.8833 2.28258 17.3264 2.28258C19.7692 2.28258 21.7502 4.26357 21.7502 6.70638C21.7502 9.14919 19.7692 11.1302 17.3264 11.1302C14.8833 11.1302 12.9035 9.14895 12.9035 6.70638Z" fill="black"/>
<path fill-rule="evenodd" clip-rule="evenodd" d="M6.67272 3.78258C5.05935 3.78258 3.74982 5.09187 3.74982 6.70638C3.74982 8.32089 5.05935 9.63018 6.67272 9.63018C8.28789 9.63018 9.59652 8.32089 9.59652 6.70638C9.59652 5.09187 8.28789 3.78258 6.67272 3.78258ZM2.24982 6.70638C2.24982 4.26369 4.23069 2.28258 6.67272 2.28258C9.11655 2.28258 11.0965 4.26369 11.0965 6.70638C11.0965 9.14907 9.11655 11.1302 6.67272 11.1302C4.23069 11.1302 2.24982 9.14907 2.24982 6.70638Z" fill="black"/>
<path fill-rule="evenodd" clip-rule="evenodd" d="M17.3264 14.3707C15.7122 14.3707 14.4035 15.6799 14.4035 17.2945C14.4035 18.9089 15.712 20.2174 17.3264 20.2174C18.941 20.2174 20.2502 18.9087 20.2502 17.2945C20.2502 15.6801 18.9408 14.3707 17.3264 14.3707ZM12.9035 17.2945C12.9035 14.8519 14.8833 12.8707 17.3264 12.8707C19.7692 12.8707 21.7502 14.8517 21.7502 17.2945C21.7502 19.7376 19.769 21.7174 17.3264 21.7174C14.8836 21.7174 12.9035 19.7373 12.9035 17.2945Z" fill="black"/>
<path fill-rule="evenodd" clip-rule="evenodd" d="M6.67272 14.3707C5.05935 14.3707 3.74982 15.68 3.74982 17.2945C3.74982 18.9088 5.05911 20.2174 6.67272 20.2174C8.28813 20.2174 9.59652 18.9088 9.59652 17.2945C9.59652 15.68 8.28789 14.3707 6.67272 14.3707ZM2.24982 17.2945C2.24982 14.8518 4.23069 12.8707 6.67272 12.8707C9.11655 12.8707 11.0965 14.8518 11.0965 17.2945C11.0965 19.7375 9.11631 21.7174 6.67272 21.7174C4.23093 21.7174 2.24982 19.7375 2.24982 17.2945Z" fill="black"/>
</svg>
