<svg width="24" height="24" viewBox="0 0 24 24" fill="none" xmlns="http://www.w3.org/2000/svg">
<path fill-rule="evenodd" clip-rule="evenodd" d="M11.8788 1.94565C12.293 1.94565 12.6288 2.28144 12.6288 2.69565V12.9219V14.7367C12.6288 15.1509 12.293 15.4867 11.8788 15.4867C11.4646 15.4867 11.1288 15.1509 11.1288 14.7367V12.9219V2.69565C11.1288 2.28144 11.4646 1.94565 11.8788 1.94565Z" fill="black"/>
<path fill-rule="evenodd" clip-rule="evenodd" d="M15.6232 7.13549C15.6612 6.72302 16.0264 6.41949 16.4389 6.45752C18.2861 6.62784 19.7851 7.07457 20.7547 8.38278C21.6843 9.63707 22 11.5268 22 14.2043C22 17.7538 21.4432 19.9361 19.6196 21.056C18.7505 21.5897 17.6742 21.8256 16.4422 21.9402C15.215 22.0544 13.7407 22.0544 12.0316 22.0544H11.9684C10.2588 22.0544 8.78428 22.0544 7.55698 21.9402C6.32486 21.8256 5.24858 21.5897 4.37958 21.0559C2.55627 19.936 2 17.7536 2 14.2043C2 11.5269 2.31546 9.63714 3.24491 8.38283C4.21436 7.07454 5.71345 6.62784 7.56116 6.45752C7.97362 6.4195 8.33881 6.72304 8.37683 7.13551C8.41485 7.54797 8.11131 7.91316 7.69884 7.95118C5.96655 8.11086 5.02564 8.49916 4.45009 9.27588C3.83454 10.1066 3.5 11.5518 3.5 14.2043C3.5 17.7551 4.09823 19.1227 5.16467 19.7778C5.74054 20.1315 6.54296 20.3394 7.69592 20.4466C8.84616 20.5536 10.2526 20.5544 12 20.5544C13.7469 20.5544 15.1531 20.5536 16.3032 20.4466C17.4561 20.3394 18.2586 20.1315 18.8346 19.7778C19.9013 19.1226 20.5 17.7549 20.5 14.2043C20.5 11.5519 20.1652 10.1066 19.5496 9.27592C18.9739 8.49913 18.0329 8.11086 16.3011 7.95118C15.8887 7.91315 15.5851 7.54795 15.6232 7.13549Z" fill="black"/>
<path d="M12.6288 14.7367C12.6288 15.1509 12.293 15.4867 11.8788 15.4867C11.4646 15.4867 11.1288 15.1509 11.1288 14.7367V12.9219L9.49422 11.2806C9.20193 10.9871 8.72705 10.9861 8.43356 11.2784C8.14007 11.5707 8.13909 12.0456 8.43138 12.3391L11.3474 15.2671C11.4881 15.4084 11.6794 15.4879 11.8788 15.4879C12.0782 15.4879 12.2695 15.4084 12.4102 15.2671L15.3262 12.3391C15.6185 12.0456 15.6175 11.5707 15.324 11.2784C15.0305 10.9861 14.5557 10.9871 14.2634 11.2806L12.6288 12.9219V14.7367Z" fill="black"/>
</svg>
