<svg width="24" height="24" viewBox="0 0 24 24" fill="none" xmlns="http://www.w3.org/2000/svg">
<path fill-rule="evenodd" clip-rule="evenodd" d="M5.33477 16.5045C4.15332 17.2508 3.58635 18.1524 3.58635 18.9422C3.58635 19.3217 3.712 19.6054 3.94516 19.8474C4.1961 20.108 4.59912 20.3458 5.18055 20.5408C6.35101 20.9333 8.01727 21.0791 9.90835 21.0791C11.8086 21.0791 13.474 20.928 14.6409 20.531C15.2205 20.3338 15.6219 20.094 15.872 19.8319C16.1048 19.5879 16.2304 19.302 16.2304 18.9212C16.2304 18.1349 15.6618 17.2384 14.4764 16.4959C13.3147 15.7681 11.687 15.2811 9.90835 15.2811C8.12 15.2811 6.49327 15.7727 5.33477 16.5045ZM4.53368 15.2363C5.95243 14.3401 7.8617 13.7811 9.90835 13.7811C11.9436 13.7811 13.852 14.3347 15.2728 15.2247C16.6699 16.0999 17.7304 17.3984 17.7304 18.9212C17.7304 19.6948 17.4512 20.3497 16.9573 20.8674C16.4806 21.367 15.8331 21.7098 15.124 21.9511C13.7137 22.4309 11.8431 22.5792 9.90835 22.5792C7.98543 22.5792 6.11569 22.4365 4.70365 21.963C3.99383 21.725 3.34398 21.3855 2.86486 20.8881C2.36795 20.3723 2.08635 19.7176 2.08635 18.9422C2.08635 17.4219 3.13788 16.118 4.53368 15.2363Z" fill="black"/>
<path fill-rule="evenodd" clip-rule="evenodd" d="M4.62535 6.7025C4.62608 3.7848 6.99169 1.42085 9.90835 1.42085C12.8255 1.42085 15.1913 3.78553 15.1913 6.70385C15.1913 9.62106 12.8256 11.9868 9.90835 11.9868H9.87635L9.87364 11.9868C6.96601 11.9764 4.61559 9.61022 4.62535 6.7025ZM9.90835 2.92085C7.81946 2.92085 6.12535 4.61417 6.12535 6.70385V6.70656C6.11785 8.78579 7.79846 10.4787 9.87779 10.4868H9.90835C11.9971 10.4868 13.6913 8.79264 13.6913 6.70385C13.6913 4.61417 11.9972 2.92085 9.90835 2.92085Z" fill="black"/>
<path fill-rule="evenodd" clip-rule="evenodd" d="M16.3237 10.1547C16.3237 9.74054 16.6594 9.40475 17.0737 9.40475H18.3674H19.8674H21.1637C21.5779 9.40475 21.9137 9.74054 21.9137 10.1547C21.9137 10.569 21.5779 10.9047 21.1637 10.9047H19.8674H18.3674H17.0737C16.6594 10.9047 16.3237 10.569 16.3237 10.1547Z" fill="black"/>
<path d="M19.8674 8.14995C19.8674 7.73574 19.5316 7.39995 19.1174 7.39995C18.7031 7.39995 18.3674 7.73574 18.3674 8.14995V9.40475H19.8674V8.14995Z" fill="black"/>
<path d="M19.1174 12.91C19.5316 12.91 19.8674 12.5742 19.8674 12.16V10.9047H18.3674V12.16C18.3674 12.5742 18.7031 12.91 19.1174 12.91Z" fill="black"/>
</svg>
