<svg width="24" height="24" viewBox="0 0 24 24" fill="none" xmlns="http://www.w3.org/2000/svg">
<path fill-rule="evenodd" clip-rule="evenodd" d="M11.25 5.44644V19.5C11.25 19.9142 11.5858 20.25 12 20.25C12.4142 20.25 12.75 19.9142 12.75 19.5V5.44752C13.0188 5.57536 13.3138 5.76688 13.6317 6.02651C14.263 6.54207 14.8896 7.24795 15.4531 7.98198C16.0131 8.71156 16.4925 9.4449 16.8329 9.99803C17.0026 10.2739 17.1367 10.5032 17.2279 10.6626C17.2734 10.7423 17.3082 10.8044 17.3313 10.846L17.3569 10.8926L17.363 10.9037L17.3642 10.9061C17.5609 11.2705 18.0159 11.407 18.3804 11.2105C18.745 11.0139 18.8812 10.559 18.6847 10.1944L18.0245 10.5503C18.6847 10.1944 18.6847 10.1944 18.6847 10.1944L18.6836 10.1923L18.6813 10.1881L18.6732 10.1733L18.6431 10.1187C18.6171 10.0717 18.5791 10.0038 18.53 9.91805C18.432 9.74661 18.2897 9.50328 18.1104 9.21195C17.7527 8.6307 17.2439 7.85154 16.6429 7.06863C16.0454 6.29015 15.3382 5.48353 14.5805 4.86472C13.8477 4.26623 12.9669 3.76015 12.026 3.75044C12.0174 3.75015 12.0087 3.75 12 3.75C11.9917 3.75 11.9834 3.75013 11.9752 3.7504C11.0331 3.75865 10.1511 4.2655 9.41763 4.86484C8.66031 5.48366 7.95351 6.29028 7.35622 7.06875C6.75551 7.85166 6.24688 8.63081 5.88936 9.21205C5.71016 9.50338 5.56788 9.74671 5.46989 9.91814C5.42087 10.0039 5.38287 10.0718 5.35681 10.1188L5.32677 10.1733L5.31867 10.1882L5.31639 10.1924L5.31569 10.1937C5.31569 10.1937 5.3153 10.1944 5.9755 10.5503L5.31569 10.1937C5.11916 10.5583 5.25503 11.014 5.61965 11.2105C5.98421 11.407 6.43904 11.2708 6.63562 10.9063L6.63708 10.9036L6.64311 10.8925L6.66878 10.8459C6.69184 10.8043 6.7266 10.7422 6.77214 10.6625C6.86327 10.5031 6.99734 10.2738 7.16701 9.99793C7.50724 9.44479 7.98649 8.71144 8.54628 7.98185C9.10949 7.24782 9.73581 6.54194 10.3667 6.02638C10.6853 5.76605 10.9808 5.57424 11.25 5.44644Z" fill="black"/>
</svg>
