<svg width="24" height="24" viewBox="0 0 24 24" fill="none" xmlns="http://www.w3.org/2000/svg">
<path fill-rule="evenodd" clip-rule="evenodd" d="M10.5456 5.3889C11.478 4.78311 12.7819 4.21473 14.176 5.04081C14.1937 5.05132 14.211 5.06256 14.2278 5.07451C14.9515 5.58833 15.4384 6.3089 15.7368 7.41448C16.0254 8.48392 16.1472 9.94664 16.1472 11.9998C16.1472 14.0552 16.0194 15.5216 15.7277 16.5928C15.427 17.697 14.9413 18.4182 14.228 18.925C14.2112 18.9369 14.1939 18.9482 14.1762 18.9587C12.7822 19.7854 11.4781 19.2173 10.5456 18.6114C10.193 18.3823 9.84548 18.1159 9.54224 17.8835C9.44636 17.81 9.3549 17.7399 9.26912 17.6755C8.87349 17.3782 8.60718 17.2084 8.41491 17.145C7.99866 17.0081 7.67428 16.9693 7.30622 16.9252C7.17069 16.909 7.02924 16.8921 6.87509 16.8693C6.3017 16.7845 5.70135 16.6216 5.05637 16.0735C4.38427 15.5028 4.0726 14.7564 3.92551 14.038C3.78191 13.3367 3.78406 12.6009 3.7858 12.0052L3.78583 11.9976L4.53582 11.9998L3.78583 12.002L3.7858 11.9944C3.78406 11.3987 3.78191 10.6629 3.92551 9.96158C4.07262 9.24311 4.38436 8.49657 5.05666 7.92583C5.7017 7.37823 6.30201 7.21574 6.87509 7.13098C7.0285 7.10829 7.16938 7.0914 7.30438 7.07521C7.67308 7.031 7.99797 6.99204 8.41476 6.85463C8.60685 6.79147 8.87362 6.62164 9.26923 6.32455C9.35521 6.25998 9.4469 6.18973 9.54304 6.11607C9.84609 5.88387 10.1934 5.61779 10.5456 5.3889ZM8.88385 8.27939C8.31054 8.46833 7.78625 8.53038 7.39166 8.57708C7.28204 8.59006 7.18242 8.60185 7.09455 8.61484C6.69097 8.67453 6.38862 8.76271 6.02743 9.06933C5.6935 9.35282 5.50035 9.74805 5.39502 10.2625C5.28679 10.7911 5.28401 11.3759 5.28582 11.9976V12.002C5.28401 12.6237 5.28679 13.2085 5.39502 13.7371C5.50035 14.2516 5.6935 14.6468 6.02743 14.9303C6.38867 15.2373 6.69128 15.3258 7.09455 15.3854C7.1826 15.3984 7.2825 15.4103 7.39249 15.4232C7.78694 15.4699 8.31118 15.5318 8.884 15.7203C9.34328 15.8716 9.79405 16.1937 10.1701 16.4762C10.2799 16.5587 10.3867 16.6405 10.4919 16.7211C10.7839 16.9448 11.0637 17.1592 11.3629 17.3536C12.1612 17.8723 12.7716 18.0329 13.3848 17.6837C13.75 17.4165 14.057 17.0191 14.2804 16.1986C14.518 15.3261 14.6472 14.0226 14.6472 11.9998C14.6472 9.97474 14.5235 8.67568 14.2886 7.80535C14.0684 6.98957 13.7625 6.59169 13.3851 6.31603C12.7719 5.96716 12.1614 6.12788 11.3629 6.64671C11.064 6.84094 10.7844 7.05508 10.4927 7.27845C10.3872 7.35926 10.2801 7.44127 10.17 7.52399C9.79391 7.80641 9.34332 8.12832 8.88385 8.27939ZM18.1622 7.69044C18.5248 7.49031 18.981 7.62206 19.1812 7.98471C20.5588 10.481 20.5594 13.5267 19.1806 16.0162C18.98 16.3786 18.5235 16.5096 18.1612 16.309C17.7988 16.1083 17.6678 15.6519 17.8684 15.2895C18.9963 13.2529 18.997 10.7554 17.8679 8.70947C17.6678 8.34681 17.7995 7.89058 18.1622 7.69044Z" fill="black"/>
</svg>
