<svg width="24" height="24" viewBox="0 0 24 24" fill="none" xmlns="http://www.w3.org/2000/svg">
<path d="M13.0797 2.95425L14.353 3.80636C14.6529 3.5804 15.1294 3.51148 15.8486 3.725C16.6772 3.971 17.6274 4.54993 18.4566 5.29993C19.289 6.05274 19.9233 6.9087 20.1931 7.64836C20.2038 7.67765 20.2138 7.7065 20.2232 7.73489L21.7957 8.78721L21.6023 7.13423L19.4628 4.18744L16.2755 2.28703L13.0797 2.95425Z" fill="black"/>
<path d="M20.899 10.2703C21.4005 9.87527 21.6968 9.36218 21.7957 8.78721L20.2232 7.73489C20.3307 8.06069 20.3528 8.32705 20.3173 8.53308C20.2819 8.73897 20.1839 8.9241 19.9709 9.09187C19.8084 9.21966 19.4126 9.39137 18.7842 9.5453C18.1867 9.69166 17.4722 9.80029 16.7607 9.85679C16.0474 9.91343 15.3629 9.91561 14.8233 9.85967C14.5527 9.83162 14.3381 9.79087 14.1827 9.74384C14.0827 9.71358 14.0314 9.68788 14.0112 9.67684C13.9994 9.65581 13.9707 9.60046 13.936 9.49039C13.8844 9.32694 13.838 9.10335 13.8022 8.82462C13.7308 8.26886 13.7107 7.56921 13.7378 6.85299C13.7648 6.13809 13.8377 5.4327 13.9428 4.86811C13.9954 4.58511 14.0536 4.35146 14.1127 4.17585C14.164 4.02303 14.2024 3.95624 14.2115 3.9403C14.214 3.93596 14.2143 3.93539 14.2122 3.93787C14.254 3.88972 14.3008 3.84567 14.353 3.80636L13.0797 2.95425C12.8925 3.16981 12.7731 3.45318 12.6908 3.69794C12.6021 3.96182 12.5286 4.26871 12.4681 4.59367C12.3469 5.24498 12.268 6.02515 12.2389 6.79638C12.2098 7.56629 12.2293 8.35332 12.3144 9.01572C12.3568 9.34606 12.4179 9.66442 12.5056 9.94215C12.5877 10.2019 12.7187 10.5102 12.9489 10.7407C13.1807 10.9722 13.4871 11.1005 13.7481 11.1795C14.0254 11.2634 14.3413 11.3177 14.6686 11.3517C15.3248 11.4197 16.1051 11.4136 16.8794 11.3521C17.6556 11.2905 18.4515 11.1712 19.1411 11.0022C19.7995 10.8409 20.4674 10.6099 20.899 10.2703Z" fill="black"/>
<path d="M16.2755 2.28703C15.1885 1.96429 13.9275 1.97824 13.0797 2.95425L16.2755 2.28703Z" fill="black"/>
<path d="M19.4628 4.18744C18.52 3.33481 17.3783 2.61444 16.2755 2.28703L19.4628 4.18744Z" fill="black"/>
<path d="M21.6023 7.13423C21.2203 6.08723 20.4024 5.03726 19.4628 4.18744L21.6023 7.13423Z" fill="black"/>
<path fill-rule="evenodd" clip-rule="evenodd" d="M6.21585 7.867C4.85165 9.07421 3.66695 11.0528 3.66695 13.4505C3.66695 17.2892 6.7791 20.4015 10.619 20.4015C13.1736 20.4015 15.1157 19.0185 16.3104 17.4682C16.9081 16.6925 17.2952 15.9032 17.4716 15.2766C17.5603 14.9615 17.5877 14.7161 17.5791 14.5493C17.5749 14.4666 17.5632 14.4218 17.5566 14.4024C17.479 14.3437 17.2534 14.2505 16.7198 14.2159C16.2762 14.1872 15.7637 14.2035 15.1859 14.2219C15.0571 14.226 14.925 14.2302 14.7897 14.234C14.0771 14.2542 13.2897 14.2628 12.5712 14.1558C11.8598 14.0499 11.1067 13.8162 10.5535 13.2626C10.0251 12.734 9.75136 12.0338 9.5963 11.3562C9.44025 10.6742 9.38782 9.93746 9.35831 9.27193C9.34899 9.06159 9.34195 8.86144 9.33524 8.67081C9.31975 8.23069 9.30605 7.84128 9.27017 7.49426C9.24515 7.25236 9.21239 7.06956 9.17274 6.93748C9.14004 6.82856 9.11307 6.78985 9.1107 6.78595C9.01052 6.68969 8.73907 6.57175 8.15734 6.72928C7.59398 6.88183 6.89956 7.26197 6.21585 7.867ZM7.76528 5.28142C8.57781 5.0614 9.52269 5.07653 10.1753 5.72913C10.4069 5.9607 10.5329 6.25147 10.6094 6.5062C10.6878 6.76744 10.7328 7.05559 10.7622 7.33997C10.8036 7.74057 10.8202 8.21106 10.8366 8.67521C10.8429 8.85438 10.8492 9.0326 10.8568 9.20549C10.8857 9.85671 10.9345 10.4795 11.0585 11.0216C11.1835 11.5681 11.3688 11.9565 11.6145 12.2023C11.8352 12.4232 12.2112 12.5857 12.7921 12.6722C13.3657 12.7576 14.0336 12.7548 14.7472 12.7346C14.8662 12.7313 14.9872 12.7274 15.1093 12.7234C15.6893 12.7047 16.2933 12.6852 16.8168 12.7191C17.4096 12.7575 18.1495 12.8713 18.6353 13.3571C18.9551 13.677 19.0583 14.1062 19.0771 14.4723C19.0966 14.851 19.0328 15.2662 18.9155 15.683C18.6799 16.5199 18.1958 17.479 17.4985 18.3838C16.1033 20.1944 13.7603 21.9015 10.619 21.9015C5.9508 21.9015 2.16695 18.1177 2.16695 13.4505C2.16695 10.5481 3.59676 8.18171 5.2218 6.74367C6.03272 6.02607 6.92661 5.50853 7.76528 5.28142Z" fill="black"/>
</svg>
