<svg width="24" height="24" viewBox="0 0 24 24" fill="none" xmlns="http://www.w3.org/2000/svg">
<path fill-rule="evenodd" clip-rule="evenodd" d="M7.6248 15.6963C7.6248 15.2821 7.96059 14.9463 8.3748 14.9463H15.5948C16.009 14.9463 16.3448 15.2821 16.3448 15.6963C16.3448 16.1105 16.009 16.4463 15.5948 16.4463H8.3748C7.96059 16.4463 7.6248 16.1105 7.6248 15.6963Z" fill="black"/>
<path fill-rule="evenodd" clip-rule="evenodd" d="M7.6248 11.9365C7.6248 11.5223 7.96059 11.1865 8.3748 11.1865H15.5948C16.009 11.1865 16.3448 11.5223 16.3448 11.9365C16.3448 12.3507 16.009 12.6865 15.5948 12.6865H8.3748C7.96059 12.6865 7.6248 12.3507 7.6248 11.9365Z" fill="black"/>
<path fill-rule="evenodd" clip-rule="evenodd" d="M7.625 8.1772C7.625 7.76299 7.96079 7.4272 8.375 7.4272H11.13C11.5442 7.4272 11.88 7.76299 11.88 8.1772C11.88 8.59141 11.5442 8.9272 11.13 8.9272H8.375C7.96079 8.9272 7.625 8.59141 7.625 8.1772Z" fill="black"/>
<path fill-rule="evenodd" clip-rule="evenodd" d="M4.88912 4.26972C6.42106 2.58093 8.79746 2 12 2C15.203 2 17.5794 2.58091 19.1113 4.26975C20.6231 5.93649 21.141 8.50173 21.141 12C21.141 15.4983 20.6231 18.0635 19.1113 19.7303C17.5794 21.4191 15.203 22 12 22C8.79746 22 6.42106 21.4191 4.88912 19.7303C3.37721 18.0636 2.859 15.4983 2.859 12C2.859 8.50166 3.37721 5.93645 4.88912 4.26972ZM6.00013 5.27753C4.88979 6.50155 4.359 8.56134 4.359 12C4.359 15.4387 4.88979 17.4984 6.00013 18.7225C7.09044 19.9244 8.90954 20.5 12 20.5C15.091 20.5 16.9101 19.9244 18.0002 18.7225C19.1104 17.4985 19.641 15.4387 19.641 12C19.641 8.56127 19.1104 6.50151 18.0002 5.2775C16.9101 4.07559 15.091 3.5 12 3.5C8.90954 3.5 7.09044 4.07557 6.00013 5.27753Z" fill="black"/>
</svg>
