<svg width="24" height="24" viewBox="0 0 24 24" fill="none" xmlns="http://www.w3.org/2000/svg">
<path fill-rule="evenodd" clip-rule="evenodd" d="M15.8822 5.64529L15.8786 5.64744L15.8652 5.65546L15.81 5.68874C15.761 5.71842 15.6882 5.76287 15.595 5.82074C15.4086 5.93654 15.1411 6.10588 14.8194 6.31819C14.1749 6.74364 13.3193 7.33771 12.4671 8.01615C11.6105 8.69809 10.7801 9.44731 10.1707 10.181C9.53751 10.9433 9.25 11.5625 9.25 12C9.25 12.4378 9.53757 13.0571 10.1707 13.8194C10.7801 14.5532 11.6105 15.3023 12.4671 15.9842C13.3193 16.6626 14.1749 17.2566 14.8194 17.6819C15.141 17.8942 15.4086 18.0635 15.5949 18.1793C15.6881 18.2371 15.7609 18.2816 15.8099 18.3112L15.8651 18.3445L15.8785 18.3525L15.8816 18.3543C16.2379 18.5654 16.3564 19.0257 16.1454 19.3821C15.9344 19.7385 15.4744 19.8564 15.1179 19.6454L15.5 19C15.1179 19.6454 15.1179 19.6454 15.1179 19.6454L15.1113 19.6415L15.0947 19.6315L15.0329 19.5943C14.9793 19.5619 14.9017 19.5145 14.8035 19.4535C14.6071 19.3314 14.3277 19.1547 13.9931 18.9338C13.3251 18.493 12.4307 17.8724 11.5329 17.1578C10.6395 16.4467 9.71989 15.6243 9.0168 14.7778C8.33743 13.9599 7.75 12.9902 7.75 12C7.75 11.01 8.33749 10.0404 9.01681 9.22259C9.71989 8.37613 10.6395 7.55379 11.5329 6.8426C12.4307 6.12791 13.3251 5.5073 13.9931 5.06634C14.3277 4.84545 14.607 4.66866 14.8034 4.54662C14.9017 4.48558 14.9793 4.43818 15.0328 4.40576L15.0947 4.3685L15.1112 4.35859L15.1158 4.35587L15.1172 4.35507C15.1172 4.35507 15.1179 4.35465 15.5 5L15.1172 4.35507C15.4736 4.14402 15.9343 4.26145 16.1453 4.61786C16.3564 4.97424 16.2386 5.43421 15.8822 5.64529Z" fill="black"/>
</svg>
