<svg width="24" height="24" viewBox="0 0 24 24" fill="none" xmlns="http://www.w3.org/2000/svg">
<path d="M6.0317 1.75812L6.99129 3.44046C7.10706 3.50096 7.22689 3.57819 7.35076 3.67532L6.0317 1.75812Z" fill="black"/>
<path d="M10.5773 8.36503L9.57218 6.90409C9.52351 7.08214 9.43857 7.27409 9.32511 7.50857L9.31895 7.52127L10.2772 9.2013C10.3136 8.93975 10.4227 8.6882 10.5773 8.36503Z" fill="black"/>
<path d="M14.2418 13.6912C13.7494 13.5724 13.0185 13.1794 11.9197 12.0809L14.4905 15.2339C14.765 15.2442 15.0196 15.2147 15.254 15.1624L14.2418 13.6912Z" fill="black"/>
<path fill-rule="evenodd" clip-rule="evenodd" d="M3.66276 5.09346C3.66276 5.09346 3.66332 5.09286 3.66725 5.08699C3.69268 5.04899 3.81928 4.85974 4.03426 4.60691C4.2767 4.32178 4.60423 3.98858 4.98326 3.72224C5.36507 3.45394 5.75807 3.28217 6.14126 3.25411C6.39474 3.23555 6.67817 3.27681 6.99129 3.44046L6.0317 1.75812L7.35076 3.67532C7.36663 3.68777 7.38257 3.70054 7.39858 3.71365C8.90434 4.95388 9.41786 5.73503 9.56592 6.23344C9.63729 6.47371 9.63407 6.67765 9.57218 6.90409L10.5773 8.36503C10.6028 8.31177 10.6295 8.25656 10.6574 8.19905L10.6753 8.16195C10.9477 7.59913 11.3059 6.82314 11.0038 5.80629C10.7223 4.85873 9.90813 3.83722 8.35139 2.55513L8.34991 2.55393C7.5949 1.93532 6.80113 1.70177 6.0317 1.75812C5.2861 1.81272 4.63486 2.13376 4.12085 2.49494C3.18149 3.15502 2.53955 4.06343 2.38528 4.30837C1.88726 5.01836 1.44418 6.29782 2.02687 8.26845C2.6035 10.2186 4.17982 12.8386 7.67017 16.3294C11.1611 19.8201 13.7814 21.3966 15.7319 21.9732C17.7026 22.5558 18.9825 22.1127 19.6927 21.614C19.9404 21.4581 20.8465 20.8167 21.5052 19.8793C21.8663 19.3653 22.1873 18.714 22.2419 17.9683C22.2982 17.1988 22.0647 16.4049 21.4461 15.6497L21.4448 15.6481C20.163 14.0917 19.1416 13.2777 18.1941 12.9963C17.1773 12.6945 16.4014 13.0528 15.8387 13.3252L15.8019 13.343C15.2349 13.6176 14.8924 13.7835 14.4245 13.7249C14.3676 13.7178 14.3067 13.7069 14.2418 13.6912L15.254 15.1624C15.7046 15.0619 16.0809 14.8771 16.381 14.7297C16.4193 14.7109 16.4564 14.6927 16.4922 14.6753C17.0249 14.4175 17.3381 14.3069 17.7671 14.4343C18.2654 14.5822 19.0463 15.0955 20.2862 16.6008C20.6783 17.0798 20.7722 17.4994 20.7459 17.8588C20.7178 18.2421 20.5461 18.6352 20.2778 19.0169C20.0116 19.3959 19.6785 19.7234 19.3935 19.9656C19.1433 20.1784 18.956 20.304 18.9161 20.3307C18.9095 20.3352 18.9069 20.3369 18.9089 20.3358C18.886 20.3487 18.8638 20.3628 18.8424 20.3781L19.6927 21.614L18.74 20.4456C18.3712 20.6691 17.5782 20.9549 16.1571 20.5348C14.5483 20.0592 12.139 18.6767 8.73085 15.2687C5.32321 11.8607 3.94094 9.45172 3.4653 7.84312C3.00156 6.27475 3.39769 5.4715 3.62084 5.1591C3.63594 5.13796 3.64993 5.11605 3.66276 5.09346ZM10.2757 9.57623C10.2591 9.44386 10.2605 9.32152 10.2772 9.2013L9.31895 7.52127C9.30345 7.55319 9.28731 7.58608 9.27069 7.61994C9.02374 8.12295 8.6718 8.83981 8.78727 9.76249C8.9102 10.7449 9.53063 11.8129 10.8591 13.1417C12.1879 14.4701 13.2559 15.0904 14.2383 15.2133C14.3242 15.2241 14.4083 15.2308 14.4905 15.2339L11.9197 12.0809C10.6761 10.8371 10.3368 10.0648 10.2757 9.57623Z" fill="black"/>
<path d="M18.8424 20.3781L18.8415 20.3788C18.8121 20.3998 18.7783 20.4223 18.74 20.4456L19.6927 21.614L18.8424 20.3781Z" fill="black"/>
</svg>
