<svg width="24" height="24" viewBox="0 0 24 24" fill="none" xmlns="http://www.w3.org/2000/svg">
<path d="M5.28468 19.4409C4.05799 18.2143 3.47549 16.1622 3.47549 12.7257C3.47549 11.7088 3.52651 10.8131 3.63013 10.0241H3.00089C2.58668 10.0241 2.25089 9.68836 2.25089 9.27414C2.25089 8.85993 2.58668 8.52414 3.00089 8.52414H3.92428C4.22326 7.43592 4.6742 6.62102 5.28468 6.0106C5.78806 5.50726 6.43044 5.11242 7.25039 4.82179V3.24657C6.0313 3.60183 5.02329 4.15074 4.22406 4.94989C2.5525 6.62131 1.97549 9.20618 1.97549 12.7257C1.97549 16.2453 2.5525 18.8302 4.22406 20.5016C5.89561 22.173 8.48046 22.7497 11.9995 22.7497C15.519 22.7497 18.1041 22.173 19.7758 20.5016C21.4475 18.8302 22.0245 16.2453 22.0245 12.7257C22.0245 9.20618 21.4475 6.62129 19.7758 4.94987C18.9786 4.1528 17.9736 3.60469 16.7587 3.24935V4.82515C17.5743 5.11546 18.2137 5.50921 18.7152 6.01062C19.3257 6.62104 19.7767 7.43593 20.0757 8.52414H21.0089C21.4231 8.52414 21.7589 8.85993 21.7589 9.27414C21.7589 9.68836 21.4231 10.0241 21.0089 10.0241H20.3699C20.4735 10.8131 20.5245 11.7088 20.5245 12.7257C20.5245 16.1622 19.942 18.2143 18.7152 19.4409C17.4884 20.6675 15.436 21.2497 11.9995 21.2497C8.56353 21.2497 6.51138 20.6675 5.28468 19.4409Z" fill="black"/>
<path d="M15.2587 4.44136V2.92094C14.2792 2.76808 13.1931 2.70174 11.9995 2.70174C10.81 2.70174 9.72723 2.76764 8.75039 2.91944V4.43967C9.66571 4.28003 10.7396 4.20174 11.9995 4.20174C13.264 4.20174 14.3412 4.28059 15.2587 4.44136Z" fill="black"/>
<path d="M21.7589 9.27414C21.7589 8.85993 21.4231 8.52414 21.0089 8.52414H20.0757C20.1997 8.97549 20.2976 9.47385 20.3699 10.0241H21.0089C21.4231 10.0241 21.7589 9.68836 21.7589 9.27414Z" fill="black"/>
<path d="M3.92428 8.52414C3.80027 8.97549 3.7024 9.47385 3.63013 10.0241H20.3699C20.2976 9.47385 20.1997 8.97549 20.0757 8.52414H3.92428Z" fill="black"/>
<path d="M12.0048 12.4611C11.5906 12.4611 11.2548 12.7969 11.2548 13.2111C11.2548 13.6254 11.5906 13.9611 12.0048 13.9611H12.0138C12.428 13.9611 12.7638 13.6254 12.7638 13.2111C12.7638 12.7969 12.428 12.4611 12.0138 12.4611H12.0048Z" fill="black"/>
<path d="M3.00089 8.52414C2.58668 8.52414 2.25089 8.85993 2.25089 9.27414C2.25089 9.68836 2.58668 10.0241 3.00089 10.0241H3.63013C3.7024 9.47385 3.80027 8.97549 3.92428 8.52414H3.00089Z" fill="black"/>
<path d="M8.75039 2.00024C8.75039 1.58603 8.41461 1.25024 8.00039 1.25024C7.58618 1.25024 7.25039 1.58603 7.25039 2.00024V3.24657C7.71914 3.10997 8.2191 3.002 8.75039 2.91944V2.00024Z" fill="black"/>
<path d="M8.00039 6.01224C8.41461 6.01224 8.75039 5.67646 8.75039 5.26224V4.43967C8.19384 4.53674 7.69591 4.66389 7.25039 4.82179V5.26224C7.25039 5.67646 7.58618 6.01224 8.00039 6.01224Z" fill="black"/>
<path d="M7.25039 3.24657V4.82179C7.69591 4.66389 8.19384 4.53674 8.75039 4.43967V2.91944C8.2191 3.002 7.71914 3.10997 7.25039 3.24657Z" fill="black"/>
<path d="M16.7587 2.00024C16.7587 1.58603 16.4229 1.25024 16.0087 1.25024C15.5945 1.25024 15.2587 1.58603 15.2587 2.00024V2.92094C15.79 3.00387 16.29 3.11226 16.7587 3.24935V2.00024Z" fill="black"/>
<path d="M16.0087 6.01224C16.4229 6.01224 16.7587 5.67646 16.7587 5.26224V4.82515C16.3133 4.6666 15.8154 4.5389 15.2587 4.44136V5.26224C15.2587 5.67646 15.5945 6.01224 16.0087 6.01224Z" fill="black"/>
<path d="M16.7587 4.82515V3.24935C16.29 3.11226 15.79 3.00387 15.2587 2.92094V4.44136C15.8154 4.5389 16.3133 4.6666 16.7587 4.82515Z" fill="black"/>
<path d="M16.4042 12.4611C15.99 12.4611 15.6542 12.7969 15.6542 13.2111C15.6542 13.6254 15.99 13.9611 16.4042 13.9611H16.4132C16.8274 13.9611 17.1632 13.6254 17.1632 13.2111C17.1632 12.7969 16.8274 12.4611 16.4132 12.4611H16.4042Z" fill="black"/>
<path d="M16.4042 16.3131C15.99 16.3131 15.6542 16.6489 15.6542 17.0631C15.6542 17.4774 15.99 17.8131 16.4042 17.8131H16.4132C16.8274 17.8131 17.1632 17.4774 17.1632 17.0631C17.1632 16.6489 16.8274 16.3131 16.4132 16.3131H16.4042Z" fill="black"/>
<path d="M7.59709 16.3131C7.18288 16.3131 6.84709 16.6489 6.84709 17.0631C6.84709 17.4774 7.18288 17.8131 7.59709 17.8131H7.60609C8.02031 17.8131 8.35609 17.4774 8.35609 17.0631C8.35609 16.6489 8.02031 16.3131 7.60609 16.3131H7.59709Z" fill="black"/>
<path d="M7.59709 12.4611C7.18288 12.4611 6.84709 12.7969 6.84709 13.2111C6.84709 13.6254 7.18288 13.9611 7.59709 13.9611H7.60609C8.02031 13.9611 8.35609 13.6254 8.35609 13.2111C8.35609 12.7969 8.02031 12.4611 7.60609 12.4611H7.59709Z" fill="black"/>
<path d="M12.0048 16.3131C11.5906 16.3131 11.2548 16.6489 11.2548 17.0631C11.2548 17.4774 11.5906 17.8131 12.0048 17.8131H12.0138C12.428 17.8131 12.7638 17.4774 12.7638 17.0631C12.7638 16.6489 12.428 16.3131 12.0138 16.3131H12.0048Z" fill="black"/>
</svg>
