<svg width="24" height="24" viewBox="0 0 24 24" fill="none" xmlns="http://www.w3.org/2000/svg">
<path d="M15.8426 12.6959C15.9165 12.2883 15.6459 11.898 15.2383 11.8242C14.8307 11.7504 14.4405 12.021 14.3667 12.4285C14.1883 13.4132 13.4175 14.1858 12.4323 14.3665C12.0249 14.4412 11.7552 14.8321 11.83 15.2395C11.9047 15.6469 12.2956 15.9166 12.703 15.8419C14.3018 15.5486 15.553 14.2952 15.8426 12.6959Z" fill="black"/>
<path fill-rule="evenodd" clip-rule="evenodd" d="M20.4172 4.64333C20.7101 4.35044 20.7101 3.87556 20.4172 3.58267C20.1243 3.28978 19.6494 3.28978 19.3565 3.58267L17.4781 5.46107C15.9031 4.53463 14.0166 3.9529 11.9951 3.9529C9.24397 3.9529 6.76366 5.03352 4.96969 6.55015C3.19531 8.05022 1.99515 10.0665 1.99515 12.0029C1.99515 14.0256 3.30666 16.153 5.25597 17.6832L3.58252 19.3567C3.28963 19.6496 3.28963 20.1244 3.58252 20.4173C3.87541 20.7102 4.35029 20.7102 4.64318 20.4173L6.87442 18.1861C6.9233 18.1482 6.96809 18.1038 7.00741 18.0531L20.4172 4.64333ZM16.3765 6.56265L14.1844 8.75479C13.5406 8.3199 12.7763 8.08333 11.9881 8.0851C9.8287 8.08908 8.08209 9.84236 8.08585 12.0006C8.08348 12.7852 8.31921 13.5458 8.75344 14.1858L6.32528 16.6139C4.52754 15.2619 3.49515 13.4606 3.49515 12.0029C3.49515 10.6593 4.36498 9.02558 5.93811 7.69565C7.49164 6.38228 9.63633 5.4529 11.9951 5.4529C13.5863 5.4529 15.0873 5.87384 16.3765 6.56265ZM11.9916 9.5851C12.3774 9.58418 12.7538 9.67593 13.0911 9.84808L9.84627 13.0929C9.67536 12.7591 9.58447 12.3861 9.58584 12.0038L9.58585 11.9994C9.5828 10.6688 10.66 9.58739 11.9916 9.5851Z" fill="black"/>
<path d="M20.4338 8.00892C20.1773 7.68366 19.7057 7.62789 19.3805 7.88436C19.0552 8.14083 18.9994 8.61241 19.2559 8.93768C20.0775 9.97964 20.5049 11.0706 20.5049 12.0033C20.5049 13.3462 19.6332 14.9799 18.0573 16.3102C16.5011 17.6238 14.3538 18.5533 11.9949 18.5533C11.1558 18.5533 10.334 18.4334 9.56491 18.2205C9.1657 18.11 8.75251 18.344 8.64202 18.7432C8.53154 19.1424 8.76558 19.5556 9.16479 19.6661C10.0577 19.9132 11.0139 20.0533 11.9949 20.0533C14.7459 20.0533 17.2286 18.9728 19.0249 17.4564C20.8015 15.9567 22.0049 13.9404 22.0049 12.0033C22.0049 10.636 21.3942 9.22695 20.4338 8.00892Z" fill="black"/>
</svg>
