<svg width="24" height="24" viewBox="0 0 24 24" fill="none" xmlns="http://www.w3.org/2000/svg">
<path fill-rule="evenodd" clip-rule="evenodd" d="M9.49026 2.85887C9.55721 3.26763 9.28012 3.65328 8.87135 3.72023C7.22773 3.98945 6.09374 4.51464 5.3042 5.30417C4.51467 6.09371 3.98947 7.2277 3.72026 8.87132C3.65331 9.28009 3.26766 9.55719 2.85889 9.49023C2.45012 9.42328 2.17303 9.03763 2.23998 8.62887C2.54077 6.79249 3.16058 5.32648 4.24354 4.24352C5.32651 3.16055 6.79251 2.54074 8.62889 2.23996C9.03766 2.173 9.42331 2.4501 9.49026 2.85887Z" fill="black"/>
<path fill-rule="evenodd" clip-rule="evenodd" d="M2.75227 12.0844C3.16638 12.0751 3.50963 12.4032 3.51893 12.8173C3.52483 13.08 3.53512 13.3344 3.54979 13.5802C3.58208 14.1216 3.6356 14.6217 3.71026 15.0787C3.71414 15.0952 3.71748 15.112 3.72026 15.129C3.98942 16.7723 4.51447 17.9037 5.30385 18.692C6.09366 19.4808 7.22831 20.0062 8.87342 20.2804C9.282 20.3485 9.55801 20.7349 9.48992 21.1435C9.42182 21.5521 9.0354 21.8281 8.62682 21.76C6.79193 21.4542 5.32658 20.8346 4.2439 19.7534C3.17148 18.6824 2.55312 17.237 2.249 15.4258C2.24535 15.4102 2.24217 15.3945 2.23949 15.3785C2.14594 14.8218 2.0827 14.2207 2.04732 13.5802C2.03418 13.3425 2.02489 13.0993 2.01931 12.851C2.01 12.4369 2.33816 12.0937 2.75227 12.0844Z" fill="black"/>
<path fill-rule="evenodd" clip-rule="evenodd" d="M21.2455 12.0843C21.6596 12.0936 21.9877 12.4368 21.9784 12.8509C21.9728 13.0993 21.9635 13.3425 21.9503 13.5802C21.9157 14.2017 21.8548 14.7857 21.7666 15.3276C21.7651 15.3422 21.7631 15.3568 21.7607 15.3715C21.4594 17.2082 20.8391 18.6717 19.7559 19.7533C18.6731 20.8345 17.2078 21.4541 15.3729 21.7599C14.9643 21.828 14.5779 21.552 14.5098 21.1434C14.4417 20.7348 14.7177 20.3484 15.1263 20.2803C16.7714 20.0061 17.9061 19.4807 18.6961 18.6919C19.4781 17.911 20.0008 16.7936 20.2727 15.1756C20.2743 15.1607 20.2763 15.1457 20.2788 15.1308C20.3574 14.6594 20.414 14.1417 20.4478 13.5802C20.4625 13.3342 20.4729 13.0798 20.4788 12.8172C20.4881 12.4031 20.8314 12.075 21.2455 12.0843Z" fill="black"/>
<path fill-rule="evenodd" clip-rule="evenodd" d="M14.51 2.85887C14.5769 2.4501 14.9626 2.173 15.3714 2.23996C17.2077 2.54074 18.6737 3.16055 19.7567 4.24352C20.8397 5.32648 21.4595 6.79249 21.7603 8.62887C21.8272 9.03763 21.5501 9.42328 21.1413 9.49023C20.7326 9.55719 20.3469 9.28009 20.28 8.87132C20.0108 7.2277 19.4856 6.09371 18.696 5.30417C17.9065 4.51464 16.7725 3.98945 15.1289 3.72023C14.7201 3.65328 14.443 3.26763 14.51 2.85887Z" fill="black"/>
<path d="M1.43402 12.0802C1.01981 12.0802 0.684021 12.416 0.684021 12.8302C0.684021 13.2444 1.01981 13.5802 1.43402 13.5802H2.04732C2.03418 13.3425 2.02489 13.0993 2.01931 12.851C2.01 12.4369 2.33816 12.0937 2.75227 12.0844C3.16638 12.0751 3.50963 12.4032 3.51893 12.8173C3.52483 13.08 3.53512 13.3344 3.54979 13.5802H20.4478C20.4625 13.3342 20.4729 13.0798 20.4788 12.8172C20.4881 12.4031 20.8314 12.075 21.2455 12.0843C21.6596 12.0936 21.9877 12.4368 21.9784 12.8509C21.9728 13.0993 21.9635 13.3425 21.9503 13.5802H22.566C22.9802 13.5802 23.316 13.2444 23.316 12.8302C23.316 12.416 22.9802 12.0802 22.566 12.0802H1.43402Z" fill="black"/>
</svg>
