<svg width="24" height="24" viewBox="0 0 24 24" fill="none" xmlns="http://www.w3.org/2000/svg">
<path fill-rule="evenodd" clip-rule="evenodd" d="M13.8889 2.0827C13.8925 2.0827 13.896 2.08272 13.8996 2.08277C13.9422 2.08337 13.9841 2.08753 14.0247 2.09497C14.3741 2.15888 14.6389 2.46486 14.6389 2.8327V4.12038V5.4937C14.6389 6.9372 15.8088 8.1067 17.2529 8.1067H18.8245H20.2039C20.6181 8.1067 20.9539 8.44249 20.9539 8.8567C20.9539 9.27091 20.6181 9.6067 20.2039 9.6067H19.5383H17.2529C14.981 9.6067 13.1389 7.7662 13.1389 5.4937V3.53032V2.8327C13.1389 2.41849 13.4747 2.0827 13.8889 2.0827Z" fill="black"/>
<path fill-rule="evenodd" clip-rule="evenodd" d="M14.081 10.7182C14.3739 11.0111 14.3739 11.4859 14.081 11.7788L12.878 12.9818L11.8173 14.0425L10.615 15.2448C10.3221 15.5377 9.84726 15.5377 9.55437 15.2448C9.26148 14.9519 9.26148 14.4771 9.55437 14.1842L10.7567 12.9818L11.8173 11.9212L13.0204 10.7182C13.3133 10.4253 13.7881 10.4253 14.081 10.7182Z" fill="black"/>
<path d="M14.0803 15.2448C14.3732 14.9519 14.3732 14.4771 14.0803 14.1842L12.878 12.9818L11.8173 14.0425L13.0197 15.2448C13.3126 15.5377 13.7874 15.5377 14.0803 15.2448Z" fill="black"/>
<path d="M10.6143 10.7182C10.3214 10.4253 9.84656 10.4253 9.55367 10.7182C9.26078 11.0111 9.26078 11.4859 9.55367 11.7788L10.7567 12.9818L11.8173 11.9212L10.6143 10.7182Z" fill="black"/>
<path d="M11.995 2C8.79334 2 6.41747 2.58293 4.88562 4.27249C3.37384 5.93992 2.855 8.5048 2.855 12C2.855 15.4999 3.37372 18.0651 4.88584 19.7315C6.41793 21.4199 8.79407 22 11.995 22C15.2006 22 17.5793 21.42 19.1127 19.7318C20.6263 18.0653 21.145 15.4998 21.145 12C21.145 10.5511 21.0534 9.27377 20.853 8.16645C20.8247 8.00998 20.7474 7.86656 20.6322 7.7569L14.9622 2.3569C14.8482 2.24827 14.7028 2.17832 14.5468 2.15694C14.3768 2.13366 14.2028 2.11301 14.0247 2.09497C14.3741 2.15888 14.6389 2.46486 14.6389 2.8327V4.12038L18.8245 8.1067H20.2039C20.6181 8.1067 20.9539 8.44249 20.9539 8.8567C20.9539 9.27091 20.6181 9.6067 20.2039 9.6067H19.5383C19.6097 10.3243 19.645 11.1205 19.645 12C19.645 15.4402 19.1137 17.4997 18.0023 18.7232C16.9107 19.925 15.0894 20.5 11.995 20.5C8.90593 20.5 7.08707 19.9251 5.99666 18.7235C4.88628 17.4999 4.355 15.4401 4.355 12C4.355 8.5652 4.88616 6.50508 5.99688 5.28001C7.08753 4.07707 8.90666 3.5 11.995 3.5C12.395 3.5 12.7766 3.51019 13.1389 3.53032V2.8327C13.1389 2.41849 13.4747 2.0827 13.8889 2.0827L13.8996 2.08277C13.306 2.02725 12.6696 2 11.995 2Z" fill="black"/>
<path fill-rule="evenodd" clip-rule="evenodd" d="M12.878 12.9818L14.081 11.7788C14.3739 11.4859 14.3739 11.0111 14.081 10.7182C13.7881 10.4253 13.3133 10.4253 13.0204 10.7182L11.8173 11.9212L10.7567 12.9818L9.55437 14.1842C9.26148 14.4771 9.26148 14.9519 9.55437 15.2448C9.84726 15.5377 10.3221 15.5377 10.615 15.2448L11.8173 14.0425L12.878 12.9818ZM14.0247 2.09497C13.9841 2.08753 13.9422 2.08337 13.8996 2.08277L13.8889 2.0827C13.4747 2.0827 13.1389 2.41849 13.1389 2.8327V3.53032V5.4937C13.1389 7.7662 14.981 9.6067 17.2529 9.6067H19.5383H20.2039C20.6181 9.6067 20.9539 9.27091 20.9539 8.8567C20.9539 8.44249 20.6181 8.1067 20.2039 8.1067H18.8245H17.2529C15.8088 8.1067 14.6389 6.9372 14.6389 5.4937V4.12038V2.8327C14.6389 2.46486 14.3741 2.15888 14.0247 2.09497Z" fill="black"/>
</svg>
