<svg width="24" height="24" viewBox="0 0 24 24" fill="none" xmlns="http://www.w3.org/2000/svg">
<path fill-rule="evenodd" clip-rule="evenodd" d="M17.2699 10.0457C16.2689 10.0457 15.457 10.8575 15.457 11.8586C15.457 12.8607 16.2691 13.6724 17.2699 13.6724H20.4862H21.1566C21.5708 13.6724 21.9066 14.0082 21.9066 14.4224C21.9066 14.8366 21.5708 15.1724 21.1566 15.1724H20.2734H17.2699C15.4403 15.1724 13.957 13.6888 13.957 11.8586C13.957 10.0291 15.4405 8.54572 17.2699 8.54572H20.209H21.1261C21.4678 8.54572 21.7561 8.77421 21.8466 9.08673C21.8642 9.14748 21.8743 9.2114 21.8759 9.27744C21.876 9.28352 21.8761 9.28961 21.8761 9.29572C21.8761 9.70993 21.5403 10.0457 21.1261 10.0457H20.4599H17.2699Z" fill="black"/>
<path fill-rule="evenodd" clip-rule="evenodd" d="M16.6603 11.8C16.6603 11.3858 16.9961 11.05 17.4103 11.05H17.7074C18.1216 11.05 18.4574 11.3858 18.4574 11.8C18.4574 12.2142 18.1216 12.55 17.7074 12.55H17.4103C16.9961 12.55 16.6603 12.2142 16.6603 11.8Z" fill="black"/>
<path fill-rule="evenodd" clip-rule="evenodd" d="M6.84162 7.89057C6.84162 7.47636 7.17741 7.14057 7.59162 7.14057H11.6516C12.0658 7.14057 12.4016 7.47636 12.4016 7.89057C12.4016 8.30479 12.0658 8.64057 11.6516 8.64057H7.59162C7.17741 8.64057 6.84162 8.30479 6.84162 7.89057Z" fill="black"/>
<path d="M21.1566 13.6724C21.5708 13.6724 21.9066 14.0082 21.9066 14.4224C21.9066 14.8366 21.5708 15.1724 21.1566 15.1724H20.2734C19.9909 16.5051 19.49 17.4472 18.7589 18.1185C17.5275 19.2493 15.4569 19.789 12.0005 19.789C8.54351 19.789 6.47276 19.2493 5.24117 18.1185C4.02884 17.0054 3.44952 15.1479 3.44952 12C3.44952 8.85163 4.02886 6.99414 5.24115 5.88117C6.47271 4.75049 8.54345 4.21095 12.0005 4.21095C15.457 4.21095 17.5275 4.75048 18.759 5.88115C19.4375 6.50413 19.9177 7.36038 20.209 8.54572H21.1261C21.4678 8.54572 21.7561 8.77421 21.8466 9.08673C21.5527 7.26298 20.9156 5.8249 19.7734 4.77623C18.0987 3.23856 15.5192 2.71095 12.0005 2.71095C8.48131 2.71095 5.90157 3.23856 4.22671 4.77621C2.53257 6.33157 1.94952 8.74361 1.94952 12C1.94952 15.2559 2.53258 17.6679 4.22669 19.2234C5.90153 20.7612 8.48125 21.289 12.0005 21.289C15.5192 21.289 18.0987 20.7612 19.7735 19.2234C21.4674 17.6679 22.0505 15.256 22.0505 12C22.0505 11.0151 21.9971 10.1075 21.8759 9.27744L21.8761 9.29572C21.8761 9.70993 21.5403 10.0457 21.1261 10.0457H20.4599C20.5205 10.6347 20.5505 11.2839 20.5505 12C20.5505 12.6036 20.5292 13.1598 20.4862 13.6724H21.1566Z" fill="black"/>
</svg>
