<svg width="24" height="24" viewBox="0 0 24 24" fill="none" xmlns="http://www.w3.org/2000/svg">
<path fill-rule="evenodd" clip-rule="evenodd" d="M7.44624 9.47413C7.86045 9.47413 8.19624 9.80992 8.19624 10.2241V16.9178C8.19624 17.332 7.86045 17.6678 7.44624 17.6678C7.03202 17.6678 6.69624 17.332 6.69624 16.9178V10.2241C6.69624 9.80992 7.03202 9.47413 7.44624 9.47413Z" fill="black"/>
<path fill-rule="evenodd" clip-rule="evenodd" d="M12 6.27055C12.4142 6.27055 12.75 6.60634 12.75 7.02055V16.9184C12.75 17.3327 12.4142 17.6684 12 17.6684C11.5858 17.6684 11.25 17.3327 11.25 16.9184V7.02055C11.25 6.60634 11.5858 6.27055 12 6.27055Z" fill="black"/>
<path fill-rule="evenodd" clip-rule="evenodd" d="M16.4789 13.0114C16.8931 13.0114 17.2289 13.3472 17.2289 13.7614V16.9182C17.2289 17.3324 16.8931 17.6682 16.4789 17.6682C16.0647 17.6682 15.7289 17.3324 15.7289 16.9182V13.7614C15.7289 13.3472 16.0647 13.0114 16.4789 13.0114Z" fill="black"/>
<path fill-rule="evenodd" clip-rule="evenodd" d="M4.92365 4.92365C3.6246 6.22269 3.01318 8.39057 3.01318 12C3.01318 15.6095 3.6246 17.7774 4.92365 19.0764C6.22269 20.3755 8.39057 20.9869 12 20.9869C15.6095 20.9869 17.7774 20.3755 19.0764 19.0764C20.3755 17.7774 20.9869 15.6095 20.9869 12C20.9869 8.39057 20.3755 6.22269 19.0764 4.92365C17.7774 3.6246 15.6095 3.01318 12 3.01318C8.39057 3.01318 6.22269 3.6246 4.92365 4.92365ZM3.86299 3.86299C5.60683 2.11914 8.30737 1.51318 12 1.51318C15.6927 1.51318 18.3932 2.11914 20.1371 3.86299C21.8809 5.60683 22.4869 8.30737 22.4869 12C22.4869 15.6927 21.8809 18.3932 20.1371 20.1371C18.3932 21.8809 15.6927 22.4869 12 22.4869C8.30737 22.4869 5.60683 21.8809 3.86299 20.1371C2.11914 18.3932 1.51318 15.6927 1.51318 12C1.51318 8.30737 2.11914 5.60683 3.86299 3.86299Z" fill="black"/>
</svg>
