<svg width="24" height="24" viewBox="0 0 24 24" fill="none" xmlns="http://www.w3.org/2000/svg">
<path fill-rule="evenodd" clip-rule="evenodd" d="M8.8376 7.7731C8.27954 7.7731 7.8266 8.22559 7.8266 8.7841C7.8266 9.34261 8.27954 9.7951 8.8376 9.7951C9.39639 9.7951 9.8486 9.34289 9.8486 8.7841C9.8486 8.22531 9.39639 7.7731 8.8376 7.7731ZM6.3266 8.7841C6.3266 7.39661 7.45166 6.2731 8.8376 6.2731C10.2248 6.2731 11.3486 7.39689 11.3486 8.7841C11.3486 10.1713 10.2248 11.2951 8.8376 11.2951C7.45166 11.2951 6.3266 10.1716 6.3266 8.7841Z" fill="black"/>
<path fill-rule="evenodd" clip-rule="evenodd" d="M16.7041 11.1795C15.8734 11.1795 15.2573 11.5595 14.7952 12.0413C14.3734 12.4811 14.043 13.0462 13.7657 13.5204L13.7369 13.5698C13.4309 14.0927 13.1792 14.5123 12.8861 14.8131C12.6186 15.0875 12.3603 15.2175 12.0291 15.2175C11.5342 15.2175 11.1159 15.1488 10.7306 15.0478L9.25101 16.1422L9.29078 16.1566C9.95742 16.3977 10.8417 16.7175 12.0291 16.7175C12.8659 16.7175 13.4898 16.3428 13.9603 15.86C14.3972 15.4117 14.7348 14.8346 15.0164 14.3531L15.0316 14.3272C15.3391 13.8016 15.5881 13.3815 15.8777 13.0796C16.1418 12.8043 16.3903 12.6795 16.7041 12.6795C18.2918 12.6795 19.233 13.7156 20.0979 14.6677C20.1711 14.7483 20.2437 14.8282 20.3162 14.9069C20.405 15.0034 20.4935 15.098 20.5824 15.1894C20.8712 15.4863 21.346 15.493 21.643 15.2042C21.7314 15.1182 21.7941 15.0156 21.8309 14.9062C21.8634 14.8096 21.8757 14.7077 21.8678 14.6069C21.8544 14.4387 21.7846 14.274 21.6578 14.1436C21.5561 14.039 21.4399 13.9076 21.3082 13.7587C21.0817 13.5026 20.8094 13.1947 20.4862 12.8822C19.6224 12.0472 18.3947 11.1795 16.7041 11.1795ZM5.13366 19.1642C5.14182 19.1677 5.14666 19.1699 5.14954 19.1711C5.15373 19.1729 5.15373 19.173 5.15373 19.173C4.98821 19.5525 4.54619 19.7265 4.16653 19.5611C3.78679 19.3956 3.61308 18.9537 3.77853 18.5739C3.77853 18.5739 3.77853 18.5739 4.4661 18.8735C4.94194 19.0808 5.08852 19.1446 5.13366 19.1642ZM7.61222 14.4026L6.90901 14.6338C7.1529 14.5191 7.38705 14.4452 7.61222 14.4026Z" fill="black"/>
<path d="M6.90901 14.6338C6.40126 14.8723 5.96011 15.2649 5.59671 15.6691C5.22784 16.0794 4.90443 16.5409 4.64025 16.9638C4.54999 17.1083 4.46571 17.2498 4.38799 17.3852C4.52935 17.6775 4.68799 17.9424 4.86417 18.1826L6.90901 14.6338Z" fill="black"/>
<path d="M5.20228 19.0664C5.23629 18.9933 5.2873 18.8864 5.35345 18.7551L5.35694 18.7481C5.33911 18.7309 5.32145 18.7135 5.30396 18.696C5.1468 18.5389 5.00025 18.3682 4.86417 18.1826L4.4661 18.8735C4.94194 19.0808 5.08852 19.1446 5.13366 19.1642L5.14954 19.1711C5.15373 19.1729 5.15373 19.173 5.15373 19.173L5.15555 19.1688L5.1644 19.149C5.17259 19.1308 5.18529 19.1028 5.20228 19.0664Z" fill="black"/>
<path fill-rule="evenodd" clip-rule="evenodd" d="M4.86417 18.1826C4.68799 17.9424 4.52935 17.6775 4.38799 17.3852C3.78887 16.1463 3.5 14.4164 3.5 12C3.5 8.5731 4.08098 6.52693 5.30396 5.30396C6.52693 4.08098 8.5731 3.5 12 3.5C15.4269 3.5 17.4731 4.08098 18.696 5.30396C19.919 6.52693 20.5 8.5731 20.5 12C20.5 12.3049 20.4954 12.5988 20.4862 12.8822C19.6224 12.0472 18.3947 11.1795 16.7041 11.1795C15.8734 11.1795 15.2573 11.5595 14.7952 12.0413C14.3734 12.4811 14.043 13.0462 13.7657 13.5204L13.7369 13.5698C13.4309 14.0927 13.1792 14.5123 12.8861 14.8131C12.6186 15.0875 12.3603 15.2175 12.0291 15.2175C11.5342 15.2175 11.1159 15.1488 10.7306 15.0478C10.4047 14.9624 10.1024 14.8539 9.79743 14.7444C9.72288 14.7176 9.64816 14.6908 9.5729 14.6642C8.9992 14.4618 8.35454 14.2621 7.61222 14.4026C7.38705 14.4452 7.1529 14.5191 6.90901 14.6338L4.86417 18.1826ZM5.35694 18.7481L5.35345 18.7551C5.2873 18.8864 5.23629 18.9933 5.20228 19.0664C5.18529 19.1028 5.17259 19.1308 5.1644 19.149L5.15555 19.1688L5.15373 19.173C5.15373 19.173 5.15373 19.1729 5.14954 19.1711L5.13366 19.1642C5.08852 19.1446 4.94194 19.0808 4.4661 18.8735L4.86417 18.1826C5.00025 18.3682 5.1468 18.5389 5.30396 18.696C5.32145 18.7135 5.33911 18.7309 5.35694 18.7481ZM5.35694 18.7481C5.48954 18.4853 5.67964 18.1312 5.91245 17.7585C6.14852 17.3805 6.42048 16.9964 6.71217 16.672C7.0093 16.3415 7.29402 16.1102 7.54719 15.9912C8.02219 15.7679 8.38607 15.8361 9.0738 16.0788C9.13106 16.099 9.19011 16.1202 9.25101 16.1422L9.29078 16.1566C9.95742 16.3977 10.8417 16.7175 12.0291 16.7175C12.8659 16.7175 13.4898 16.3428 13.9603 15.86C14.3972 15.4117 14.7348 14.8346 15.0164 14.3531L15.0316 14.3272C15.3391 13.8016 15.5881 13.3815 15.8777 13.0796C16.1418 12.8043 16.3903 12.6795 16.7041 12.6795C18.2918 12.6795 19.233 13.7156 20.0979 14.6677C20.1711 14.7483 20.2437 14.8282 20.3162 14.9069C20.0578 16.6627 19.5241 17.868 18.696 18.696C17.4731 19.919 15.4269 20.5 12 20.5C8.76961 20.5 6.76614 19.9837 5.52258 18.9001C5.46579 18.8506 5.4106 18.8 5.35694 18.7481ZM6.3266 8.7841C6.3266 7.39661 7.45166 6.2731 8.8376 6.2731C10.2248 6.2731 11.3486 7.39689 11.3486 8.7841C11.3486 10.1713 10.2248 11.2951 8.8376 11.2951C7.45166 11.2951 6.3266 10.1716 6.3266 8.7841ZM4.24329 4.24329C5.91107 2.57552 8.4899 2 12 2C15.5101 2 18.0889 2.57552 19.7567 4.24329C21.4245 5.91107 22 8.4899 22 12C22 12.9349 21.9592 13.8038 21.8678 14.6069C21.8757 14.7077 21.8634 14.8096 21.8309 14.9062C21.5568 16.9744 20.9245 18.5889 19.7567 19.7567C18.0889 21.4245 15.5101 22 12 22C8.4899 22 5.91107 21.4245 4.24329 19.7567C2.57552 18.0889 2 15.5101 2 12C2 8.4899 2.57552 5.91107 4.24329 4.24329ZM8.8376 7.7731C8.27954 7.7731 7.8266 8.22559 7.8266 8.7841C7.8266 9.34261 8.27954 9.7951 8.8376 9.7951C9.39639 9.7951 9.8486 9.34289 9.8486 8.7841C9.8486 8.22531 9.39639 7.7731 8.8376 7.7731Z" fill="black"/>
</svg>
