<svg width="24" height="24" viewBox="0 0 24 24" fill="none" xmlns="http://www.w3.org/2000/svg">
<path fill-rule="evenodd" clip-rule="evenodd" d="M8.16819 15.9256C7.18288 16.5308 6.744 17.2466 6.744 17.8573C6.744 18.1498 6.83897 18.3628 7.01712 18.5478C7.21305 18.7512 7.53672 18.9456 8.02083 19.1079C8.99666 19.4352 10.3964 19.5592 12 19.5592C13.6113 19.5592 15.0103 19.4308 15.9829 19.1001C16.4653 18.936 16.7877 18.7402 16.983 18.5355C17.161 18.349 17.256 18.1341 17.256 17.8403C17.256 17.2332 16.8164 16.5214 15.8274 15.9189C14.8611 15.3301 13.4976 14.9373 12 14.9373C10.4942 14.9373 9.1316 15.3338 8.16819 15.9256ZM7.38307 14.6474C8.6084 13.8947 10.2488 13.4373 12 13.4373C13.7414 13.4373 15.3809 13.8904 16.6078 14.6379C17.8121 15.3716 18.756 16.4863 18.756 17.8403C18.756 18.5269 18.5074 19.1108 18.0682 19.5711C17.6462 20.0133 17.0778 20.3121 16.4658 20.5202C15.2497 20.9337 13.6457 21.0592 12 21.0592C10.3646 21.0592 8.76134 20.9383 7.54392 20.5301C6.9314 20.3247 6.36089 20.0287 5.93679 19.5884C5.4949 19.1297 5.244 18.5457 5.244 17.8573C5.244 16.5059 6.17962 15.3867 7.38307 14.6474Z" fill="black"/>
<path fill-rule="evenodd" clip-rule="evenodd" d="M7.4 7.53969C7.40057 4.99996 9.46014 2.94075 12 2.94075C14.5402 2.94075 16.6 5.00054 16.6 7.54075C16.6 10.0812 14.54 12.1397 12 12.1397H11.973L11.9705 12.1397C9.43705 12.1314 7.3934 10.0705 7.4 7.53969ZM7.4 7.53969C7.4 7.53933 7.4 7.53898 7.4 7.53863L8.15 7.54075H7.4C7.4 7.5404 7.4 7.54004 7.4 7.53969ZM12 4.44075C10.2882 4.44075 8.9 5.82896 8.9 7.54075V7.54287C8.89517 9.24715 10.2706 10.6335 11.9743 10.6397H12C13.712 10.6397 15.1 9.25228 15.1 7.54075C15.1 5.82896 13.7118 4.44075 12 4.44075Z" fill="black"/>
<path fill-rule="evenodd" clip-rule="evenodd" d="M17.4889 4.53957C17.5718 4.13374 17.9679 3.87193 18.3738 3.95482C20.0386 4.29484 21.2887 5.76688 21.2887 7.53065C21.2887 9.22206 20.1399 10.6407 18.5836 11.0572C18.1834 11.1642 17.7723 10.9267 17.6652 10.5265C17.5581 10.1264 17.7957 9.71521 18.1958 9.60814C19.1135 9.3626 19.7887 8.52524 19.7887 7.53065C19.7887 6.49242 19.0528 5.62446 18.0736 5.42448C17.6678 5.34159 17.406 4.94541 17.4889 4.53957Z" fill="black"/>
<path fill-rule="evenodd" clip-rule="evenodd" d="M18.2207 13.4855C18.2207 13.0712 18.5565 12.7355 18.9707 12.7355C20.012 12.7355 20.9779 13.0864 21.6944 13.6053C22.3834 14.1043 22.9727 14.864 22.9727 15.7365C22.9727 16.7435 22.1819 17.7011 21.0931 17.9566C20.6898 18.0513 20.2862 17.8011 20.1915 17.3978C20.0969 16.9946 20.3471 16.5909 20.7503 16.4963C21.2295 16.3838 21.4727 15.9794 21.4727 15.7365C21.4727 15.5469 21.313 15.1811 20.8145 14.8201C20.3435 14.479 19.6834 14.2355 18.9707 14.2355C18.5565 14.2355 18.2207 13.8997 18.2207 13.4855Z" fill="black"/>
<path fill-rule="evenodd" clip-rule="evenodd" d="M6.51111 4.53946C6.59406 4.94529 6.33231 5.34151 5.92649 5.42446C4.948 5.62445 4.2113 6.49266 4.2113 7.53065C4.2113 8.52511 4.88639 9.36249 5.80502 9.6081C6.20518 9.71509 6.44284 10.1262 6.33585 10.5264C6.22886 10.9265 5.81774 11.1642 5.41758 11.0572C3.86021 10.6408 2.7113 9.22219 2.7113 7.53065C2.7113 5.76664 3.9626 4.29485 5.62611 3.95484C6.03194 3.8719 6.42816 4.13364 6.51111 4.53946Z" fill="black"/>
<path fill-rule="evenodd" clip-rule="evenodd" d="M2.30564 13.6053C3.02211 13.0864 3.98795 12.7355 5.0293 12.7355C5.44351 12.7355 5.7793 13.0712 5.7793 13.4855C5.7793 13.8997 5.44351 14.2355 5.0293 14.2355C4.31665 14.2355 3.65649 14.479 3.18546 14.8201C2.687 15.1811 2.5273 15.5469 2.5273 15.7365C2.5273 15.9792 2.77027 16.3837 3.25046 16.4962C3.65374 16.5908 3.90404 16.9943 3.80951 17.3976C3.71498 17.8009 3.31143 18.0512 2.90814 17.9567C1.81833 17.7012 1.0273 16.7437 1.0273 15.7365C1.0273 14.864 1.61661 14.1043 2.30564 13.6053Z" fill="black"/>
</svg>
