<svg width="24" height="24" viewBox="0 0 24 24" fill="none" xmlns="http://www.w3.org/2000/svg">
<path fill-rule="evenodd" clip-rule="evenodd" d="M4.24329 4.24329C5.91107 2.57552 8.4899 2 12 2C15.5101 2 18.0889 2.57552 19.7567 4.24329C21.4245 5.91107 22 8.4899 22 12C22 15.5101 21.4245 18.0889 19.7567 19.7567C18.0889 21.4245 15.5101 22 12 22C8.4899 22 5.91107 21.4245 4.24329 19.7567C2.57552 18.0889 2 15.5101 2 12C2 8.4899 2.57552 5.91107 4.24329 4.24329ZM5.30396 5.30396C4.08098 6.52693 3.5 8.5731 3.5 12C3.5 15.4269 4.08098 17.4731 5.30396 18.696C6.52693 19.919 8.5731 20.5 12 20.5C15.4269 20.5 17.4731 19.919 18.696 18.696C19.919 17.4731 20.5 15.4269 20.5 12C20.5 8.5731 19.919 6.52693 18.696 5.30396C17.4731 4.08098 15.4269 3.5 12 3.5C8.5731 3.5 6.52693 4.08098 5.30396 5.30396Z" fill="black"/>
<path d="M12 16.8359C12.4142 16.8359 12.75 16.5001 12.75 16.0859V14.8072C12.7037 14.8497 12.6579 14.8906 12.6127 14.9296C12.4305 15.0868 12.2748 15.1985 12.1498 15.2675C12.066 15.3138 12.0177 15.3289 11.9999 15.3337C11.9821 15.3289 11.9339 15.3138 11.8503 15.2676C11.7255 15.1986 11.57 15.0869 11.388 14.9299C11.3425 14.8906 11.2965 14.8495 11.25 14.8066V16.0859C11.25 16.5001 11.5858 16.8359 12 16.8359Z" fill="black"/>
<path fill-rule="evenodd" clip-rule="evenodd" d="M5.30396 5.30396C4.08098 6.52693 3.5 8.5731 3.5 12C3.5 15.4269 4.08098 17.4731 5.30396 18.696C6.52693 19.919 8.5731 20.5 12 20.5C15.4269 20.5 17.4731 19.919 18.696 18.696C19.919 17.4731 20.5 15.4269 20.5 12C20.5 8.5731 19.919 6.52693 18.696 5.30396C17.4731 4.08098 15.4269 3.5 12 3.5C8.5731 3.5 6.52693 4.08098 5.30396 5.30396ZM12.75 7.9139C12.75 7.49969 12.4142 7.1639 12 7.1639C11.5858 7.1639 11.25 7.49969 11.25 7.9139V14.8066C10.9246 14.5069 10.5767 14.124 10.2431 13.7236C9.86536 13.2702 9.52229 12.8141 9.27268 12.4697C9.14823 12.298 9.04785 12.1552 8.97896 12.0559C8.94453 12.0063 8.91801 11.9676 8.90033 11.9416L8.88058 11.9125L8.87591 11.9056L8.87481 11.904C8.6441 11.56 8.17819 11.4681 7.8342 11.6988C7.49017 11.9295 7.39841 12.3956 7.62911 12.7396L7.63156 12.7432L7.63777 12.7524L7.66075 12.7863C7.68065 12.8155 7.70955 12.8577 7.74653 12.911C7.82045 13.0175 7.92682 13.1688 8.05812 13.35C8.32001 13.7113 8.68444 14.1962 9.09068 14.6838C9.49347 15.1672 9.9539 15.6734 10.4078 16.0653C10.6346 16.2611 10.877 16.4435 11.1245 16.5803C11.3628 16.7121 11.6664 16.8359 12 16.8359C12.3335 16.8359 12.637 16.7121 12.8753 16.5804C13.1228 16.4436 13.3654 16.2613 13.5924 16.0655C14.0466 15.6737 14.5075 15.1676 14.9108 14.6841C15.3176 14.1966 15.6825 13.7117 15.9447 13.3504C16.0762 13.1692 16.1828 13.0179 16.2568 12.9114C16.2938 12.8581 16.3228 12.8159 16.3427 12.7867L16.3657 12.7529L16.3719 12.7437L16.3745 12.7399C16.6055 12.396 16.5139 11.93 16.1701 11.6991C15.8262 11.4682 15.3602 11.5599 15.1292 11.9037L15.1282 11.9052L15.1235 11.9121L15.1037 11.9412C15.086 11.9671 15.0595 12.0058 15.025 12.0555C14.956 12.1548 14.8554 12.2976 14.7308 12.4693C14.4808 12.8137 14.1372 13.2698 13.759 13.7233C13.4247 14.124 13.076 14.5072 12.75 14.8072V7.9139ZM12.75 14.8072V16.0859C12.75 16.5001 12.4142 16.8359 12 16.8359C11.5858 16.8359 11.25 16.5001 11.25 16.0859V14.8066C11.2965 14.8495 11.3425 14.8906 11.388 14.9299C11.57 15.0869 11.7255 15.1986 11.8503 15.2676C11.9339 15.3138 11.9821 15.3289 11.9999 15.3337C12.0177 15.3289 12.066 15.3138 12.1498 15.2675C12.2748 15.1985 12.4305 15.0868 12.6127 14.9296C12.6579 14.8906 12.7037 14.8497 12.75 14.8072ZM12 2C8.4899 2 5.91107 2.57552 4.24329 4.24329C2.57552 5.91107 2 8.4899 2 12C2 15.5101 2.57552 18.0889 4.24329 19.7567C5.91107 21.4245 8.4899 22 12 22C15.5101 22 18.0889 21.4245 19.7567 19.7567C21.4245 18.0889 22 15.5101 22 12C22 8.4899 21.4245 5.91107 19.7567 4.24329C18.0889 2.57552 15.5101 2 12 2Z" fill="black"/>
</svg>
