<svg width="24" height="24" viewBox="0 0 24 24" fill="none" xmlns="http://www.w3.org/2000/svg">
<path fill-rule="evenodd" clip-rule="evenodd" d="M5.64532 15.8822L5.64748 15.8785L5.6555 15.8651L5.68877 15.8099C5.71844 15.7609 5.76288 15.6881 5.82074 15.5949C5.93651 15.4086 6.10581 15.141 6.31808 14.8194C6.74345 14.1749 7.33743 13.3193 8.01579 12.4671C8.69766 11.6105 9.44684 10.7801 10.1806 10.1707C10.9429 9.53757 11.5622 9.25 12 9.25C12.4375 9.25 13.0567 9.53751 13.819 10.1707C14.5527 10.7801 15.3019 11.6105 15.9839 12.4671C16.6623 13.3193 17.2564 14.1749 17.6818 14.8194C17.8941 15.1411 18.0635 15.4086 18.1793 15.595C18.2371 15.6882 18.2816 15.761 18.3113 15.81L18.3445 15.8652L18.3526 15.8786L18.3544 15.8816C18.5654 16.238 19.0258 16.3564 19.3821 16.1453C19.7386 15.9343 19.8564 15.4743 19.6453 15.1179L19 15.5C19.6453 15.1179 19.6453 15.1179 19.6453 15.1179L19.6441 15.1158L19.6414 15.1112L19.6315 15.0947L19.5942 15.0328C19.5618 14.9793 19.5144 14.9017 19.4534 14.8034C19.3313 14.607 19.1546 14.3277 18.9337 13.9931C18.4927 13.3251 17.8721 12.4307 17.1574 11.5329C16.4462 10.6395 15.6239 9.71989 14.7774 9.01681C13.9596 8.33749 12.99 7.75 12 7.75C11.0098 7.75 10.0401 8.33743 9.22218 9.0168C8.37566 9.71989 7.55334 10.6395 6.84221 11.5329C6.12757 12.4307 5.50705 13.3251 5.06617 13.9931C4.84531 14.3277 4.66855 14.6071 4.54654 14.8035C4.48551 14.9017 4.43813 14.9793 4.40571 15.0329L4.36845 15.0947L4.35854 15.1113L4.35503 15.1172C4.35503 15.1172 4.35461 15.1179 5 15.5L4.35503 15.1172C4.14402 15.4737 4.26149 15.9344 4.61793 16.1454C4.97433 16.3564 5.43428 16.2385 5.64532 15.8822Z" fill="black"/>
</svg>
