<svg width="24" height="24" viewBox="0 0 24 24" fill="none" xmlns="http://www.w3.org/2000/svg">
<path fill-rule="evenodd" clip-rule="evenodd" d="M9.36738 2.73125C10.0231 2.27409 10.8889 2.0081 11.9992 2.0081C13.1098 2.0081 13.9757 2.27408 14.6316 2.73119C15.2863 3.18751 15.6723 3.79295 15.8949 4.37168C16.0917 4.88304 16.1653 5.38372 16.1889 5.77381H20.0752C20.4895 5.77381 20.8252 6.1096 20.8252 6.52381C20.8252 6.93802 20.4895 7.27381 20.0752 7.27381H15.4377C15.4298 7.27393 15.422 7.27393 15.4141 7.27381H8.58533C8.57745 7.27393 8.56958 7.27393 8.56174 7.27381H3.92476C3.51055 7.27381 3.17476 6.93802 3.17476 6.52381C3.17476 6.1096 3.51055 5.77381 3.92476 5.77381H7.81054C7.83406 5.38374 7.9077 4.88309 8.10433 4.37176C8.32688 3.79304 8.71281 3.18759 9.36738 2.73125ZM9.31436 5.77381C9.33668 5.50993 9.39071 5.20573 9.50438 4.91015C9.64386 4.54743 9.86703 4.21146 10.2252 3.96173C10.5823 3.71281 11.1329 3.5081 11.9992 3.5081C12.8659 3.5081 13.4167 3.71283 13.7739 3.96178C14.1322 4.21154 14.3554 4.54753 14.495 4.91022C14.6087 5.20578 14.6627 5.50995 14.685 5.77381H9.31436ZM5.40305 8.8481C5.81726 8.8481 6.15305 9.18388 6.15305 9.5981C6.15305 10.6059 6.13459 11.5441 6.1176 12.4078L6.11745 12.4155C6.10035 13.2846 6.08492 14.0733 6.09027 14.7949C6.10109 16.2543 6.19863 17.3498 6.49155 18.1767C6.76812 18.9575 7.21831 19.4992 8.00597 19.8725C8.83811 20.2668 10.0884 20.4919 11.9897 20.4919C13.8906 20.4919 15.1426 20.2669 15.9772 19.8722C16.7677 19.4984 17.2206 18.9558 17.4996 18.1748C17.795 17.348 17.8953 16.2527 17.9083 14.7938C17.9148 14.0724 17.9002 13.2838 17.8838 12.415L17.8829 12.3644C17.8667 11.5127 17.8492 10.589 17.8492 9.5981C17.8492 9.18388 18.185 8.8481 18.5992 8.8481C19.0135 8.8481 19.3492 9.18388 19.3492 9.5981C19.3492 10.5747 19.3665 11.4862 19.3827 12.3405L19.3835 12.3866C19.3999 13.2509 19.4149 14.0611 19.4083 14.8072C19.3951 16.2833 19.2987 17.5977 18.9122 18.6795C18.5093 19.8071 17.7951 20.6718 16.6184 21.2283C15.4859 21.7638 13.9707 21.9919 11.9897 21.9919C10.0087 21.9919 8.49441 21.7639 7.36361 21.228C6.18832 20.671 5.47714 19.8054 5.07764 18.6776C4.69449 17.5959 4.60125 16.2816 4.59032 14.806C4.58479 14.0607 4.60072 13.2512 4.6177 12.3878L4.61778 12.3836C4.63483 11.517 4.65305 10.5911 4.65305 9.5981C4.65305 9.18388 4.98883 8.8481 5.40305 8.8481Z" fill="black"/>
</svg>
