<svg width="24" height="24" viewBox="0 0 24 24" fill="none" xmlns="http://www.w3.org/2000/svg">
<path fill-rule="evenodd" clip-rule="evenodd" d="M4.24329 19.7567C2.57552 18.0889 2 15.5101 2 12C2 8.4899 2.57552 5.91107 4.24329 4.2433C5.91107 2.57552 8.4899 2 12 2C15.5101 2 18.0889 2.57552 19.7567 4.2433C21.4245 5.91107 22 8.4899 22 12C22 15.5101 21.4245 18.0889 19.7567 19.7567C18.0889 21.4245 15.5101 22 12 22C8.4899 22 5.91107 21.4245 4.24329 19.7567ZM5.30396 18.696C6.52693 19.919 8.5731 20.5 12 20.5C15.4269 20.5 17.4731 19.919 18.696 18.696C19.919 17.4731 20.5 15.4269 20.5 12C20.5 8.5731 19.919 6.52693 18.696 5.30396C17.4731 4.08098 15.4269 3.5 12 3.5C8.5731 3.5 6.52693 4.08098 5.30396 5.30396C4.08098 6.52693 3.5 8.5731 3.5 12C3.5 15.4269 4.08098 17.4731 5.30396 18.696Z" fill="black"/>
<path fill-rule="evenodd" clip-rule="evenodd" d="M9.93952 8.1056C10.1737 7.76397 10.6406 7.6769 10.9822 7.91112L10.5581 8.5297C10.9822 7.91112 10.9822 7.91112 10.9822 7.91112L10.9858 7.91357L10.9943 7.91945L11.0257 7.9412C11.0527 7.96003 11.0918 7.98737 11.1412 8.02231C11.2399 8.09217 11.38 8.1926 11.5478 8.31633C11.8826 8.5631 12.3318 8.90578 12.7837 9.28556C13.2314 9.66192 13.7012 10.0909 14.0654 10.5098C14.2473 10.719 14.4182 10.9431 14.5473 11.1716C14.6699 11.3886 14.7941 11.6776 14.7941 11.9997C14.7941 12.3218 14.6699 12.6108 14.5473 12.8278C14.4183 13.0563 14.2474 13.2805 14.0656 13.4897C13.7014 13.9089 13.2316 14.3381 12.7839 14.7147C12.332 15.0947 11.8828 15.4376 11.5481 15.6846C11.3802 15.8084 11.2401 15.9089 11.1414 15.9788C11.092 16.0138 11.0529 16.0412 11.0259 16.06L10.9945 16.0818L10.986 16.0877L10.9826 16.09C10.9826 16.09 10.9824 16.0901 10.5581 15.4717L10.9826 16.09C10.6411 16.3244 10.174 16.2376 9.93969 15.896C9.70535 15.5545 9.7922 15.0877 10.1337 14.8534L10.1353 14.8523L10.1417 14.8478L10.1686 14.8291C10.1926 14.8124 10.2284 14.7873 10.2744 14.7548C10.3663 14.6897 10.4985 14.5949 10.6575 14.4776C10.9764 14.2423 11.3987 13.9197 11.8183 13.5667C12.2421 13.2103 12.6438 12.839 12.9333 12.5059C13.0783 12.339 13.1797 12.1992 13.2413 12.0901C13.2647 12.0487 13.2783 12.0189 13.286 11.9997C13.2783 11.9806 13.2647 11.9508 13.2413 11.9095C13.1798 11.8005 13.0784 11.6607 12.9334 11.4939C12.644 11.161 12.2423 10.79 11.8185 10.4338C11.3989 10.0811 10.9766 9.7588 10.6577 9.52369C10.4988 9.40649 10.3666 9.31176 10.2746 9.2467C10.2287 9.21418 10.1929 9.18912 10.1688 9.1724L10.1419 9.15373L10.1355 9.14931L10.1341 9.14836M9.93952 8.1056C9.70532 8.44721 9.79256 8.91412 10.1341 9.14836L9.93952 8.1056Z" fill="black"/>
</svg>
