<svg width="24" height="24" viewBox="0 0 24 24" fill="none" xmlns="http://www.w3.org/2000/svg">
<path fill-rule="evenodd" clip-rule="evenodd" d="M7.8222 9.2177C7.8222 8.80349 8.15799 8.4677 8.5722 8.4677H15.4272C15.8414 8.4677 16.1772 8.80349 16.1772 9.2177C16.1772 9.63191 15.8414 9.9677 15.4272 9.9677H8.5722C8.15799 9.9677 7.8222 9.63191 7.8222 9.2177Z" fill="black"/>
<path fill-rule="evenodd" clip-rule="evenodd" d="M7.98855 2.02799C9.06799 1.80708 10.3986 1.75 12 1.75C13.6014 1.75 14.932 1.80708 16.0115 2.02799C17.1045 2.25168 18.0053 2.65608 18.682 3.39749C19.3508 4.13015 19.723 5.10742 19.9363 6.31915C20.1492 7.52872 20.216 9.04736 20.216 10.929C20.216 11.6552 20.2172 12.337 20.2184 12.9766C20.2239 16.0013 20.2276 18.0807 20.0912 19.4369C20.0099 20.2461 19.8696 20.9329 19.561 21.4262C19.3951 21.6915 19.1748 21.9113 18.8887 22.0577C18.6077 22.2015 18.311 22.25 18.027 22.25C17.3782 22.25 16.7491 21.8931 16.2414 21.5403C15.7456 21.1959 15.2238 20.7499 14.7304 20.3282C14.6913 20.2948 14.6523 20.2615 14.6136 20.2284C14.0687 19.7633 13.5569 19.3339 13.0766 19.0186C12.5784 18.6915 12.2282 18.566 12 18.566C11.7718 18.566 11.4216 18.6915 10.9234 19.0186C10.4431 19.3339 9.93133 19.7633 9.38642 20.2284C9.34768 20.2615 9.30874 20.2948 9.26962 20.3282C8.77616 20.7499 8.25436 21.1959 7.75865 21.5403C7.25086 21.8931 6.62178 22.25 5.973 22.25C5.68902 22.25 5.39234 22.2015 5.11135 22.0577C4.82523 21.9113 4.60488 21.6915 4.43896 21.4262C4.13044 20.9329 3.99013 20.2461 3.90876 19.4369C3.77239 18.0807 3.77615 16.0013 3.78161 12.9766C3.78277 12.337 3.784 11.6552 3.784 10.929C3.784 9.04736 3.85084 7.52872 4.06375 6.31915C4.27704 5.10742 4.64915 4.13015 5.31795 3.39749C5.99473 2.65608 6.89554 2.25168 7.98855 2.02799ZM5.54104 6.57919C5.35204 7.65291 5.284 9.06214 5.284 10.929C5.284 11.6729 5.28282 12.3658 5.28173 13.011C5.2766 16.0367 5.27324 18.014 5.40124 19.2868C5.48012 20.0713 5.59981 20.4535 5.71072 20.6309C5.75453 20.7009 5.78376 20.7168 5.79454 20.7223C5.81044 20.7305 5.85798 20.75 5.973 20.75C6.12173 20.75 6.41639 20.6464 6.90273 20.3085C7.33388 20.0089 7.80028 19.6105 8.31234 19.1732C8.34556 19.1448 8.37897 19.1162 8.41258 19.0876C8.94667 18.6317 9.52837 18.1401 10.1002 17.7647C10.6541 17.401 11.3147 17.066 12 17.066C12.6853 17.066 13.3459 17.401 13.8998 17.7647C14.4716 18.1401 15.0533 18.6317 15.5874 19.0876C15.621 19.1162 15.6544 19.1448 15.6877 19.1731C16.1997 19.6105 16.6661 20.0089 17.0973 20.3085C17.5836 20.6464 17.8783 20.75 18.027 20.75C18.142 20.75 18.1896 20.7305 18.2055 20.7223C18.2162 20.7168 18.2455 20.7009 18.2893 20.6309C18.4002 20.4535 18.5199 20.0713 18.5988 19.2868C18.7268 18.014 18.7234 16.0367 18.7183 13.0109C18.7172 12.3657 18.716 11.6729 18.716 10.929C18.716 9.06214 18.648 7.65291 18.459 6.57919C18.2703 5.50764 17.9735 4.84622 17.5742 4.40876C17.1829 3.98004 16.6164 3.68288 15.7107 3.49754C14.7915 3.30942 13.5921 3.25 12 3.25C10.4079 3.25 9.20851 3.30942 8.2893 3.49754C7.38365 3.68288 6.81715 3.98004 6.4258 4.40876C6.02647 4.84622 5.72965 5.50764 5.54104 6.57919Z" fill="black"/>
</svg>
