<svg width="24" height="24" viewBox="0 0 24 24" fill="none" xmlns="http://www.w3.org/2000/svg">
<path fill-rule="evenodd" clip-rule="evenodd" d="M4.08819 8.24146C5.75417 7.27981 9.57658 5.92199 13.2488 4.91091C15.0725 4.40879 16.8256 4.00152 18.2168 3.77559C18.6194 3.71021 18.9857 3.66102 19.3105 3.62885L20.49 2.44932C20.7226 2.21669 21.0701 2.16883 21.3499 2.30573C21.1361 2.1969 20.8977 2.14467 20.6815 2.11688C20.4486 2.08694 20.1891 2.07921 19.9156 2.08637C19.3686 2.10068 18.7065 2.17642 17.9764 2.29498C16.5128 2.53266 14.7034 2.95461 12.8506 3.46472C9.17012 4.47809 5.18446 5.8767 3.33829 6.94236C2.76006 7.27615 2.26778 7.71544 2.12447 8.31779C1.97 8.96701 2.28173 9.51017 2.63277 9.8825C2.98502 10.2561 3.48077 10.5781 4.00748 10.8555C4.54424 11.1381 5.16234 11.3994 5.79852 11.6359C7.07115 12.109 8.46703 12.5014 9.53626 12.7741C10.0727 12.911 10.5309 13.0187 10.8555 13.0923L10.8981 13.1019L10.9077 13.1445C10.9813 13.4691 11.089 13.9273 11.2259 14.4637C11.4986 15.533 11.891 16.9289 12.3641 18.2015C12.6006 18.8377 12.8619 19.4558 13.1445 19.9925C13.4219 20.5192 13.7439 21.015 14.1175 21.3672C14.4898 21.7183 15.033 22.03 15.6822 21.8755C16.2846 21.7322 16.7239 21.2399 17.0577 20.6617C18.1233 18.8155 19.5219 14.8299 20.5353 11.1494C21.0454 9.29665 21.4673 7.48718 21.705 6.0236C21.8236 5.29348 21.8993 4.63136 21.9136 4.08439C21.9208 3.81087 21.9131 3.55141 21.8831 3.31847C21.8553 3.1023 21.8031 2.86388 21.6942 2.65C21.8312 2.92988 21.7833 3.27734 21.5507 3.50998L20.3712 4.68951C20.339 5.01427 20.2898 5.38056 20.2244 5.78316C19.9985 7.17442 19.5912 8.92751 19.0891 10.7512C18.078 14.4234 16.7202 18.2458 15.7585 19.9118C15.5288 20.3097 15.3756 20.3976 15.3418 20.4133C15.3159 20.4059 15.2537 20.3769 15.1465 20.2758C14.95 20.0905 14.7195 19.7641 14.4718 19.2937C14.2295 18.8334 13.9934 18.2796 13.7701 17.6788C13.3235 16.4775 12.9462 15.1393 12.6793 14.093C12.5464 13.5717 12.4418 13.1267 12.3705 12.8126L12.348 12.7127L12.0583 13.0024C11.7654 13.2953 11.2905 13.2953 10.9976 13.0024C10.7047 12.7095 10.7047 12.2346 10.9976 11.9417L11.2873 11.652L11.1874 11.6295C10.8733 11.5582 10.4283 11.4536 9.907 11.3207C8.86067 11.0538 7.52251 10.6765 6.32122 10.2299C5.72044 10.0066 5.16661 9.77054 4.7063 9.52818C4.23593 9.28053 3.90947 9.05003 3.72417 8.8535C3.62308 8.74628 3.59409 8.68408 3.58669 8.65818C3.60238 8.62444 3.69025 8.47117 4.08819 8.24146ZM3.58483 8.6439C3.58483 8.6439 3.58618 8.64744 3.5856 8.65398C3.58399 8.64707 3.58483 8.6439 3.58483 8.6439Z" fill="black"/>
<path d="M20.4045 3.59551C20.4149 3.71548 20.4189 3.86481 20.4141 4.04514C20.4091 4.23632 20.3947 4.45179 20.3712 4.68951L21.5507 3.50998C21.7833 3.27734 21.8312 2.92988 21.6942 2.65L21.6823 2.6271C21.649 2.56454 21.6072 2.50738 21.5583 2.45709L21.5507 2.44932L21.5429 2.44167C21.4926 2.39282 21.4355 2.351 21.3729 2.31768L21.3499 2.30573C21.0701 2.16883 20.7226 2.21669 20.49 2.44932L19.3105 3.62885C19.5482 3.6053 19.7637 3.59086 19.9549 3.58586C20.1352 3.58114 20.2845 3.58511 20.4045 3.59551Z" fill="black"/>
<path d="M11.6488 11.7311L11.5529 11.7106C11.4873 11.6964 11.3977 11.6768 11.2873 11.652L10.9976 11.9417C10.7047 12.2346 10.7047 12.7095 10.9976 13.0024C11.2905 13.2953 11.7654 13.2953 12.0583 13.0024L12.348 12.7127C12.3232 12.6023 12.3036 12.5127 12.2894 12.4471L12.2689 12.3512L12.2639 12.3273L12.2624 12.3201C12.2018 12.0271 11.9726 11.7982 11.6797 11.7376L11.6727 11.7361L11.6488 11.7311Z" fill="black"/>
<path d="M11.5529 11.7106L11.6488 11.7311L11.6727 11.7361L11.6797 11.7376C11.9726 11.7982 12.2018 12.0271 12.2624 12.3201L12.2639 12.3273L12.2689 12.3512L12.2894 12.4471C12.3036 12.5127 12.3232 12.6023 12.348 12.7127L20.3712 4.68951C20.3947 4.45179 20.4091 4.23632 20.4141 4.04514C20.4189 3.86481 20.4149 3.71548 20.4045 3.59551C20.2845 3.58511 20.1352 3.58114 19.9549 3.58586C19.7637 3.59086 19.5482 3.6053 19.3105 3.62885L11.2873 11.652C11.3977 11.6768 11.4873 11.6964 11.5529 11.7106Z" fill="black"/>
</svg>
