<svg width="24" height="24" viewBox="0 0 24 24" fill="none" xmlns="http://www.w3.org/2000/svg">
<path fill-rule="evenodd" clip-rule="evenodd" d="M8.3427 16.1354C8.3427 15.7212 8.67849 15.3854 9.0927 15.3854H14.9077C15.3219 15.3854 15.6577 15.7212 15.6577 16.1354C15.6577 16.5496 15.3219 16.8854 14.9077 16.8854H9.0927C8.67849 16.8854 8.3427 16.5496 8.3427 16.1354Z" fill="black"/>
<path fill-rule="evenodd" clip-rule="evenodd" d="M6.82386 5.97765C6.41131 6.35978 6.0409 6.68822 5.71162 6.97845C5.66514 7.01941 5.61964 7.05949 5.57505 7.09875C5.29614 7.34435 5.05325 7.55824 4.83507 7.75963C4.32976 8.22608 4.01057 8.57827 3.78485 8.97216C3.33235 9.76176 3.164 10.869 3.164 13.713C3.164 15.7691 3.28706 17.2451 3.56516 18.3153C3.83815 19.3658 4.24511 19.9679 4.78422 20.3548C5.34725 20.759 6.15104 20.9997 7.36145 21.1245C8.57066 21.2491 10.079 21.25 12 21.25C13.921 21.25 15.4293 21.2491 16.6386 21.1245C17.849 20.9997 18.6527 20.759 19.2158 20.3548C19.7549 19.9679 20.1618 19.3658 20.4348 18.3153C20.7129 17.2451 20.836 15.7691 20.836 13.713C20.836 10.8689 20.6679 9.76166 20.2156 8.97204C19.99 8.57818 19.6709 8.22601 19.1657 7.75958C18.9474 7.55801 18.7043 7.34391 18.4251 7.09801C18.3807 7.05898 18.3355 7.01914 18.2893 6.97843C17.9601 6.6882 17.5897 6.35976 17.1771 5.97762C16.9329 5.78041 16.6799 5.56703 16.4177 5.34588C15.8466 4.86414 15.2317 4.34554 14.5684 3.87695C13.5835 3.18118 12.6915 2.75 11.972 2.75C11.2549 2.75 10.375 3.18121 9.40313 3.87803C8.76884 4.33278 8.18861 4.827 7.64342 5.29137C7.36176 5.53128 7.08944 5.76323 6.82386 5.97765ZM8.52912 2.65897C9.52945 1.94179 10.7461 1.25 11.972 1.25C13.1945 1.25 14.421 1.93632 15.4339 2.6518C16.1498 3.15759 16.8581 3.75449 17.451 4.25416C17.7039 4.46729 17.9359 4.66274 18.1384 4.82587C18.152 4.83681 18.1652 4.84822 18.178 4.86008C18.584 5.23662 18.9494 5.5607 19.2812 5.85318C19.3262 5.89284 19.3707 5.93205 19.4147 5.97083C19.6926 6.21553 19.9508 6.4429 20.1832 6.65748C20.7225 7.15537 21.1764 7.63157 21.5172 8.22646C22.1976 9.41434 22.336 10.9261 22.336 13.713C22.336 15.8004 22.2142 17.432 21.8866 18.6926C21.554 19.9727 20.9945 20.9245 20.0905 21.5734C19.2104 22.2051 18.0944 22.4824 16.7924 22.6166C15.4977 22.75 13.9134 22.75 12.0372 22.75H11.9628C10.0866 22.75 8.50231 22.75 7.20765 22.6166C5.90565 22.4824 4.78962 22.2051 3.90953 21.5734C3.00551 20.9245 2.44603 19.9727 2.11337 18.6926C1.78581 17.432 1.664 15.8004 1.664 13.713C1.664 10.926 1.80265 9.41424 2.4834 8.22634C2.8243 7.63148 3.2783 7.1553 3.81764 6.65743C4.04983 6.4431 4.30775 6.216 4.58531 5.97161C4.62964 5.93257 4.67448 5.89309 4.7198 5.85316C5.05161 5.56069 5.41699 5.23661 5.82301 4.86008C5.83584 4.84818 5.84908 4.83674 5.86271 4.82577C6.07483 4.65502 6.32239 4.44454 6.59393 4.21367C7.16791 3.72566 7.84904 3.14655 8.52912 2.65897Z" fill="black"/>
</svg>
