<svg width="24" height="24" viewBox="0 0 24 24" fill="none" xmlns="http://www.w3.org/2000/svg">
<path fill-rule="evenodd" clip-rule="evenodd" d="M5.30396 5.30396C4.08098 6.52693 3.5 8.5731 3.5 12C3.5 15.4269 4.08098 17.4731 5.30396 18.696C6.52693 19.919 8.5731 20.5 12 20.5C15.4269 20.5 17.4731 19.919 18.696 18.696C19.919 17.4731 20.5 15.4269 20.5 12C20.5 8.5731 19.919 6.52693 18.696 5.30396C17.4731 4.08098 15.4269 3.5 12 3.5C8.5731 3.5 6.52693 4.08098 5.30396 5.30396ZM4.24329 4.24329C5.91107 2.57552 8.4899 2 12 2C15.5101 2 18.0889 2.57552 19.7567 4.24329C21.4245 5.91107 22 8.4899 22 12C22 15.5101 21.4245 18.0889 19.7567 19.7567C18.0889 21.4245 15.5101 22 12 22C8.4899 22 5.91107 21.4245 4.24329 19.7567C2.57552 18.0889 2 15.5101 2 12C2 8.4899 2.57552 5.91107 4.24329 4.24329Z" fill="black"/>
<path fill-rule="evenodd" clip-rule="evenodd" d="M12 7.3549C12.4142 7.3549 12.75 7.69069 12.75 8.1049V11.9999C12.75 12.4141 12.4142 12.7499 12 12.7499C11.5858 12.7499 11.25 12.4141 11.25 11.9999V8.1049C11.25 7.69069 11.5858 7.3549 12 7.3549Z" fill="black"/>
<path fill-rule="evenodd" clip-rule="evenodd" d="M11.2457 15.4999C11.2457 15.0857 11.5815 14.7499 11.9957 14.7499H12.0047C12.4189 14.7499 12.7547 15.0857 12.7547 15.4999C12.7547 15.9141 12.4189 16.2499 12.0047 16.2499H11.9957C11.5815 16.2499 11.2457 15.9141 11.2457 15.4999Z" fill="black"/>
</svg>
