<svg width="24" height="24" viewBox="0 0 24 24" fill="none" xmlns="http://www.w3.org/2000/svg">
<path fill-rule="evenodd" clip-rule="evenodd" d="M10.9504 3.37799C11.195 3.19024 11.5684 2.9481 11.9927 2.9481C12.4132 2.9481 12.7861 3.18543 13.0325 3.37128C13.3149 3.58423 13.6097 3.87075 13.8994 4.1897C14.4817 4.83092 15.1098 5.67771 15.6646 6.53745C16.2185 7.3957 16.7192 8.29794 17.0337 9.0551C17.1891 9.42921 17.3142 9.8035 17.3659 10.1373C17.3918 10.3043 17.4047 10.4936 17.3767 10.6835C17.3486 10.8741 17.2711 11.1151 17.0724 11.3141C16.9267 11.4598 16.7521 11.5516 16.6141 11.6111C16.4667 11.6746 16.3038 11.7255 16.1382 11.7676C15.807 11.8519 15.4053 11.916 14.9715 11.9647C14.3153 12.0383 13.5432 12.0811 12.7486 12.0959V20.3019C12.7486 20.7161 12.4128 21.0519 11.9986 21.0519C11.5844 21.0519 11.2486 20.7161 11.2486 20.3019V12.0912C10.4316 12.0711 9.63904 12.0222 8.97225 11.9449C8.54395 11.8953 8.14985 11.8319 7.82775 11.7515C7.66699 11.7113 7.50876 11.6632 7.36634 11.6035C7.23596 11.5489 7.05975 11.4608 6.91336 11.3144C6.70566 11.1067 6.63794 10.8536 6.61694 10.6714C6.5956 10.4864 6.61333 10.3022 6.64189 10.1413C6.69924 9.81808 6.82602 9.45111 6.98222 9.08082C7.29844 8.33118 7.79496 7.4295 8.3438 6.56753C8.89323 5.70464 9.51419 4.85155 10.0906 4.20477C10.3772 3.88311 10.6696 3.59349 10.9504 3.37799ZM8.14496 10.2843C8.15967 10.2882 8.17508 10.2922 8.1912 10.2962C8.42518 10.3546 8.7483 10.4089 9.14499 10.4549C9.93462 10.5465 10.946 10.5972 11.9699 10.6015C12.9941 10.6057 14.0084 10.5633 14.8044 10.474C15.2042 10.4292 15.5305 10.3745 15.7683 10.314C15.8053 10.3046 15.8386 10.2954 15.8686 10.2865C15.8343 10.1273 15.7636 9.90755 15.6485 9.63047C15.3803 8.98476 14.9297 8.165 14.4043 7.35075C13.8798 6.53799 13.3008 5.76177 12.7889 5.19812C12.5315 4.91463 12.3075 4.70324 12.1293 4.5689C12.071 4.5249 12.0264 4.49591 11.9945 4.47702C11.9633 4.4959 11.92 4.52465 11.8636 4.56794C11.6873 4.70329 11.4655 4.91649 11.2104 5.20274C10.7033 5.77177 10.1302 6.55481 9.60909 7.37317C9.08743 8.19245 8.63707 9.01714 8.36429 9.66381C8.25622 9.92002 8.18482 10.1279 8.14496 10.2843Z" fill="black"/>
</svg>
