<svg width="24" height="24" viewBox="0 0 24 24" fill="none" xmlns="http://www.w3.org/2000/svg">
<path fill-rule="evenodd" clip-rule="evenodd" d="M12 2.25C11.2369 2.25 10.6539 2.59548 10.2214 3.06642C9.81012 3.51431 9.51716 4.0925 9.28294 4.63053C9.16343 4.90504 9.05173 5.18748 8.94615 5.45474L8.94186 5.46558C8.83614 5.73322 8.73664 5.98509 8.63363 6.22292C8.4182 6.7203 8.22264 7.06873 8.02009 7.2781C7.89708 7.40525 7.64635 7.52166 7.15432 7.59255C6.81923 7.64083 6.4717 7.65795 6.08409 7.67703C5.89926 7.68614 5.70532 7.69569 5.49927 7.70928C4.91546 7.74779 4.23898 7.82023 3.6607 8.07705C3.03342 8.35564 2.51689 8.85524 2.32446 9.67258C1.94976 11.2684 3.04876 12.2936 3.86057 12.98C3.98832 13.088 4.1109 13.189 4.22858 13.286C4.53076 13.535 4.80065 13.7574 5.04286 14.0033C5.36778 14.3331 5.54708 14.6168 5.60791 14.8946C5.67937 15.2193 5.6527 15.6226 5.5517 16.131C5.50218 16.3802 5.43862 16.6377 5.36914 16.9105L5.33463 17.0456C5.27644 17.273 5.2154 17.5115 5.16221 17.7461C5.03656 18.3001 4.92998 18.9289 5.00934 19.5363C5.09367 20.1818 5.38687 20.7905 6.00781 21.2588C6.64195 21.7367 7.31879 21.828 7.96274 21.6934C8.56077 21.5683 9.12033 21.2509 9.59428 20.9515C9.78793 20.8292 9.96423 20.7123 10.1324 20.6009C10.4174 20.4119 10.6791 20.2385 10.9623 20.0801C11.3952 19.8379 11.7274 19.7247 12 19.7247C12.2726 19.7247 12.6048 19.8379 13.0377 20.0801C13.3209 20.2385 13.5826 20.4119 13.8676 20.6009C14.0358 20.7123 14.2121 20.8292 14.4057 20.9515C14.8797 21.2509 15.4392 21.5683 16.0373 21.6934C16.6812 21.828 17.3583 21.7365 17.9925 21.2586C18.6133 20.7903 18.9064 20.1819 18.9908 19.5364C19.0703 18.929 18.9638 18.3002 18.8382 17.7462C18.785 17.5113 18.7239 17.2724 18.6656 17.0447L18.6314 16.9105C18.5619 16.6377 18.4983 16.3802 18.4488 16.1309C18.3477 15.6224 18.3209 15.219 18.3922 14.8942C18.4532 14.6162 18.6326 14.3332 18.9576 14.0033C19.1846 13.7729 19.4359 13.5631 19.7152 13.3327L19.7715 13.2863L19.816 13.2497C19.9201 13.1638 20.028 13.0746 20.1399 12.98C20.9517 12.2935 22.0502 11.2682 21.6755 9.6725C21.4835 8.855 20.9671 8.35571 20.3398 8.07707C19.7616 7.82023 19.0851 7.74779 18.5013 7.70928C18.2953 7.69569 18.1013 7.68614 17.9165 7.67703C17.5289 7.65795 17.1814 7.64083 16.8463 7.59255C16.3543 7.52166 16.1037 7.40501 15.981 7.2781C15.7784 7.06869 15.5828 6.7202 15.3673 6.22281C15.2642 5.98503 15.1647 5.73323 15.059 5.46568L15.0546 5.4546C14.9489 5.18733 14.8371 4.90489 14.7176 4.63037C14.4832 4.09234 14.1901 3.51419 13.7787 3.06633C13.3461 2.59545 12.7631 2.25 12 2.25ZM9.09817 8.32105C9.50174 7.90389 9.78483 7.33911 10.0101 6.8191L10.3328 6.0271L10.3412 6.00586C10.4482 5.73515 10.5507 5.47638 10.6583 5.22926C10.8782 4.72403 11.0909 4.33727 11.3262 4.08102C11.5404 3.84784 11.7451 3.75 12 3.75C12.255 3.75 12.4598 3.84786 12.674 4.08111C12.9095 4.33739 13.1223 4.72419 13.3424 5.22941C13.45 5.47653 13.5526 5.7353 13.6596 6.00601L13.6681 6.02747L13.9909 6.81921C14.2162 7.33911 14.4993 7.90372 14.9027 8.32081C15.3856 8.82023 16.0607 8.99484 16.6324 9.07722C17.0396 9.13589 17.5037 9.15895 17.9257 9.17992C18.0934 9.18825 18.2544 9.19625 18.4026 9.20603C18.9779 9.24398 19.4175 9.30871 19.7309 9.44792C19.9953 9.56534 20.1461 9.721 20.2153 10.0156C20.3631 10.6451 20.0283 11.11 19.1714 11.8346C19.1412 11.8601 19.1102 11.8861 19.0786 11.9124C19.0123 11.9676 18.9431 12.0247 18.872 12.0832L18.8711 12.0839C18.5502 12.3483 18.1905 12.6447 17.8891 12.9506C17.4771 13.3688 17.0756 13.8961 16.9271 14.5726C16.7888 15.2024 16.8636 15.8502 16.9776 16.4233C17.0355 16.7149 17.1078 17.0058 17.1777 17.2806L17.2139 17.4222C17.2721 17.6497 17.3271 17.8649 17.3754 18.0778C17.4937 18.5998 17.5467 19.0113 17.5035 19.3419C17.4652 19.6343 17.3534 19.8617 17.0895 20.0609C16.8386 20.2499 16.6136 20.2814 16.3442 20.2251C16.0289 20.1592 15.6637 19.972 15.2069 19.6834C15.0724 19.5984 14.9236 19.5001 14.7671 19.3967C14.448 19.1858 14.0969 18.9539 13.7701 18.771C13.2658 18.4889 12.6602 18.2247 12 18.2247C11.3398 18.2247 10.7342 18.4889 10.2299 18.771C9.90309 18.9539 9.55205 19.1858 9.23291 19.3967C9.07645 19.5001 8.92765 19.5984 8.79314 19.6834C8.33633 19.972 7.97111 20.1592 7.65581 20.2251C7.38643 20.2814 7.16139 20.2499 6.91055 20.0609C6.6467 19.8618 6.5349 19.6344 6.4967 19.342C6.45351 19.0114 6.50664 18.6 6.62506 18.0779C6.67327 17.8653 6.72821 17.6505 6.78631 17.4233L6.82275 17.2807C6.89276 17.0058 6.96502 16.7149 7.02294 16.4233C7.13678 15.8503 7.2114 15.2025 7.07299 14.5729C6.92479 13.8962 6.5234 13.3688 6.11144 12.9506C5.80993 12.6446 5.45004 12.3481 5.12894 12.0836C5.02366 11.9969 4.92254 11.9136 4.82903 11.8345C3.97191 11.1099 3.63701 10.645 3.7847 10.0157C3.85411 9.72111 4.00511 9.56537 4.26953 9.44794C4.58303 9.30871 5.02266 9.24398 5.59801 9.20603C5.74617 9.19625 5.90721 9.18825 6.07491 9.17992C6.49688 9.15895 6.96101 9.13589 7.36823 9.07722C7.94012 8.99482 8.61507 8.82042 9.09817 8.32105Z" fill="black"/>
</svg>
