<svg width="24" height="24" viewBox="0 0 24 24" fill="none" xmlns="http://www.w3.org/2000/svg">
<path fill-rule="evenodd" clip-rule="evenodd" d="M19.887 17.7257C18.6941 17.7257 17.7256 18.6936 17.7256 19.8862C17.7256 21.0807 18.6941 22.0476 19.887 22.0476C21.0806 22.0476 22.0475 21.0801 22.0475 19.8862C22.0475 18.6942 21.0806 17.7257 19.887 17.7257ZM19.887 19.2257C19.5218 19.2257 19.2256 19.5226 19.2256 19.8862C19.2256 20.2516 19.5218 20.5476 19.887 20.5476C20.2515 20.5476 20.5475 20.2523 20.5475 19.8862C20.5475 19.522 20.2515 19.2257 19.887 19.2257Z" fill="black"/>
<path fill-rule="evenodd" clip-rule="evenodd" d="M11.2635 1.95238C6.12069 1.95238 1.95252 6.12055 1.95252 11.2633C1.95252 16.4061 6.12069 20.5743 11.2635 20.5743C16.4053 20.5743 20.5744 16.4062 20.5744 11.2633C20.5744 6.12049 16.4053 1.95238 11.2635 1.95238ZM11.2635 3.45238C6.94912 3.45238 3.45252 6.94898 3.45252 11.2633C3.45252 15.5777 6.94912 19.0743 11.2635 19.0743C15.5769 19.0743 19.0744 15.5776 19.0744 11.2633C19.0744 6.94903 15.5769 3.45238 11.2635 3.45238Z" fill="black"/>
</svg>
