<svg width="24" height="24" viewBox="0 0 24 24" fill="none" xmlns="http://www.w3.org/2000/svg">
<path fill-rule="evenodd" clip-rule="evenodd" d="M3.91752 4.83506C3.91309 4.84168 3.91139 4.84422 3.91247 4.84229C3.89984 4.86476 3.88605 4.88655 3.87118 4.90759C3.66911 5.19339 3.34436 5.85271 3.58547 7.07367C3.83258 8.32505 4.68092 10.1924 6.9285 12.82C7.19774 13.1347 7.16084 13.6082 6.84608 13.8774C6.53131 14.1467 6.05787 14.1098 5.78862 13.795C3.45022 11.0613 2.42967 8.96339 2.11388 7.36426C1.7956 5.7525 2.20139 4.68181 2.6321 4.06201C2.78782 3.81341 3.43138 2.90437 4.37083 2.24453C4.88462 1.88366 5.53534 1.56293 6.28002 1.50814C7.04859 1.45159 7.84138 1.68449 8.59505 2.30203L8.597 2.30362C9.83862 3.32797 10.5978 4.17863 10.9992 4.94877C11.4247 5.76518 11.435 6.4669 11.2519 7.10069C11.1674 7.39292 11.0458 7.6572 10.9391 7.87921C10.915 7.92928 10.8919 7.97677 10.8698 8.02237C10.7868 8.19318 10.7166 8.33751 10.6553 8.49187C10.5162 8.84183 10.456 9.16467 10.5815 9.59327C10.6979 9.99078 10.4701 10.4074 10.0725 10.5238C9.67502 10.6402 9.25839 10.4124 9.14197 10.0149C8.89595 9.17479 9.03861 8.49837 9.26128 7.93797C9.34535 7.72639 9.4464 7.5189 9.53183 7.34345C9.55123 7.30361 9.56983 7.26542 9.58724 7.22921C9.68882 7.01794 9.76333 6.8486 9.8108 6.68432C9.89147 6.40511 9.90883 6.10224 9.66898 5.64203C9.40509 5.13569 8.82681 4.43794 7.64344 3.46153C7.1666 3.07114 6.74859 2.97772 6.39009 3.0041C6.00749 3.03224 5.61475 3.20385 5.23298 3.47201C4.85401 3.73818 4.52633 4.07122 4.28365 4.35647C4.07002 4.60757 3.94423 4.79523 3.91752 4.83506Z" fill="black"/>
<path d="M11.2952 12.0438C11.5826 11.7455 12.0574 11.7366 12.3557 12.024C12.4784 12.1421 12.5961 12.251 12.7092 12.3515L21.2803 3.78038C21.5732 3.48749 21.5732 3.01261 21.2803 2.71972C20.9874 2.42683 20.5126 2.42683 20.2197 2.71972L1.71967 21.2197C1.42678 21.5126 1.42678 21.9875 1.71967 22.2804C2.01256 22.5733 2.48744 22.5733 2.78033 22.2804L8.45453 16.6062C8.34515 16.5003 8.23488 16.3925 8.12372 16.2827C7.82899 15.9917 7.826 15.5168 8.11705 15.2221C8.4081 14.9273 8.88296 14.9243 9.17769 15.2154C9.29137 15.3277 9.40391 15.4376 9.51533 15.5454L11.6469 13.4138C11.5381 13.3157 11.4275 13.2126 11.3151 13.1043C11.0168 12.8169 11.0079 12.3421 11.2952 12.0438Z" fill="black"/>
<path d="M12.3557 12.024C12.0574 11.7366 11.5826 11.7455 11.2952 12.0438C11.0079 12.3421 11.0168 12.8169 11.3151 13.1043C11.4275 13.2126 11.5381 13.3157 11.6469 13.4138L12.7092 12.3515C12.5961 12.251 12.4784 12.1421 12.3557 12.024Z" fill="black"/>
<path d="M8.11705 15.2221C7.826 15.5168 7.82899 15.9917 8.12372 16.2827C8.23488 16.3925 8.34515 16.5003 8.45453 16.6062L9.51533 15.5454C9.40391 15.4376 9.29137 15.3277 9.17769 15.2154C8.88296 14.9243 8.4081 14.9273 8.11705 15.2221Z" fill="black"/>
<path d="M16.0233 13.1103C15.4914 13.3671 15.1655 13.5245 14.7277 13.487C14.3155 13.4516 13.6867 13.2194 12.7092 12.3515L11.6469 13.4138C12.7779 14.4328 13.7202 14.9061 14.5995 14.9815C15.469 15.056 16.1583 14.7164 16.6407 14.4788C16.6894 14.4548 16.736 14.4318 16.7805 14.4105C17.2927 14.1641 17.606 14.0611 18.0343 14.1941C18.5343 14.3493 19.3111 14.8687 20.534 16.3526C20.9278 16.8333 21.022 17.2533 20.996 17.612C20.9682 17.9945 20.7967 18.3865 20.5283 18.7674C20.2619 19.1455 19.9282 19.4721 19.6423 19.714C19.3877 19.9295 19.1972 20.0559 19.1597 20.0808C19.1541 20.0845 19.1519 20.086 19.1535 20.0851C19.1285 20.0991 19.1044 20.1146 19.0813 20.1313C18.7799 20.3496 17.9938 20.7407 16.4554 20.298C14.9323 19.8597 12.6764 18.6022 9.51533 15.5454L8.45453 16.6062C11.7136 19.7613 14.1841 21.2053 16.0405 21.7395C17.975 22.2962 19.2363 21.8602 19.9368 21.3636C20.1888 21.2056 21.0956 20.5664 21.7545 19.6314C22.1164 19.1178 22.4379 18.4667 22.492 17.7206C22.5479 16.9508 22.3131 16.1568 21.6936 15.401L21.6923 15.3995C20.4268 13.8637 19.4155 13.0522 18.479 12.7615C17.4709 12.4486 16.6995 12.7849 16.1303 13.0587L16.0233 13.1103Z" fill="black"/>
</svg>
