<svg width="24" height="24" viewBox="0 0 24 24" fill="none" xmlns="http://www.w3.org/2000/svg">
<path fill-rule="evenodd" clip-rule="evenodd" d="M4.11344 4.76331C3.8993 5.02502 3.75 5.42264 3.75 6.10082C3.75 6.7868 4.06966 7.46921 4.67161 8.20472C5.27625 8.94352 6.09595 9.65356 6.9777 10.4033C7.02353 10.4423 7.06956 10.4814 7.11573 10.5206C7.93293 11.2148 8.79676 11.9487 9.46026 12.7173C10.1605 13.5285 10.7337 14.485 10.7337 15.5995C10.7337 17.3429 10.7424 18.5698 10.9628 19.3745C11.0674 19.7566 11.1988 19.9545 11.3253 20.062C11.4401 20.1597 11.6298 20.25 12.0037 20.25C12.3773 20.25 12.5661 20.1597 12.6801 20.0626C12.8058 19.9555 12.9367 19.7579 13.0408 19.3755C13.26 18.5704 13.2673 17.3434 13.2673 15.5995C13.2673 14.485 13.8405 13.5285 14.5406 12.7174C15.204 11.9487 16.0677 11.2149 16.8848 10.5207C16.9309 10.4814 16.977 10.4423 17.0228 10.4034C17.9044 9.6536 18.724 8.94356 19.3285 8.20476C19.9304 7.46926 20.25 6.78683 20.25 6.10082C20.25 5.42264 20.1007 5.02502 19.8866 4.76333C19.667 4.495 19.2944 4.26539 18.6405 4.09606C17.9835 3.92588 17.1175 3.83554 15.9962 3.7913C14.9431 3.74975 13.708 3.74987 12.2628 3.75002C12.1758 3.75003 12.088 3.75004 11.9995 3.75004C11.9109 3.75004 11.8232 3.75003 11.7361 3.75002C10.2912 3.74987 9.05635 3.74975 8.00338 3.7913C6.88223 3.83554 6.01634 3.92588 5.35935 4.09605C4.7056 4.26539 4.33301 4.49499 4.11344 4.76331ZM11.7231 2.25002C11.8145 2.25003 11.9067 2.25004 11.9995 2.25004C12.0923 2.25004 12.1844 2.25003 12.2759 2.25002C13.7077 2.24985 14.9713 2.24969 16.0553 2.29246C17.2038 2.33778 18.1998 2.43242 19.0166 2.64397C19.8366 2.85635 20.5497 3.2052 21.0474 3.81338C21.5505 4.42818 21.75 5.2051 21.75 6.10082C21.75 7.27798 21.1968 8.2902 20.4894 9.15469C19.7847 10.0159 18.8586 10.8112 17.9946 11.546C17.9604 11.5751 17.9264 11.604 17.8924 11.6328C17.043 12.355 16.2612 13.0196 15.6762 13.6974C15.067 14.4032 14.7673 15.0168 14.7673 15.5995L14.7673 15.695C14.7675 17.3066 14.7676 18.7433 14.4881 19.7696C14.3401 20.3132 14.0932 20.8292 13.6529 21.2044C13.2009 21.5895 12.6354 21.75 12.0037 21.75C11.3719 21.75 10.8062 21.5895 10.3538 21.2049C9.91289 20.8302 9.66497 20.3144 9.51606 19.7707C9.2336 18.7394 9.23366 17.2943 9.23372 15.6733L9.23372 15.5995C9.23372 15.0169 8.93403 14.4033 8.32478 13.6975C7.73969 13.0197 6.95777 12.355 6.10816 11.6329C6.07422 11.604 6.04017 11.5751 6.00602 11.5461C5.14184 10.8112 4.21561 10.0159 3.5108 9.15473C2.8033 8.29025 2.25 7.27802 2.25 6.10082C2.25 5.2051 2.44949 4.42819 2.95256 3.81339C3.45021 3.20522 4.16326 2.85636 4.98323 2.64397C5.79996 2.43242 6.79587 2.33778 7.94423 2.29246C9.02812 2.24969 10.2916 2.24985 11.7231 2.25002Z" fill="black"/>
</svg>
