<svg width="24" height="24" viewBox="0 0 24 24" fill="none" xmlns="http://www.w3.org/2000/svg">
<path fill-rule="evenodd" clip-rule="evenodd" d="M8.11048 15.4499C8.11048 15.0357 8.44627 14.6999 8.86048 14.6999H14.2605C14.6747 14.6999 15.0105 15.0357 15.0105 15.4499C15.0105 15.8641 14.6747 16.1999 14.2605 16.1999H8.86048C8.44627 16.1999 8.11048 15.8641 8.11048 15.4499Z" fill="black"/>
<path fill-rule="evenodd" clip-rule="evenodd" d="M8.10958 11.4386C8.10958 11.0244 8.44537 10.6886 8.85958 10.6886H12.2156C12.6298 10.6886 12.9656 11.0244 12.9656 11.4386C12.9656 11.8528 12.6298 12.1886 12.2156 12.1886H8.85958C8.44537 12.1886 8.10958 11.8528 8.10958 11.4386Z" fill="black"/>
<path fill-rule="evenodd" clip-rule="evenodd" d="M4.8856 4.27249C6.41745 2.58293 8.79332 2 11.995 2C12.9217 2 13.7765 2.05142 14.5468 2.15694C14.7028 2.17832 14.8482 2.24827 14.9622 2.3569L20.6322 7.7569C20.7474 7.86656 20.8247 8.00998 20.853 8.16645C21.0534 9.27377 21.145 10.5511 21.145 12C21.145 15.4998 20.6263 18.0653 19.1127 19.7318C17.5792 21.42 15.2006 22 11.995 22C8.79405 22 6.41791 21.4199 4.88582 19.7315C3.3737 18.0651 2.85498 15.4999 2.85498 12C2.85498 8.5048 3.37382 5.93992 4.8856 4.27249ZM5.99686 5.28001C4.88614 6.50508 4.35498 8.5652 4.35498 12C4.35498 15.4401 4.88626 17.4999 5.99664 18.7235C7.08705 19.9251 8.90591 20.5 11.995 20.5C15.0893 20.5 16.9107 19.925 18.0023 18.7232C19.1137 17.4997 19.645 15.4402 19.645 12C19.645 11.1205 19.6096 10.3243 19.5383 9.6067C19.5056 9.27873 19.4655 8.9672 19.4177 8.67165L18.8245 8.1067L14.6394 4.12086L14.1059 3.61282C13.801 3.57676 13.4786 3.5492 13.1394 3.53035C12.7769 3.5102 12.3952 3.5 11.995 3.5C8.90664 3.5 7.08752 4.07707 5.99686 5.28001Z" fill="black"/>
<path d="M17.2534 8.1067C15.8093 8.1067 14.6394 6.9372 14.6394 5.4937V4.12086L14.1059 3.61282C13.801 3.57676 13.4786 3.5492 13.1394 3.53035V5.4937C13.1394 7.7662 14.9815 9.6067 17.2534 9.6067H19.5383C19.5056 9.27873 19.4655 8.9672 19.4177 8.67165L18.8245 8.1067H17.2534Z" fill="black"/>
</svg>
