<svg width="24" height="24" viewBox="0 0 24 24" fill="none" xmlns="http://www.w3.org/2000/svg">
<path fill-rule="evenodd" clip-rule="evenodd" d="M11.3259 4.07163C10.0341 3.37471 8.42703 3.19201 6.16308 3.65762C4.24088 4.052 3.14 5.74862 3.14 7.94871V14.0144C3.14 17.3112 4.04438 18.8217 5.39602 19.6081C6.1144 20.026 7.02453 20.2803 8.14629 20.4251C9.26779 20.5698 10.5523 20.5997 12 20.5997C14.9384 20.5997 17.1287 20.4481 18.6015 19.5838C19.9574 18.788 20.86 17.2736 20.86 14.0144V14.0082C20.86 13.1071 20.86 12.0267 20.6648 10.9521C20.4697 9.87789 20.0897 8.87344 19.3749 8.10236C18.7937 7.47528 18.0571 7.36232 17.0792 7.36359C16.9393 7.36377 16.7864 7.36664 16.627 7.36964C16.2761 7.37623 15.8938 7.38341 15.5498 7.36375C15.0253 7.33377 14.4489 7.24009 13.9192 6.93875M12.0379 2.7514C10.3358 1.83321 8.33907 1.67876 5.86126 2.1883L12.0379 2.7514ZM12.0379 2.7514C12.9848 3.26193 13.3415 3.92771 13.6239 4.45512L13.6317 4.46967C13.891 4.95365 14.0853 5.30758 14.6608 5.63486C14.901 5.77155 15.2119 5.84198 15.6354 5.86619C15.9242 5.8827 16.2046 5.87715 16.5191 5.87092C16.6924 5.86749 16.8761 5.86385 17.0773 5.86359C18.1274 5.86223 19.4383 5.96405 20.4751 7.08269C21.4544 8.13922 21.9168 9.45143 22.1407 10.6841C22.3602 11.8925 22.3601 13.0859 22.36 13.9679L22.36 14.0144C22.36 17.5514 21.3591 19.7046 19.3607 20.8774C17.4792 21.9817 14.8646 22.0997 12 22.0997C10.5462 22.0997 9.1787 22.0707 7.9543 21.9127C6.73016 21.7547 5.60048 21.4624 4.64172 20.9046C2.63912 19.7395 1.64 17.5824 1.64 14.0144V7.94871C1.64 5.26509 3.0397 2.76738 5.86126 2.1883M11.3259 4.07163C11.8682 4.364 12.0485 4.69078 12.3095 5.17798L11.3259 4.07163ZM12.3095 5.17798L12.3139 5.18622L12.3095 5.17798ZM12.3139 5.18622C12.5987 5.71787 12.9608 6.39362 13.9192 6.93875L12.3139 5.18622ZM6.4457 14.7246C6.4457 14.3104 6.78149 13.9746 7.1957 13.9746H16.7887C17.2029 13.9746 17.5387 14.3104 17.5387 14.7246C17.5387 15.1388 17.2029 15.4746 16.7887 15.4746H7.1957C6.78149 15.4746 6.4457 15.1388 6.4457 14.7246Z" fill="black"/>
</svg>
