<svg width="24" height="24" viewBox="0 0 24 24" fill="none" xmlns="http://www.w3.org/2000/svg">
<path fill-rule="evenodd" clip-rule="evenodd" d="M8.10505 12.8771C8.10505 10.726 9.84926 8.98184 12.0003 8.98184C14.1514 8.98184 15.8956 10.726 15.8956 12.8771C15.8956 15.0282 14.1514 16.7724 12.0003 16.7724C9.84926 16.7724 8.10505 15.0282 8.10505 12.8771ZM12.0003 10.4818C10.6777 10.4818 9.60505 11.5545 9.60505 12.8771C9.60505 14.1997 10.6777 15.2724 12.0003 15.2724C13.3229 15.2724 14.3956 14.1997 14.3956 12.8771C14.3956 11.5545 13.3229 10.4818 12.0003 10.4818Z" fill="black"/>
<path fill-rule="evenodd" clip-rule="evenodd" d="M13.8169 2.74729C14.3406 2.79752 14.8732 2.88024 15.2339 3.03197C15.97 3.34237 16.3938 3.98398 16.6576 4.46255C16.7507 4.63145 16.8409 4.81356 16.9159 4.96503C16.9465 5.02684 16.9746 5.08356 16.9993 5.13219C17.103 5.33612 17.1573 5.41766 17.1814 5.44408L17.1824 5.44523C17.3268 5.60406 17.5108 5.70791 17.6842 5.76454C19.355 6.22901 20.4408 7.04321 21.0568 8.33429C21.6396 9.55583 21.7532 11.1173 21.7532 12.9454C21.7532 15.5342 21.5377 17.7501 20.0511 19.2491C18.5726 20.7398 16.0344 21.3291 12 21.3291C7.96558 21.3291 5.42736 20.7398 3.94892 19.2491C2.46235 17.7501 2.24684 15.5342 2.24684 12.9454C2.24684 11.1173 2.36041 9.55583 2.94323 8.33429C3.55929 7.04309 4.64518 6.22886 6.31628 5.76442C6.48948 5.7081 6.67275 5.60461 6.81758 5.44523L6.81863 5.44408C6.84324 5.41711 6.89857 5.33389 7.00383 5.12802C7.02914 5.0785 7.05788 5.02081 7.08916 4.958C7.165 4.80576 7.25581 4.62345 7.34921 4.45456C7.61234 3.97875 8.03747 3.33021 8.77269 3.02922C9.12543 2.88536 9.65191 2.8035 10.1731 2.75273C10.7222 2.69925 11.3602 2.67216 11.9926 2.67094C12.6249 2.66972 13.2647 2.69434 13.8169 2.74729ZM9.34048 4.41761C9.11168 4.51151 8.89801 4.75346 8.66185 5.18049C8.58412 5.32103 8.51932 5.4513 8.45075 5.58914C8.4154 5.66021 8.37904 5.73329 8.3394 5.81084C8.24153 6.00226 8.10547 6.25896 7.92721 6.45454C7.572 6.84521 7.14117 7.07744 6.75561 7.19874C6.74717 7.20139 6.73869 7.2039 6.73017 7.20625C5.36007 7.5846 4.68365 8.16992 4.29703 8.98022C3.87538 9.86395 3.74684 11.1125 3.74684 12.9454C3.74684 15.5798 4.01029 17.1808 5.01398 18.1928C6.0258 19.2131 7.98916 19.8291 12 19.8291C16.0108 19.8291 17.9742 19.2131 18.986 18.1928C19.9897 17.1808 20.2532 15.5798 20.2532 12.9454C20.2532 11.1125 20.1246 9.86395 19.703 8.98022C19.3164 8.16992 18.6399 7.5846 17.2698 7.20625C17.2611 7.20383 17.2523 7.20124 17.2436 7.1985C16.8604 7.07749 16.4285 6.84569 16.0728 6.4546C15.8941 6.25847 15.759 6.00242 15.6622 5.812C15.6231 5.73517 15.5874 5.66288 15.5527 5.59265C15.4849 5.45563 15.421 5.32645 15.344 5.1867C15.1126 4.767 14.8969 4.51785 14.652 4.41449C14.522 4.35993 14.1943 4.29037 13.6737 4.24044C13.1811 4.1932 12.5915 4.16979 11.9955 4.17094C11.3996 4.17209 10.8104 4.19776 10.3185 4.24567C9.79942 4.29623 9.47065 4.36465 9.34048 4.41761Z" fill="black"/>
<path fill-rule="evenodd" clip-rule="evenodd" d="M16.162 9.37899C16.162 8.96478 16.4978 8.62899 16.912 8.62899H16.921C17.3352 8.62899 17.671 8.96478 17.671 9.37899C17.671 9.79321 17.3352 10.129 16.921 10.129H16.912C16.4978 10.129 16.162 9.79321 16.162 9.37899Z" fill="black"/>
</svg>
