<svg width="24" height="24" viewBox="0 0 24 24" fill="none" xmlns="http://www.w3.org/2000/svg">
<path fill-rule="evenodd" clip-rule="evenodd" d="M5.30396 5.30396C4.08098 6.52693 3.5 8.5731 3.5 12C3.5 15.4269 4.08098 17.4731 5.30396 18.696C6.52693 19.919 8.5731 20.5 12 20.5C15.4269 20.5 17.4731 19.919 18.696 18.696C19.919 17.4731 20.5 15.4269 20.5 12C20.5 8.5731 19.919 6.52693 18.696 5.30396C17.4731 4.08098 15.4269 3.5 12 3.5C8.5731 3.5 6.52693 4.08098 5.30396 5.30396ZM4.24329 4.24329C5.91107 2.57552 8.4899 2 12 2C15.5101 2 18.0889 2.57552 19.7567 4.24329C21.4245 5.91107 22 8.4899 22 12C22 15.5101 21.4245 18.0889 19.7567 19.7567C18.0889 21.4245 15.5101 22 12 22C8.4899 22 5.91107 21.4245 4.24329 19.7567C2.57552 18.0889 2 15.5101 2 12C2 8.4899 2.57552 5.91107 4.24329 4.24329Z" fill="black"/>
<path fill-rule="evenodd" clip-rule="evenodd" d="M14.9935 11.9999C14.9935 11.4476 15.4412 10.9999 15.9935 10.9999H16.0025C16.5548 10.9999 17.0025 11.4476 17.0025 11.9999C17.0025 12.5522 16.5548 12.9999 16.0025 12.9999H15.9935C15.4412 12.9999 14.9935 12.5522 14.9935 11.9999Z" fill="black"/>
<path fill-rule="evenodd" clip-rule="evenodd" d="M10.9945 11.9999C10.9945 11.4476 11.4422 10.9999 11.9945 10.9999H12.0035C12.5558 10.9999 13.0035 11.4476 13.0035 11.9999C13.0035 12.5522 12.5558 12.9999 12.0035 12.9999H11.9945C11.4422 12.9999 10.9945 12.5522 10.9945 11.9999Z" fill="black"/>
<path fill-rule="evenodd" clip-rule="evenodd" d="M6.9955 11.9999C6.9955 11.4476 7.44322 10.9999 7.9955 10.9999H8.0045C8.55679 10.9999 9.0045 11.4476 9.0045 11.9999C9.0045 12.5522 8.55679 12.9999 8.0045 12.9999H7.9955C7.44322 12.9999 6.9955 12.5522 6.9955 11.9999Z" fill="black"/>
</svg>
