<svg width="24" height="24" viewBox="0 0 24 24" fill="none" xmlns="http://www.w3.org/2000/svg">
<path fill-rule="evenodd" clip-rule="evenodd" d="M7.1639 12C7.1639 11.5858 7.49969 11.25 7.9139 11.25H14.8072H16.0859C16.5001 11.25 16.8359 11.5858 16.8359 12C16.8359 12.4142 16.5001 12.75 16.0859 12.75H14.8066H7.9139C7.49969 12.75 7.1639 12.4142 7.1639 12Z" fill="black"/>
<path fill-rule="evenodd" clip-rule="evenodd" d="M4.24329 19.7567C2.57552 18.0889 2 15.5101 2 12C2 8.4899 2.57552 5.91107 4.24329 4.2433C5.91107 2.57552 8.4899 2 12 2C15.5101 2 18.0889 2.57552 19.7567 4.2433C21.4245 5.91107 22 8.4899 22 12C22 15.5101 21.4245 18.0889 19.7567 19.7567C18.0889 21.4245 15.5101 22 12 22C8.4899 22 5.91107 21.4245 4.24329 19.7567ZM5.30396 18.696C6.52693 19.919 8.5731 20.5 12 20.5C15.4269 20.5 17.4731 19.919 18.696 18.696C19.919 17.4731 20.5 15.4269 20.5 12C20.5 8.5731 19.919 6.52693 18.696 5.30396C17.4731 4.08098 15.4269 3.5 12 3.5C8.5731 3.5 6.52693 4.08098 5.30396 5.30396C4.08098 6.52693 3.5 8.5731 3.5 12C3.5 15.4269 4.08098 17.4731 5.30396 18.696Z" fill="black"/>
<path d="M16.8359 12C16.8359 12.4142 16.5001 12.75 16.0859 12.75H14.8066C14.5069 13.0754 14.124 13.4233 13.7236 13.7569C13.2702 14.1346 12.8141 14.4777 12.4697 14.7273C12.298 14.8518 12.1552 14.9521 12.0559 15.021C12.0063 15.0555 11.9676 15.082 11.9416 15.0997L11.9125 15.1194L11.9056 15.1241L11.904 15.1252C11.56 15.3559 11.4681 15.8218 11.6988 16.1658C11.9295 16.5098 12.3956 16.6016 12.7396 16.3709C12.7396 16.3709 12.7394 16.371 12.3217 15.7481L12.7396 16.3709L12.7432 16.3684L12.7524 16.3622L12.7863 16.3392C12.8155 16.3194 12.8577 16.2904 12.911 16.2535C13.0175 16.1796 13.1688 16.0732 13.35 15.9419C13.7113 15.68 14.1962 15.3156 14.6838 14.9093C15.1672 14.5065 15.6734 14.0461 16.0653 13.5922C16.2611 13.3654 16.4435 13.123 16.5803 12.8755C16.7121 12.6372 16.8359 12.3336 16.8359 12Z" fill="black"/>
<path d="M16.0859 11.25C16.5001 11.25 16.8359 11.5858 16.8359 12C16.8359 11.6665 16.7121 11.363 16.5804 11.1247C16.4436 10.8772 16.2613 10.6346 16.0655 10.4076C15.6737 9.95338 15.1676 9.49247 14.6841 9.08919C14.1966 8.68244 13.7117 8.31752 13.3504 8.05525C13.1692 7.92376 13.0179 7.81724 12.9114 7.74321C12.8581 7.70618 12.8159 7.67723 12.7867 7.65731L12.7529 7.63429L12.7437 7.62807L12.7399 7.62549C12.396 7.39455 11.93 7.48608 11.6991 7.82994C11.4682 8.17377 11.5599 8.63984 11.9037 8.8708L11.9052 8.8718L11.9121 8.87649L11.9412 8.89627C11.9671 8.91398 12.0058 8.94054 12.0555 8.97503C12.1548 9.04403 12.2976 9.14456 12.4693 9.2692C12.8137 9.51918 13.2698 9.86276 13.7233 10.241C14.124 10.5753 14.5072 10.924 14.8072 11.25H16.0859Z" fill="black"/>
</svg>
