<svg width="24" height="24" viewBox="0 0 24 24" fill="none" xmlns="http://www.w3.org/2000/svg">
<path fill-rule="evenodd" clip-rule="evenodd" d="M13.8894 2.0827C13.8928 2.0827 13.8961 2.08272 13.8995 2.08277C13.9426 2.08333 13.9848 2.08754 14.0258 2.09508C14.3749 2.15924 14.6394 2.46508 14.6394 2.8327V4.12086V5.4937C14.6394 6.9372 15.8093 8.1067 17.2534 8.1067H18.8245H20.2044C20.574 8.1067 20.8811 8.37398 20.943 8.72578C20.9455 8.74298 20.9479 8.76021 20.9503 8.77749C20.953 8.80352 20.9544 8.82994 20.9544 8.8567C20.9544 9.27091 20.6186 9.6067 20.2044 9.6067H19.5383H17.2534C14.9815 9.6067 13.1394 7.7662 13.1394 5.4937V3.53035V2.8327C13.1394 2.41849 13.4752 2.0827 13.8894 2.0827Z" fill="black"/>
<path fill-rule="evenodd" clip-rule="evenodd" d="M8.6174 12.9806C8.6174 12.5664 8.95319 12.2306 9.3674 12.2306H14.2674C14.6816 12.2306 15.0174 12.5664 15.0174 12.9806C15.0174 13.3948 14.6816 13.7306 14.2674 13.7306H9.3674C8.95319 13.7306 8.6174 13.3948 8.6174 12.9806Z" fill="black"/>
<path d="M14.9622 2.3569C14.8482 2.24827 14.7028 2.17832 14.5468 2.15694C14.3772 2.13371 14.2035 2.1131 14.0258 2.09508C14.3749 2.15924 14.6394 2.46508 14.6394 2.8327V4.12086L18.8245 8.1067H20.2044C20.574 8.1067 20.8811 8.37398 20.943 8.72578C20.9159 8.53475 20.8859 8.34831 20.853 8.16645C20.8247 8.00998 20.7474 7.86656 20.6322 7.7569L14.9622 2.3569Z" fill="black"/>
<path d="M11.995 2C8.79334 2 6.41747 2.58293 4.88562 4.27249C3.37384 5.93992 2.855 8.5048 2.855 12C2.855 15.4999 3.37372 18.0651 4.88584 19.7315C6.41793 21.4199 8.79407 22 11.995 22C15.2006 22 17.5793 21.42 19.1127 19.7318C20.6263 18.0653 21.145 15.4998 21.145 12C21.145 10.8104 21.0833 9.73658 20.9503 8.77749C20.953 8.80352 20.9544 8.82994 20.9544 8.8567C20.9544 9.27091 20.6186 9.6067 20.2044 9.6067H19.5383C19.6097 10.3243 19.645 11.1205 19.645 12C19.645 15.4402 19.1137 17.4997 18.0023 18.7232C16.9107 19.925 15.0894 20.5 11.995 20.5C8.90593 20.5 7.08707 19.9251 5.99666 18.7235C4.88628 17.4999 4.355 15.4401 4.355 12C4.355 8.5652 4.88616 6.50508 5.99688 5.28001C7.08753 4.07707 8.90666 3.5 11.995 3.5C12.3952 3.5 12.7769 3.5102 13.1394 3.53035V2.8327C13.1394 2.41849 13.4752 2.0827 13.8894 2.0827L13.8995 2.08277C13.306 2.02724 12.6695 2 11.995 2Z" fill="black"/>
</svg>
