<svg width="24" height="24" viewBox="0 0 24 24" fill="none" xmlns="http://www.w3.org/2000/svg">
<path fill-rule="evenodd" clip-rule="evenodd" d="M11.25 9.5C11.25 9.08579 11.5858 8.75 12 8.75C13.7951 8.75 15.25 10.2049 15.25 12C15.25 12.4142 14.9142 12.75 14.5 12.75C14.0858 12.75 13.75 12.4142 13.75 12C13.75 11.0333 12.9666 10.25 12 10.25C11.5858 10.25 11.25 9.91421 11.25 9.5Z" fill="black"/>
<path fill-rule="evenodd" clip-rule="evenodd" d="M14.5 11.25C14.9142 11.25 15.25 11.5858 15.25 12C15.25 13.7951 13.7951 15.25 12 15.25C11.5858 15.25 11.25 14.9142 11.25 14.5C11.25 14.0858 11.5858 13.75 12 13.75C12.9666 13.75 13.75 12.9667 13.75 12C13.75 11.5858 14.0858 11.25 14.5 11.25Z" fill="black"/>
<path fill-rule="evenodd" clip-rule="evenodd" d="M9.49998 11.25C9.91419 11.25 10.25 11.5858 10.25 12C10.25 12.9667 11.0333 13.75 12 13.75C12.4142 13.75 12.75 14.0858 12.75 14.5C12.75 14.9142 12.4142 15.25 12 15.25C10.2049 15.25 8.74998 13.7951 8.74998 12C8.74998 11.5858 9.08577 11.25 9.49998 11.25Z" fill="black"/>
<path fill-rule="evenodd" clip-rule="evenodd" d="M12 10.25C11.0333 10.25 10.25 11.0333 10.25 12C10.25 12.4142 9.91419 12.75 9.49998 12.75C9.08577 12.75 8.74998 12.4142 8.74998 12C8.74998 10.2049 10.2049 8.75 12 8.75C12.4142 8.75 12.75 9.08579 12.75 9.5C12.75 9.91421 12.4142 10.25 12 10.25Z" fill="black"/>
<path fill-rule="evenodd" clip-rule="evenodd" d="M16.4112 5.69034C17.9559 4.79112 19.9295 5.32631 20.8186 6.87721C21.0247 7.23655 20.9004 7.69487 20.541 7.90089C20.1817 8.10691 19.7233 7.98262 19.5173 7.62327C19.0394 6.78967 17.9865 6.50894 17.1658 6.98669C16.8078 7.19508 16.3487 7.07381 16.1403 6.71583C15.9319 6.35786 16.0532 5.89873 16.4112 5.69034Z" fill="black"/>
<path fill-rule="evenodd" clip-rule="evenodd" d="M14.474 4.24219C14.8883 4.24219 15.224 4.57797 15.224 4.99219C15.224 5.61932 15.8903 5.99291 16.4112 5.69034C16.7693 5.48228 17.2289 5.60364 17.437 5.96181C17.6451 6.31997 17.524 6.77863 17.1658 6.98669C15.6292 7.87935 13.724 6.75747 13.724 4.99219C13.724 4.57797 14.0598 4.24219 14.474 4.24219Z" fill="black"/>
<path fill-rule="evenodd" clip-rule="evenodd" d="M11.2497 2.5C11.2497 2.08579 11.5855 1.75 11.9997 1.75C13.7851 1.75 15.224 3.20709 15.224 4.99219C15.224 5.4064 14.8883 5.74218 14.474 5.74218C14.0598 5.74218 13.724 5.4064 13.724 4.99219C13.724 4.02532 12.9466 3.25 11.9997 3.25C11.5855 3.25 11.2497 2.91421 11.2497 2.5Z" fill="black"/>
<path fill-rule="evenodd" clip-rule="evenodd" d="M8.77543 4.99218C8.77543 3.20708 10.2143 1.75 11.9997 1.75C12.4139 1.75 12.7497 2.08579 12.7497 2.5C12.7497 2.91421 12.4139 3.25 11.9997 3.25C11.0529 3.25 10.2754 4.02531 10.2754 4.99218C10.2754 5.40639 9.93964 5.74218 9.52543 5.74218C9.11122 5.74218 8.77543 5.40639 8.77543 4.99218Z" fill="black"/>
<path fill-rule="evenodd" clip-rule="evenodd" d="M9.52542 4.24219C9.93963 4.24219 10.2754 4.57796 10.2754 4.99218C10.2754 6.75693 8.37119 7.88016 6.83496 6.9869C6.47688 6.77869 6.35538 6.31962 6.56359 5.96154C6.7718 5.60346 7.23087 5.48196 7.58895 5.69017C8.10826 5.99213 8.77543 5.61983 8.77543 4.99218C8.77543 4.57796 9.11121 4.24219 9.52542 4.24219Z" fill="black"/>
<path fill-rule="evenodd" clip-rule="evenodd" d="M3.18087 6.87721C4.07015 5.32611 6.04354 4.7913 7.58895 5.69017C7.947 5.89843 8.06856 6.35755 7.8603 6.7156C7.65205 7.07365 7.19301 7.19515 6.83496 6.9869C6.01296 6.5088 4.95999 6.78986 4.48217 7.62327C4.27615 7.98262 3.81783 8.10691 3.45849 7.90089C3.09914 7.69487 2.97485 7.23655 3.18087 6.87721Z" fill="black"/>
<path fill-rule="evenodd" clip-rule="evenodd" d="M4.20414 6.59961C4.56361 6.8054 4.68797 7.2638 4.48217 7.62327C4.00289 8.46044 4.29004 9.52708 5.11435 10.0058C5.47253 10.2139 5.59425 10.6729 5.38622 11.0311C5.17819 11.3892 4.71918 11.511 4.36099 11.3029C2.8179 10.4067 2.29502 8.42455 3.18087 6.87721C3.38667 6.51774 3.84466 6.39381 4.20414 6.59961Z" fill="black"/>
<path fill-rule="evenodd" clip-rule="evenodd" d="M4.08956 10.2768C4.29802 9.9189 4.75642 9.79737 5.11435 10.0058C6.63884 10.8937 6.6396 13.1062 5.11511 13.9941C4.75718 14.2026 4.29802 14.0814 4.08956 13.7235C3.88109 13.3655 4.00226 12.9064 4.36019 12.6979C4.89124 12.3886 4.89205 11.6122 4.36099 11.3029C4.00306 11.0945 3.88109 10.6348 4.08956 10.2768Z" fill="black"/>
<path fill-rule="evenodd" clip-rule="evenodd" d="M5.38598 12.9686C5.59424 13.3267 5.47317 13.7858 5.11511 13.9941C4.29 14.474 4.00341 15.541 4.48225 16.3767C4.68818 16.7361 4.56377 17.1944 4.20437 17.4004C3.84497 17.6063 3.38668 17.4819 3.18076 17.1225C2.29447 15.5756 2.81789 13.595 4.36019 12.6979C4.71824 12.4897 5.17773 12.6106 5.38598 12.9686Z" fill="black"/>
<path fill-rule="evenodd" clip-rule="evenodd" d="M3.45849 16.0989C3.81783 15.8928 4.27623 16.0174 4.48225 16.3767C4.96018 17.2104 6.0132 17.491 6.8341 17.0138C7.19221 16.8056 7.65126 16.9272 7.85942 17.2853C8.06758 17.6434 7.94603 18.1025 7.58792 18.3106C6.04337 19.2085 4.06992 18.6734 3.18076 17.1225C2.97474 16.7631 3.09914 16.3049 3.45849 16.0989Z" fill="black"/>
<path fill-rule="evenodd" clip-rule="evenodd" d="M8.77542 19.0078C8.77542 18.3805 8.10737 18.0081 7.58792 18.3106C7.22999 18.5191 6.77135 18.3978 6.56289 18.0399C6.35442 17.682 6.47617 17.2223 6.8341 17.0138C8.37019 16.1192 10.2754 17.2426 10.2754 19.0078C10.2754 19.422 9.93964 19.7578 9.52542 19.7578C9.11121 19.7578 8.77542 19.422 8.77542 19.0078Z" fill="black"/>
<path fill-rule="evenodd" clip-rule="evenodd" d="M9.52543 18.2578C9.93964 18.2578 10.2754 18.5936 10.2754 19.0078C10.2754 19.9747 11.0529 20.75 11.9997 20.75C12.4139 20.75 12.7497 21.0858 12.7497 21.5C12.7497 21.9142 12.4139 22.25 11.9997 22.25C10.2143 22.25 8.77542 20.7929 8.77542 19.0078C8.77542 18.5936 9.11122 18.2578 9.52543 18.2578Z" fill="black"/>
<path fill-rule="evenodd" clip-rule="evenodd" d="M14.474 18.2578C14.8883 18.2578 15.224 18.5936 15.224 19.0078C15.224 20.7929 13.7851 22.25 11.9997 22.25C11.5855 22.25 11.2497 21.9142 11.2497 21.5C11.2497 21.0858 11.5855 20.75 11.9997 20.75C12.9466 20.75 13.724 19.9747 13.724 19.0078C13.724 18.5936 14.0598 18.2578 14.474 18.2578Z" fill="black"/>
<path fill-rule="evenodd" clip-rule="evenodd" d="M16.4113 18.3107C15.8907 18.0078 15.224 18.3806 15.224 19.0078C15.224 19.422 14.8883 19.7578 14.474 19.7578C14.0598 19.7578 13.724 19.422 13.724 19.0078C13.724 17.2426 15.6288 16.1199 17.1657 17.0142C17.5237 17.2225 17.6451 17.6816 17.4367 18.0396C17.2284 18.3976 16.7693 18.519 16.4113 18.3107Z" fill="black"/>
<path fill-rule="evenodd" clip-rule="evenodd" d="M20.541 16.0989C20.9004 16.3049 21.0247 16.7632 20.8186 17.1225C19.9295 18.6734 17.9558 19.2085 16.4113 18.3107C16.0532 18.1025 15.9319 17.6434 16.1401 17.2853C16.3482 16.9272 16.8076 16.806 17.1657 17.0142C17.9866 17.4913 19.0394 17.2101 19.5173 16.3765C19.7233 16.0171 20.1817 15.8928 20.541 16.0989Z" fill="black"/>
<path fill-rule="evenodd" clip-rule="evenodd" d="M18.6146 12.9684C18.823 12.6104 19.2821 12.4891 19.6401 12.6975C21.1808 13.5944 21.7065 15.5752 20.8186 17.1225C20.6125 17.4818 20.154 17.6063 19.7947 17.4001C19.4354 17.194 19.3112 16.7357 19.5173 16.3765C19.9966 15.5413 19.7102 14.474 18.8855 13.9939C18.5275 13.7855 18.4062 13.3264 18.6146 12.9684Z" fill="black"/>
<path fill-rule="evenodd" clip-rule="evenodd" d="M19.9111 10.2771C20.1194 10.6351 19.998 11.0942 19.64 11.3025C19.109 11.6115 19.1084 12.3879 19.6401 12.6975C19.998 12.906 20.1194 13.3655 19.9109 13.7235C19.7024 14.0814 19.2434 14.2023 18.8855 13.9939C17.3616 13.1064 17.3592 10.8942 18.8856 10.006C19.2436 9.79773 19.7027 9.91909 19.9111 10.2771Z" fill="black"/>
<path fill-rule="evenodd" clip-rule="evenodd" d="M19.7949 6.59984C20.1543 6.39382 20.6126 6.51786 20.8186 6.87721C21.7061 8.42509 21.1815 10.4065 19.64 11.3025C19.2819 11.5107 18.8225 11.3894 18.6144 11.0313C18.4062 10.6732 18.5275 10.2142 18.8856 10.006C19.7096 9.52711 19.997 8.4599 19.5173 7.62327C19.3113 7.26393 19.4356 6.80586 19.7949 6.59984Z" fill="black"/>
<path fill-rule="evenodd" clip-rule="evenodd" d="M20.8186 6.87721C19.9295 5.32631 17.9559 4.79112 16.4112 5.69034C15.8903 5.99291 15.224 5.61932 15.224 4.99219C15.224 3.20709 13.7851 1.75 11.9997 1.75C10.2143 1.75 8.77543 3.20708 8.77543 4.99218C8.77543 5.61983 8.10826 5.99213 7.58895 5.69017C6.04354 4.7913 4.07015 5.32611 3.18087 6.87721C2.29502 8.42455 2.8179 10.4067 4.36099 11.3029C4.89205 11.6122 4.89124 12.3886 4.36019 12.6979C2.81789 13.595 2.29447 15.5756 3.18076 17.1225C4.06992 18.6734 6.04337 19.2085 7.58792 18.3106C8.10737 18.0081 8.77542 18.3805 8.77542 19.0078C8.77542 20.7929 10.2143 22.25 11.9997 22.25C13.7851 22.25 15.224 20.7929 15.224 19.0078C15.224 18.3806 15.8907 18.0078 16.4113 18.3107C17.9558 19.2085 19.9295 18.6734 20.8186 17.1225C21.7065 15.5752 21.1808 13.5944 19.6401 12.6975C19.1084 12.3879 19.109 11.6115 19.64 11.3025C21.1815 10.4065 21.7061 8.42509 20.8186 6.87721ZM19.5173 7.62327C19.0394 6.78967 17.9865 6.50894 17.1658 6.98669C15.6292 7.87935 13.724 6.75747 13.724 4.99219C13.724 4.02532 12.9466 3.25 11.9997 3.25C11.0529 3.25 10.2754 4.02531 10.2754 4.99218C10.2754 6.75693 8.37119 7.88016 6.83496 6.9869C6.01296 6.5088 4.95999 6.78986 4.48217 7.62327C4.00289 8.46044 4.29004 9.52708 5.11435 10.0058C6.63884 10.8937 6.6396 13.1062 5.11511 13.9941C4.29 14.474 4.00341 15.541 4.48225 16.3767C4.96018 17.2104 6.0132 17.491 6.8341 17.0138C8.37019 16.1192 10.2754 17.2426 10.2754 19.0078C10.2754 19.9747 11.0529 20.75 11.9997 20.75C12.9466 20.75 13.724 19.9747 13.724 19.0078C13.724 17.2426 15.6288 16.1199 17.1657 17.0142C17.9866 17.4913 19.0394 17.2101 19.5173 16.3765C19.9966 15.5413 19.7102 14.474 18.8855 13.9939C17.3616 13.1064 17.3592 10.8942 18.8856 10.006C19.7096 9.52711 19.997 8.4599 19.5173 7.62327ZM12 8.75C13.7951 8.75 15.25 10.2049 15.25 12C15.25 13.7951 13.7951 15.25 12 15.25C10.2049 15.25 8.74998 13.7951 8.74998 12C8.74998 10.2049 10.2049 8.75 12 8.75ZM12 10.25C12.9666 10.25 13.75 11.0333 13.75 12C13.75 12.9667 12.9666 13.75 12 13.75C11.0333 13.75 10.25 12.9667 10.25 12C10.25 11.0333 11.0333 10.25 12 10.25Z" fill="black"/>
</svg>
