<svg width="24" height="24" viewBox="0 0 24 24" fill="none" xmlns="http://www.w3.org/2000/svg">
<path fill-rule="evenodd" clip-rule="evenodd" d="M12.3965 7.36634C12.4511 7.23596 12.5392 7.05974 12.6856 6.91336C12.8933 6.70566 13.1464 6.63794 13.3286 6.61694C13.5136 6.5956 13.6978 6.61333 13.8587 6.64189C14.1819 6.69924 14.5489 6.82602 14.9192 6.98222C15.6688 7.29844 16.5705 7.79496 17.4325 8.3438C18.2954 8.89323 19.1484 9.51419 19.7952 10.0906C20.1169 10.3772 20.4065 10.6696 20.622 10.9504C20.8098 11.195 21.0519 11.5684 21.0519 11.9927C21.0519 12.4132 20.8146 12.7861 20.6287 13.0325C20.4158 13.3149 20.1292 13.6097 19.8103 13.8994C19.1691 14.4817 18.3223 15.1098 17.4626 15.6646C16.6043 16.2185 15.7021 16.7192 14.9449 17.0337C14.5708 17.1891 14.1965 17.3142 13.8627 17.3659C13.6957 17.3919 13.5064 17.4047 13.3165 17.3767C13.1259 17.3486 12.8849 17.2711 12.6859 17.0724C12.5402 16.9267 12.4484 16.7521 12.3889 16.6141C12.3254 16.4667 12.2745 16.3038 12.2324 16.1382C12.1481 15.807 12.084 15.4053 12.0353 14.9715C11.9617 14.3153 11.9189 13.5432 11.9041 12.7486C11.8993 12.4883 11.8974 12.2256 11.8985 11.9637C11.8995 11.7249 11.9029 11.4857 11.9088 11.2486C11.9289 10.4316 11.9778 9.63904 12.0551 8.97225C12.1047 8.54395 12.1681 8.14985 12.2485 7.82775C12.2887 7.66699 12.3368 7.50876 12.3965 7.36634ZM13.7135 15.8686C13.8727 15.8343 14.0925 15.7636 14.3695 15.6485C15.0152 15.3803 15.835 14.9297 16.6492 14.4043C17.462 13.8798 18.2382 13.3008 18.8019 12.7889C19.0854 12.5315 19.2968 12.3075 19.4311 12.1293C19.4751 12.071 19.5041 12.0264 19.523 11.9945C19.5041 11.9634 19.4753 11.92 19.4321 11.8636C19.2967 11.6873 19.0835 11.4655 18.7973 11.2104C18.2282 10.7033 17.4452 10.1302 16.6268 9.60909C15.8076 9.08743 14.9829 8.63707 14.3362 8.36429C14.08 8.25622 13.8721 8.18482 13.7157 8.14496C13.7118 8.15967 13.7078 8.17508 13.7038 8.1912C13.6454 8.42518 13.5911 8.7483 13.5451 9.14499C13.4535 9.93462 13.4028 10.946 13.3985 11.9699C13.3943 12.9941 13.4367 14.0084 13.526 14.8044C13.5708 15.2042 13.6255 15.5305 13.686 15.7683C13.6954 15.8053 13.7046 15.8386 13.7135 15.8686Z" fill="black"/>
<path d="M3.6981 11.2486C3.28389 11.2486 2.9481 11.5844 2.9481 11.9986C2.9481 12.4128 3.28389 12.7486 3.6981 12.7486H11.9041C11.8993 12.4883 11.8974 12.2256 11.8985 11.9637C11.8995 11.7249 11.9029 11.4857 11.9088 11.2486H3.6981Z" fill="black"/>
</svg>
