<svg width="24" height="24" viewBox="0 0 24 24" fill="none" xmlns="http://www.w3.org/2000/svg">
<path fill-rule="evenodd" clip-rule="evenodd" d="M5.86369 8.36069C5.86369 4.97194 8.61066 2.22514 12.0002 2.22514C15.3889 2.22514 18.1357 4.97203 18.1357 8.36069V10.502C18.1357 10.9162 17.8 11.252 17.3857 11.252C16.9715 11.252 16.6357 10.9162 16.6357 10.502V8.36069C16.6357 5.80046 14.5604 3.72514 12.0002 3.72514C9.43892 3.72514 7.36369 5.80054 7.36369 8.36069V10.502C7.36369 10.9162 7.0279 11.252 6.61369 11.252C6.19948 11.252 5.86369 10.9162 5.86369 10.502V8.36069Z" fill="black"/>
<path fill-rule="evenodd" clip-rule="evenodd" d="M12.0003 18.2302C12.4145 18.2302 12.7503 18.5662 12.7503 18.9805V19.6848V21.0249C12.7503 21.4391 12.4145 21.7749 12.0003 21.7749C11.5861 21.7749 11.2503 21.4391 11.2503 21.0249V19.6848V18.9805C11.2503 18.5662 11.5861 18.2302 12.0003 18.2302Z" fill="black"/>
<path fill-rule="evenodd" clip-rule="evenodd" d="M9.75755 10.214C9.75755 9.79974 10.0933 9.46395 10.5076 9.46395H13.4925C13.9067 9.46395 14.2425 9.79974 14.2425 10.214C14.2425 10.6282 13.9067 10.964 13.4925 10.964H10.5076C10.0933 10.964 9.75755 10.6282 9.75755 10.214Z" fill="black"/>
<path fill-rule="evenodd" clip-rule="evenodd" d="M10.748 7.44423C10.748 7.03001 11.0838 6.69423 11.498 6.69423H12.5012C12.9154 6.69423 13.2512 7.03001 13.2512 7.44423C13.2512 7.85844 12.9154 8.19423 12.5012 8.19423H11.498C11.0838 8.19423 10.748 7.85844 10.748 7.44423Z" fill="black"/>
<path d="M7.36378 13.5946C7.36378 13.1804 7.028 12.8446 6.61378 12.8446C6.19957 12.8446 5.86378 13.1804 5.86378 13.5946C5.86378 13.8485 5.87921 14.0988 5.90916 14.3446H7.42414C7.38443 14.1005 7.36378 13.85 7.36378 13.5946Z" fill="black"/>
<path d="M11.2503 18.9805C11.2503 18.5662 11.5861 18.2302 12.0003 18.2302C9.69447 18.2302 7.78258 16.5481 7.42414 14.3446H5.90916C6.24907 17.1338 8.46049 19.345 11.2503 19.6848V18.9805Z" fill="black"/>
<path d="M6.61378 12.8446C7.028 12.8446 7.36378 13.1804 7.36378 13.5946C7.36378 13.85 7.38443 14.1005 7.42414 14.3446H16.5755C16.6152 14.1005 16.6358 13.85 16.6358 13.5946C16.6358 13.1804 16.9716 12.8446 17.3858 12.8446H6.61378Z" fill="black"/>
<path d="M5.86378 13.5946C5.86378 13.1804 6.19957 12.8446 6.61378 12.8446H5.22223C4.80801 12.8446 4.47223 13.1804 4.47223 13.5946C4.47223 14.0088 4.80801 14.3446 5.22223 14.3446H5.90916C5.87921 14.0988 5.86378 13.8485 5.86378 13.5946Z" fill="black"/>
<path d="M17.3858 12.8446C16.9716 12.8446 16.6358 13.1804 16.6358 13.5946C16.6358 13.85 16.6152 14.1005 16.5755 14.3446H18.0905C18.1204 14.0988 18.1358 13.8485 18.1358 13.5946C18.1358 13.1804 17.8 12.8446 17.3858 12.8446Z" fill="black"/>
<path d="M17.3858 12.8446C17.8 12.8446 18.1358 13.1804 18.1358 13.5946C18.1358 13.8485 18.1204 14.0988 18.0905 14.3446H18.7778C19.192 14.3446 19.5278 14.0088 19.5278 13.5946C19.5278 13.1804 19.192 12.8446 18.7778 12.8446H17.3858Z" fill="black"/>
<path d="M12.0003 18.2302C12.4145 18.2302 12.7503 18.5662 12.7503 18.9805V19.6848C15.5393 19.3449 17.7506 17.1337 18.0905 14.3446H16.5755C16.217 16.5482 14.3052 18.2302 12.0003 18.2302Z" fill="black"/>
</svg>
