<svg width="24" height="24" viewBox="0 0 24 24" fill="none" xmlns="http://www.w3.org/2000/svg">
<path fill-rule="evenodd" clip-rule="evenodd" d="M3.75 12C3.75 11.5858 4.08579 11.25 4.5 11.25H18.5536H19.5C19.9059 11.25 20.2365 11.5724 20.2496 11.9752C20.2499 11.9834 20.25 11.9917 20.25 12C20.25 12.0087 20.2499 12.0174 20.2496 12.026C20.2358 12.4282 19.9055 12.75 19.5 12.75H18.5525H4.5C4.08579 12.75 3.75 12.4142 3.75 12Z" fill="black"/>
<path d="M18.5536 11.25H19.5C19.9059 11.25 20.2365 11.5724 20.2496 11.9752C20.2413 11.0331 19.7345 10.1511 19.1352 9.41763C18.5163 8.66031 17.7097 7.95351 16.9313 7.35622C16.1483 6.75551 15.3692 6.24688 14.788 5.88936C14.4966 5.71016 14.2533 5.56788 14.0819 5.46989C13.9961 5.42087 13.9282 5.38287 13.8812 5.35681L13.8267 5.32677L13.8118 5.31867L13.8076 5.31639L13.8056 5.3153C13.4409 5.11876 12.986 5.25503 12.7895 5.61965L13.094 6.6358L13.0964 6.63708L13.1075 6.64311L13.1541 6.66879C13.1957 6.69184 13.2578 6.7266 13.3375 6.77215C13.4969 6.86327 13.7262 6.99734 14.0021 7.16701C14.5552 7.50724 15.2886 7.98649 16.0181 8.54628C16.7522 9.10949 17.4581 9.73581 17.9736 10.3667C18.2339 10.6853 18.4258 10.9808 18.5536 11.25Z" fill="black"/>
<path d="M20.2496 12.026C20.2358 12.4282 19.9055 12.75 19.5 12.75H18.5525C18.4246 13.0188 18.2331 13.3138 17.9735 13.6317C17.4579 14.263 16.752 14.8896 16.018 15.4531C15.2884 16.0131 14.5551 16.4925 14.002 16.8329C13.7261 17.0026 13.4968 17.1367 13.3374 17.2279C13.2577 17.2734 13.1956 17.3082 13.154 17.3313L13.1074 17.3569L13.0963 17.363L13.0936 17.3644C12.7291 17.5611 12.593 18.0159 12.7895 18.3804C12.9861 18.745 13.4418 18.8808 13.8064 18.6843C13.8064 18.6843 13.8056 18.6847 13.4497 18.0245L13.8064 18.6843L13.8077 18.6836L13.8119 18.6813L13.8267 18.6732L13.8813 18.6431C13.9283 18.6171 13.9962 18.5791 14.082 18.53C14.2534 18.432 14.4967 18.2897 14.7881 18.1104C15.3693 17.7527 16.1485 17.2439 16.9314 16.6429C17.7098 16.0454 18.5165 15.3382 19.1353 14.5805C19.7338 13.8477 20.2398 12.9669 20.2496 12.026Z" fill="black"/>
</svg>
