<svg width="24" height="24" viewBox="0 0 24 24" fill="none" xmlns="http://www.w3.org/2000/svg">
<path fill-rule="evenodd" clip-rule="evenodd" d="M7.85461 4.61793C8.06562 4.26149 8.52563 4.1436 8.88207 4.35461L8.5 5C8.88207 4.35461 8.88207 4.35461 8.88207 4.35461L8.88869 4.35854L8.90528 4.36845L8.96712 4.40571C9.02066 4.43813 9.09826 4.48551 9.19651 4.54654C9.39295 4.66855 9.67225 4.84531 10.0069 5.06617C10.6749 5.50705 11.5693 6.12757 12.4671 6.84221C13.3605 7.55334 14.2801 8.37566 14.9832 9.22218C15.6626 10.0401 16.25 11.0098 16.25 12C16.25 12.99 15.6625 13.9596 14.9832 14.7774C14.2801 15.6239 13.3605 16.4462 12.4671 17.1574C11.5693 17.8721 10.6749 18.4927 10.0069 18.9337C9.67231 19.1546 9.393 19.3313 9.19657 19.4534C9.09833 19.5144 9.02072 19.5618 8.96719 19.5942L8.90535 19.6315L8.88875 19.6414L8.88284 19.6449C8.88284 19.6449 8.88214 19.6453 8.5 19L8.88284 19.6449C8.52642 19.856 8.0657 19.7386 7.85465 19.3821C7.64362 19.0257 7.76143 18.5658 8.11779 18.3547M8.11779 18.3547L8.12139 18.3526L8.13481 18.3445L8.19004 18.3113C8.23905 18.2816 8.31183 18.2371 8.40499 18.1793C8.59137 18.0635 8.85894 17.8941 9.18057 17.6818C9.82507 17.2564 10.6807 16.6623 11.5329 15.9839C12.3895 15.3019 13.2199 14.5527 13.8293 13.819C14.4625 13.0567 14.75 12.4375 14.75 12C14.75 11.5622 14.4624 10.9429 13.8293 10.1806C13.2199 9.44684 12.3895 8.69766 11.5329 8.01579C10.6807 7.33743 9.82511 6.74345 9.18062 6.31808C8.859 6.10581 8.59143 5.93651 8.40505 5.82074C8.31189 5.76288 8.23911 5.71844 8.1901 5.68877L8.13488 5.6555L8.12146 5.64748L8.11844 5.64569C7.76209 5.43465 7.64362 4.97433 7.85461 4.61793" fill="black"/>
</svg>
