<svg width="24" height="24" viewBox="0 0 24 24" fill="none" xmlns="http://www.w3.org/2000/svg">
<path fill-rule="evenodd" clip-rule="evenodd" d="M2.96041 3.03098C3.02161 2.62131 3.40333 2.33883 3.813 2.40003L3.70217 3.1418C3.813 2.40003 3.81265 2.39998 3.813 2.40003L3.81441 2.40025L3.81602 2.40049L3.81983 2.40108L3.8298 2.40268L3.85874 2.40768C3.8819 2.41186 3.91273 2.4178 3.95015 2.42586C4.02478 2.44195 4.12675 2.46675 4.24698 2.50332C4.48461 2.57561 4.80858 2.69838 5.13737 2.90142C5.81003 3.31682 6.52301 4.09287 6.49638 5.38459C6.49825 5.46493 6.49938 5.54601 6.49983 5.62773C10.2419 4.59244 14.3091 4.35029 16.2185 4.39198C17.3149 4.41592 18.1823 4.62452 18.8787 5.05975C19.5806 5.49839 20.0283 6.11708 20.373 6.80639C20.9629 7.98626 21.1518 9.8956 20.9951 11.6524C20.9152 12.548 20.7422 13.4478 20.4609 14.2437C20.1831 15.03 19.7795 15.7719 19.202 16.2881C18.6034 16.8233 17.6448 17.1651 16.6347 17.3829C15.5928 17.6075 14.3733 17.7253 13.1452 17.7351C11.9166 17.7449 10.6564 17.6469 9.53288 17.4287C8.42581 17.2137 7.38053 16.8689 6.6374 16.3399C5.00466 15.1771 4.71252 13.0852 4.7165 11.1546C4.71844 10.212 4.79323 9.22752 4.86408 8.2949C4.86804 8.24283 4.87198 8.19091 4.8759 8.13918C4.91576 7.61292 4.95287 7.10604 4.97595 6.62403C4.97623 6.61232 4.97678 6.60065 4.97761 6.58902C4.99694 6.17396 5.00563 5.77754 4.9964 5.40328C4.99609 5.39052 4.9961 5.37775 4.99644 5.36499C5.01298 4.73872 4.70785 4.39914 4.34923 4.17768C4.16064 4.06122 3.96405 3.98512 3.81046 3.9384C3.73509 3.91548 3.67378 3.90074 3.63404 3.89218C3.61427 3.88791 3.60015 3.88524 3.59264 3.88389L3.58688 3.88289C3.17963 3.81958 2.89942 3.43915 2.96041 3.03098ZM6.44599 7.20368C6.42422 7.55232 6.39804 7.90361 6.37162 8.25245C6.36812 8.29865 6.36461 8.34482 6.36111 8.39096C6.28917 9.33883 6.21832 10.2724 6.2165 11.1576C6.21255 13.0739 6.54111 14.4297 7.50724 15.1179C7.99411 15.4644 8.79407 15.7572 9.81884 15.9562C10.8271 16.152 11.9855 16.2443 13.1333 16.2352C14.2817 16.226 15.3966 16.1154 16.3185 15.9166C17.2723 15.7109 17.9068 15.434 18.2022 15.1698C18.5192 14.8866 18.813 14.4052 19.0466 13.744C19.2769 13.0923 19.4295 12.3204 19.501 11.5191C19.647 9.88205 19.4414 8.29734 19.0314 7.47721C18.7592 6.93282 18.4707 6.57364 18.0837 6.33178C17.6913 6.0865 17.117 5.91196 16.1858 5.89162C14.2969 5.85038 10.1212 6.10908 6.44599 7.20368Z" fill="black"/>
<path fill-rule="evenodd" clip-rule="evenodd" d="M12.4522 10.1418C12.4522 9.72759 12.788 9.3918 13.2022 9.3918H15.9752C16.3894 9.3918 16.7252 9.72759 16.7252 10.1418C16.7252 10.556 16.3894 10.8918 15.9752 10.8918H13.2022C12.788 10.8918 12.4522 10.556 12.4522 10.1418Z" fill="black"/>
<path fill-rule="evenodd" clip-rule="evenodd" d="M17.7976 19.7692C18.0986 19.7692 18.3426 20.0132 18.3426 20.3132C18.3426 20.6142 18.0986 20.8582 17.7976 20.8582C17.4976 20.8582 17.2536 20.6142 17.2536 20.3132C17.2536 20.0132 17.4976 19.7692 17.7976 19.7692ZM17.7976 20.5192C17.9118 20.5192 18.0036 20.4274 18.0036 20.3132C18.0036 20.2009 17.9127 20.1082 17.7976 20.1082C17.6844 20.1082 17.5926 20.2 17.5926 20.3132C17.5926 20.4283 17.6853 20.5192 17.7976 20.5192Z" fill="black"/>
<path fill-rule="evenodd" clip-rule="evenodd" d="M7.46612 19.7692C7.76612 19.7692 8.01012 20.0132 8.01012 20.3132C8.01012 20.6142 7.76612 20.8582 7.46612 20.8582C7.16512 20.8582 6.92112 20.6142 6.92112 20.3132C6.92112 20.0132 7.16512 19.7692 7.46612 19.7692ZM7.46612 20.5192C7.57844 20.5192 7.67112 20.4283 7.67112 20.3132C7.67112 20.2 7.57933 20.1082 7.46612 20.1082C7.35101 20.1082 7.26012 20.2009 7.26012 20.3132C7.26012 20.4274 7.35191 20.5192 7.46612 20.5192Z" fill="black"/>
<path fill-rule="evenodd" clip-rule="evenodd" d="M17.7976 19.7692C18.0986 19.7692 18.3426 20.0132 18.3426 20.3132C18.3426 20.6142 18.0986 20.8582 17.7976 20.8582C17.4976 20.8582 17.2536 20.6142 17.2536 20.3132C17.2536 20.0132 17.4976 19.7692 17.7976 19.7692ZM17.7976 20.5192C17.9118 20.5192 18.0036 20.4274 18.0036 20.3132C18.0036 20.2009 17.9127 20.1082 17.7976 20.1082C17.6844 20.1082 17.5926 20.2 17.5926 20.3132C17.5926 20.4283 17.6853 20.5192 17.7976 20.5192ZM8.01012 20.3132C8.01012 20.0132 7.76612 19.7692 7.46612 19.7692C7.16512 19.7692 6.92112 20.0132 6.92112 20.3132C6.92112 20.6142 7.16512 20.8582 7.46612 20.8582C7.76612 20.8582 8.01012 20.6142 8.01012 20.3132ZM7.67112 20.3132C7.67112 20.4283 7.57844 20.5192 7.46612 20.5192C7.35191 20.5192 7.26012 20.4274 7.26012 20.3132C7.26012 20.2009 7.35101 20.1082 7.46612 20.1082C7.57933 20.1082 7.67112 20.2 7.67112 20.3132ZM2.96041 3.03098C3.02161 2.62131 3.40333 2.33883 3.813 2.40003L3.81441 2.40025L3.81602 2.40049L3.81983 2.40108L3.8298 2.40268L3.85874 2.40768C3.8819 2.41186 3.91273 2.4178 3.95015 2.42586C4.02478 2.44195 4.12675 2.46675 4.24698 2.50332C4.48461 2.57561 4.80858 2.69838 5.13737 2.90142C5.81003 3.31682 6.52301 4.09287 6.49638 5.38459C6.49825 5.46493 6.49938 5.54601 6.49983 5.62773C10.2419 4.59244 14.3091 4.35029 16.2185 4.39198C17.3149 4.41592 18.1823 4.62452 18.8787 5.05975C19.5806 5.49839 20.0283 6.11708 20.373 6.80639C20.9629 7.98626 21.1518 9.8956 20.9951 11.6524C20.9152 12.548 20.7422 13.4478 20.4609 14.2437C20.1831 15.03 19.7795 15.7719 19.202 16.2881C18.6034 16.8233 17.6448 17.1651 16.6347 17.3829C15.5928 17.6075 14.3733 17.7253 13.1452 17.7351C11.9166 17.7449 10.6564 17.6469 9.53288 17.4287C8.42581 17.2137 7.38053 16.8689 6.6374 16.3399C5.00466 15.1771 4.71252 13.0852 4.7165 11.1546C4.71844 10.212 4.79323 9.22752 4.86408 8.2949L4.8759 8.13918C4.91576 7.61292 4.95287 7.10604 4.97595 6.62403C4.97623 6.61232 4.97678 6.60065 4.97761 6.58902C4.99694 6.17396 5.00563 5.77754 4.9964 5.40328C4.99609 5.39052 4.9961 5.37775 4.99644 5.36499C5.01298 4.73872 4.70785 4.39914 4.34923 4.17768C4.16064 4.06122 3.96405 3.98512 3.81046 3.9384C3.73509 3.91548 3.67378 3.90074 3.63404 3.89218C3.61427 3.88791 3.60015 3.88524 3.59264 3.88389L3.58688 3.88289C3.17963 3.81958 2.89942 3.43915 2.96041 3.03098ZM6.17112 20.3132C6.17112 19.5981 6.7518 19.0192 7.46612 19.0192C8.18033 19.0192 8.76012 19.599 8.76012 20.3132C8.76012 21.0275 8.18123 21.6082 7.46612 21.6082C6.75091 21.6082 6.17112 21.0284 6.17112 20.3132ZM16.5036 20.3132C16.5036 19.599 17.0834 19.0192 17.7976 19.0192C18.5119 19.0192 19.0926 19.5981 19.0926 20.3132C19.0926 21.0284 18.5128 21.6082 17.7976 21.6082C17.0825 21.6082 16.5036 21.0275 16.5036 20.3132ZM6.44599 7.20368C6.42422 7.55232 6.39804 7.90361 6.37162 8.25245L6.36111 8.39096C6.28917 9.33883 6.21832 10.2724 6.2165 11.1576C6.21255 13.0739 6.54111 14.4297 7.50724 15.1179C7.99411 15.4644 8.79407 15.7572 9.81884 15.9562C10.8271 16.152 11.9855 16.2443 13.1333 16.2352C14.2817 16.226 15.3966 16.1154 16.3185 15.9166C17.2723 15.7109 17.9068 15.434 18.2022 15.1698C18.5192 14.8866 18.813 14.4052 19.0466 13.744C19.2769 13.0923 19.4295 12.3204 19.501 11.5191C19.647 9.88205 19.4414 8.29734 19.0314 7.47721C18.7592 6.93282 18.4707 6.57364 18.0837 6.33178C17.6913 6.0865 17.117 5.91196 16.1858 5.89162C14.2969 5.85038 10.1212 6.10908 6.44599 7.20368ZM13.2022 9.3918C12.788 9.3918 12.4522 9.72759 12.4522 10.1418C12.4522 10.556 12.788 10.8918 13.2022 10.8918H15.9752C16.3894 10.8918 16.7252 10.556 16.7252 10.1418C16.7252 9.72759 16.3894 9.3918 15.9752 9.3918H13.2022Z" fill="black"/>
</svg>
