<svg width="24" height="24" viewBox="0 0 24 24" fill="none" xmlns="http://www.w3.org/2000/svg">
<path fill-rule="evenodd" clip-rule="evenodd" d="M14.1425 11.3541C14.1425 10.9399 14.4783 10.6041 14.8925 10.6041H14.9385C15.3527 10.6041 15.6885 10.9399 15.6885 11.3541C15.6885 11.7683 15.3527 12.1041 14.9385 12.1041H14.8925C14.4783 12.1041 14.1425 11.7683 14.1425 11.3541Z" fill="black"/>
<path fill-rule="evenodd" clip-rule="evenodd" d="M8.31143 11.3541C8.31143 10.9399 8.64722 10.6041 9.06143 10.6041H9.10744C9.52165 10.6041 9.85744 10.9399 9.85744 11.3541C9.85744 11.7683 9.52165 12.1041 9.10744 12.1041H9.06143C8.64722 12.1041 8.31143 11.7683 8.31143 11.3541Z" fill="black"/>
<path d="M12.0114 1.78023C9.40172 1.76906 7.24542 3.73197 6.95408 6.26537C7.44526 6.14792 7.97014 6.05424 8.52706 5.98198C8.91649 4.42353 10.3287 3.2725 12.0062 3.28023H12.0096C13.682 3.28023 15.0856 4.42987 15.4733 5.98202C16.0303 6.05429 16.5551 6.14798 17.0463 6.26543C16.7564 3.74127 14.613 1.7811 12.0114 1.78023Z" fill="black"/>
<path d="M8.42064 6.85023V6.83303C8.42212 6.53957 8.45895 6.25454 8.52706 5.98198C7.97014 6.05424 7.44526 6.14792 6.95408 6.26537C6.93285 6.44999 6.92152 6.63764 6.92064 6.82777L6.92064 6.85023C6.92064 7.26444 7.25642 7.60023 7.67064 7.60023C8.08485 7.60023 8.42064 7.26444 8.42064 6.85023Z" fill="black"/>
<path fill-rule="evenodd" clip-rule="evenodd" d="M17.0796 6.85023C17.0796 7.26444 16.7438 7.60023 16.3296 7.60023C15.9154 7.60023 15.5796 7.26444 15.5796 6.85023C15.5796 6.55078 15.5428 6.25995 15.4733 5.98202C14.4253 5.84601 13.2639 5.78583 12 5.78583C10.7363 5.78583 9.57498 5.84599 8.52706 5.98198C8.45895 6.25454 8.42212 6.53957 8.42064 6.83303V6.85023C8.42064 7.26444 8.08485 7.60023 7.67064 7.60023C7.25642 7.60023 6.92064 7.26444 6.92064 6.85023L6.92064 6.82777C6.92152 6.63764 6.93285 6.44999 6.95408 6.26537C5.71201 6.56235 4.68547 7.01128 3.9014 7.65015L2.55792 14.1982C2.92162 15.5467 3.25253 16.731 3.64798 17.7307C4.04566 18.736 4.52629 19.6026 5.21669 20.2966C6.62227 21.7096 8.70326 22.2198 12 22.2198C15.2968 22.2198 17.3778 21.7096 18.7834 20.2966C19.4738 19.6026 19.9544 18.736 20.3521 17.7307C20.7475 16.731 21.0785 15.5467 21.4421 14.1982C22.2106 11.3497 21.8878 9.10794 20.0987 7.65015C19.3147 7.01133 18.2882 6.56242 17.0463 6.26543C17.0683 6.45731 17.0796 6.65245 17.0796 6.85023ZM4.84892 8.813C3.72326 9.73022 3.30862 11.222 4.00615 13.8075C4.37295 15.1675 4.68355 16.2708 5.04281 17.179C5.39985 18.0816 5.78715 18.7432 6.28014 19.2388C7.2413 20.205 8.78881 20.7198 12 20.7198C15.2113 20.7198 16.7588 20.205 17.7199 19.2388C18.2129 18.7432 18.6002 18.0816 18.9573 17.179C19.3165 16.2708 19.6271 15.1675 19.9939 13.8075C20.6914 11.222 20.2768 9.73022 19.1512 8.813C17.914 7.8049 15.6095 7.28583 12 7.28583C8.3906 7.28583 6.08612 7.8049 4.84892 8.813Z" fill="black"/>
<path d="M16.3296 7.60023C16.7438 7.60023 17.0796 7.26444 17.0796 6.85023C17.0796 6.65245 17.0683 6.45731 17.0463 6.26543C16.5551 6.14798 16.0303 6.05429 15.4733 5.98202C15.5428 6.25995 15.5796 6.55078 15.5796 6.85023C15.5796 7.26444 15.9154 7.60023 16.3296 7.60023Z" fill="black"/>
<path d="M2.55792 14.1982L3.9014 7.65015C2.11233 9.10793 1.78947 11.3497 2.55792 14.1982Z" fill="black"/>
</svg>
