<svg width="24" height="24" viewBox="0 0 24 24" fill="none" xmlns="http://www.w3.org/2000/svg">
<path d="M16.6218 10.2235C16.2972 10.4809 15.8255 10.4263 15.5682 10.1017C15.5029 10.0193 15.4576 9.92747 15.4318 9.83203C15.5237 10.45 15.5698 11.1671 15.5698 12C15.5698 12.8198 15.5251 13.5274 15.4361 14.1388C15.4619 14.0507 15.5045 13.9659 15.5644 13.889C15.819 13.5623 16.2903 13.5039 16.617 13.7586C16.7306 13.8471 16.8465 13.9354 16.9641 14.0231C17.0376 13.3976 17.0698 12.7228 17.0698 12C17.0698 11.2706 17.0371 10.5902 16.9622 9.95993C16.8468 10.0472 16.7332 10.1353 16.6218 10.2235Z" fill="black"/>
<path d="M15.5682 10.1017C15.8255 10.4263 16.2972 10.4809 16.6218 10.2235C16.7332 10.1353 16.8468 10.0472 16.9622 9.95993C16.8928 9.37619 16.7873 8.83543 16.6382 8.33851C16.3122 8.56912 15.9925 8.80824 15.69 9.04809C15.493 9.20423 15.3955 9.43931 15.4068 9.67256C15.4155 9.72497 15.4238 9.77812 15.4318 9.83203C15.4576 9.92747 15.5029 10.0193 15.5682 10.1017Z" fill="black"/>
<path fill-rule="evenodd" clip-rule="evenodd" d="M15.4318 9.83203C15.4238 9.77812 15.4155 9.72497 15.4068 9.67256C15.4093 9.72614 15.4177 9.77962 15.4318 9.83203ZM16.6382 8.33851C16.3662 7.43198 15.9491 6.67137 15.3417 6.06198C14.0412 4.75716 12.0494 4.32715 9.41981 4.32715C6.78978 4.32715 4.79773 4.75714 3.49709 6.06195C2.19714 7.36607 1.76886 9.36274 1.76886 12C1.76886 14.6368 2.19715 16.6335 3.49706 17.9377C4.79768 19.2426 6.7897 19.6729 9.41981 19.6729C12.0495 19.6729 14.0413 19.2426 15.3418 17.9376C15.9535 17.3238 16.3722 16.5567 16.644 15.6416C17.3469 16.1327 18.0777 16.5864 18.7294 16.9276C19.2016 17.1749 19.6649 17.3805 20.0623 17.4904C20.2584 17.5446 20.4792 17.5873 20.6974 17.5809C20.9061 17.5748 21.2286 17.5187 21.4763 17.2515C21.6156 17.1022 21.6985 16.9246 21.75 16.7937C21.8068 16.6492 21.8529 16.488 21.8915 16.3228C21.9691 15.9919 22.0305 15.5854 22.0787 15.1416C22.1757 14.2503 22.2267 13.1409 22.2309 12.0387C22.2351 10.9368 22.1927 9.82122 22.0978 8.9184C22.0505 8.46872 21.9884 8.05432 21.9073 7.71386C21.8668 7.54376 21.8181 7.3776 21.7578 7.22803C21.7017 7.08881 21.6155 6.91269 21.477 6.76367C21.2385 6.50642 20.9307 6.43534 20.7085 6.42205C20.484 6.40862 20.2576 6.44693 20.0562 6.49884C19.6499 6.60358 19.182 6.80777 18.7093 7.05402C18.059 7.39289 17.334 7.8463 16.6382 8.33851ZM16.6382 8.33851C16.3122 8.56912 15.9925 8.80824 15.69 9.04809C15.493 9.20423 15.3955 9.43931 15.4068 9.67256C15.2091 8.48266 14.8322 7.67559 14.2793 7.12089C13.4236 6.26238 11.9655 5.82715 9.41981 5.82715C6.87365 5.82715 5.41523 6.26239 4.55944 7.12092C3.70296 7.98014 3.26886 9.44489 3.26886 12C3.26886 14.5546 3.70295 16.0194 4.55947 16.8788C5.41528 17.7374 6.87373 18.1729 9.41981 18.1729C11.9654 18.1729 13.4236 17.7374 14.2793 16.8788C14.8316 16.3246 15.2082 15.5186 15.4061 14.331C15.4077 14.2664 15.4176 14.2018 15.4361 14.1388C15.4619 14.0507 15.5045 13.9659 15.5644 13.889C15.819 13.5623 16.2903 13.5039 16.617 13.7586C16.7306 13.8471 16.8465 13.9354 16.9641 14.0231C17.7784 14.6299 18.6734 15.2051 19.4252 15.5988C19.8353 15.8135 20.174 15.9589 20.4186 16.0321C20.4227 16.0158 20.4269 15.9986 20.4311 15.9807C20.4891 15.7331 20.5425 15.3936 20.5875 14.9794C20.6772 14.1546 20.7268 13.0998 20.7309 12.0329C20.735 10.9658 20.6935 9.90755 20.606 9.07525C20.5621 8.65738 20.5083 8.31389 20.4482 8.06157C20.4388 8.02212 20.4295 7.98631 20.4206 7.95398C20.1762 8.01842 19.8288 8.16216 19.4025 8.38427C18.6549 8.77378 17.7682 9.34961 16.9622 9.95993C16.8928 9.37619 16.7873 8.83543 16.6382 8.33851Z" fill="black"/>
</svg>
