<svg width="24" height="24" viewBox="0 0 24 24" fill="none" xmlns="http://www.w3.org/2000/svg">
<path fill-rule="evenodd" clip-rule="evenodd" d="M6.56418 4.33537C7.72563 2.83798 9.52545 1.70564 12.0001 1.70564C14.4744 1.70564 16.2742 2.83802 17.4357 4.33534C18.579 5.80908 19.1111 7.64015 19.1111 9.12516C19.1111 9.5514 19.0981 9.86784 19.0883 10.108C19.0863 10.1573 19.0844 10.2035 19.0828 10.2467C19.0731 10.505 19.0751 10.629 19.0949 10.752C19.1401 11.0315 19.2831 11.376 19.8545 12.6353C19.8603 12.6479 19.8656 12.6606 19.8706 12.6735C20.2835 13.736 20.1911 14.7133 19.7001 15.5416C19.2316 16.3319 18.4441 16.9139 17.5928 17.3386C15.8905 18.1878 13.6401 18.5533 12.0001 18.5533C10.3597 18.5533 8.10908 18.1878 6.40677 17.3386C5.5555 16.9139 4.76799 16.3319 4.29957 15.5415C3.80869 14.7132 3.71659 13.7358 4.12969 12.6734C4.13469 12.6605 4.14004 12.6478 4.14573 12.6353C4.71714 11.376 4.86016 11.0315 4.90533 10.752C4.92519 10.629 4.92716 10.505 4.91749 10.2467C4.91587 10.2035 4.91399 10.1573 4.91197 10.108C4.90214 9.86785 4.88918 9.5514 4.88918 9.12516C4.88918 7.64023 5.42104 5.80916 6.56418 4.33537ZM7.74943 5.25471C6.82066 6.45212 6.38918 7.95581 6.38918 9.12516C6.38918 9.51826 6.40077 9.80224 6.41052 10.0413C6.41262 10.0929 6.41464 10.1425 6.41644 10.1906C6.42639 10.4564 6.43163 10.7096 6.38613 10.9912C6.30162 11.5143 6.0447 12.0804 5.53073 13.2131L5.52071 13.2352C5.27182 13.8879 5.35166 14.3746 5.58999 14.7767C5.853 15.2205 6.35715 15.6375 7.07636 15.9963C8.515 16.714 10.5206 17.0533 12.0001 17.0533C13.4792 17.0533 15.4845 16.714 16.9232 15.9963C17.6424 15.6375 18.1467 15.2205 18.4098 14.7766C18.6483 14.3744 18.7282 13.8877 18.4795 13.2351L18.4695 13.2131C17.9556 12.0804 17.6987 11.5143 17.6141 10.9912C17.5686 10.7096 17.5739 10.4564 17.5838 10.1906C17.5856 10.1425 17.5877 10.093 17.5898 10.0413C17.5995 9.80225 17.6111 9.51826 17.6111 9.12516C17.6111 7.95589 17.1794 6.45219 16.2505 5.25475C15.3399 4.08088 13.9592 3.20564 12.0001 3.20564C10.0405 3.20564 8.65989 4.08091 7.74943 5.25471Z" fill="black"/>
<path fill-rule="evenodd" clip-rule="evenodd" d="M9.19032 19.8943C9.49924 19.6184 9.97336 19.6451 10.2493 19.954C11.2549 21.0798 12.7521 21.0694 13.7512 19.9534C14.0274 19.6448 14.5016 19.6186 14.8102 19.8949C15.1188 20.1711 15.145 20.6453 14.8687 20.9539C13.2793 22.7293 10.7384 22.7532 9.1306 20.9533C8.85466 20.6443 8.8814 20.1702 9.19032 19.8943Z" fill="black"/>
</svg>
