<svg width="24" height="24" viewBox="0 0 24 24" fill="none" xmlns="http://www.w3.org/2000/svg">
<path fill-rule="evenodd" clip-rule="evenodd" d="M14.361 12.4085C14.361 11.9942 14.6968 11.6585 15.111 11.6585H15.2132C15.6274 11.6585 15.9632 11.9942 15.9632 12.4085C15.9632 12.8227 15.6274 13.1585 15.2132 13.1585H15.111C14.6968 13.1585 14.361 12.8227 14.361 12.4085Z" fill="black"/>
<path fill-rule="evenodd" clip-rule="evenodd" d="M16.0918 15.8206C16.0918 15.4064 16.4276 15.0706 16.8418 15.0706H16.944C17.3582 15.0706 17.694 15.4064 17.694 15.8206C17.694 16.2348 17.3582 16.5706 16.944 16.5706H16.8418C16.4276 16.5706 16.0918 16.2348 16.0918 15.8206Z" fill="black"/>
<path d="M9.74062 14.837V13.337H8.24062V14.837H9.74062Z" fill="black"/>
<path d="M9.74062 12.2998C9.74062 11.8856 9.40483 11.5498 8.99062 11.5498C8.5764 11.5498 8.24062 11.8856 8.24062 12.2998V13.337H9.74062V12.2998Z" fill="black"/>
<path d="M7.16741 13.337C6.7532 13.337 6.41741 13.6728 6.41741 14.087C6.41741 14.5012 6.7532 14.837 7.16741 14.837H8.24062V13.337H7.16741Z" fill="black"/>
<path d="M8.99062 16.625C9.40483 16.625 9.74062 16.2892 9.74062 15.875V14.837H8.24062V15.875C8.24062 16.2892 8.5764 16.625 8.99062 16.625Z" fill="black"/>
<path d="M11.5652 14.087C11.5652 13.6728 11.2294 13.337 10.8152 13.337H9.74062V14.837H10.8152C11.2294 14.837 11.5652 14.5012 11.5652 14.087Z" fill="black"/>
<path d="M12.5841 7.46888C12.9983 7.46888 13.3341 7.13309 13.3341 6.71888L13.3341 5.99201C12.9055 5.97624 12.461 5.96878 12.0005 5.96878C11.9448 5.96878 11.8893 5.96889 11.8341 5.96911V6.71888C11.8341 7.13309 12.1698 7.46888 12.5841 7.46888Z" fill="black"/>
<path fill-rule="evenodd" clip-rule="evenodd" d="M13.3341 5.99201L13.3341 6.71888C13.3341 7.13309 12.9983 7.46888 12.5841 7.46888C12.1698 7.46888 11.8341 7.13309 11.8341 6.71888V5.96911C11.8893 5.96889 11.9448 5.96878 12.0005 5.96878C12.461 5.96878 12.9055 5.97624 13.3341 5.99201ZM13.3341 5.99201L13.3341 5.71171L13.334 5.70133C13.313 4.18794 12.0755 2.97356 10.5613 2.98366L9.55587 2.98363L9.54885 2.98369C9.24778 2.98651 9.00266 2.74514 8.99987 2.44644C8.99599 2.03225 8.65707 1.69962 8.24288 1.70349C7.82868 1.70737 7.49605 2.04628 7.49993 2.46048C7.51049 3.58865 8.43368 4.4921 9.55902 4.48366L10.564 4.48368L10.5698 4.48364C11.2579 4.47828 11.822 5.02882 11.8341 5.7175V5.96911C8.32289 5.98307 5.76076 6.44365 4.08053 7.74837C2.31496 9.11937 1.70197 11.2673 1.70197 14.1327C1.70197 16.9985 2.31494 19.1465 4.08056 20.5173C5.78723 21.8425 8.40378 22.2966 12.0005 22.2966C15.5967 22.2966 18.213 21.8425 19.9196 20.5173C21.685 19.1464 22.298 16.9985 22.298 14.1327C22.298 11.2673 21.685 9.11939 19.9196 7.74839C18.4316 6.59285 16.252 6.09944 13.3341 5.99201ZM5.00051 8.93313C3.78229 9.87909 3.20197 11.4381 3.20197 14.1327C3.20197 16.8277 3.78231 18.3867 5.00048 19.3325C6.2776 20.3241 8.4353 20.7966 12.0005 20.7966C15.5651 20.7966 17.7226 20.3242 18.9996 19.3326C20.2177 18.3867 20.798 16.8277 20.798 14.1327C20.798 11.4381 20.2177 9.87907 18.9996 8.93311C17.7226 7.94141 15.5651 7.46878 12.0005 7.46878C8.43536 7.46878 6.27764 7.94141 5.00051 8.93313ZM15.111 11.6585C14.6968 11.6585 14.361 11.9942 14.361 12.4085C14.361 12.8227 14.6968 13.1585 15.111 13.1585H15.2132C15.6274 13.1585 15.9632 12.8227 15.9632 12.4085C15.9632 11.9942 15.6274 11.6585 15.2132 11.6585H15.111ZM16.8418 15.0706C16.4276 15.0706 16.0918 15.4064 16.0918 15.8206C16.0918 16.2348 16.4276 16.5706 16.8418 16.5706H16.944C17.3582 16.5706 17.694 16.2348 17.694 15.8206C17.694 15.4064 17.3582 15.0706 16.944 15.0706H16.8418Z" fill="black"/>
</svg>
