<svg width="24" height="24" viewBox="0 0 24 24" fill="none" xmlns="http://www.w3.org/2000/svg">
<path fill-rule="evenodd" clip-rule="evenodd" d="M4.88562 4.27249C6.41747 2.58293 8.79334 2 11.995 2C12.6696 2 13.306 2.02725 13.8996 2.08277C13.9415 2.0867 13.9832 2.09076 14.0247 2.09497C14.2028 2.11301 14.3768 2.13366 14.5468 2.15694C14.7028 2.17832 14.8482 2.24827 14.9622 2.3569L20.6322 7.7569C20.7474 7.86656 20.8247 8.00998 20.853 8.16645C21.0534 9.27377 21.145 10.5511 21.145 12C21.145 15.4998 20.6263 18.0653 19.1127 19.7318C17.5793 21.42 15.2006 22 11.995 22C8.79407 22 6.41793 21.4199 4.88584 19.7315C3.37372 18.0651 2.855 15.4999 2.855 12C2.855 8.5048 3.37384 5.93992 4.88562 4.27249ZM5.99688 5.28001C4.88616 6.50508 4.355 8.5652 4.355 12C4.355 15.4401 4.88628 17.4999 5.99666 18.7235C7.08707 19.9251 8.90593 20.5 11.995 20.5C15.0894 20.5 16.9107 19.925 18.0023 18.7232C19.1137 17.4997 19.645 15.4402 19.645 12C19.645 11.1205 19.6097 10.3243 19.5383 9.6067C19.5057 9.27873 19.4655 8.9672 19.4177 8.67165L18.8245 8.1067L14.6389 4.12038L14.106 3.61282C13.8008 3.57674 13.4783 3.54917 13.1389 3.53032C12.7766 3.51019 12.395 3.5 11.995 3.5C8.90666 3.5 7.08753 4.07707 5.99688 5.28001Z" fill="black"/>
<path fill-rule="evenodd" clip-rule="evenodd" d="M13.8889 2.0827C13.8925 2.0827 13.896 2.08272 13.8996 2.08277C13.9422 2.08337 13.9841 2.08753 14.0247 2.09497C14.3741 2.15888 14.6389 2.46486 14.6389 2.8327V4.12038V5.4937C14.6389 6.9372 15.8088 8.1067 17.2529 8.1067H18.8245H20.2039C20.6181 8.1067 20.9539 8.44249 20.9539 8.8567C20.9539 9.27091 20.6181 9.6067 20.2039 9.6067H19.5383H17.2529C14.981 9.6067 13.1389 7.7662 13.1389 5.4937V3.53032V2.8327C13.1389 2.41849 13.4747 2.0827 13.8889 2.0827Z" fill="black"/>
<path d="M12.1462 9.4475C12.0054 9.30616 11.814 9.2262 11.6145 9.2262C11.415 9.2262 11.224 9.30616 11.0832 9.4475L11.0641 9.4667C10.9402 9.60047 10.8645 9.77949 10.8645 9.9762V11.793L11.6147 11.0396L12.3645 11.7926V9.9762C12.3645 9.7761 12.2861 9.59429 12.1584 9.45981L12.1462 9.4475Z" fill="black"/>
<path fill-rule="evenodd" clip-rule="evenodd" d="M5.99688 5.28001C4.88616 6.50508 4.355 8.5652 4.355 12C4.355 15.4401 4.88628 17.4999 5.99666 18.7235C7.08707 19.9251 8.90593 20.5 11.995 20.5C15.0894 20.5 16.9107 19.925 18.0023 18.7232C19.1137 17.4997 19.645 15.4402 19.645 12C19.645 11.1205 19.6097 10.3243 19.5383 9.6067H17.2529C14.981 9.6067 13.1389 7.7662 13.1389 5.4937V3.53032C12.7766 3.51019 12.395 3.5 11.995 3.5C8.90666 3.5 7.08753 4.07707 5.99688 5.28001ZM11.6145 9.2262C11.8286 9.2262 12.0218 9.31592 12.1584 9.45981L12.1462 9.4475C12.0054 9.30616 11.814 9.2262 11.6145 9.2262ZM11.0641 9.4667C11.2011 9.31879 11.397 9.2262 11.6145 9.2262C11.415 9.2262 11.224 9.30616 11.0832 9.4475L11.0641 9.4667ZM10.8645 11.793L9.80116 12.8609C9.50889 13.1544 9.03402 13.1554 8.7405 12.8632C8.44698 12.5709 8.44597 12.096 8.73824 11.8025L11.0641 9.4667C10.9402 9.60047 10.8645 9.77949 10.8645 9.9762V11.793ZM12.3645 11.7926V16.0172C12.3645 16.4314 12.0287 16.7672 11.6145 16.7672C11.2003 16.7672 10.8645 16.4314 10.8645 16.0172V11.793L11.6147 11.0396L12.3645 11.7926ZM12.3645 11.7926L13.4282 12.8609C13.7205 13.1544 14.1954 13.1554 14.4889 12.8632C14.7824 12.5709 14.7834 12.096 14.4912 11.8025L12.1584 9.45981C12.2861 9.59429 12.3645 9.7761 12.3645 9.9762V11.7926ZM18.8245 8.1067L14.6389 4.12038V5.4937C14.6389 6.9372 15.8088 8.1067 17.2529 8.1067H18.8245ZM11.995 2C8.79334 2 6.41747 2.58293 4.88562 4.27249C3.37384 5.93992 2.855 8.5048 2.855 12C2.855 15.4999 3.37372 18.0651 4.88584 19.7315C6.41793 21.4199 8.79407 22 11.995 22C15.2006 22 17.5793 21.42 19.1127 19.7318C20.6263 18.0653 21.145 15.4998 21.145 12C21.145 10.5511 21.0534 9.27377 20.853 8.16645C20.8247 8.00998 20.7474 7.86656 20.6322 7.7569L14.9622 2.3569C14.8482 2.24827 14.7028 2.17832 14.5468 2.15694C14.3768 2.13366 14.2028 2.11301 14.0247 2.09497C13.9841 2.08753 13.9422 2.08337 13.8996 2.08277C13.306 2.02725 12.6696 2 11.995 2Z" fill="black"/>
</svg>
