<svg width="24" height="24" viewBox="0 0 24 24" fill="none" xmlns="http://www.w3.org/2000/svg">
<path fill-rule="evenodd" clip-rule="evenodd" d="M5.5807 8.16915C5.5807 4.62394 8.45449 1.75015 11.9997 1.75015C15.5458 1.75015 18.4197 4.62385 18.4197 8.16915V10.4232C18.4197 10.8374 18.0839 11.1732 17.6697 11.1732C17.2555 11.1732 16.9197 10.8374 16.9197 10.4232V8.16915C16.9197 5.45245 14.7176 3.25015 11.9997 3.25015C9.28291 3.25015 7.0807 5.45236 7.0807 8.16915V10.4232C7.0807 10.8374 6.74491 11.1732 6.3307 11.1732C5.91649 11.1732 5.5807 10.8374 5.5807 10.4232V8.16915Z" fill="black"/>
<path fill-rule="evenodd" clip-rule="evenodd" d="M11.9999 18.5975C12.4141 18.5975 12.7498 18.9336 12.7498 19.3479V20.0542V21.4998C12.7498 21.9141 12.414 22.2498 11.9998 22.2498C11.5856 22.2498 11.2498 21.9141 11.2498 21.4998V20.0542V19.3479C11.2498 18.9336 11.5857 18.5975 11.9999 18.5975Z" fill="black"/>
<path d="M7.0809 13.6785C7.0809 13.2643 6.74511 12.9285 6.3309 12.9285C5.91669 12.9285 5.5809 13.2643 5.5809 13.6785C5.5809 13.9323 5.59562 14.1825 5.62425 14.4285H7.13771C7.1003 14.184 7.0809 13.9335 7.0809 13.6785Z" fill="black"/>
<path fill-rule="evenodd" clip-rule="evenodd" d="M12.7498 20.0542C15.6964 19.7116 18.0338 17.3745 18.3766 14.4285H19.134C19.5482 14.4285 19.884 14.0928 19.884 13.6785C19.884 13.2643 19.5482 12.9285 19.134 12.9285H17.6699H6.3309H4.866C4.45179 12.9285 4.116 13.2643 4.116 13.6785C4.116 14.0928 4.45179 14.4285 4.866 14.4285H5.62425C5.96702 17.3743 8.30406 19.7114 11.2498 20.0542V21.4998C11.2498 21.9141 11.5856 22.2498 11.9998 22.2498C12.414 22.2498 12.7498 21.9141 12.7498 21.4998V20.0542ZM7.13771 14.4285C7.1003 14.184 7.0809 13.9335 7.0809 13.6785C7.0809 13.2643 6.74511 12.9285 6.3309 12.9285C5.91669 12.9285 5.5809 13.2643 5.5809 13.6785C5.5809 13.9323 5.59562 14.1825 5.62425 14.4285H7.13771ZM7.13771 14.4285H16.8631C16.502 16.7893 14.4627 18.5975 11.9999 18.5975C9.53811 18.5975 7.49883 16.7893 7.13771 14.4285ZM11.9997 1.75015C8.45449 1.75015 5.5807 4.62394 5.5807 8.16915V10.4232C5.5807 10.8374 5.91649 11.1732 6.3307 11.1732C6.74491 11.1732 7.0807 10.8374 7.0807 10.4232V8.16915C7.0807 5.45236 9.28291 3.25015 11.9997 3.25015C14.7176 3.25015 16.9197 5.45245 16.9197 8.16915V10.4232C16.9197 10.8374 17.2555 11.1732 17.6697 11.1732C18.0839 11.1732 18.4197 10.8374 18.4197 10.4232V8.16915C18.4197 4.62385 15.5458 1.75015 11.9997 1.75015Z" fill="black"/>
</svg>
