<svg width="24" height="24" viewBox="0 0 24 24" fill="none" xmlns="http://www.w3.org/2000/svg">
<path fill-rule="evenodd" clip-rule="evenodd" d="M20.25 12C20.25 12.4142 19.9142 12.75 19.5 12.75H5.44644H4.5C4.09409 12.75 3.76349 12.4275 3.7504 12.0248C3.75013 12.0166 3.75 12.0083 3.75 12C3.75 11.9913 3.75015 11.9826 3.75044 11.974C3.76415 11.5718 4.09449 11.25 4.5 11.25H5.44752H19.5C19.9142 11.25 20.25 11.5858 20.25 12Z" fill="black"/>
<path d="M3.75044 11.974C3.76415 11.5718 4.09449 11.25 4.5 11.25H5.44752C5.57536 10.9812 5.76688 10.6862 6.02651 10.3683C6.54207 9.73699 7.24795 9.11038 7.98198 8.54694C8.71156 7.98691 9.4449 7.50749 9.99803 7.16714C10.2739 6.9974 10.5032 6.8633 10.6626 6.77214C10.7423 6.72658 10.8044 6.69181 10.846 6.66875L10.8926 6.64306L10.9037 6.63703L10.9064 6.63556C11.2709 6.43893 11.407 5.9841 11.2105 5.61956C11.0139 5.25497 10.5582 5.11916 10.1936 5.31574C10.1936 5.31574 10.1944 5.31534 10.5503 5.9755L10.1936 5.31574L10.1923 5.31643L10.1881 5.31872L10.1733 5.32682L10.1187 5.35687C10.0717 5.38294 10.0038 5.42095 9.91805 5.46999C9.74661 5.56802 9.50328 5.71035 9.21195 5.88961C8.6307 6.24726 7.85154 6.75609 7.06863 7.35706C6.29015 7.95462 5.48353 8.66176 4.86472 9.41947C4.26623 10.1523 3.76015 11.0331 3.75044 11.974Z" fill="black"/>
<path d="M5.44644 12.75H4.5C4.09409 12.75 3.76349 12.4275 3.7504 12.0248C3.75865 12.9669 4.2655 13.8489 4.86484 14.5824C5.48367 15.3397 6.29029 16.0465 7.06875 16.6438C7.85166 17.2445 8.63081 17.7531 9.21205 18.1106C9.50338 18.2898 9.74671 18.4321 9.91814 18.5301C10.0039 18.5791 10.0718 18.6171 10.1188 18.6432L10.1733 18.6732L10.1882 18.6813L10.1924 18.6836L10.1944 18.6847C10.5591 18.8812 11.014 18.745 11.2105 18.3804L10.906 17.3642L10.9036 17.3629L10.8925 17.3569L10.8459 17.3312C10.8043 17.3082 10.7422 17.2734 10.6625 17.2279C10.5031 17.1367 10.2738 17.0027 9.99793 16.833C9.44479 16.4928 8.71144 16.0135 7.98185 15.4537C7.24782 14.8905 6.54194 14.2642 6.02638 13.6333C5.76605 13.3147 5.57424 13.0192 5.44644 12.75Z" fill="black"/>
<path d="M10.906 17.3642L11.2105 18.3804C11.407 18.0158 11.2705 17.5608 10.906 17.3642Z" fill="black"/>
</svg>
