<svg width="24" height="24" viewBox="0 0 24 24" fill="none" xmlns="http://www.w3.org/2000/svg">
<path fill-rule="evenodd" clip-rule="evenodd" d="M16.8361 12C16.8361 12.4142 16.5003 12.75 16.0861 12.75H9.19285H7.9141C7.49989 12.75 7.1641 12.4142 7.1641 12C7.1641 11.5858 7.49989 11.25 7.9141 11.25H9.19337H16.0861C16.5003 11.25 16.8361 11.5858 16.8361 12Z" fill="black"/>
<path fill-rule="evenodd" clip-rule="evenodd" d="M19.7567 4.24329C21.4245 5.91107 22 8.4899 22 12C22 15.5101 21.4245 18.0889 19.7567 19.7567C18.0889 21.4245 15.5101 22 12 22C8.4899 22 5.91107 21.4245 4.2433 19.7567C2.57552 18.0889 2 15.5101 2 12C2 8.4899 2.57552 5.91107 4.2433 4.24329C5.91107 2.57552 8.4899 2 12 2C15.5101 2 18.0889 2.57552 19.7567 4.24329ZM18.696 5.30396C17.4731 4.08098 15.4269 3.5 12 3.5C8.5731 3.5 6.52693 4.08098 5.30396 5.30396C4.08098 6.52693 3.5 8.5731 3.5 12C3.5 15.4269 4.08098 17.4731 5.30396 18.696C6.52693 19.919 8.5731 20.5 12 20.5C15.4269 20.5 17.4731 19.919 18.696 18.696C19.919 17.4731 20.5 15.4269 20.5 12C20.5 8.5731 19.919 6.52693 18.696 5.30396Z" fill="black"/>
<path d="M7.1641 12C7.1641 11.5858 7.49989 11.25 7.9141 11.25H9.19337C9.49313 10.9246 9.87604 10.5767 10.2764 10.2431C10.7298 9.86536 11.1859 9.52229 11.5303 9.27268C11.702 9.14823 11.8448 9.04785 11.9441 8.97896C11.9937 8.94453 12.0324 8.91801 12.0584 8.90033L12.0875 8.88058L12.0944 8.87591L12.096 8.87481C12.44 8.6441 12.5319 8.17819 12.3012 7.8342C12.0705 7.49017 11.6044 7.39841 11.2604 7.62911C11.2605 7.62904 11.2606 7.62898 11.6783 8.2519L11.2604 7.62911L11.2568 7.63156L11.2476 7.63777L11.2137 7.66075C11.1845 7.68065 11.1423 7.70955 11.089 7.74653C10.9825 7.82045 10.8312 7.92682 10.65 8.05812C10.2887 8.32001 9.80382 8.68444 9.31622 9.09068C8.83278 9.49347 8.32656 9.9539 7.93471 10.4078C7.73892 10.6346 7.55652 10.877 7.41967 11.1245C7.28794 11.3628 7.1641 11.6664 7.1641 12Z" fill="black"/>
<path d="M7.9141 12.75C7.49989 12.75 7.1641 12.4142 7.1641 12C7.1641 12.3335 7.28791 12.637 7.41958 12.8753C7.55638 13.1228 7.73873 13.3654 7.93449 13.5924C8.32628 14.0466 8.83244 14.5075 9.31586 14.9108C9.80343 15.3176 10.2883 15.6825 10.6496 15.9447C10.8308 16.0762 10.9821 16.1828 11.0886 16.2568C11.1419 16.2938 11.1841 16.3228 11.2133 16.3427L11.2471 16.3657L11.2563 16.3719L11.2601 16.3745C11.604 16.6055 12.07 16.5139 12.3009 16.1701C12.5318 15.8262 12.4401 15.3602 12.0963 15.1292L12.0948 15.1282L12.0879 15.1235L12.0588 15.1037C12.0329 15.086 11.9942 15.0595 11.9445 15.025C11.8452 14.956 11.7024 14.8554 11.5307 14.7308C11.1863 14.4808 10.7302 14.1372 10.2767 13.759C9.87604 13.4247 9.49277 13.076 9.19285 12.75H7.9141Z" fill="black"/>
</svg>
