<svg width="24" height="24" viewBox="0 0 24 24" fill="none" xmlns="http://www.w3.org/2000/svg">
<path fill-rule="evenodd" clip-rule="evenodd" d="M12.6826 16.2054C12.3213 16.5439 11.7974 16.9469 11.1603 16.9469C10.2406 16.9469 9.58276 16.4577 9.13624 16.1257C9.12975 16.1209 9.12331 16.1161 9.11691 16.1113C8.60691 15.7323 8.36301 15.5719 8.0643 15.5719C7.81741 15.5719 7.5109 15.7581 7.19352 16.1285C7.05042 16.2954 6.93458 16.4661 6.85411 16.5966C6.81436 16.6611 6.78446 16.7138 6.76533 16.7488C6.75579 16.7662 6.749 16.7791 6.74509 16.7866L6.74157 16.7934C6.5574 17.1642 6.10798 17.3148 5.73703 17.1308C5.36595 16.9467 5.21435 16.4967 5.39842 16.1256L6.0703 16.4589C5.39842 16.1256 5.39832 16.1258 5.39842 16.1256L5.39933 16.1238L5.40055 16.1214L5.40391 16.1147L5.41432 16.0944C5.42288 16.078 5.4347 16.0557 5.44967 16.0283C5.47956 15.9737 5.52234 15.8986 5.57718 15.8096C5.68589 15.6332 5.84693 15.3946 6.05458 15.1523C6.4387 14.7042 7.12919 14.0719 8.0643 14.0719C8.89637 14.0719 9.52062 14.5396 9.93713 14.8517C9.96277 14.8709 9.98763 14.8896 10.0117 14.9075C10.4899 15.2629 10.7834 15.4469 11.1603 15.4469C11.1603 15.4469 11.1999 15.4459 11.2919 15.3944C11.3879 15.3406 11.5088 15.2497 11.657 15.1109C11.9447 14.8413 12.2464 14.478 12.594 14.0596C12.6121 14.0377 12.6304 14.0157 12.6489 13.9935C13.0007 13.5702 13.4006 13.0932 13.8186 12.7249C14.2208 12.3705 14.768 11.9989 15.4223 11.9989C16.0006 11.9989 16.4968 12.2325 16.8867 12.5159C17.2758 12.7988 17.599 13.1595 17.8504 13.4922C18.1044 13.8283 18.3033 14.16 18.438 14.4053C18.5058 14.5288 18.5586 14.6327 18.5951 14.7071C18.6133 14.7443 18.6276 14.7744 18.6376 14.796L18.6496 14.822L18.6533 14.83L18.6549 14.8337C18.655 14.8339 18.6553 14.8345 17.9703 15.1399L18.6549 14.8337C18.8236 15.212 18.654 15.6562 18.2757 15.8249C17.8977 15.9934 17.4547 15.8239 17.2857 15.4463C17.2857 15.4463 17.2857 15.4463 17.2857 15.4463C17.2857 15.4462 17.2853 15.4454 17.2853 15.4453L17.2848 15.4441L17.2783 15.4301C17.272 15.4167 17.2619 15.3954 17.2481 15.3672C17.2205 15.3109 17.1784 15.2279 17.1232 15.1273C17.0117 14.9243 16.8515 14.6583 16.6537 14.3966C16.4534 14.1315 16.2322 13.8945 16.0046 13.7291C15.7778 13.5642 15.585 13.4989 15.4223 13.4989C15.3347 13.4989 15.1417 13.5583 14.8102 13.8504C14.4944 14.1286 14.1671 14.5136 13.8025 14.9523C13.7776 14.9822 13.7526 15.0124 13.7273 15.0429C13.4013 15.4357 13.042 15.8687 12.6826 16.2054Z" fill="black"/>
<path fill-rule="evenodd" clip-rule="evenodd" d="M8.58055 8.2968C8.1356 8.29704 7.774 8.65854 7.774 9.1048C7.774 9.55121 8.13584 9.9128 8.581 9.9128C9.02747 9.9128 9.389 9.5509 9.389 9.1048C9.389 8.65963 9.0283 8.29755 8.58055 8.2968ZM6.274 9.1048C6.274 7.83121 7.30616 6.7968 8.581 6.7968C9.85505 6.79828 10.889 7.83011 10.889 9.1048C10.889 10.3787 9.85653 11.4128 8.581 11.4128C7.30616 11.4128 6.274 10.3784 6.274 9.1048Z" fill="black"/>
<path fill-rule="evenodd" clip-rule="evenodd" d="M4.24329 4.24329C5.91107 2.57552 8.4899 2 12 2C15.5101 2 18.0889 2.57552 19.7567 4.24329C21.4245 5.91107 22 8.4899 22 12C22 15.5101 21.4245 18.0889 19.7567 19.7567C18.0889 21.4245 15.5101 22 12 22C8.4899 22 5.91107 21.4245 4.24329 19.7567C2.57552 18.0889 2 15.5101 2 12C2 8.4899 2.57552 5.91107 4.24329 4.24329ZM5.30396 5.30396C4.08098 6.52693 3.5 8.5731 3.5 12C3.5 15.4269 4.08098 17.4731 5.30396 18.696C6.52693 19.919 8.5731 20.5 12 20.5C15.4269 20.5 17.4731 19.919 18.696 18.696C19.919 17.4731 20.5 15.4269 20.5 12C20.5 8.5731 19.919 6.52693 18.696 5.30396C17.4731 4.08098 15.4269 3.5 12 3.5C8.5731 3.5 6.52693 4.08098 5.30396 5.30396Z" fill="black"/>
</svg>
