<svg width="24" height="24" viewBox="0 0 24 24" fill="none" xmlns="http://www.w3.org/2000/svg">
<path fill-rule="evenodd" clip-rule="evenodd" d="M6.94836 2.95751C8.32678 2.35647 10.1111 1.8225 12.0005 1.8225C13.8899 1.8225 15.674 2.35648 17.0522 2.95753C18.4093 3.54937 19.462 4.24638 19.8648 4.64917C20.0957 4.88008 20.2733 5.14047 20.3732 5.52579C20.4594 5.8583 20.4807 6.26222 20.4845 6.76389C20.4876 7.17515 20.478 7.70439 20.4657 8.38577C20.4627 8.55531 20.4594 8.73426 20.4562 8.92316C20.4398 9.87778 20.4225 11.1052 20.4225 12.7005C20.4225 16.1386 18.9792 18.5242 17.1972 20.0375C15.4471 21.5239 13.3601 22.1775 12.0005 22.1775C10.6404 22.1775 8.55317 21.5239 6.8029 20.0376C5.02084 18.5242 3.5775 16.1386 3.5775 12.7005C3.5775 11.1052 3.56019 9.87778 3.5438 8.92316C3.54055 8.73425 3.53733 8.55528 3.53427 8.38574C3.52199 7.70437 3.51244 7.17514 3.51552 6.76389C3.51927 6.26222 3.54062 5.8583 3.6268 5.52579C3.72668 5.14047 3.90426 4.88008 4.13517 4.64917C4.538 4.24634 5.5911 3.54933 6.94836 2.95751ZM7.54789 4.33249C6.2689 4.89017 5.409 5.49666 5.19583 5.70983C5.11874 5.78692 5.10007 5.82015 5.07882 5.90215C5.04388 6.03695 5.01923 6.27403 5.01548 6.77511C5.01256 7.16539 5.02162 7.66882 5.03383 8.34713C5.03693 8.519 5.04022 8.70208 5.04358 8.8974C5.06006 9.8571 5.0775 11.0938 5.0775 12.7005C5.0775 15.6674 6.30316 17.6453 7.77385 18.8942C9.27633 20.1701 11.0256 20.6775 12.0005 20.6775C12.9749 20.6775 14.7239 20.1701 16.2263 18.8942C17.6968 17.6453 18.9225 15.6674 18.9225 12.7005C18.9225 11.0938 18.9399 9.8571 18.9564 8.8974C18.9598 8.70209 18.9631 8.51901 18.9662 8.34716C18.9784 7.66884 18.9874 7.1654 18.9845 6.77511C18.9808 6.27403 18.9561 6.03695 18.9212 5.90215C18.8999 5.82015 18.8813 5.78692 18.8042 5.70983C18.591 5.49662 17.7312 4.89013 16.4526 4.33247C15.195 3.78402 13.6201 3.3225 12.0005 3.3225C10.3809 3.3225 8.80572 3.78403 7.54789 4.33249Z" fill="black"/>
<path fill-rule="evenodd" clip-rule="evenodd" d="M9.59 9.35804C9.88285 9.06511 10.3577 9.06505 10.6507 9.3579L12 10.7069L13.0608 11.7674L14.4097 13.1159C14.7026 13.4088 14.7027 13.8836 14.4098 14.1766C14.1169 14.4695 13.6421 14.4696 13.3491 14.1767L12 12.8279L10.9392 11.7674L9.59014 10.4187C9.29721 10.1258 9.29715 9.65097 9.59 9.35804Z" fill="black"/>
<path d="M14.4099 10.4187C14.7028 10.1258 14.7029 9.65097 14.41 9.35804C14.1171 9.06511 13.6423 9.06505 13.3493 9.3579L12 10.7069L13.0608 11.7674L14.4099 10.4187Z" fill="black"/>
<path d="M9.5902 14.1766C9.88305 14.4695 10.3579 14.4696 10.6509 14.1767L12 12.8279L10.9392 11.7674L9.59034 13.1159C9.29741 13.4088 9.29735 13.8836 9.5902 14.1766Z" fill="black"/>
</svg>
