<svg width="24" height="24" viewBox="0 0 24 24" fill="none" xmlns="http://www.w3.org/2000/svg">
<path fill-rule="evenodd" clip-rule="evenodd" d="M5.30396 5.30396C4.08098 6.52693 3.5 8.5731 3.5 12C3.5 15.4269 4.08098 17.4731 5.30396 18.696C6.52693 19.919 8.5731 20.5 12 20.5C15.4269 20.5 17.4731 19.919 18.696 18.696C19.919 17.4731 20.5 15.4269 20.5 12C20.5 8.5731 19.919 6.52693 18.696 5.30396C17.4731 4.08098 15.4269 3.5 12 3.5C8.5731 3.5 6.52693 4.08098 5.30396 5.30396ZM4.24329 4.24329C5.91107 2.57552 8.4899 2 12 2C15.5101 2 18.0889 2.57552 19.7567 4.24329C21.4245 5.91107 22 8.4899 22 12C22 15.5101 21.4245 18.0889 19.7567 19.7567C18.0889 21.4245 15.5101 22 12 22C8.4899 22 5.91107 21.4245 4.24329 19.7567C2.57552 18.0889 2 15.5101 2 12C2 8.4899 2.57552 5.91107 4.24329 4.24329Z" fill="black"/>
<path fill-rule="evenodd" clip-rule="evenodd" d="M15.1 8.89947C15.3929 9.19236 15.3929 9.66724 15.1 9.96013L9.96003 15.1001C9.66714 15.393 9.19226 15.393 8.89937 15.1001C8.60648 14.8072 8.60648 14.3324 8.89937 14.0395L14.0394 8.89947C14.3323 8.60658 14.8071 8.60658 15.1 8.89947Z" fill="black"/>
<path fill-rule="evenodd" clip-rule="evenodd" d="M13.4953 14.4999C13.4953 13.9476 13.943 13.4999 14.4953 13.4999H14.5043C15.0566 13.4999 15.5043 13.9476 15.5043 14.4999C15.5043 15.0522 15.0566 15.4999 14.5043 15.4999H14.4953C13.943 15.4999 13.4953 15.0522 13.4953 14.4999Z" fill="black"/>
<path fill-rule="evenodd" clip-rule="evenodd" d="M8.4953 9.4999C8.4953 8.94761 8.94302 8.4999 9.4953 8.4999H9.5043C10.0566 8.4999 10.5043 8.94761 10.5043 9.4999C10.5043 10.0522 10.0566 10.4999 9.5043 10.4999H9.4953C8.94302 10.4999 8.4953 10.0522 8.4953 9.4999Z" fill="black"/>
</svg>
