<svg width="24" height="24" viewBox="0 0 24 24" fill="none" xmlns="http://www.w3.org/2000/svg">
<path fill-rule="evenodd" clip-rule="evenodd" d="M16.993 8.57006C17.2581 8.25198 17.7309 8.20901 18.0491 8.47411C18.3673 8.73926 18.4104 9.21218 18.1452 9.53041L17.569 9.05032C18.1452 9.53041 18.1452 9.53041 18.1452 9.53041L18.1415 9.53484L18.1332 9.54478L18.1029 9.58048C18.0768 9.61108 18.039 9.65498 17.9905 9.71029C17.8935 9.82086 17.7536 9.97733 17.5787 10.1645C17.2297 10.5377 16.7372 11.0377 16.1656 11.54C15.5967 12.04 14.9333 12.5566 14.2426 12.9519C13.5638 13.3404 12.788 13.6529 12.0111 13.6529C11.235 13.6529 10.4574 13.3407 9.77605 12.9527C9.08249 12.5578 8.41495 12.0417 7.84174 11.542C7.26586 11.04 6.76892 10.5403 6.41667 10.1672C6.2401 9.98013 6.09878 9.82374 6.00088 9.71325C5.9519 9.65798 5.91372 9.61411 5.88735 9.58355L5.85676 9.5479L5.84833 9.53798L5.84587 9.53508L5.84509 9.53415C5.84509 9.53415 5.8446 9.53358 6.41815 9.05032L5.84509 9.53415C5.57819 9.21739 5.61813 8.74366 5.93489 8.47677C6.2516 8.20992 6.72462 8.25028 6.99155 8.56687L6.9927 8.56824L6.99831 8.57484L7.02301 8.60362C7.04534 8.62949 7.07919 8.6684 7.12356 8.71847C7.21234 8.81867 7.34296 8.96327 7.50738 9.13742C7.83712 9.48669 8.29839 9.95014 8.8274 10.4113C9.35908 10.8748 9.94309 11.3217 10.5182 11.6492C11.1056 11.9837 11.6139 12.1529 12.0111 12.1529C12.4082 12.1529 12.9141 11.9839 13.4975 11.65C14.069 11.323 14.6484 10.8765 15.1754 10.4133C15.6999 9.95241 16.1566 9.48922 16.4829 9.14013C16.6456 8.96607 16.7748 8.82155 16.8626 8.72143C16.9064 8.67139 16.9399 8.63252 16.9619 8.60668L16.9863 8.57796L16.9919 8.57138L16.993 8.57006Z" fill="black"/>
<path fill-rule="evenodd" clip-rule="evenodd" d="M5.07814 5.4192C3.82202 6.62159 3.2262 8.6287 3.2262 12.0001C3.2262 15.371 3.82201 17.3781 5.07817 18.5806C6.34401 19.7924 8.46458 20.3669 12 20.3669C15.5354 20.3669 17.656 19.7924 18.9218 18.5806C20.178 17.3781 20.7738 15.371 20.7738 12.0001C20.7738 8.6287 20.178 6.62159 18.9219 5.4192C17.656 4.20753 15.5355 3.6333 12 3.6333C8.46452 3.6333 6.34397 4.20753 5.07814 5.4192ZM4.04091 4.33562C5.75128 2.69842 8.39264 2.1333 12 2.1333C15.6074 2.1333 18.2487 2.69842 19.9591 4.33562C21.6792 5.98211 22.2738 8.53339 22.2738 12.0001C22.2738 15.4663 21.6792 18.0176 19.9591 19.6642C18.2488 21.3015 15.6074 21.8669 12 21.8669C8.39257 21.8669 5.75124 21.3015 4.04089 19.6642C2.32086 18.0176 1.7262 15.4663 1.7262 12.0001C1.7262 8.53339 2.32084 5.98211 4.04091 4.33562Z" fill="black"/>
</svg>
