<svg width="24" height="24" viewBox="0 0 24 24" fill="none" xmlns="http://www.w3.org/2000/svg">
<path fill-rule="evenodd" clip-rule="evenodd" d="M8.76021 10.7105C8.76021 8.91522 10.215 7.46 12.0097 7.46C13.8052 7.46 15.2602 8.91502 15.2602 10.7105C15.2602 12.5052 13.805 13.96 12.0097 13.96C10.2152 13.96 8.76021 12.505 8.76021 10.7105ZM12.0097 8.96C11.0439 8.96 10.2602 9.74325 10.2602 10.7105C10.2602 11.6766 11.0437 12.46 12.0097 12.46C12.977 12.46 13.7602 11.6764 13.7602 10.7105C13.7602 9.74345 12.9768 8.96 12.0097 8.96Z" fill="black"/>
<path fill-rule="evenodd" clip-rule="evenodd" d="M11.9995 3.75C8.28063 3.75 5.25 6.8073 5.25 10.5986C5.25 13.0726 6.31773 15.5147 7.75334 17.3467C8.46835 18.2592 9.25791 18.9983 10.0196 19.5035C10.7928 20.0162 11.4786 20.25 11.9995 20.25C12.5207 20.25 13.2068 20.0162 13.98 19.5035C14.7419 18.9983 15.5315 18.2592 16.2466 17.3467C17.6823 15.5147 18.75 13.0726 18.75 10.5986C18.75 6.80743 15.7185 3.75 11.9995 3.75ZM3.75 10.5986C3.75 5.99763 7.43357 2.25 11.9995 2.25C16.5653 2.25 20.25 5.9975 20.25 10.5986C20.25 13.4847 19.017 16.2433 17.4272 18.2719C16.6295 19.2898 15.7252 20.146 14.809 20.7536C13.9041 21.3536 12.9278 21.75 11.9995 21.75C11.0714 21.75 10.0953 21.3536 9.19058 20.7536C8.27446 20.146 7.37027 19.2898 6.57265 18.2719C4.98301 16.2433 3.75 13.4847 3.75 10.5986Z" fill="black"/>
</svg>
