<svg width="24" height="24" viewBox="0 0 24 24" fill="none" xmlns="http://www.w3.org/2000/svg">
<path fill-rule="evenodd" clip-rule="evenodd" d="M6.02583 10.7772L6.02651 10.776C6.10674 10.6352 6.17929 10.5079 6.24218 10.396" fill="black"/>
<path fill-rule="evenodd" clip-rule="evenodd" d="M12 2.25C10.7601 2.25 9.65002 2.99134 8.56883 4.19682C7.47838 5.41262 6.30168 7.22991 4.93465 9.66093C4.87607 9.76512 4.80685 9.88653 4.72905 10.023C4.27932 10.8117 3.5432 12.1027 2.92232 13.4742C2.55749 14.2801 2.22257 15.1346 2.00555 15.9521C1.79189 16.757 1.67391 17.593 1.80499 18.334C1.93264 19.0555 2.23736 19.6767 2.7706 20.174C3.28996 20.6584 3.97712 20.9793 4.79485 21.2012C6.40676 21.6387 8.76615 21.75 12 21.75C15.2339 21.75 17.5935 21.6387 19.2055 21.2012C20.0233 20.9793 20.7105 20.6584 21.2299 20.174C21.7631 19.6767 22.0676 19.0555 22.195 18.334C22.3261 17.593 22.2081 16.757 21.9944 15.9521C21.7774 15.1346 21.4425 14.2801 21.0777 13.4742C20.4568 12.1027 19.7207 10.8117 19.2709 10.023C19.1932 9.88653 19.1239 9.76505 19.0653 9.66086C17.6983 7.22985 16.5216 5.41262 15.4312 4.19682C14.35 2.99134 13.2399 2.25 12 2.25ZM6.24218 10.396C7.59929 7.98267 8.71027 6.28568 9.68549 5.19835C10.67 4.1007 11.4037 3.75 12 3.75C12.5963 3.75 13.33 4.1007 14.3145 5.19835C15.2897 6.28568 16.4008 7.98274 17.7579 10.3961C17.8209 10.5083 17.8937 10.636 17.9742 10.7772C18.4263 11.5707 19.1222 12.7918 19.7112 14.0928C20.0574 14.8576 20.3568 15.6292 20.5447 16.3369C20.7359 17.0574 20.7934 17.6463 20.7179 18.073C20.6392 18.519 20.4705 18.8311 20.2068 19.0771C19.9292 19.336 19.4957 19.5683 18.8127 19.7536C17.4231 20.1307 15.2606 20.25 12 20.25C8.73943 20.25 6.57715 20.1307 5.18771 19.7536C4.50476 19.5683 4.07134 19.336 3.79363 19.077C3.5298 18.831 3.36098 18.5188 3.28206 18.0727C3.20657 17.646 3.2641 17.0574 3.45534 16.3369C3.64323 15.6292 3.94261 14.8576 4.28882 14.0928C4.87778 12.7918 5.57366 11.5707 6.02583 10.7772L6.02651 10.776C6.10674 10.6352 6.17929 10.5079 6.24218 10.396Z" fill="black"/>
<path fill-rule="evenodd" clip-rule="evenodd" d="M12 7.75C12.4142 7.75 12.75 8.08579 12.75 8.5V12.395C12.75 12.8092 12.4142 13.145 12 13.145C11.5858 13.145 11.25 12.8092 11.25 12.395V8.5C11.25 8.08579 11.5858 7.75 12 7.75Z" fill="black"/>
<path fill-rule="evenodd" clip-rule="evenodd" d="M11.2457 15.895C11.2457 15.4808 11.5815 15.145 11.9957 15.145H12.0047C12.4189 15.145 12.7547 15.4808 12.7547 15.895C12.7547 16.3092 12.4189 16.645 12.0047 16.645H11.9957C11.5815 16.645 11.2457 16.3092 11.2457 15.895Z" fill="black"/>
</svg>
