<svg width="24" height="24" viewBox="0 0 24 24" fill="none" xmlns="http://www.w3.org/2000/svg">
<path fill-rule="evenodd" clip-rule="evenodd" d="M3.26148 17.2445C3.26148 16.8303 3.59726 16.4945 4.01148 16.4945H10.484C10.8982 16.4945 11.234 16.8303 11.234 17.2445C11.234 17.6588 10.8982 17.9945 10.484 17.9945H4.01148C3.59726 17.9945 3.26148 17.6588 3.26148 17.2445Z" fill="black"/>
<path fill-rule="evenodd" clip-rule="evenodd" d="M14.6106 14.5885C15.2584 13.9409 16.2051 13.7737 17.2671 13.7737C18.329 13.7737 19.2758 13.9409 19.9236 14.5885C20.5714 15.2361 20.7389 16.1829 20.7389 17.2454C20.7389 18.3079 20.5714 19.2548 19.9236 19.9024C19.2758 20.55 18.329 20.7172 17.2671 20.7172C16.2051 20.7172 15.2584 20.55 14.6106 19.9024C13.9628 19.2548 13.7953 18.3079 13.7953 17.2454C13.7953 16.1829 13.9628 15.2361 14.6106 14.5885ZM15.6711 15.6493C15.4683 15.8521 15.2953 16.2661 15.2953 17.2454C15.2953 18.2247 15.4683 18.6388 15.6711 18.8416C15.874 19.0445 16.2881 19.2172 17.2671 19.2172C18.246 19.2172 18.6602 19.0445 18.8631 18.8416C19.0659 18.6388 19.2389 18.2247 19.2389 17.2454C19.2389 16.2661 19.0659 15.8521 18.8631 15.6493C18.6602 15.4464 18.246 15.2737 17.2671 15.2737C16.2881 15.2737 15.874 15.4464 15.6711 15.6493Z" fill="black"/>
<path fill-rule="evenodd" clip-rule="evenodd" d="M12.7669 6.7559C12.7669 6.34169 13.1027 6.0059 13.5169 6.0059H19.9885C20.4027 6.0059 20.7385 6.34169 20.7385 6.7559C20.7385 7.17012 20.4027 7.5059 19.9885 7.5059H13.5169C13.1027 7.5059 12.7669 7.17012 12.7669 6.7559Z" fill="black"/>
<path fill-rule="evenodd" clip-rule="evenodd" d="M4.07653 4.09793C4.72435 3.45028 5.67128 3.28277 6.7338 3.28277C7.79595 3.28277 8.74266 3.4503 9.39036 4.098C10.0381 4.7457 10.2056 5.69241 10.2056 6.75456C10.2056 7.81705 10.0381 8.76389 9.39029 9.41153C8.74253 10.0591 7.79575 10.2263 6.7338 10.2263C5.67148 10.2263 4.72449 10.0591 4.0766 9.4116C3.4286 8.76394 3.26112 7.81705 3.26112 6.75456C3.26112 5.69242 3.42864 4.74565 4.07653 4.09793ZM5.13705 5.15873C4.93404 5.36169 4.76112 5.77581 4.76112 6.75456C4.76112 7.73386 4.93408 8.14786 5.13698 8.35066C5.33999 8.55356 5.75434 8.72635 6.7338 8.72635C7.71275 8.72635 8.12687 8.55358 8.32977 8.35073C8.53264 8.14792 8.70559 7.73386 8.70559 6.75456C8.70559 5.77581 8.53267 5.36163 8.3297 5.15866C8.12673 4.95569 7.71255 4.78277 6.7338 4.78277C5.75454 4.78277 5.34012 4.95571 5.13705 5.15873Z" fill="black"/>
</svg>
