<svg width="24" height="24" viewBox="0 0 24 24" fill="none" xmlns="http://www.w3.org/2000/svg">
<path fill-rule="evenodd" clip-rule="evenodd" d="M5.30396 5.30396C4.08098 6.52693 3.5 8.5731 3.5 12C3.5 15.4269 4.08098 17.4731 5.30396 18.696C6.52693 19.919 8.5731 20.5 12 20.5C15.4269 20.5 17.4731 19.919 18.696 18.696C19.919 17.4731 20.5 15.4269 20.5 12C20.5 8.5731 19.919 6.52693 18.696 5.30396C17.4731 4.08098 15.4269 3.5 12 3.5C8.5731 3.5 6.52693 4.08098 5.30396 5.30396ZM4.24329 4.24329C5.91107 2.57552 8.4899 2 12 2C15.5101 2 18.0889 2.57552 19.7567 4.24329C21.4245 5.91107 22 8.4899 22 12C22 15.5101 21.4245 18.0889 19.7567 19.7567C18.0889 21.4245 15.5101 22 12 22C8.4899 22 5.91107 21.4245 4.24329 19.7567C2.57552 18.0889 2 15.5101 2 12C2 8.4899 2.57552 5.91107 4.24329 4.24329ZM8.8369 10.898C8.22811 10.898 7.7349 11.3912 7.7349 12C7.7349 12.6088 8.22811 13.102 8.8369 13.102C9.44569 13.102 9.9389 12.6088 9.9389 12C9.9389 11.3913 9.44661 10.8986 8.83917 10.898H8.8369ZM6.2349 12C6.2349 10.5628 7.39969 9.398 8.8369 9.398H8.8399C10.0155 9.39915 11.0078 10.1798 11.3292 11.25H17.0099C17.4241 11.25 17.7599 11.5858 17.7599 12V13.852C17.7599 14.2662 17.4241 14.602 17.0099 14.602C16.5957 14.602 16.2599 14.2662 16.2599 13.852V12.75H14.9321V13.852C14.9321 14.2662 14.5963 14.602 14.1821 14.602C13.7679 14.602 13.4321 14.2662 13.4321 13.852V12.75H11.3292C11.0073 13.8215 10.0134 14.602 8.8369 14.602C7.39969 14.602 6.2349 13.4372 6.2349 12Z" fill="black"/>
</svg>
