<svg width="24" height="24" viewBox="0 0 24 24" fill="none" xmlns="http://www.w3.org/2000/svg">
<path fill-rule="evenodd" clip-rule="evenodd" d="M5.22015 16.3615C4.08695 17.073 3.55135 17.9287 3.55135 18.6744C3.55135 19.0323 3.66942 19.2986 3.88897 19.5264C4.12634 19.7728 4.50978 19.9999 5.06722 20.1867C6.1897 20.563 7.79023 20.7034 9.61035 20.7034C11.4392 20.7034 13.0386 20.5579 14.1574 20.1774C14.7128 19.9885 15.0947 19.7596 15.3312 19.5118C15.5504 19.282 15.6683 19.0137 15.6683 18.6544C15.6683 17.9121 15.1316 17.0613 13.9949 16.3534C12.8816 15.66 11.3194 15.1964 9.61035 15.1964C7.8921 15.1964 6.3306 15.6643 5.22015 16.3615ZM4.42255 15.0912C5.7936 14.2304 7.6366 13.6964 9.61035 13.6964C11.5733 13.6964 13.4151 14.2252 14.7878 15.0801C16.1371 15.9204 17.1684 17.1736 17.1684 18.6544C17.1684 19.4065 16.8968 20.0438 16.4164 20.5473C15.9533 21.0327 15.3254 21.3646 14.6403 21.5975C13.2781 22.0608 11.4735 22.2034 9.61035 22.2034C7.75847 22.2034 5.9545 22.0662 4.59048 21.609C3.90467 21.3791 3.27436 21.0504 2.80879 20.5672C2.32541 20.0655 2.05135 19.4284 2.05135 18.6744C2.05135 17.196 3.07425 15.9377 4.42255 15.0912Z" fill="black"/>
<path fill-rule="evenodd" clip-rule="evenodd" d="M4.49635 6.90925C4.49711 4.08568 6.7866 1.79665 9.61035 1.79665C12.4346 1.79665 14.7243 4.08644 14.7243 6.91065C14.7243 9.73486 12.4346 12.0246 9.61035 12.0246H9.57935L9.57685 12.0246C6.76205 12.0153 4.48656 9.725 4.49635 6.90925ZM9.61035 3.29665C7.61456 3.29665 5.99635 4.91486 5.99635 6.91065V6.91346C5.9889 8.90065 7.59446 10.5174 9.58062 10.5246H9.61035C11.6061 10.5246 13.2243 8.90644 13.2243 6.91065C13.2243 4.91486 11.6061 3.29665 9.61035 3.29665Z" fill="black"/>
<path d="M20.0401 6.89995L15.9313 3.52837L16.5155 4.41368C17.6717 4.65063 18.5408 5.67523 18.5401 6.89948L20.0401 6.89995Z" fill="black"/>
<path d="M17.0467 10.8005C18.7691 10.3401 20.04 8.77043 20.0401 6.89995L18.5401 6.89948C18.5401 8.07297 17.7429 9.06177 16.6594 9.35139C16.2592 9.45834 16.0215 9.86945 16.1285 10.2696C16.2354 10.6698 16.6465 10.9075 17.0467 10.8005Z" fill="black"/>
<path d="M16.8166 2.94422C16.4108 2.86106 16.0145 3.12259 15.9313 3.52837L20.0401 6.89995C20.0411 4.94841 18.6563 3.32124 16.8166 2.94422Z" fill="black"/>
<path d="M15.9313 3.52837C15.8482 3.93415 16.1097 4.33052 16.5155 4.41368L15.9313 3.52837Z" fill="black"/>
<path fill-rule="evenodd" clip-rule="evenodd" d="M16.7626 13.6507C16.7626 13.2364 17.0984 12.9007 17.5126 12.9007C18.671 12.9007 19.7454 13.2914 20.541 13.8676C21.3092 14.4239 21.9487 15.2586 21.9487 16.2017C21.9487 17.3141 21.0671 18.3026 19.8951 18.5778C19.4919 18.6725 19.0882 18.4224 18.9935 18.0191C18.8988 17.6159 19.1489 17.2122 19.5522 17.1175C20.1602 16.9747 20.4487 16.5072 20.4487 16.2017C20.4487 15.9417 20.2391 15.5009 19.6612 15.0825C19.1109 14.6839 18.3423 14.4007 17.5126 14.4007C17.0984 14.4007 16.7626 14.0649 16.7626 13.6507Z" fill="black"/>
</svg>
