<svg width="24" height="24" viewBox="0 0 24 24" fill="none" xmlns="http://www.w3.org/2000/svg">
<path fill-rule="evenodd" clip-rule="evenodd" d="M6.9479 2.95752C8.32622 2.35647 10.1105 1.8225 11.9999 1.8225C13.8894 1.8225 15.6737 2.35647 17.0521 2.95751C18.4093 3.54933 19.4624 4.24634 19.8653 4.64917C20.0959 4.8802 20.2736 5.14105 20.3732 5.5262C20.4591 5.85856 20.4804 6.26236 20.4841 6.76398C20.4871 7.17459 20.4775 7.70285 20.4653 8.38276C20.4622 8.55319 20.4589 8.73315 20.4557 8.92317C20.4393 9.87778 20.4219 11.1052 20.4219 12.7005C20.4219 16.1385 18.9789 18.5242 17.1971 20.0375C15.4471 21.5239 13.3601 22.1775 11.9999 22.1775C10.6403 22.1775 8.55331 21.5239 6.8032 20.0375C5.02128 18.5242 3.57795 16.1386 3.57795 12.7005C3.57795 11.1052 3.56064 9.87778 3.54424 8.92316C3.541 8.73425 3.53777 8.55528 3.53472 8.38574C3.52243 7.70437 3.51289 7.17514 3.51597 6.76389C3.51972 6.26222 3.54107 5.8583 3.62725 5.52579C3.72712 5.14047 3.90471 4.88008 4.13562 4.64917C4.5385 4.24589 5.59139 3.54907 6.9479 2.95752ZM7.54749 4.33248C6.26848 4.89022 5.40915 5.49661 5.19671 5.7094C5.11961 5.78649 5.10052 5.82015 5.07927 5.90215C5.04433 6.03695 5.01967 6.27403 5.01593 6.77511C5.01301 7.16539 5.02207 7.66882 5.03428 8.34713C5.03737 8.519 5.04067 8.70208 5.04402 8.8974C5.0605 9.8571 5.07795 11.0938 5.07795 12.7005C5.07795 15.6674 6.30361 17.6453 7.77419 18.8942C9.27658 20.1701 11.0256 20.6775 11.9999 20.6775C12.9748 20.6775 14.7238 20.1701 16.2261 18.8942C17.6965 17.6453 18.9219 15.6675 18.9219 12.7005C18.9219 11.0938 18.9394 9.85709 18.9559 8.89739C18.9593 8.70078 18.9626 8.51657 18.9657 8.34372C18.9779 7.66712 18.987 7.16469 18.9841 6.77502C18.9804 6.27389 18.9558 6.03669 18.9209 5.90174C18.8997 5.81958 18.881 5.78637 18.8042 5.7094C18.591 5.49623 17.7315 4.89017 16.4526 4.33249C15.1947 3.78403 13.6195 3.3225 11.9999 3.3225C10.3804 3.3225 8.80517 3.78403 7.54749 4.33248Z" fill="black"/>
<path fill-rule="evenodd" clip-rule="evenodd" d="M15.7215 9.16113C16.0145 9.45395 16.0146 9.92883 15.7218 10.2218L11.8238 14.1218C11.6831 14.2626 11.4922 14.3417 11.2931 14.3416C11.0941 14.3415 10.9032 14.2624 10.7626 14.1215L8.8706 12.2265C8.57794 11.9334 8.57831 11.4585 8.87144 11.1659C9.16456 10.8732 9.63944 10.8736 9.9321 11.1667L11.2936 12.5304L14.6609 9.16141C14.9537 8.86844 15.4286 8.86832 15.7215 9.16113Z" fill="black"/>
</svg>
