<svg width="24" height="24" viewBox="0 0 24 24" fill="none" xmlns="http://www.w3.org/2000/svg">
<path fill-rule="evenodd" clip-rule="evenodd" d="M16.6337 12.3965C16.764 12.4511 16.9403 12.5392 17.0866 12.6856C17.2943 12.8933 17.3621 13.1464 17.3831 13.3286C17.4044 13.5136 17.3867 13.6978 17.3581 13.8587C17.3008 14.1819 17.174 14.5489 17.0178 14.9192C16.7016 15.6688 16.205 16.5705 15.6562 17.4325C15.1068 18.2954 14.4858 19.1484 13.9094 19.7952C13.6228 20.1169 13.3304 20.4065 13.0496 20.622C12.805 20.8098 12.4316 21.0519 12.0073 21.0519C11.5868 21.0519 11.2139 20.8146 10.9675 20.6287C10.6851 20.4158 10.3903 20.1292 10.1006 19.8103C9.5183 19.1691 8.89015 18.3223 8.33537 17.4626C7.78155 16.6043 7.28076 15.7021 6.96627 14.9449C6.81088 14.5708 6.68582 14.1965 6.63405 13.8627C6.60815 13.6957 6.59526 13.5064 6.62329 13.3165C6.65142 13.1259 6.72894 12.8849 6.92764 12.6859C7.07331 12.5402 7.24788 12.4484 7.38592 12.3889C7.53326 12.3254 7.69622 12.2745 7.86176 12.2324C8.19297 12.1481 8.59466 12.084 9.02846 12.0353C9.68468 11.9617 10.4568 11.9189 11.2514 11.9041C11.5117 11.8993 11.7744 11.8974 12.0363 11.8985C12.2751 11.8995 12.5143 11.9029 12.7514 11.9088C13.5684 11.9289 14.361 11.9778 15.0278 12.0551C15.4561 12.1047 15.8501 12.1681 16.1723 12.2485C16.333 12.2887 16.4912 12.3368 16.6337 12.3965ZM8.13142 13.7135C8.16568 13.8727 8.23645 14.0925 8.35153 14.3695C8.61973 15.0152 9.07032 15.835 9.59574 16.6492C10.1202 17.462 10.6992 18.2382 11.2111 18.8019C11.4685 19.0854 11.6925 19.2968 11.8707 19.4311C11.929 19.4751 11.9736 19.5041 12.0055 19.523C12.0367 19.5041 12.08 19.4753 12.1364 19.4321C12.3127 19.2967 12.5345 19.0835 12.7896 18.7973C13.2967 18.2282 13.8698 17.4452 14.3909 16.6268C14.9126 15.8076 15.3629 14.9829 15.6357 14.3362C15.7438 14.08 15.8152 13.8721 15.855 13.7157C15.8403 13.7118 15.8249 13.7078 15.8088 13.7038C15.5748 13.6454 15.2517 13.5911 14.855 13.5451C14.0654 13.4535 13.054 13.4028 12.0301 13.3985C11.0059 13.3943 9.99165 13.4367 9.19563 13.526C8.79581 13.5708 8.46951 13.6255 8.23169 13.686C8.19475 13.6954 8.16139 13.7046 8.13142 13.7135Z" fill="black"/>
<path d="M12.7514 3.6981C12.7514 3.28389 12.4156 2.9481 12.0014 2.9481C11.5872 2.9481 11.2514 3.28389 11.2514 3.6981V11.9041C11.5117 11.8993 11.7744 11.8974 12.0363 11.8985C12.2751 11.8995 12.5143 11.9029 12.7514 11.9088V3.6981Z" fill="black"/>
</svg>
