<svg width="24" height="24" viewBox="0 0 24 24" fill="none" xmlns="http://www.w3.org/2000/svg">
<path fill-rule="evenodd" clip-rule="evenodd" d="M13.9103 2.29227C13.9561 1.88059 14.3268 1.58391 14.7385 1.62963C18.7878 2.07931 21.9869 5.27405 22.4421 9.32328C22.4883 9.7349 22.1921 10.1061 21.7805 10.1524C21.3689 10.1986 20.9977 9.90244 20.9514 9.49082C20.5746 6.13805 17.9257 3.49279 14.573 3.12047C14.1613 3.07475 13.8646 2.70395 13.9103 2.29227Z" fill="black"/>
<path fill-rule="evenodd" clip-rule="evenodd" d="M13.9195 5.77504C13.9985 5.36843 14.3921 5.10283 14.7988 5.18181C16.8702 5.58418 18.4886 7.20407 18.8919 9.27464C18.9711 9.68121 18.7057 10.075 18.2992 10.1542C17.8926 10.2334 17.4988 9.96803 17.4196 9.56146C17.1329 8.09003 15.9833 6.93992 14.5127 6.65429C14.1061 6.57531 13.8405 6.18166 13.9195 5.77504Z" fill="black"/>
<path d="M14.0451 13.8162C13.5528 13.6974 12.8219 13.3045 11.7229 12.2058L14.2938 15.3588C14.5682 15.3692 14.8228 15.3396 15.0572 15.2873L14.0451 13.8162Z" fill="black"/>
<path d="M3.46601 5.21841C3.46601 5.21841 3.46657 5.21781 3.4705 5.21194C3.49593 5.17394 3.62253 4.98469 3.83751 4.73186C4.07995 4.44673 4.40748 4.11353 4.78651 3.84719C5.16832 3.57889 5.56132 3.40712 5.94451 3.37906C6.19799 3.3605 6.48142 3.40176 6.79454 3.56541C6.91031 3.62591 7.03014 3.70314 7.15401 3.80027C7.16988 3.81272 7.18582 3.82549 7.20183 3.8386C8.70759 5.07883 9.22111 5.85998 9.36917 6.35839C9.44054 6.59866 9.43732 6.8026 9.37543 7.02904C9.32676 7.20709 9.24182 7.39904 9.12836 7.63351L9.1222 7.64622C9.1067 7.67814 9.09056 7.71103 9.07394 7.74489C8.82699 8.2479 8.47505 8.96476 8.59052 9.88743C8.71345 10.8698 9.33388 11.9379 10.6624 13.2666C11.9911 14.5951 13.0591 15.2154 14.0414 15.3383C14.1273 15.349 14.2115 15.3557 14.2938 15.3588L11.7229 12.2058C10.4794 10.962 10.14 10.1898 10.0789 9.70118C10.0623 9.56881 10.0637 9.44647 10.0805 9.32625C10.1169 9.0647 10.2259 8.81315 10.3806 8.48998C10.406 8.43672 10.4328 8.38151 10.4606 8.324L10.4786 8.2869C10.7509 7.72408 11.1091 6.94809 10.8071 5.93124C10.5256 4.98368 9.71138 3.96217 8.15464 2.68008L8.15317 2.67887C7.39815 2.06027 6.60438 1.82672 5.83496 1.88307C5.08935 1.93767 4.43811 2.25871 3.9241 2.61989C2.98474 3.27997 2.3428 4.18838 2.18853 4.43332C1.69051 5.14331 1.24743 6.42277 1.83012 8.3934C2.40675 10.3435 3.98307 12.9635 7.47342 16.4543C10.9643 19.9451 13.5847 21.5216 15.5352 22.0982C17.5058 22.6808 18.7857 22.2377 19.496 21.7389C19.7436 21.5831 20.6498 20.9417 21.3084 20.0042C21.6696 19.4902 21.9906 18.8389 22.0451 18.0932C22.1015 17.3238 21.8679 16.5299 21.2494 15.7746L21.248 15.773C19.9659 14.2166 18.9444 13.4026 17.9969 13.1213C16.98 12.8194 16.2042 13.1778 15.6415 13.4502L15.6046 13.468C15.0377 13.7426 14.6954 13.9084 14.2276 13.8499C14.1707 13.8428 14.11 13.8319 14.0451 13.8162L15.0572 15.2873C15.5077 15.1867 15.8838 15.002 16.1838 14.8547C16.2222 14.8359 16.2593 14.8176 16.2951 14.8003C16.8277 14.5424 17.1409 14.4319 17.57 14.5593C18.0682 14.7072 18.8493 15.2205 20.0895 16.7258C20.4816 17.2048 20.5754 17.6244 20.5491 17.9837C20.5211 18.3671 20.3493 18.7601 20.0811 19.1419C19.8148 19.5209 19.4817 19.8483 19.1967 20.0906C18.9465 20.3033 18.7592 20.429 18.7194 20.4557C18.7127 20.4601 18.7102 20.4618 18.7122 20.4607C18.6893 20.4736 18.6671 20.4878 18.6457 20.503L18.6447 20.5037C18.6153 20.5247 18.5816 20.5473 18.5433 20.5705C18.1745 20.7941 17.3815 21.0798 15.9604 20.6597C14.3515 20.1841 11.9423 18.8017 8.5341 15.3937C5.12646 11.9856 3.74419 9.57667 3.26855 7.96807C2.80481 6.3997 3.20094 5.59645 3.42409 5.28405C3.43919 5.26291 3.45318 5.241 3.46601 5.21841Z" fill="black"/>
</svg>
