<svg width="24" height="24" viewBox="0 0 24 24" fill="none" xmlns="http://www.w3.org/2000/svg">
<path fill-rule="evenodd" clip-rule="evenodd" d="M4.88562 4.27249C6.41747 2.58293 8.79334 2 11.995 2C12.6695 2 13.306 2.02724 13.8995 2.08277C13.9418 2.08673 13.9839 2.09083 14.0258 2.09508C14.2035 2.1131 14.3772 2.13371 14.5468 2.15694C14.7028 2.17832 14.8482 2.24827 14.9622 2.3569L20.6322 7.7569C20.7474 7.86656 20.8247 8.00998 20.853 8.16645C20.8859 8.34831 20.9159 8.53475 20.943 8.72578C20.946 8.74282 20.9484 8.76006 20.9503 8.77748C21.0833 9.73658 21.145 10.8104 21.145 12C21.145 15.4998 20.6263 18.0653 19.1127 19.7318C17.5793 21.42 15.2006 22 11.995 22C8.79407 22 6.41793 21.4199 4.88584 19.7315C3.37372 18.0651 2.855 15.4999 2.855 12C2.855 8.5048 3.37384 5.93992 4.88562 4.27249ZM5.99688 5.28001C4.88616 6.50508 4.355 8.5652 4.355 12C4.355 15.4401 4.88628 17.4999 5.99666 18.7235C7.08707 19.9251 8.90593 20.5 11.995 20.5C15.0894 20.5 16.9107 19.925 18.0023 18.7232C19.1137 17.4997 19.645 15.4402 19.645 12C19.645 11.1205 19.6097 10.3243 19.5383 9.6067C19.5057 9.27873 19.4655 8.9672 19.4177 8.67165L18.8245 8.1067L14.6394 4.12086L14.106 3.61282C13.801 3.57676 13.4786 3.5492 13.1394 3.53035C12.7769 3.5102 12.3952 3.5 11.995 3.5C8.90666 3.5 7.08753 4.07707 5.99688 5.28001Z" fill="black"/>
<path fill-rule="evenodd" clip-rule="evenodd" d="M13.8894 2.0827C13.8928 2.0827 13.8961 2.08272 13.8995 2.08277C13.9426 2.08333 13.9848 2.08754 14.0258 2.09508C14.3749 2.15924 14.6394 2.46508 14.6394 2.8327V4.12086V5.4937C14.6394 6.9372 15.8093 8.1067 17.2534 8.1067H18.8245H20.2044C20.574 8.1067 20.8811 8.37398 20.943 8.72578C20.946 8.74282 20.9484 8.76006 20.9503 8.77748C20.953 8.80351 20.9544 8.82994 20.9544 8.8567C20.9544 9.27091 20.6186 9.6067 20.2044 9.6067H19.5383H17.2534C14.9815 9.6067 13.1394 7.7662 13.1394 5.4937V3.53035V2.8327C13.1394 2.41849 13.4752 2.0827 13.8894 2.0827Z" fill="black"/>
<path d="M11.6155 16.7673C11.815 16.7673 12.0055 16.6878 12.1463 16.5465L12.1659 16.5268C12.2898 16.393 12.3655 16.214 12.3655 16.0173V14.2005L11.6148 14.9544L10.8655 14.2019V16.0173C10.8655 16.3173 11.0417 16.5762 11.2962 16.6961C11.3757 16.7336 11.4631 16.7575 11.5549 16.7649C11.5681 16.7659 11.5813 16.7666 11.5946 16.767L11.6155 16.7673Z" fill="black"/>
<path fill-rule="evenodd" clip-rule="evenodd" d="M5.99688 5.28001C4.88616 6.50508 4.355 8.5652 4.355 12C4.355 15.4401 4.88628 17.4999 5.99666 18.7235C7.08707 19.9251 8.90593 20.5 11.995 20.5C15.0894 20.5 16.9107 19.925 18.0023 18.7232C19.1137 17.4997 19.645 15.4402 19.645 12C19.645 11.1205 19.6097 10.3243 19.5383 9.6067H17.2534C14.9815 9.6067 13.1394 7.7662 13.1394 5.4937V3.53035C12.7769 3.5102 12.3952 3.5 11.995 3.5C8.90666 3.5 7.08753 4.07707 5.99688 5.28001ZM11.6155 9.2263C12.0297 9.2263 12.3655 9.56209 12.3655 9.9763V14.2005L11.6148 14.9544L10.8655 14.2019V9.9763C10.8655 9.56209 11.2013 9.2263 11.6155 9.2263ZM11.2962 16.6961C11.2178 16.6594 11.1456 16.609 11.0833 16.5465L8.73834 14.1915C8.44607 13.898 8.44708 13.4231 8.7406 13.1308C9.03412 12.8386 9.50899 12.8396 9.80126 13.1331L10.8655 14.2019V16.0173C10.8655 16.3173 11.0417 16.5762 11.2962 16.6961ZM11.2962 16.6961C11.3772 16.7341 11.4648 16.7576 11.5549 16.7649C11.4631 16.7575 11.3757 16.7336 11.2962 16.6961ZM12.1659 16.5268C12.2898 16.393 12.3655 16.214 12.3655 16.0173V14.2005L13.4283 13.1331C13.7206 12.8396 14.1955 12.8386 14.489 13.1308C14.7825 13.4231 14.7835 13.898 14.4913 14.1915L12.1659 16.5268ZM12.1659 16.5268C12.0289 16.6747 11.833 16.7673 11.6155 16.7673C11.815 16.7673 12.0055 16.6878 12.1463 16.5465L12.1659 16.5268ZM18.8245 8.1067L14.6394 4.12086V5.4937C14.6394 6.9372 15.8093 8.1067 17.2534 8.1067H18.8245ZM11.995 2C8.79334 2 6.41747 2.58293 4.88562 4.27249C3.37384 5.93992 2.855 8.5048 2.855 12C2.855 15.4999 3.37372 18.0651 4.88584 19.7315C6.41793 21.4199 8.79407 22 11.995 22C15.2006 22 17.5793 21.42 19.1127 19.7318C20.6263 18.0653 21.145 15.4998 21.145 12C21.145 10.8104 21.0833 9.73658 20.9503 8.77748C20.9484 8.76006 20.946 8.74282 20.943 8.72578C20.9159 8.53475 20.8859 8.34831 20.853 8.16645C20.8247 8.00998 20.7474 7.86656 20.6322 7.7569L14.9622 2.3569C14.8482 2.24827 14.7028 2.17832 14.5468 2.15694C14.3772 2.13371 14.2035 2.1131 14.0258 2.09508C13.9848 2.08754 13.9426 2.08333 13.8995 2.08277C13.306 2.02724 12.6695 2 11.995 2Z" fill="black"/>
</svg>
