<svg width="24" height="24" viewBox="0 0 24 24" fill="none" xmlns="http://www.w3.org/2000/svg">
<path fill-rule="evenodd" clip-rule="evenodd" d="M19.3821 7.85461C19.7385 8.06562 19.8564 8.52563 19.6454 8.88207L19 8.5C19.6454 8.88207 19.6454 8.88207 19.6454 8.88207L19.6415 8.88869L19.6315 8.90528L19.5943 8.96712C19.5619 9.02066 19.5145 9.09826 19.4535 9.19651C19.3314 9.39295 19.1547 9.67225 18.9338 10.0069C18.493 10.6749 17.8724 11.5693 17.1578 12.4671C16.4467 13.3605 15.6243 14.2801 14.7778 14.9832C13.9599 15.6626 12.9902 16.25 12 16.25C11.01 16.25 10.0404 15.6625 9.22259 14.9832C8.37613 14.2801 7.55379 13.3605 6.8426 12.4671C6.12791 11.5693 5.5073 10.6749 5.06634 10.0069C4.84545 9.67231 4.66866 9.393 4.54662 9.19657C4.48558 9.09833 4.43818 9.02072 4.40576 8.96719L4.3685 8.90535L4.35859 8.88875L4.35507 8.88284C4.35507 8.88284 4.35465 8.88214 5 8.5L4.35507 8.88284C4.14402 8.52642 4.26145 8.0657 4.61786 7.85465C4.97425 7.64362 5.43424 7.76143 5.6453 8.11779M5.6453 8.11779L5.64744 8.12139L5.65546 8.13481L5.68874 8.19004C5.71842 8.23905 5.76287 8.31183 5.82074 8.40499C5.93654 8.59137 6.10588 8.85894 6.31819 9.18057C6.74364 9.82507 7.33771 10.6807 8.01615 11.5329C8.69809 12.3895 9.44731 13.2199 10.181 13.8293C10.9433 14.4625 11.5625 14.75 12 14.75C12.4378 14.75 13.0571 14.4624 13.8194 13.8293C14.5532 13.2199 15.3023 12.3895 15.9842 11.5329C16.6626 10.6807 17.2566 9.82511 17.6819 9.18062C17.8942 8.859 18.0635 8.59143 18.1793 8.40505C18.2371 8.31189 18.2816 8.23911 18.3112 8.1901L18.3445 8.13488L18.3525 8.12146L18.3543 8.11844C18.5654 7.76209 19.0257 7.64362 19.3821 7.85461" fill="black"/>
</svg>
