<svg width="24" height="24" viewBox="0 0 24 24" fill="none" xmlns="http://www.w3.org/2000/svg">
<path d="M10.9732 6.60288C10.6419 6.35422 10.1718 6.42119 9.92315 6.75246C9.6745 7.08374 9.74147 7.55386 10.0727 7.80252L10.6633 8.24577L11.5637 7.04614L10.9732 6.60288Z" fill="black"/>
<path d="M11.5637 7.04614L10.6633 8.24577L14.3277 10.9964L15.2281 9.7967L11.5637 7.04614Z" fill="black"/>
<path d="M5.10405 17.7748C4.93305 16.8859 4.96969 15.8313 5.66662 14.9023L10.6633 8.24577L10.0727 7.80252C9.74147 7.55386 9.6745 7.08374 9.92315 6.75246C10.1718 6.42119 10.6419 6.35422 10.9732 6.60288L11.5637 7.04614L12.4185 5.90742L11.2188 5.00699L4.46674 14.0021C3.42467 15.3911 3.41431 16.9315 3.63106 18.0581C3.73995 18.6241 3.90898 19.1054 4.05032 19.4452C4.12133 19.616 4.18626 19.7532 4.23475 19.85C4.25902 19.8985 4.27925 19.937 4.29418 19.9648L4.31245 19.9982L4.31833 20.0087L4.3204 20.0124L4.32156 20.0144L4.97268 19.6422C4.80459 20.3731 4.80586 20.3734 4.80586 20.3734L4.80744 20.3738L4.81149 20.3747L4.82316 20.3772L4.86038 20.385C4.89122 20.3913 4.93398 20.3995 4.98748 20.4088C5.09435 20.4273 5.24479 20.45 5.42915 20.4691C5.79615 20.507 6.30686 20.5316 6.8811 20.4761C8.02156 20.3658 9.49946 19.9277 10.5304 18.5535C11.388 17.4115 13.076 15.1627 14.5496 13.1994L15.8984 11.4024C15.6377 11.646 15.232 11.6752 14.9367 11.4535L14.3277 10.9964L13.35 12.299C11.8763 14.2622 10.1882 16.5112 9.33071 17.6532C8.64768 18.5637 7.64671 18.8951 6.73675 18.9831C6.28574 19.0267 5.87833 19.0075 5.58351 18.977C5.54567 18.9731 5.50984 18.969 5.47618 18.9649C5.46303 18.9349 5.44936 18.903 5.43531 18.8692C5.32256 18.5981 5.18903 18.2165 5.10405 17.7748Z" fill="black"/>
<path d="M16.5267 4.2502C14.8515 2.9938 12.4755 3.33271 11.2188 5.00699L12.4185 5.90742C13.1778 4.89577 14.6137 4.69063 15.6265 5.45004C16.6379 6.2092 16.8424 7.646 16.0828 8.65799L17.2825 9.55842C18.539 7.8844 18.2012 5.50705 16.5267 4.2502Z" fill="black"/>
<path d="M17.2825 9.55842L16.0828 8.65799L15.2281 9.7967L15.8372 10.2539C16.1325 10.4755 16.2178 10.8732 16.0567 11.1915L17.2825 9.55842Z" fill="black"/>
<path d="M14.9367 11.4535C15.232 11.6752 15.6377 11.646 15.8984 11.4024L16.0567 11.1915C16.2178 10.8732 16.1325 10.4755 15.8372 10.2539L15.2281 9.7967L14.3277 10.9964L14.9367 11.4535Z" fill="black"/>
<path d="M13.3541 18.7491C12.9399 18.7491 12.6041 19.0849 12.6041 19.4991C12.6041 19.9133 12.9399 20.2491 13.3541 20.2491H19.7311C20.1453 20.2491 20.4811 19.9133 20.4811 19.4991C20.4811 19.0849 20.1453 18.7491 19.7311 18.7491H13.3541Z" fill="black"/>
<path fill-rule="evenodd" clip-rule="evenodd" d="M16.0567 11.1915L15.8984 11.4024C15.9302 11.3728 15.9598 11.3399 15.9868 11.3039C16.0138 11.268 16.0371 11.2303 16.0567 11.1915ZM4.97268 19.6422L4.32156 20.0144C4.4255 20.1959 4.60079 20.3263 4.80459 20.3731L4.97268 19.6422Z" fill="black"/>
</svg>
