<svg width="24" height="24" viewBox="0 0 24 24" fill="none" xmlns="http://www.w3.org/2000/svg">
<path fill-rule="evenodd" clip-rule="evenodd" d="M4.24329 4.24329C5.91107 2.57552 8.4899 2 12 2C15.5101 2 18.0889 2.57552 19.7567 4.24329C21.4245 5.91107 22 8.4899 22 12C22 15.5101 21.4245 18.0889 19.7567 19.7567C18.0889 21.4245 15.5101 22 12 22C8.4899 22 5.91107 21.4245 4.24329 19.7567C2.57552 18.0889 2 15.5101 2 12C2 8.4899 2.57552 5.91107 4.24329 4.24329ZM5.30396 5.30396C4.08098 6.52693 3.5 8.5731 3.5 12C3.5 15.4269 4.08098 17.4731 5.30396 18.696C6.52693 19.919 8.5731 20.5 12 20.5C15.4269 20.5 17.4731 19.919 18.696 18.696C19.919 17.4731 20.5 15.4269 20.5 12C20.5 8.5731 19.919 6.52693 18.696 5.30396C17.4731 4.08098 15.4269 3.5 12 3.5C8.5731 3.5 6.52693 4.08098 5.30396 5.30396Z" fill="black"/>
<path fill-rule="evenodd" clip-rule="evenodd" d="M15.8321 8.16788C16.0295 8.36524 16.1009 8.65586 16.0176 8.92222L14.4436 13.9512C14.3701 14.1858 14.1865 14.3695 13.9519 14.4429L8.92191 16.0179C8.65555 16.1013 8.3649 16.0299 8.16752 15.8326C7.97013 15.6352 7.89867 15.3446 7.98203 15.0782L9.55603 10.0482C9.62945 9.81359 9.81319 9.62985 10.0478 9.55643L15.0778 7.98243C15.3442 7.89907 15.6348 7.97053 15.8321 8.16788ZM10.8704 10.8708L9.84167 14.1581L13.1292 13.1287L14.1579 9.842L10.8704 10.8708Z" fill="black"/>
</svg>
