<svg width="24" height="24" viewBox="0 0 24 24" fill="none" xmlns="http://www.w3.org/2000/svg">
<path fill-rule="evenodd" clip-rule="evenodd" d="M8.84267 5.25294C9.79482 4.63428 11.1206 4.05765 12.5375 4.89731C12.5553 4.90782 12.5726 4.91906 12.5894 4.93101C13.3257 5.45381 13.8217 6.18708 14.1261 7.3147C14.4207 8.40619 14.5452 9.90029 14.5452 11.9998C14.5452 14.1015 14.4145 15.5994 14.1168 16.6927C13.81 17.819 13.3153 18.5529 12.5895 19.0685C12.5727 19.0804 12.5555 19.0917 12.5377 19.1022C11.1208 19.9424 9.79496 19.3661 8.84267 18.7473C8.48266 18.5134 8.12802 18.2416 7.81796 18.004C7.71979 17.9287 7.62608 17.8569 7.53809 17.7908C7.13369 17.487 6.85925 17.3116 6.65957 17.2458C6.23212 17.1052 5.89834 17.0652 5.52144 17.0201C5.3831 17.0035 5.23896 16.9863 5.08223 16.9631C4.49781 16.8766 3.88738 16.7109 3.23065 16.1533C2.54683 15.5728 2.22964 14.8132 2.07982 14.0808C1.93397 13.3679 1.93562 12.6194 1.93696 12.0114L1.93699 12.0014V11.9982L1.93696 11.9882C1.93562 11.3802 1.93397 10.6317 2.07982 9.91879C2.22965 9.18641 2.54685 8.42677 3.23069 7.84623C3.88748 7.28914 4.49811 7.1236 5.08223 7.03719C5.23821 7.01412 5.38177 6.9969 5.51957 6.98037C5.89711 6.93508 6.23142 6.89498 6.65942 6.75387C6.85891 6.68828 7.13383 6.51287 7.5382 6.2092C7.6264 6.14297 7.72034 6.07098 7.81878 5.99556C8.12863 5.75815 8.48301 5.48663 8.84267 5.25294ZM7.12851 8.17864C6.54402 8.37127 6.01039 8.43446 5.60695 8.48223C5.49453 8.49554 5.39222 8.50766 5.30174 8.52104C4.88731 8.58235 4.57456 8.67335 4.20146 8.98973C3.85621 9.28283 3.6575 9.69091 3.54938 10.2194C3.43833 10.7622 3.43559 11.3621 3.43698 11.9982V12.0014C3.43559 12.6375 3.43833 13.2374 3.54938 13.7802C3.6575 14.3087 3.85621 14.7168 4.20146 15.0099C4.57473 15.3268 4.88753 15.418 5.30174 15.4792C5.3924 15.4926 5.49501 15.5048 5.60781 15.5181C6.0111 15.5658 6.54468 15.6289 7.12865 15.821C7.59534 15.9748 8.05426 16.3025 8.43906 16.5916C8.55108 16.6757 8.66012 16.7592 8.76763 16.8416C9.06639 17.0705 9.35336 17.2903 9.65993 17.4895C10.4782 18.0212 11.1103 18.1899 11.7463 17.8272C12.1239 17.5512 12.44 17.1412 12.6695 16.2985C12.9131 15.4039 13.0452 14.069 13.0452 11.9998C13.0452 9.92839 12.9188 8.59795 12.6779 7.70557C12.4517 6.86763 12.1367 6.45714 11.7466 6.17251C11.1106 5.81015 10.4784 5.97898 9.65993 6.51075C9.3536 6.70978 9.06691 6.92936 8.76845 7.15795C8.66065 7.24052 8.55131 7.32426 8.43895 7.40864C8.05412 7.69763 7.59538 8.02514 7.12851 8.17864ZM19.0227 5.19836C19.3668 4.96772 19.8327 5.05967 20.0633 5.40374C22.726 9.37587 22.734 14.615 20.0632 18.5964C19.8324 18.9404 19.3665 19.0322 19.0225 18.8015C18.6786 18.5707 18.5868 18.1048 18.8175 17.7608C21.1485 14.2859 21.142 9.70681 18.8174 6.23895C18.5867 5.89488 18.6787 5.429 19.0227 5.19836ZM16.6312 7.60742C16.9939 7.40729 17.4501 7.53904 17.6503 7.90169C19.0563 10.4496 19.057 13.5582 17.6497 16.0992C17.449 16.4616 16.9926 16.5927 16.6303 16.392C16.2679 16.1913 16.1368 15.7349 16.3375 15.3725C17.4939 13.2844 17.4945 10.724 16.337 8.62645C16.1368 8.26379 16.2686 7.80756 16.6312 7.60742Z" fill="black"/>
</svg>
