<svg width="24" height="24" viewBox="0 0 24 24" fill="none" xmlns="http://www.w3.org/2000/svg">
<path d="M18.0943 17.7723V7.73673L17.2943 5.64832L16.4943 18.7803L18.0943 17.7723Z" fill="black"/>
<path d="M20.8446 15.3309C20.7811 15.4438 20.6872 15.607 20.5679 15.8035C20.4457 16.0049 20.298 16.2394 20.1303 16.4896L21.6453 15.5351C22.3524 15.9094 22.352 15.9101 22.352 15.9101C22.356 15.8944 22.3599 15.8789 22.3638 15.8636C22.516 15.2639 22.5919 14.9647 21.9974 14.6769C21.6884 14.5273 21.2642 14.6548 20.9383 15.1609L20.9377 15.1621L20.9338 15.1693L20.9163 15.2015C20.9005 15.2306 20.8764 15.2744 20.8446 15.3309Z" fill="black"/>
<path d="M3.0617 8.83915L3.06241 8.83782L3.06631 8.83053L3.08373 8.79833C3.09955 8.76928 3.12364 8.72548 3.15538 8.66903C3.2189 8.55606 3.31278 8.39293 3.43197 8.19645C3.6713 7.80192 4.00819 7.28041 4.40237 6.76299C4.80016 6.24084 5.23663 5.74906 5.67111 5.39508C5.75273 5.32858 5.83095 5.26967 5.90571 5.21778V17.5521C5.90571 17.9939 6.26388 18.3521 6.70571 18.3521C7.14753 18.3521 7.50571 17.9939 7.50571 17.5521V5.2197C7.57961 5.27112 7.65688 5.32938 7.73747 5.39505C8.17195 5.74905 8.60846 6.24086 9.00634 6.76304C9.4006 7.28048 9.73759 7.80201 9.97701 8.19655C10.0962 8.39304 10.1902 8.55618 10.2537 8.66915C10.2855 8.7256 10.3096 8.7694 10.3254 8.79846L10.3428 8.83067L10.3467 8.83795L10.3473 8.83909C10.5541 9.22941 11.0382 9.37857 11.4286 9.17193C11.8191 8.96525 11.9682 8.48113 11.7615 8.09062L11.7605 8.08882L11.7587 8.08542L11.7526 8.07395L11.7304 8.03302C11.7114 7.99801 11.6837 7.94786 11.6482 7.88472C11.5772 7.75853 11.4744 7.58001 11.3449 7.3665C11.0867 6.94103 10.7178 6.36923 10.279 5.79333C9.84381 5.22218 9.32005 4.62065 8.74813 4.15466C8.19335 3.70263 7.48807 3.29152 6.70453 3.29152C5.92081 3.29152 5.21543 3.70254 4.66052 4.15463C4.08851 4.62065 3.56477 5.22221 3.12963 5.79338C2.69088 6.3693 2.3221 6.94112 2.064 7.3666C1.93447 7.58011 1.83169 7.75865 1.76073 7.88484C1.72523 7.94798 1.69763 7.99814 1.67856 8.03315L1.65642 8.07408L1.65029 8.08555L1.64848 8.08895L1.6479 8.09005L2.35467 8.46485C1.64752 8.09076 1.6479 8.09005 1.6479 8.09005C1.44129 8.4806 1.59003 8.96539 1.98057 9.172C2.37105 9.37857 2.85504 9.22955 3.0617 8.83915Z" fill="black"/>
<path d="M16.4943 6.44832V18.7803L17.2943 5.64832C16.8525 5.64832 16.4943 6.00649 16.4943 6.44832Z" fill="black"/>
<path d="M18.0943 6.44832C18.0943 6.00649 17.7361 5.64832 17.2943 5.64832L18.0943 7.73673V6.44832Z" fill="black"/>
<path d="M18.3284 18.605C18.247 18.6713 18.1689 18.7301 18.0943 18.7819V17.7723L16.4943 18.7803C16.4204 18.7289 16.3431 18.6706 16.2625 18.605C15.8281 18.2509 15.3915 17.7591 14.9937 17.237C14.5994 16.7195 14.2624 16.198 14.023 15.8035C13.9038 15.607 13.8098 15.4438 13.7463 15.3309C13.7145 15.2744 13.6904 15.2306 13.6746 15.2015L13.6572 15.1693L13.6533 15.1621L13.6527 15.1609C13.4459 14.7706 12.9618 14.6214 12.5714 14.8281C12.1809 15.0348 12.0318 15.5189 12.2385 15.9094L12.2395 15.9112L12.2413 15.9146L12.2474 15.9261L12.2696 15.967C12.2887 16.002 12.3163 16.0521 12.3518 16.1153C12.4228 16.2415 12.5256 16.42 12.6551 16.6335C12.9133 17.059 13.2822 17.6308 13.721 18.2067C14.1562 18.7778 14.6799 19.3793 15.2519 19.8453C15.8067 20.2974 16.5119 20.7085 17.2955 20.7085C18.079 20.7085 18.7843 20.2974 19.3391 19.8453C19.911 19.3793 20.4347 18.7778 20.8699 18.2067C21.3087 17.6308 21.6776 17.059 21.9358 16.6335C22.0654 16.42 22.1682 16.2415 22.2392 16.1153C22.2747 16.0521 22.3023 16.002 22.3214 15.967L22.3435 15.9261L22.3496 15.9146L22.3514 15.9112L22.352 15.9101C22.352 15.9101 22.3524 15.9094 21.6453 15.5351L20.1303 16.4896C19.9695 16.7295 19.7902 16.9837 19.5973 17.237C19.1994 17.7591 18.7629 18.2509 18.3284 18.605Z" fill="black"/>
<path fill-rule="evenodd" clip-rule="evenodd" d="M1.6479 8.09005C1.6479 8.09005 1.64752 8.09076 2.35467 8.46485L1.6479 8.09005ZM17.2943 5.64832L18.0943 7.73673V17.7723L16.4943 18.7803L17.2943 5.64832ZM20.9383 15.1609L20.9377 15.1621L20.9338 15.1693L20.9163 15.2015C20.9005 15.2306 20.8764 15.2744 20.8446 15.3309C20.7811 15.4438 20.6872 15.607 20.5679 15.8035C20.4457 16.0049 20.298 16.2394 20.1303 16.4896L21.6453 15.5351C22.3524 15.9094 22.352 15.9101 22.352 15.9101L22.3638 15.8636C22.516 15.2639 22.5919 14.9647 21.9974 14.6769C21.6884 14.5273 21.2642 14.6548 20.9383 15.1609Z" fill="black"/>
</svg>
