<svg width="24" height="24" viewBox="0 0 24 24" fill="none" xmlns="http://www.w3.org/2000/svg">
<path fill-rule="evenodd" clip-rule="evenodd" d="M4.24329 4.24329C5.91107 2.57552 8.4899 2 12 2C15.5101 2 18.0889 2.57552 19.7567 4.24329C21.4245 5.91107 22 8.4899 22 12C22 15.5101 21.4245 18.0889 19.7567 19.7567C18.0889 21.4245 15.5101 22 12 22C8.4899 22 5.91107 21.4245 4.24329 19.7567C2.57552 18.0889 2 15.5101 2 12C2 8.4899 2.57552 5.91107 4.24329 4.24329ZM5.30396 5.30396C4.08098 6.52693 3.5 8.5731 3.5 12C3.5 15.4269 4.08098 17.4731 5.30396 18.696C6.52693 19.919 8.5731 20.5 12 20.5C15.4269 20.5 17.4731 19.919 18.696 18.696C19.919 17.4731 20.5 15.4269 20.5 12C20.5 8.5731 19.919 6.52693 18.696 5.30396C17.4731 4.08098 15.4269 3.5 12 3.5C8.5731 3.5 6.52693 4.08098 5.30396 5.30396Z" fill="black"/>
<path d="M10.1302 9.06267C9.83734 8.76978 9.36246 8.76978 9.06957 9.06267C8.77668 9.35556 8.77668 9.83044 9.06957 10.1233L10.9372 11.9909L11.9978 10.9303L10.1302 9.06267Z" fill="black"/>
<path d="M11.9978 13.0516L13.0585 11.9909L11.9978 10.9303L10.9372 11.9909L11.9978 13.0516Z" fill="black"/>
<path d="M14.9302 14.9233C15.2231 14.6304 15.2231 14.1556 14.9302 13.8627L13.0585 11.9909L11.9978 13.0516L13.8696 14.9233C14.1625 15.2162 14.6373 15.2162 14.9302 14.9233Z" fill="black"/>
<path d="M9.07177 14.917C9.36466 15.2099 9.83954 15.2099 10.1324 14.917L11.9978 13.0516L10.9372 11.9909L9.07177 13.8564C8.77888 14.1493 8.77888 14.6241 9.07177 14.917Z" fill="black"/>
<path d="M14.9244 10.125C15.2173 9.83214 15.2173 9.35726 14.9244 9.06437C14.6315 8.77148 14.1567 8.77148 13.8638 9.06437L11.9978 10.9303L13.0585 11.9909L14.9244 10.125Z" fill="black"/>
</svg>
