<svg width="24" height="24" viewBox="0 0 24 24" fill="none" xmlns="http://www.w3.org/2000/svg">
<path fill-rule="evenodd" clip-rule="evenodd" d="M12.1208 15.0256C11.7066 15.0256 11.3708 14.6898 11.3708 14.2756V4.04918V2.23455C11.3708 1.82034 11.7066 1.48455 12.1208 1.48455C12.535 1.48455 12.8708 1.82034 12.8708 2.23455V4.04918V14.2756C12.8708 14.6898 12.535 15.0256 12.1208 15.0256Z" fill="black"/>
<path fill-rule="evenodd" clip-rule="evenodd" d="M4.45009 9.73727C5.02564 8.96056 5.96655 8.57226 7.69884 8.41258C8.11131 8.37456 8.41485 8.00937 8.37683 7.59691C8.33881 7.18444 7.97362 6.8809 7.56116 6.91892C5.71345 7.08924 4.21436 7.53594 3.24491 8.84423C2.31546 10.0985 2 11.9883 2 14.6658C2 18.2156 2.55654 20.3981 4.37994 21.5182C5.249 22.052 6.3253 22.2879 7.55739 22.4026C8.78465 22.5168 10.259 22.5168 11.9684 22.5168H12.0316C13.741 22.5168 15.2154 22.5168 16.4426 22.4026C17.6747 22.2879 18.751 22.052 19.6201 21.5182C21.4435 20.3981 22 18.2156 22 14.6658C22 11.9883 21.6845 10.0985 20.7551 8.84423C19.7856 7.53594 18.2866 7.08924 16.4388 6.91892C16.0264 6.8809 15.6612 7.18444 15.6232 7.59691C15.5851 8.00937 15.8887 8.37456 16.3012 8.41258C18.0335 8.57226 18.9744 8.96056 19.5499 9.73727C20.1655 10.568 20.5 12.0132 20.5 14.6658C20.5 18.2169 19.9015 19.5849 18.8349 20.2401C18.259 20.5939 17.4565 20.8018 16.3036 20.909C15.1535 21.016 13.7472 21.0168 12 21.0168C10.2528 21.0168 8.84654 21.016 7.69636 20.909C6.54345 20.8018 5.741 20.5939 5.16506 20.2401C4.09846 19.5849 3.5 18.2169 3.5 14.6658C3.5 12.0132 3.83454 10.568 4.45009 9.73727Z" fill="black"/>
<path d="M11.3708 2.23455C11.3708 1.82034 11.7066 1.48455 12.1208 1.48455C12.535 1.48455 12.8708 1.82034 12.8708 2.23455V4.04918L14.5054 5.69049C14.7977 5.98398 15.2725 5.98496 15.566 5.69267C15.8595 5.40038 15.8605 4.92551 15.5682 4.63201L12.6522 1.70401C12.5115 1.56269 12.3202 1.48325 12.1208 1.48325C11.9214 1.48325 11.7301 1.56269 11.5894 1.70401L8.67338 4.63201C8.38109 4.92551 8.38207 5.40038 8.67556 5.69267C8.96905 5.98496 9.44393 5.98398 9.73622 5.69049L11.3708 4.04918V2.23455Z" fill="black"/>
</svg>
