<svg width="24" height="24" viewBox="0 0 24 24" fill="none" xmlns="http://www.w3.org/2000/svg">
<path fill-rule="evenodd" clip-rule="evenodd" d="M7.9876 4.7373C7.9876 4.73151 7.98762 4.72572 7.98765 4.71993C7.99619 3.1249 9.17997 1.6983 10.7976 1.6983H13.2026C14.8202 1.6983 16.004 3.12487 16.0126 4.71989C16.0126 4.72569 16.0126 4.73149 16.0126 4.7373V5.3673C16.0126 5.76949 15.696 6.09774 15.2985 6.11646C15.2866 6.11702 15.2746 6.1173 15.2626 6.1173C15.1737 6.1173 15.0884 6.10182 15.0092 6.07341C14.7197 5.9695 14.5126 5.69258 14.5126 5.3673V4.7373C14.5126 4.65697 14.5076 4.57899 14.4981 4.50356C14.3982 3.70958 13.7967 3.1983 13.2026 3.1983H10.7976C10.2035 3.1983 9.60196 3.70958 9.50206 4.50357C9.49257 4.57899 9.4876 4.65697 9.4876 4.7373V5.3673C9.4876 5.69262 9.28048 5.96955 8.99091 6.07344C8.91178 6.10183 8.8265 6.1173 8.7376 6.1173C8.72562 6.1173 8.7137 6.11702 8.70186 6.11646C8.30424 6.09781 7.9876 5.76953 7.9876 5.3673V4.7373Z" fill="black"/>
<path d="M14.5126 5.3673V4.7373C14.5126 4.65697 14.5076 4.57899 14.4981 4.50356C13.7262 4.42902 12.8937 4.3957 12 4.3957C11.1064 4.3957 10.2739 4.42903 9.50206 4.50357C9.49257 4.57899 9.4876 4.65697 9.4876 4.7373V5.3673C9.4876 5.69262 9.28048 5.96955 8.99091 6.07344C9.85249 5.95437 10.8487 5.8957 12 5.8957C13.1514 5.8957 14.1476 5.95436 15.0092 6.07341C14.7197 5.9695 14.5126 5.69258 14.5126 5.3673Z" fill="black"/>
<path d="M2.25688 11.0456C2.49441 10.7063 2.96206 10.6237 3.3014 10.8613L3.31318 10.8695C3.43216 10.9426 3.55318 11.0142 3.67617 11.0842C3.91031 9.39095 4.44654 8.26284 5.3028 7.50029C6.06515 6.82136 7.15415 6.36384 8.70186 6.11646C8.30424 6.09781 7.9876 5.76953 7.9876 5.3673V4.7373L7.98765 4.71993C6.46991 5.01827 5.24463 5.54348 4.3052 6.38011C3.00373 7.53915 2.36139 9.19223 2.13592 11.3274C2.15571 11.229 2.19566 11.133 2.25688 11.0456Z" fill="black"/>
<path d="M21.5682 12.0832L21.5392 12.1042C21.5241 12.1151 21.5086 12.1255 21.4927 12.1353C21.1589 12.3409 20.8116 12.5356 20.4522 12.7186C20.4581 12.9224 20.461 13.1323 20.461 13.3487C20.461 16.3657 19.8894 18.1356 18.6976 19.1971C17.4793 20.2821 15.4267 20.8017 12 20.8017C8.57388 20.8017 6.52118 20.2822 5.3028 19.1971C4.11081 18.1356 3.539 16.3656 3.539 13.3487C3.539 13.1324 3.54194 12.9224 3.54784 12.7187C3.18862 12.5356 2.84157 12.3409 2.50781 12.1352C2.49538 12.1275 2.48317 12.1195 2.4712 12.1111L2.4412 12.0901C2.23224 11.9438 2.12066 11.7103 2.12124 11.4732C2.06477 12.0625 2.039 12.6877 2.039 13.3487C2.039 16.4838 2.61869 18.8153 4.3052 20.3173C5.96532 21.7957 8.51812 22.3017 12 22.3017C15.4824 22.3017 18.0352 21.7958 19.6952 20.3173C21.3816 18.8153 21.961 16.4837 21.961 13.3487C21.961 12.6859 21.9351 12.059 21.8783 11.4683C21.8804 11.703 21.7727 11.935 21.5682 12.0832Z" fill="black"/>
<path d="M20.6824 10.8726L20.6884 10.8682C21.0239 10.6253 21.4928 10.7003 21.7358 11.0358C21.8019 11.1271 21.8444 11.2283 21.8646 11.3322C21.6397 9.19475 20.9975 7.54006 19.6952 6.38013C18.7558 5.54345 17.5305 5.01822 16.0126 4.71989L16.0126 4.7373V5.3673C16.0126 5.76949 15.696 6.09774 15.2985 6.11646C16.8463 6.36383 17.9353 6.82136 18.6976 7.50027C19.5538 8.26284 20.0899 9.39098 20.3239 11.0844C20.4454 11.0152 20.5649 10.9446 20.6824 10.8726Z" fill="black"/>
<path d="M12.7499 13.8868C12.7499 13.4945 12.4487 13.1725 12.0649 13.1396L11.9953 13.1397L11.9346 13.1396C11.551 13.1727 11.2499 13.4946 11.2499 13.8868V14.6264C11.4969 14.6352 11.7454 14.6397 11.9953 14.6397C12.2482 14.6397 12.4998 14.6351 12.7499 14.6261V13.8868Z" fill="black"/>
<path fill-rule="evenodd" clip-rule="evenodd" d="M15.0092 6.07341C14.7197 5.9695 14.5126 5.69258 14.5126 5.3673V4.7373C14.5126 4.65697 14.5076 4.57899 14.4981 4.50356C13.7262 4.42902 12.8937 4.3957 12 4.3957C11.1064 4.3957 10.2739 4.42903 9.50206 4.50357C9.49257 4.57899 9.4876 4.65697 9.4876 4.7373V5.3673C9.4876 5.69262 9.28048 5.96955 8.99091 6.07344C8.91178 6.10183 8.8265 6.1173 8.7376 6.1173C8.72562 6.1173 8.7137 6.11702 8.70186 6.11646C8.30424 6.09781 7.9876 5.76953 7.9876 5.3673V4.7373L7.98765 4.71993C7.99619 3.1249 9.17997 1.6983 10.7976 1.6983H13.2026C14.8202 1.6983 16.004 3.12487 16.0126 4.71989L16.0126 4.7373V5.3673C16.0126 5.76949 15.696 6.09774 15.2985 6.11646C15.2866 6.11702 15.2746 6.1173 15.2626 6.1173C15.1737 6.1173 15.0884 6.10182 15.0092 6.07341ZM21.8646 11.3322C21.8444 11.2283 21.8019 11.1271 21.7358 11.0358C21.4928 10.7003 21.0239 10.6253 20.6884 10.8682L20.6824 10.8726C20.5649 10.9446 20.4454 11.0152 20.3239 11.0844C18.0962 12.3527 15.2148 13.1283 12.0649 13.1396C12.0435 13.1377 12.0218 13.1368 11.9999 13.1368C11.9779 13.1368 11.9561 13.1377 11.9346 13.1396C8.78148 13.1298 5.90452 12.3539 3.67617 11.0842C3.55318 11.0142 3.43216 10.9426 3.31318 10.8695L3.3014 10.8613C2.96206 10.6237 2.49441 10.7063 2.25688 11.0456C2.19566 11.133 2.15571 11.229 2.13592 11.3274C2.12621 11.3756 2.12136 11.4245 2.12124 11.4732C2.12066 11.7103 2.23224 11.9438 2.4412 12.0901L2.4712 12.1111C2.48317 12.1195 2.49538 12.1275 2.50781 12.1352C2.84157 12.3409 3.18862 12.5356 3.54784 12.7187C5.7446 13.8386 8.39672 14.5242 11.2499 14.6264V16.5148C11.2499 16.929 11.5857 17.2648 11.9999 17.2648C12.4141 17.2648 12.7499 16.929 12.7499 16.5148V14.6261C15.6005 14.5228 18.2553 13.8374 20.4522 12.7186C20.8116 12.5356 21.1589 12.3409 21.4927 12.1353C21.5086 12.1255 21.5241 12.1151 21.5392 12.1042L21.5682 12.0832C21.7727 11.935 21.8804 11.703 21.8783 11.4683C21.8779 11.4228 21.8734 11.3772 21.8646 11.3322ZM12.7499 14.6261C12.4998 14.6351 12.2482 14.6397 11.9953 14.6397C11.7454 14.6397 11.4969 14.6352 11.2499 14.6264V13.8868C11.2499 13.4946 11.551 13.1727 11.9346 13.1396L11.9953 13.1397L12.0649 13.1396C12.4487 13.1725 12.7499 13.4945 12.7499 13.8868V14.6261Z" fill="black"/>
</svg>
