<svg width="24" height="24" viewBox="0 0 24 24" fill="none" xmlns="http://www.w3.org/2000/svg">
<path fill-rule="evenodd" clip-rule="evenodd" d="M14.9394 12.413C14.9394 11.8607 15.3871 11.413 15.9394 11.413H15.9484C16.5007 11.413 16.9484 11.8607 16.9484 12.413C16.9484 12.9653 16.5007 13.413 15.9484 13.413H15.9394C15.3871 13.413 14.9394 12.9653 14.9394 12.413Z" fill="black"/>
<path fill-rule="evenodd" clip-rule="evenodd" d="M10.9304 12.413C10.9304 11.8607 11.3781 11.413 11.9304 11.413H11.9394C12.4917 11.413 12.9394 11.8607 12.9394 12.413C12.9394 12.9653 12.4917 13.413 11.9394 13.413H11.9304C11.3781 13.413 10.9304 12.9653 10.9304 12.413Z" fill="black"/>
<path fill-rule="evenodd" clip-rule="evenodd" d="M6.9214 12.413C6.9214 11.8607 7.36912 11.413 7.9214 11.413H7.9304C8.48269 11.413 8.9304 11.8607 8.9304 12.413C8.9304 12.9653 8.48269 13.413 7.9304 13.413H7.9214C7.36912 13.413 6.9214 12.9653 6.9214 12.413Z" fill="black"/>
<path fill-rule="evenodd" clip-rule="evenodd" d="M18.5406 5.45732C14.9323 1.84756 9.06899 1.84756 5.46064 5.45732C2.63475 8.28267 2.02091 12.4709 3.60696 15.8984C3.61229 15.9099 3.61732 15.9215 3.62206 15.9333C3.71423 16.1623 3.71216 16.4218 3.70801 16.5686C3.7028 16.7529 3.68241 16.9652 3.65725 17.1812C3.63346 17.3854 3.60324 17.6104 3.57252 17.8391L3.56614 17.8867C3.53287 18.1345 3.499 18.3889 3.46944 18.6437C3.40948 19.1604 3.37182 19.643 3.38858 20.029C3.39692 20.2214 3.41796 20.3639 3.44481 20.4616C3.45385 20.4945 3.46214 20.5172 3.46825 20.5318C3.48285 20.5379 3.50552 20.5462 3.53844 20.5552C3.63617 20.582 3.77873 20.603 3.9711 20.6114C4.35713 20.6281 4.83967 20.5904 5.35635 20.5305C5.61112 20.501 5.8655 20.4671 6.11332 20.4339L6.16054 20.4276C6.38933 20.3969 6.61441 20.3667 6.81869 20.3429C7.03466 20.3178 7.24697 20.2974 7.43124 20.2923C7.57801 20.2881 7.83749 20.2861 8.06643 20.3783C8.07812 20.383 8.08969 20.388 8.10113 20.3933C11.5293 21.9787 15.7158 21.3658 18.5406 18.5396C22.1494 14.9303 22.1565 9.07282 18.5406 5.45732ZM19.6013 4.39674C15.4071 0.201042 8.59391 0.201087 4.39977 4.39687C1.13573 7.66041 0.414475 12.4848 2.20882 16.4479C2.20935 16.4654 2.2096 16.491 2.20861 16.5262C2.2053 16.6431 2.19117 16.803 2.16732 17.0076C2.14512 17.1982 2.11659 17.4107 2.08529 17.6438L2.07947 17.6871C2.04628 17.9344 2.01073 18.201 1.97943 18.4708C1.91767 19.0031 1.86783 19.5835 1.88999 20.094C1.90109 20.35 1.93112 20.6142 1.99845 20.8591C2.06424 21.0985 2.18063 21.3749 2.40298 21.5973C2.62539 21.8194 2.90208 21.936 3.14133 22.0017C3.38621 22.0689 3.65032 22.0989 3.9062 22.11C4.41666 22.1321 4.99687 22.0823 5.52911 22.0205C5.79882 21.9893 6.06544 21.9538 6.31267 21.9206L6.3556 21.9149C6.58878 21.8836 6.80139 21.8551 6.99204 21.8329C7.19667 21.8091 7.3565 21.795 7.47338 21.7917C7.5086 21.7907 7.53427 21.7909 7.5518 21.7915C11.5152 23.585 16.3381 22.8649 19.6014 19.6001C23.7951 15.4059 23.804 8.5989 19.6013 4.39674Z" fill="black"/>
</svg>
