<svg width="24" height="24" viewBox="0 0 24 24" fill="none" xmlns="http://www.w3.org/2000/svg">
<path d="M11.9525 3.44167L11.9339 1.94178L9.3688 4.49537C10.0423 3.85263 10.9508 3.4543 11.9525 3.44167Z" fill="black"/>
<path d="M17.31 7.1865C17.2739 4.25305 14.8658 1.90569 11.9339 1.94178L11.9525 3.44167C14.055 3.41589 15.7818 5.09809 15.8101 7.20051V8.35809V9.34473C15.8101 9.75894 16.1459 10.0947 16.5601 10.0947C16.9743 10.0947 17.3101 9.75894 17.3101 9.34473L17.3101 8.85036L17.3102 7.19573L17.31 7.1865Z" fill="black"/>
<path d="M11.9339 1.94178C9.06134 1.97788 6.73811 4.29043 6.68921 7.16296L9.25419 4.60947C9.29158 4.57063 9.3298 4.53259 9.3688 4.49537L11.9339 1.94178Z" fill="black"/>
<path d="M6.68921 7.16296L8.1891 7.18239C8.20768 6.18312 8.60976 5.27866 9.25419 4.60947L6.68921 7.16296Z" fill="black"/>
<path fill-rule="evenodd" clip-rule="evenodd" d="M11.9995 13.3476C12.4137 13.3476 12.7495 13.6834 12.7495 14.0976V16.3186C12.7495 16.7328 12.4137 17.0686 11.9995 17.0686C11.5853 17.0686 11.2495 16.7328 11.2495 16.3186V14.0976C11.2495 13.6834 11.5853 13.3476 11.9995 13.3476Z" fill="black"/>
<path d="M7.4391 10.0947C7.85331 10.0947 8.1891 9.75894 8.1891 9.34473V8.35808C7.64095 8.48217 7.14097 8.6441 6.68912 8.8504L6.6891 9.34473C6.6891 9.75894 7.02489 10.0947 7.4391 10.0947Z" fill="black"/>
<path fill-rule="evenodd" clip-rule="evenodd" d="M15.8101 7.20051V8.35809C14.7277 8.11309 13.4576 8.01563 11.9995 8.01563C10.5414 8.01563 9.27136 8.11308 8.1891 8.35808V7.18239C8.20768 6.18312 8.60976 5.27866 9.25419 4.60947L9.3688 4.49537C10.0423 3.85263 10.9508 3.4543 11.9525 3.44167C14.055 3.41589 15.7818 5.09809 15.8101 7.20051ZM6.68912 8.8504C7.14097 8.6441 7.64095 8.48217 8.1891 8.35808V9.34473C8.1891 9.75894 7.85331 10.0947 7.4391 10.0947C7.02489 10.0947 6.6891 9.75894 6.6891 9.34473L6.68912 8.8504ZM6.68912 8.8504L6.68921 7.16296C6.73811 4.29043 9.06134 1.97788 11.9339 1.94178C14.8658 1.90569 17.2739 4.25305 17.31 7.1865L17.3102 7.19573L17.3101 8.85036C17.736 9.04475 18.119 9.27852 18.4594 9.55713C19.9206 10.7531 20.4105 12.6105 20.4105 15.0366C20.4105 17.4632 19.9206 19.3209 18.4595 20.517C17.0447 21.6751 14.892 22.0586 11.9995 22.0586C9.10701 22.0586 6.95449 21.6751 5.53998 20.5169C4.07912 19.3208 3.5895 17.4631 3.5895 15.0366C3.5895 12.6106 4.07914 10.7532 5.54002 9.55718C5.88033 9.27857 6.26335 9.04479 6.68912 8.8504ZM5.0895 15.0366C5.0895 12.7596 5.55736 11.4816 6.49023 10.7178C7.46948 9.91612 9.147 9.51563 11.9995 9.51563C14.852 9.51563 16.5298 9.91611 17.5093 10.7179C18.4424 11.4816 18.9105 12.7597 18.9105 15.0366C18.9105 17.3141 18.4424 18.5924 17.5093 19.3563C16.5298 20.1581 14.852 20.5586 11.9995 20.5586C9.147 20.5586 7.46951 20.1581 6.49027 19.3563C5.55738 18.5925 5.0895 17.3142 5.0895 15.0366ZM11.9995 13.3476C12.4137 13.3476 12.7495 13.6834 12.7495 14.0976V16.3186C12.7495 16.7328 12.4137 17.0686 11.9995 17.0686C11.5853 17.0686 11.2495 16.7328 11.2495 16.3186V14.0976C11.2495 13.6834 11.5853 13.3476 11.9995 13.3476Z" fill="black"/>
</svg>
