<svg width="24" height="24" viewBox="0 0 24 24" fill="none" xmlns="http://www.w3.org/2000/svg">
<path fill-rule="evenodd" clip-rule="evenodd" d="M18.3804 12.7895C18.745 12.986 18.8812 13.4409 18.6847 13.8056L18.0245 13.4497C18.6847 13.8056 18.6847 13.8056 18.6847 13.8056L18.6836 13.8076L18.6813 13.8118L18.6732 13.8267L18.6432 13.8812C18.6171 13.9282 18.5791 13.9961 18.5301 14.0819C18.4321 14.2533 18.2898 14.4966 18.1106 14.788C17.7531 15.3692 17.2445 16.1483 16.6438 16.9313C16.0465 17.7097 15.3397 18.5163 14.5824 19.1352C13.8428 19.7394 12.9524 20.2497 12.0015 20.2497C11.0503 20.2497 10.1594 19.7396 9.41947 19.1353C8.66176 18.5165 7.95462 17.7098 7.35706 16.9314C6.75609 16.1485 6.24726 15.3693 5.88961 14.7881C5.71035 14.4967 5.56802 14.2534 5.46999 14.082C5.42095 13.9962 5.38294 13.9283 5.35687 13.8813L5.32682 13.8267L5.31872 13.8119L5.31643 13.8077L5.31574 13.8064C5.31574 13.8064 5.31534 13.8056 5.9755 13.4497L5.31574 13.8064C5.11916 13.4418 5.25497 12.9861 5.61956 12.7895C5.9841 12.593 6.43893 12.7291 6.63556 13.0936L6.63703 13.0963L6.64306 13.1074L6.66875 13.154C6.69181 13.1956 6.72658 13.2577 6.77214 13.3374C6.8633 13.4968 6.9974 13.7261 7.16714 14.002C7.50749 14.5551 7.98691 15.2884 8.54694 16.018C9.11038 16.752 9.73699 17.4579 10.3683 17.9735C10.6862 18.2331 10.9812 18.4246 11.25 18.5525C11.53 18.6856 11.7817 18.7497 12.0015 18.7497C12.2204 18.7497 12.4711 18.686 12.75 18.5536C13.0192 18.4258 13.3147 18.2339 13.6333 17.9736C14.2642 17.4581 14.8905 16.7522 15.4537 16.0181C16.0135 15.2886 16.4928 14.5552 16.833 14.0021C17.0027 13.7262 17.1367 13.4969 17.2279 13.3375C17.2734 13.2578 17.3082 13.1957 17.3312 13.1541L17.3569 13.1075L17.3629 13.0964L17.3642 13.094M18.3804 12.7895C18.0158 12.593 17.5608 12.7295 17.3642 13.094L18.3804 12.7895Z" fill="black"/>
<path d="M12.75 4.5C12.75 4.08579 12.4142 3.75 12 3.75C11.5858 3.75 11.25 4.08579 11.25 4.5V18.5525C11.53 18.6856 11.7817 18.7497 12.0015 18.7497C12.2204 18.7497 12.4711 18.686 12.75 18.5536V4.5Z" fill="black"/>
</svg>
