<svg width="24" height="24" viewBox="0 0 24 24" fill="none" xmlns="http://www.w3.org/2000/svg">
<path fill-rule="evenodd" clip-rule="evenodd" d="M4.24329 4.24329C5.91107 2.57552 8.4899 2 12 2C15.5101 2 18.0889 2.57552 19.7567 4.24329C21.4245 5.91107 22 8.4899 22 12C22 15.5101 21.4245 18.0889 19.7567 19.7567C18.0889 21.4245 15.5101 22 12 22C8.4899 22 5.91107 21.4245 4.24329 19.7567C2.57552 18.0889 2 15.5101 2 12C2 8.4899 2.57552 5.91107 4.24329 4.24329ZM5.30396 5.30396C4.08098 6.52693 3.5 8.5731 3.5 12C3.5 15.4269 4.08098 17.4731 5.30396 18.696C6.52693 19.919 8.5731 20.5 12 20.5C15.4269 20.5 17.4731 19.919 18.696 18.696C19.919 17.4731 20.5 15.4269 20.5 12C20.5 8.5731 19.919 6.52693 18.696 5.30396C17.4731 4.08098 15.4269 3.5 12 3.5C8.5731 3.5 6.52693 4.08098 5.30396 5.30396Z" fill="black"/>
<path fill-rule="evenodd" clip-rule="evenodd" d="M15.8944 9.93952C16.236 10.1737 16.3231 10.6406 16.0889 10.9822L15.4703 10.5581C16.0889 10.9822 16.0889 10.9822 16.0889 10.9822L16.0864 10.9858L16.0805 10.9943L16.0588 11.0257C16.04 11.0527 16.0126 11.0918 15.9777 11.1412C15.9078 11.2399 15.8074 11.38 15.6837 11.5478C15.4369 11.8826 15.0942 12.3318 14.7144 12.7837C14.3381 13.2314 13.9091 13.7012 13.4902 14.0654C13.281 14.2473 13.0569 14.4182 12.8284 14.5473C12.6114 14.6699 12.3224 14.7941 12.0003 14.7941C11.6782 14.7941 11.3892 14.6699 11.1722 14.5473C10.9437 14.4183 10.7195 14.2474 10.5103 14.0656C10.0911 13.7014 9.66193 13.2316 9.28533 12.7839C8.9053 12.332 8.56237 11.8828 8.31541 11.5481C8.19158 11.3802 8.09107 11.2401 8.02116 11.1414C7.98619 11.092 7.95883 11.0529 7.93999 11.0259L7.91822 10.9945L7.91233 10.986L7.91 10.9826C7.91 10.9826 7.90989 10.9824 8.5283 10.5581L7.91 10.9826C7.67564 10.6411 7.76242 10.174 8.10396 9.93969C8.44547 9.70535 8.91227 9.7922 9.14665 10.1337L9.14774 10.1353L9.15217 10.1417L9.17086 10.1686C9.18759 10.1926 9.21267 10.2284 9.24522 10.2744C9.31034 10.3663 9.40514 10.4985 9.52244 10.6575C9.75773 10.9764 10.0803 11.3987 10.4333 11.8183C10.7897 12.2421 11.161 12.6438 11.4941 12.9333C11.661 13.0783 11.8008 13.1797 11.9099 13.2413C11.9513 13.2647 11.9811 13.2783 12.0003 13.286C12.0194 13.2783 12.0492 13.2647 12.0905 13.2413C12.1995 13.1798 12.3393 13.0784 12.5061 12.9334C12.839 12.644 13.21 12.2423 13.5662 11.8185C13.9189 11.3989 14.2412 10.9766 14.4763 10.6577C14.5935 10.4988 14.6882 10.3666 14.7533 10.2746C14.7858 10.2287 14.8109 10.1929 14.8276 10.1688L14.8463 10.1419L14.8507 10.1355L14.8516 10.1341M15.8944 9.93952C15.5528 9.70532 15.0859 9.79256 14.8516 10.1341L15.8944 9.93952Z" fill="black"/>
</svg>
