<svg width="24" height="24" viewBox="0 0 24 24" fill="none" xmlns="http://www.w3.org/2000/svg">
<path fill-rule="evenodd" clip-rule="evenodd" d="M17.1926 4.47626C15.5744 3.95715 13.6184 4.3635 12.6284 5.86509C12.4928 6.07066 12.265 6.19661 12.0189 6.20208C11.7727 6.20754 11.5395 6.09183 11.395 5.89248C10.3163 4.40452 8.391 3.96342 6.80255 4.47602C3.81404 5.43791 2.59288 9.07468 3.58736 12.1801C4.38709 14.6689 6.13619 16.5682 7.91402 17.8541C8.80004 18.4949 9.67912 18.9729 10.424 19.2881C11.1936 19.6138 11.7478 19.7353 12.0022 19.7353C12.2546 19.7353 12.8108 19.6115 13.586 19.2804C14.3355 18.9603 15.22 18.4763 16.1096 17.8313C17.8959 16.5361 19.6412 14.6377 20.4128 12.1842L20.4139 12.1807C21.4073 9.07647 20.1812 5.43865 17.1926 4.47626ZM11.9813 4.28965C13.5099 2.73584 15.8346 2.46513 17.6514 3.04813C21.6939 4.34965 22.9927 9.04059 21.8431 12.6361C20.9445 15.4917 18.9417 17.6307 16.9901 19.0457C16.0106 19.7559 15.0285 20.2954 14.1751 20.6598C13.3474 21.0133 12.5643 21.2353 12.0022 21.2353C11.4426 21.2353 10.6645 21.0187 9.83941 20.6695C8.98969 20.3099 8.01191 19.7761 7.03493 19.0695C5.08682 17.6604 3.08549 15.5217 2.15917 12.6387C1.00788 9.04426 2.29702 4.35055 6.34224 3.04839M11.9813 4.28965C10.4324 2.80118 8.18563 2.45374 6.34224 3.04839L11.9813 4.28965Z" fill="black"/>
<path fill-rule="evenodd" clip-rule="evenodd" d="M14.9938 7.45031C15.0362 7.03827 15.4045 6.73856 15.8166 6.78089C16.6091 6.8623 17.289 7.22556 17.7562 7.81638C18.2186 8.40109 18.4339 9.15808 18.4065 9.97411C18.3926 10.3881 18.0457 10.7124 17.6318 10.6985C17.2178 10.6846 16.8935 10.3378 16.9073 9.92381C16.925 9.39884 16.7853 9.00683 16.5796 8.74679C16.3788 8.49286 16.0778 8.31562 15.6633 8.27303C15.2512 8.2307 14.9515 7.86236 14.9938 7.45031Z" fill="black"/>
</svg>
