<svg width="24" height="24" viewBox="0 0 24 24" fill="none" xmlns="http://www.w3.org/2000/svg">
<path fill-rule="evenodd" clip-rule="evenodd" d="M16.6932 9.32055C17.0206 9.57426 17.0804 10.0454 16.8266 10.3728L13.8976 14.1528C13.7753 14.3107 13.5951 14.4132 13.3968 14.4377C13.1986 14.4622 12.9988 14.4067 12.8417 14.2833L10.0233 12.0709L7.49216 15.3598C7.23953 15.6881 6.76863 15.7494 6.44038 15.4968C6.11212 15.2441 6.05081 14.7732 6.30344 14.445L9.29644 10.556C9.41852 10.3974 9.59893 10.2941 9.79754 10.2692C9.99615 10.2443 10.1965 10.2999 10.3539 10.4235L13.1742 12.6374L15.641 9.45402C15.8947 9.1266 16.3658 9.06684 16.6932 9.32055Z" fill="black"/>
<path fill-rule="evenodd" clip-rule="evenodd" d="M19.6478 3.1485C19 3.1485 18.4758 3.67271 18.4758 4.3205C18.4758 4.96754 19.0003 5.4925 19.6478 5.4925C20.2953 5.4925 20.8198 4.96754 20.8198 4.3205C20.8198 3.67271 20.2956 3.1485 19.6478 3.1485ZM16.9758 4.3205C16.9758 2.84429 18.1716 1.6485 19.6478 1.6485C21.124 1.6485 22.3198 2.84429 22.3198 4.3205C22.3198 5.79546 21.1243 6.9925 19.6478 6.9925C18.1713 6.9925 16.9758 5.79546 16.9758 4.3205Z" fill="black"/>
<path fill-rule="evenodd" clip-rule="evenodd" d="M4.98415 5.65546C3.76118 6.87843 3.1802 8.9246 3.1802 12.3515C3.1802 15.7789 3.76119 17.8251 4.98413 19.0479C6.20708 20.2707 8.25323 20.8515 11.6802 20.8515C15.1077 20.8515 17.1538 20.2707 18.3766 19.0479C19.5994 17.8251 20.1802 15.779 20.1802 12.3515C20.1802 11.2458 20.1205 10.2764 19.9943 9.42774C19.9335 9.01803 20.2162 8.63653 20.626 8.57565C21.0357 8.51476 21.4172 8.79754 21.4781 9.20726C21.6179 10.1486 21.6802 11.1952 21.6802 12.3515C21.6802 15.862 21.105 18.4409 19.4373 20.1086C17.7696 21.7763 15.1907 22.3515 11.6802 22.3515C8.17017 22.3515 5.59132 21.7763 3.92352 20.1086C2.2557 18.4409 1.6802 15.8621 1.6802 12.3515C1.6802 8.8414 2.25572 6.26257 3.92349 4.5948C5.59127 2.92702 8.1701 2.3515 11.6802 2.3515C12.8153 2.3515 13.8438 2.41173 14.7709 2.54628C15.1808 2.60577 15.4649 2.9863 15.4054 3.39622C15.3459 3.80613 14.9654 4.09021 14.5555 4.03073C13.7186 3.90927 12.7651 3.8515 11.6802 3.8515C8.2533 3.8515 6.20713 4.43248 4.98415 5.65546Z" fill="black"/>
</svg>
