<svg width="24" height="24" viewBox="0 0 24 24" fill="none" xmlns="http://www.w3.org/2000/svg">
<path fill-rule="evenodd" clip-rule="evenodd" d="M4.92365 4.92365C3.6246 6.22269 3.01318 8.39057 3.01318 12C3.01318 15.6095 3.6246 17.7774 4.92365 19.0764C6.22269 20.3755 8.39057 20.9869 12 20.9869C15.6095 20.9869 17.7774 20.3755 19.0764 19.0764C20.3755 17.7774 20.9869 15.6095 20.9869 12C20.9869 8.39057 20.3755 6.22269 19.0764 4.92365C17.7774 3.6246 15.6095 3.01318 12 3.01318C8.39057 3.01318 6.22269 3.6246 4.92365 4.92365ZM3.86299 3.86299C5.60683 2.11914 8.30737 1.51318 12 1.51318C15.6927 1.51318 18.3932 2.11914 20.1371 3.86299C21.8809 5.60683 22.4869 8.30737 22.4869 12C22.4869 15.6927 21.8809 18.3932 20.1371 20.1371C18.3932 21.8809 15.6927 22.4869 12 22.4869C8.30737 22.4869 5.60683 21.8809 3.86299 20.1371C2.11914 18.3932 1.51318 15.6927 1.51318 12C1.51318 8.30737 2.11914 5.60683 3.86299 3.86299Z" fill="black"/>
<path d="M12.75 12.75V11.25H11.25V12.75H12.75Z" fill="black"/>
<path d="M12.75 8.42582C12.75 8.0116 12.4142 7.67582 12 7.67582C11.5858 7.67582 11.25 8.0116 11.25 8.42582V11.25H12.75V8.42582Z" fill="black"/>
<path d="M8.42203 11.25C8.00781 11.25 7.67203 11.5858 7.67203 12C7.67203 12.4142 8.00781 12.75 8.42203 12.75H11.25V11.25H8.42203Z" fill="black"/>
<path d="M12 16.3242C12.4142 16.3242 12.75 15.9885 12.75 15.5742V12.75H11.25V15.5742C11.25 15.9885 11.5858 16.3242 12 16.3242Z" fill="black"/>
<path d="M16.3278 12C16.3278 11.5858 15.992 11.25 15.5778 11.25H12.75V12.75H15.5778C15.992 12.75 16.3278 12.4142 16.3278 12Z" fill="black"/>
</svg>
