<svg width="24" height="24" viewBox="0 0 24 24" fill="none" xmlns="http://www.w3.org/2000/svg">
<path fill-rule="evenodd" clip-rule="evenodd" d="M10.6835 6.62329C10.8741 6.65142 11.1151 6.72894 11.3141 6.92764C11.4598 7.07331 11.5516 7.24788 11.6111 7.38592C11.6746 7.53326 11.7255 7.69622 11.7676 7.86176C11.8519 8.19297 11.916 8.59466 11.9647 9.02846C12.0383 9.68468 12.0811 10.4568 12.0959 11.2514H20.3019C20.7161 11.2514 21.0519 11.5872 21.0519 12.0014C21.0519 12.4156 20.7161 12.7514 20.3019 12.7514H12.0912C12.0711 13.5684 12.0222 14.361 11.9449 15.0278C11.8953 15.4561 11.8319 15.8501 11.7515 16.1723C11.7113 16.333 11.6632 16.4912 11.6035 16.6337C11.5489 16.764 11.4608 16.9403 11.3144 17.0866C11.1067 17.2943 10.8536 17.3621 10.6714 17.3831C10.4864 17.4044 10.3022 17.3867 10.1413 17.3581C9.81808 17.3008 9.45111 17.174 9.08082 17.0178C8.33118 16.7016 7.4295 16.205 6.56753 15.6562C5.70464 15.1068 4.85155 14.4858 4.20477 13.9094C3.88311 13.6228 3.59349 13.3304 3.37799 13.0496C3.19024 12.805 2.9481 12.4316 2.9481 12.0073C2.9481 11.5868 3.18543 11.2139 3.37128 10.9675C3.58423 10.6851 3.87075 10.3903 4.1897 10.1006C4.83092 9.5183 5.67771 8.89015 6.53745 8.33537C7.3957 7.78155 8.29794 7.28076 9.0551 6.96627C9.42921 6.81088 9.8035 6.68582 10.1373 6.63405C10.3043 6.60815 10.4936 6.59526 10.6835 6.62329ZM4.47702 12.0055C4.4959 12.0367 4.52465 12.08 4.56794 12.1364C4.70329 12.3127 4.91649 12.5345 5.20274 12.7896C5.77177 13.2967 6.55481 13.8698 7.37317 14.3909C8.19245 14.9126 9.01714 15.3629 9.66381 15.6357C9.92002 15.7438 10.1279 15.8152 10.2843 15.855C10.2882 15.8403 10.2922 15.8249 10.2962 15.8088C10.3546 15.5748 10.4089 15.2517 10.4549 14.855C10.5465 14.0654 10.5972 13.054 10.6015 12.0301C10.6057 11.0059 10.5633 9.99165 10.474 9.19563C10.4292 8.79581 10.3745 8.46951 10.314 8.23169C10.3046 8.19475 10.2954 8.16139 10.2865 8.13142C10.1273 8.16568 9.90755 8.23645 9.63047 8.35153C8.98476 8.61973 8.165 9.07032 7.35075 9.59574C6.53799 10.1202 5.76177 10.6992 5.19812 11.2111C4.91463 11.4685 4.70324 11.6925 4.5689 11.8707C4.5249 11.929 4.49591 11.9736 4.47702 12.0055Z" fill="black"/>
</svg>
