<svg width="24" height="24" viewBox="0 0 24 24" fill="none" xmlns="http://www.w3.org/2000/svg">
<path fill-rule="evenodd" clip-rule="evenodd" d="M4.24329 4.24329C5.91107 2.57552 8.4899 2 12 2C12.4142 2 12.75 2.33579 12.75 2.75C12.75 3.16421 12.4142 3.5 12 3.5C8.5731 3.5 6.52693 4.08098 5.30396 5.30396C4.08098 6.52693 3.5 8.5731 3.5 12C3.5 15.4269 4.08098 17.4731 5.30396 18.696C6.52693 19.919 8.5731 20.5 12 20.5C15.4269 20.5 17.4731 19.919 18.696 18.696C19.919 17.4731 20.5 15.4269 20.5 12C20.5 11.5858 20.8358 11.25 21.25 11.25C21.6642 11.25 22 11.5858 22 12C22 15.5101 21.4245 18.0889 19.7567 19.7567C18.0889 21.4245 15.5101 22 12 22C8.4899 22 5.91107 21.4245 4.24329 19.7567C2.57552 18.0889 2 15.5101 2 12C2 8.4899 2.57552 5.91107 4.24329 4.24329Z" fill="black"/>
<path fill-rule="evenodd" clip-rule="evenodd" d="M20.0254 3.74211C18.7224 2.58871 16.7314 2.70927 15.5777 4.01259L13.2038 6.69422C11.9223 8.14199 10.4512 9.80415 9.6935 10.6608C8.74454 11.7321 8.63682 12.9945 8.7384 13.92C8.78949 14.3856 8.89478 14.7858 8.9868 15.0697C9.03309 15.2125 9.07676 15.3281 9.10997 15.4104C9.1266 15.4516 9.14068 15.4846 9.15125 15.5088L9.16438 15.5382L9.16877 15.5478L9.17037 15.5512L9.17132 15.5533C9.2603 15.7425 9.42451 15.8866 9.62386 15.9497L9.8503 15.2347C9.62386 15.9497 9.62508 15.9501 9.62508 15.9501L9.62653 15.9505L9.63013 15.9517L9.64011 15.9547L9.6709 15.9638C9.69613 15.9711 9.73071 15.9807 9.77374 15.9918C9.8597 16.0139 9.98011 16.0421 10.1278 16.0696C10.4216 16.1242 10.8326 16.1775 11.3008 16.1701C12.2294 16.1555 13.4708 15.8978 14.4099 14.8368L20.2959 8.18981C21.4496 6.88645 21.327 4.89544 20.0254 3.74211ZM9.8503 15.2347L9.17132 15.5533C9.17132 15.5533 9.17158 15.5538 9.8503 15.2347ZM10.2099 13.4961L9.6935 10.6608L15.5777 4.01259L13.1138 9.05911C13.5185 8.6018 13.9318 8.13494 14.327 7.68843L15.0663 6.85333L16.0605 5.73018L16.7009 5.00681C17.3051 4.32423 18.3479 4.26071 19.0309 4.86504C19.7133 5.46971 19.777 6.51295 19.1727 7.19559L18.5324 7.91873L17.5379 9.04172L13.2867 13.8426C12.7318 14.4696 11.9742 14.6594 11.2773 14.6703C10.9371 14.6756 10.632 14.6372 10.4102 14.5964C10.342 14.3841 10.2661 14.0904 10.2294 13.7564C10.2201 13.6709 10.2133 13.584 10.2099 13.4961Z" fill="black"/>
<path d="M15.5777 4.01259L9.6935 10.6608L10.2099 13.4961C10.1854 12.8799 10.3203 12.2152 10.8171 11.6546C11.3409 11.0623 12.206 10.0847 13.1138 9.05911L15.5777 4.01259Z" fill="black"/>
<path d="M17.5379 9.04172L18.5324 7.91873L16.0605 5.73018L15.0663 6.85333L17.5379 9.04172Z" fill="black"/>
</svg>
