<svg width="24" height="24" viewBox="0 0 24 24" fill="none" xmlns="http://www.w3.org/2000/svg">
<path fill-rule="evenodd" clip-rule="evenodd" d="M7.59734 16.3075C6.46079 17.0535 5.90546 17.9584 5.90546 18.7557C5.90546 19.1396 6.02948 19.4239 6.25332 19.6631C6.49366 19.9198 6.8795 20.1544 7.43794 20.3471C8.56399 20.7357 10.1706 20.881 12 20.881C13.838 20.881 15.4438 20.7305 16.5665 20.3376C17.1231 20.1428 17.5075 19.9063 17.7471 19.6479C17.9707 19.4068 18.0945 19.1202 18.0945 18.7351C18.0945 17.9407 17.5376 17.0409 16.3976 16.2988C15.2781 15.5701 13.711 15.081 12 15.081C10.2799 15.081 8.71381 15.5747 7.59734 16.3075ZM6.77426 15.0535C8.15211 14.1492 10.0083 13.581 12 13.581C13.9808 13.581 15.836 14.1435 17.2159 15.0417C18.5751 15.9264 19.5945 17.2287 19.5945 18.7351C19.5945 19.4999 19.3268 20.1503 18.847 20.6678C18.3832 21.168 17.7525 21.5117 17.062 21.7534C15.6903 22.2334 13.8738 22.381 12 22.381C10.1375 22.381 8.32193 22.239 6.94865 21.7651C6.25744 21.5266 5.62435 21.1861 5.15819 20.6881C4.67552 20.1724 4.40546 19.5222 4.40546 18.7557C4.40546 17.2522 5.41649 15.9447 6.77426 15.0535Z" fill="black"/>
<path fill-rule="evenodd" clip-rule="evenodd" d="M6.85548 6.75505C6.85617 3.91869 9.15624 1.61905 11.9928 1.61905C14.8299 1.61905 17.1291 3.91958 17.1291 6.75632C17.1291 9.59326 14.8297 11.8927 11.9928 11.8927H11.9619L11.9593 11.8927C9.13089 11.8831 6.84659 9.58314 6.85548 6.75505ZM6.85548 6.75505L6.85549 6.75378L7.60548 6.75632H6.85548V6.75505ZM11.9928 3.11905C9.98424 3.11905 8.35548 4.74781 8.35548 6.75632V6.75886C8.34871 8.75884 9.96342 10.3852 11.9631 10.3927H11.9919C14.0004 10.3927 15.6291 8.76484 15.6291 6.75632C15.6291 4.74761 14.0011 3.11905 11.9928 3.11905Z" fill="black"/>
</svg>
