<svg width="24" height="24" viewBox="0 0 24 24" fill="none" xmlns="http://www.w3.org/2000/svg">
<path fill-rule="evenodd" clip-rule="evenodd" d="M11.8181 9.7808C12.2323 9.7808 12.5681 10.1166 12.5681 10.5308V12.2306V13.7306V15.4308C12.5681 15.845 12.2323 16.1808 11.8181 16.1808C11.4039 16.1808 11.0681 15.845 11.0681 15.4308V13.7306V12.2306V10.5308C11.0681 10.1166 11.4039 9.7808 11.8181 9.7808Z" fill="black"/>
<path d="M15.0173 12.9806C15.0173 12.5664 14.6815 12.2306 14.2673 12.2306H12.5681V13.7306H14.2673C14.6815 13.7306 15.0173 13.3948 15.0173 12.9806Z" fill="black"/>
<path d="M9.3673 12.2306C8.95309 12.2306 8.6173 12.5664 8.6173 12.9806C8.6173 13.3948 8.95309 13.7306 9.3673 13.7306H11.0681V12.2306H9.3673Z" fill="black"/>
<path d="M13.8889 2.0827C13.4747 2.0827 13.1389 2.41849 13.1389 2.8327V3.53032C13.4783 3.54917 13.8008 3.57674 14.106 3.61282L14.6389 4.12038V2.8327C14.6389 2.46486 14.3741 2.15888 14.0247 2.09497C13.9832 2.09076 13.9415 2.0867 13.8996 2.08277L13.8889 2.0827Z" fill="black"/>
<path fill-rule="evenodd" clip-rule="evenodd" d="M4.355 12C4.355 8.5652 4.88616 6.50508 5.99688 5.28001C7.08753 4.07707 8.90666 3.5 11.995 3.5C12.395 3.5 12.7766 3.51019 13.1389 3.53032V5.4937C13.1389 7.7662 14.981 9.6067 17.2529 9.6067H19.5383C19.6097 10.3243 19.645 11.1205 19.645 12C19.645 15.4402 19.1137 17.4997 18.0023 18.7232C16.9107 19.925 15.0894 20.5 11.995 20.5C8.90593 20.5 7.08707 19.9251 5.99666 18.7235C4.88628 17.4999 4.355 15.4401 4.355 12ZM13.8996 2.08277L13.8889 2.0827C13.4747 2.0827 13.1389 2.41849 13.1389 2.8327V3.53032C13.4783 3.54917 13.8008 3.57674 14.106 3.61282L14.6389 4.12038V5.4937C14.6389 6.9372 15.8088 8.1067 17.2529 8.1067H18.8245L14.6389 4.12038V2.8327C14.6389 2.46486 14.3741 2.15888 14.0247 2.09497C14.2028 2.11301 14.3768 2.13366 14.5468 2.15694C14.7028 2.17832 14.8482 2.24827 14.9622 2.3569L20.6322 7.7569C20.7474 7.86656 20.8247 8.00998 20.853 8.16645C21.0534 9.27377 21.145 10.5511 21.145 12C21.145 15.4998 20.6263 18.0653 19.1127 19.7318C17.5793 21.42 15.2006 22 11.995 22C8.79407 22 6.41793 21.4199 4.88584 19.7315C3.37372 18.0651 2.855 15.4999 2.855 12C2.855 8.5048 3.37384 5.93992 4.88562 4.27249C6.41747 2.58293 8.79334 2 11.995 2C12.6696 2 13.306 2.02725 13.8996 2.08277ZM14.0247 2.09497C13.9841 2.08753 13.9422 2.08337 13.8996 2.08277C13.9415 2.0867 13.9832 2.09076 14.0247 2.09497ZM11.0681 13.7306V12.2306V10.5308C11.0681 10.1166 11.4039 9.7808 11.8181 9.7808C12.2323 9.7808 12.5681 10.1166 12.5681 10.5308V12.2306V13.7306V15.4308C12.5681 15.845 12.2323 16.1808 11.8181 16.1808C11.4039 16.1808 11.0681 15.845 11.0681 15.4308V13.7306Z" fill="black"/>
</svg>
