<svg width="24" height="24" viewBox="0 0 24 24" fill="none" xmlns="http://www.w3.org/2000/svg">
<path fill-rule="evenodd" clip-rule="evenodd" d="M12 16.8361C11.5858 16.8361 11.25 16.5003 11.25 16.0861V9.19285V7.9141C11.25 7.49989 11.5858 7.1641 12 7.1641C12.4142 7.1641 12.75 7.49989 12.75 7.9141V9.19337V16.0861C12.75 16.5003 12.4142 16.8361 12 16.8361Z" fill="black"/>
<path fill-rule="evenodd" clip-rule="evenodd" d="M19.7567 19.7567C18.0889 21.4245 15.5101 22 12 22C8.4899 22 5.91107 21.4245 4.2433 19.7567C2.57552 18.0889 2 15.5101 2 12C2 8.4899 2.57552 5.91107 4.2433 4.2433C5.91107 2.57552 8.4899 2 12 2C15.5101 2 18.0889 2.57552 19.7567 4.2433C21.4245 5.91107 22 8.4899 22 12C22 15.5101 21.4245 18.0889 19.7567 19.7567ZM18.696 18.696C19.919 17.4731 20.5 15.4269 20.5 12C20.5 8.5731 19.919 6.52693 18.696 5.30396C17.4731 4.08098 15.4269 3.5 12 3.5C8.5731 3.5 6.52693 4.08098 5.30396 5.30396C4.08098 6.52693 3.5 8.5731 3.5 12C3.5 15.4269 4.08098 17.4731 5.30396 18.696C6.52693 19.919 8.5731 20.5 12 20.5C15.4269 20.5 17.4731 19.919 18.696 18.696Z" fill="black"/>
<path d="M12 7.1641C12.4142 7.1641 12.75 7.49989 12.75 7.9141V9.19337C13.0754 9.49313 13.4233 9.87604 13.7569 10.2764C14.1346 10.7298 14.4777 11.1859 14.7273 11.5303C14.8518 11.702 14.9521 11.8448 15.021 11.9441C15.0555 11.9937 15.082 12.0324 15.0997 12.0584L15.1194 12.0875L15.1241 12.0944L15.1252 12.096C15.3559 12.44 15.8218 12.5319 16.1658 12.3012C16.5098 12.0705 16.6016 11.6044 16.3709 11.2604C16.3709 11.2604 16.371 11.2606 15.7481 11.6783L16.3709 11.2604L16.3684 11.2568L16.3622 11.2476L16.3392 11.2137C16.3194 11.1845 16.2904 11.1423 16.2535 11.089C16.1796 10.9825 16.0732 10.8312 15.9419 10.65C15.68 10.2887 15.3156 9.80382 14.9093 9.31622C14.5065 8.83278 14.0461 8.32656 13.5922 7.93471C13.3654 7.73892 13.123 7.55652 12.8755 7.41967C12.6372 7.28794 12.3336 7.1641 12 7.1641Z" fill="black"/>
<path d="M11.25 7.9141C11.25 7.49989 11.5858 7.1641 12 7.1641C11.6665 7.1641 11.363 7.28791 11.1247 7.41958C10.8772 7.55638 10.6346 7.73873 10.4076 7.93449C9.95338 8.32628 9.49247 8.83244 9.08919 9.31586C8.68244 9.80343 8.31752 10.2883 8.05525 10.6496C7.92376 10.8308 7.81724 10.9821 7.74321 11.0886C7.70618 11.1419 7.67723 11.1841 7.65731 11.2133L7.63429 11.2471L7.62807 11.2563L7.62549 11.2601C7.39455 11.604 7.48608 12.07 7.82994 12.3009C8.17377 12.5318 8.63984 12.4401 8.8708 12.0963L8.8718 12.0948L8.87649 12.0879L8.89627 12.0588C8.91398 12.0329 8.94054 11.9942 8.97503 11.9445C9.04403 11.8452 9.14456 11.7024 9.2692 11.5307C9.51918 11.1863 9.86276 10.7302 10.241 10.2767C10.5753 9.87604 10.924 9.49277 11.25 9.19285V7.9141Z" fill="black"/>
</svg>
