<svg width="24" height="24" viewBox="0 0 24 24" fill="none" xmlns="http://www.w3.org/2000/svg">
<path fill-rule="evenodd" clip-rule="evenodd" d="M4.24329 4.24329C5.91107 2.57552 8.4899 2 12 2C15.5101 2 18.0889 2.57552 19.7567 4.24329C21.4245 5.91107 22 8.4899 22 12C22 15.5101 21.4245 18.0889 19.7567 19.7567C18.0889 21.4245 15.5101 22 12 22C8.4899 22 5.91107 21.4245 4.24329 19.7567C2.57552 18.0889 2 15.5101 2 12C2 8.4899 2.57552 5.91107 4.24329 4.24329ZM5.30396 5.30396C4.08098 6.52693 3.5 8.5731 3.5 12C3.5 15.4269 4.08098 17.4731 5.30396 18.696C6.52693 19.919 8.5731 20.5 12 20.5C15.4269 20.5 17.4731 19.919 18.696 18.696C19.919 17.4731 20.5 15.4269 20.5 12C20.5 8.5731 19.919 6.52693 18.696 5.30396C17.4731 4.08098 15.4269 3.5 12 3.5C8.5731 3.5 6.52693 4.08098 5.30396 5.30396Z" fill="black"/>
<path d="M9.78214 15.6622L12.6806 13.4105C12.6775 13.4124 12.6745 13.4144 12.6715 13.4163C12.0912 13.7908 11.5123 14.1083 11.0629 14.2948C10.9721 14.3325 10.8922 14.3625 10.8229 14.3859C10.7943 14.2438 10.7673 14.0666 10.7439 13.8572C10.6808 13.2945 10.6505 12.5727 10.6536 11.8402C10.6567 11.1081 10.6931 10.3877 10.7579 9.82885C10.7793 9.64443 10.8029 9.48513 10.8276 9.35324C10.8899 9.37574 10.9598 9.40307 11.0374 9.43581C11.4888 9.62622 12.072 9.94415 12.6562 10.3161C13.2395 10.6874 13.7937 11.0935 14.1927 11.449C14.3752 11.6116 14.5098 11.75 14.5976 11.8582C14.5498 11.9184 14.4879 11.9878 14.4118 12.0655L15.8129 10.977L15.1905 10.329L13.4618 9.05074L11.6204 8.05374L10.8117 7.79533L10.3691 7.7755L9.78167 8.04907L9.5283 8.443L9.41191 8.80537L9.26788 9.65617L9.15363 11.8338L9.25321 14.0242L9.40024 14.8928L9.52375 15.2669L9.78214 15.6622Z" fill="black"/>
<path d="M16.166 11.8554C16.166 11.475 15.9515 11.1576 15.8129 10.977L14.4118 12.0655C14.3491 12.1295 14.2767 12.1991 14.1945 12.2738C13.8015 12.6308 13.256 13.0385 12.6806 13.4105L9.78214 15.6622C9.96691 15.8467 10.1877 15.9159 10.3532 15.9405C10.5182 15.965 10.6773 15.9533 10.8098 15.9329C11.0744 15.892 11.3619 15.7948 11.6379 15.6802C12.199 15.4473 12.8605 15.0796 13.4848 14.6767C14.1106 14.2728 14.7304 13.8135 15.2031 13.3841C15.4377 13.171 15.6546 12.9486 15.819 12.7307C15.9562 12.5486 16.166 12.2319 16.166 11.8554Z" fill="black"/>
</svg>
