<svg width="24" height="24" viewBox="0 0 24 24" fill="none" xmlns="http://www.w3.org/2000/svg">
<path fill-rule="evenodd" clip-rule="evenodd" d="M12 9.588C10.6681 9.588 9.588 10.6674 9.588 12C9.588 13.3318 10.6682 14.412 12 14.412C13.3318 14.412 14.412 13.3318 14.412 12C14.412 10.6674 13.3319 9.588 12 9.588ZM8.088 12C8.088 9.83863 9.83994 8.088 12 8.088C14.1601 8.088 15.912 9.83863 15.912 12C15.912 14.1602 14.1602 15.912 12 15.912C9.83979 15.912 8.088 14.1602 8.088 12Z" fill="black"/>
<path fill-rule="evenodd" clip-rule="evenodd" d="M4.97353 6.54626C6.76793 5.02918 9.24874 3.948 12 3.948C14.7506 3.948 17.2314 5.02834 19.026 6.54506C20.801 8.04526 22.002 10.062 22.002 12C22.002 13.938 20.801 15.9547 19.026 17.4549C17.2314 18.9717 14.7506 20.052 12 20.052C9.24874 20.052 6.76793 18.9708 4.97353 17.4537C3.19874 15.9532 1.998 13.9365 1.998 12C1.998 10.0635 3.19874 8.04676 4.97353 6.54626ZM5.94197 7.69174C4.36826 9.02224 3.498 10.6565 3.498 12C3.498 13.3435 4.36826 14.9778 5.94197 16.3083C7.49607 17.6222 9.64126 18.552 12 18.552C14.3584 18.552 16.5036 17.6228 18.0577 16.3093C19.6315 14.9793 20.502 13.345 20.502 12C20.502 10.655 19.6315 9.02074 18.0577 7.69069C16.5036 6.37716 14.3584 5.448 12 5.448C9.64126 5.448 7.49607 6.37782 5.94197 7.69174Z" fill="black"/>
</svg>
