<svg width="24" height="24" viewBox="0 0 24 24" fill="none" xmlns="http://www.w3.org/2000/svg">
<path fill-rule="evenodd" clip-rule="evenodd" d="M11.9995 13.3474C12.4137 13.3474 12.7495 13.6832 12.7495 14.0974V16.3184C12.7495 16.7326 12.4137 17.0684 11.9995 17.0684C11.5853 17.0684 11.2495 16.7326 11.2495 16.3184V14.0974C11.2495 13.6832 11.5853 13.3474 11.9995 13.3474Z" fill="black"/>
<path d="M17.0836 5.71191C16.4164 3.50551 14.3541 1.91187 11.9336 1.94204C9.06066 1.97711 6.7376 4.29105 6.6887 7.16321V8.85035C7.14054 8.64401 7.64053 8.48204 8.1887 8.35792V7.18265C8.22698 5.12373 9.89316 3.46696 11.9521 3.44192C13.6874 3.42021 15.169 4.56253 15.6478 6.14606C15.7677 6.54254 16.1863 6.76677 16.5828 6.64688C16.9793 6.52699 17.2035 6.10839 17.0836 5.71191Z" fill="black"/>
<path d="M7.4387 10.095C7.85291 10.095 8.1887 9.7592 8.1887 9.34498V8.35792C7.64053 8.48204 7.14054 8.64401 6.6887 8.85035V9.34498C6.6887 9.7592 7.02449 10.095 7.4387 10.095Z" fill="black"/>
<path fill-rule="evenodd" clip-rule="evenodd" d="M8.1887 9.34498C8.1887 9.7592 7.85291 10.095 7.4387 10.095C7.02449 10.095 6.6887 9.7592 6.6887 9.34498V8.85035C6.2631 9.0447 5.88022 9.27842 5.54002 9.55694C4.07914 10.7529 3.5895 12.6104 3.5895 15.0364C3.5895 17.4628 4.07912 19.3205 5.53998 20.5167C6.95449 21.6749 9.10701 22.0584 11.9995 22.0584C14.8925 22.0584 17.0452 21.6749 18.4599 20.5167C19.9209 19.3205 20.4105 17.4628 20.4105 15.0364C20.4105 12.6104 19.9209 10.7529 18.4598 9.55691C17.0452 8.39889 14.8925 8.01538 11.9995 8.01538C10.5412 8.01538 9.27105 8.11286 8.1887 8.35792V9.34498ZM6.49023 10.7176C5.55736 11.4813 5.0895 12.7594 5.0895 15.0364C5.0895 17.3139 5.55738 18.5922 6.49027 19.3561C7.46951 20.1579 9.147 20.5584 11.9995 20.5584C14.8525 20.5584 16.5303 20.1579 17.5096 19.3561C18.4426 18.5922 18.9105 17.3139 18.9105 15.0364C18.9105 12.7594 18.4426 11.4813 17.5097 10.7176C16.5303 9.91588 14.8525 9.51538 11.9995 9.51538C9.147 9.51538 7.46948 9.91587 6.49023 10.7176Z" fill="black"/>
</svg>
