<svg width="24" height="24" viewBox="0 0 24 24" fill="none" xmlns="http://www.w3.org/2000/svg">
<path fill-rule="evenodd" clip-rule="evenodd" d="M19.7567 4.24329C21.4245 5.91107 22 8.4899 22 12C22 15.5101 21.4245 18.0889 19.7567 19.7567C18.0889 21.4245 15.5101 22 12 22C8.4899 22 5.91107 21.4245 4.2433 19.7567C2.57552 18.0889 2 15.5101 2 12C2 8.4899 2.57552 5.91107 4.2433 4.24329C5.91107 2.57552 8.4899 2 12 2C15.5101 2 18.0889 2.57552 19.7567 4.24329ZM18.696 5.30396C17.4731 4.08098 15.4269 3.5 12 3.5C8.5731 3.5 6.52693 4.08098 5.30396 5.30396C4.08098 6.52693 3.5 8.5731 3.5 12C3.5 15.4269 4.08098 17.4731 5.30396 18.696C6.52693 19.919 8.5731 20.5 12 20.5C15.4269 20.5 17.4731 19.919 18.696 18.696C19.919 17.4731 20.5 15.4269 20.5 12C20.5 8.5731 19.919 6.52693 18.696 5.30396Z" fill="black"/>
<path fill-rule="evenodd" clip-rule="evenodd" d="M14.0605 15.8944C13.8263 16.236 13.3594 16.3231 13.0178 16.0889L13.4419 15.4703C13.0178 16.0889 13.0178 16.0889 13.0178 16.0889L13.0142 16.0864L13.0057 16.0805L12.9743 16.0588C12.9473 16.04 12.9082 16.0126 12.8588 15.9777C12.7601 15.9078 12.62 15.8074 12.4522 15.6837C12.1174 15.4369 11.6682 15.0942 11.2163 14.7144C10.7686 14.3381 10.2988 13.9091 9.93457 13.4902C9.75275 13.281 9.58179 13.0569 9.4527 12.8284C9.33009 12.6114 9.2059 12.3224 9.2059 12.0003C9.2059 11.6782 9.33007 11.3892 9.45265 11.1722C9.58171 10.9437 9.75264 10.7195 9.93445 10.5103C10.2986 10.0911 10.7684 9.66193 11.2161 9.28533C11.668 8.9053 12.1172 8.56237 12.4519 8.31541C12.6198 8.19159 12.7599 8.09107 12.8586 8.02116C12.908 7.98619 12.9471 7.95883 12.9741 7.93999L13.0055 7.91822L13.014 7.91233L13.0174 7.91C13.0174 7.91 13.0176 7.90989 13.4419 8.5283L13.0174 7.91C13.3589 7.67564 13.826 7.76242 14.0603 8.10396C14.2946 8.44547 14.2078 8.91227 13.8663 9.14665L13.8647 9.14774L13.8583 9.15217L13.8314 9.17086C13.8074 9.18759 13.7716 9.21267 13.7256 9.24522C13.6337 9.31034 13.5015 9.40514 13.3425 9.52244C13.0236 9.75773 12.6013 10.0803 12.1817 10.4333C11.7579 10.7897 11.3562 11.161 11.0667 11.4941C10.9217 11.661 10.8203 11.8008 10.7587 11.9099C10.7353 11.9513 10.7217 11.9811 10.714 12.0003C10.7217 12.0194 10.7353 12.0492 10.7587 12.0905C10.8202 12.1995 10.9216 12.3393 11.0666 12.5061C11.356 12.839 11.7577 13.21 12.1815 13.5662C12.6011 13.9189 13.0234 14.2412 13.3423 14.4763C13.5012 14.5935 13.6334 14.6882 13.7254 14.7533C13.7713 14.7858 13.8071 14.8109 13.8312 14.8276L13.8581 14.8463L13.8645 14.8507L13.8659 14.8516M14.0605 15.8944C14.2947 15.5528 14.2074 15.0859 13.8659 14.8516L14.0605 15.8944Z" fill="black"/>
</svg>
