<svg width="24" height="24" viewBox="0 0 24 24" fill="none" xmlns="http://www.w3.org/2000/svg">
<path fill-rule="evenodd" clip-rule="evenodd" d="M20.3375 3.7973C20.6304 4.09019 20.6304 4.56507 20.3375 4.85796L15.5573 9.63817C15.547 9.64909 15.5364 9.65971 15.5254 9.67001L8.47351 16.7219C8.4621 16.7341 8.45029 16.7459 8.43812 16.7573L4.99273 20.2027C4.69984 20.4956 4.22497 20.4956 3.93207 20.2027C3.63918 19.9098 3.63918 19.4349 3.93207 19.142L6.34541 16.7287C5.8216 16.6328 5.28859 16.4462 4.72229 15.9696L4.71962 15.9674C4.04538 15.3946 3.731 14.6445 3.58252 13.9216C3.43721 13.2142 3.43976 12.4731 3.44414 11.8705C3.43976 11.2679 3.43721 10.5269 3.58252 9.81943C3.731 9.09657 4.04538 8.3465 4.71962 7.77369C5.36639 7.22423 5.96872 7.05932 6.54567 6.97278C6.70261 6.94923 6.84667 6.93176 6.98489 6.91499C7.35468 6.87013 7.6826 6.83035 8.10318 6.69311C8.29545 6.62971 8.56232 6.45925 8.95926 6.16043C9.0456 6.09544 9.13765 6.02474 9.23417 5.95061C9.53857 5.71681 9.8874 5.44889 10.2415 5.21827C11.1784 4.60803 12.4879 4.03565 13.8896 4.86309C13.9072 4.87349 13.9244 4.8846 13.9411 4.89641C14.7481 5.46657 15.2434 6.2839 15.5293 7.54477L19.2768 3.7973C19.5697 3.50441 20.0446 3.50441 20.3375 3.7973ZM14.2279 8.8462C14.0247 7.13509 13.6107 6.51026 13.1011 6.13974C12.4805 5.78783 11.8634 5.95194 11.0601 6.47516C10.7594 6.67105 10.4782 6.88693 10.1851 7.11192C10.0793 7.1932 9.97186 7.27568 9.86141 7.35882C9.48399 7.64294 9.03187 7.96677 8.57103 8.11828L8.56959 8.11875C7.9953 8.30627 7.46946 8.36935 7.07264 8.41696C6.96018 8.43045 6.85808 8.4427 6.76818 8.45618C6.36091 8.51727 6.05509 8.60736 5.6908 8.91685C5.354 9.20298 5.15837 9.60265 5.05185 10.1212C4.9426 10.6531 4.9396 11.2429 4.94414 11.8651L4.94422 11.876C4.93968 12.4982 4.9426 13.088 5.05185 13.6198C5.15823 14.1377 5.35349 14.537 5.6895 14.8231C6.01882 15.0999 6.2976 15.1964 6.63008 15.2559C6.77677 15.2821 6.92257 15.2993 7.10004 15.3203C7.15093 15.3263 7.20443 15.3326 7.2613 15.3396C7.38997 15.3552 7.52872 15.3734 7.6766 15.3975L14.2279 8.8462ZM15.1301 12.5793C15.544 12.5953 15.8665 12.9439 15.8505 13.3578C15.7334 16.3862 15.2127 17.9324 13.9428 18.8344C13.9263 18.8462 13.9093 18.8572 13.8919 18.8676C12.4554 19.7221 11.1101 19.0948 10.1713 18.4594C9.82822 18.2272 9.73833 17.7609 9.97049 17.4179C10.2026 17.0749 10.6689 16.985 11.012 17.2171C11.8335 17.7731 12.4685 17.9538 13.0993 17.5934C13.7324 17.1305 14.2377 16.2451 14.3517 13.2998C14.3677 12.8859 14.7162 12.5633 15.1301 12.5793Z" fill="black"/>
</svg>
