<svg width="24" height="24" viewBox="0 0 24 24" fill="none" xmlns="http://www.w3.org/2000/svg">
<path fill-rule="evenodd" clip-rule="evenodd" d="M19.7567 19.7567C18.0889 21.4245 15.5101 22 12 22C8.4899 22 5.91107 21.4245 4.2433 19.7567C2.57552 18.0889 2 15.5101 2 12C2 8.4899 2.57552 5.91107 4.2433 4.2433C5.91107 2.57552 8.4899 2 12 2C15.5101 2 18.0889 2.57552 19.7567 4.2433C21.4245 5.91107 22 8.4899 22 12C22 15.5101 21.4245 18.0889 19.7567 19.7567ZM18.696 18.696C19.919 17.4731 20.5 15.4269 20.5 12C20.5 8.5731 19.919 6.52693 18.696 5.30396C17.4731 4.08098 15.4269 3.5 12 3.5C8.5731 3.5 6.52693 4.08098 5.30396 5.30396C4.08098 6.52693 3.5 8.5731 3.5 12C3.5 15.4269 4.08098 17.4731 5.30396 18.696C6.52693 19.919 8.5731 20.5 12 20.5C15.4269 20.5 17.4731 19.919 18.696 18.696Z" fill="black"/>
<path fill-rule="evenodd" clip-rule="evenodd" d="M8.1056 14.0605C7.76397 13.8263 7.6769 13.3594 7.91112 13.0178L8.5297 13.4419C7.91112 13.0178 7.91112 13.0178 7.91112 13.0178L7.91357 13.0142L7.91945 13.0057L7.9412 12.9743C7.96003 12.9473 7.98737 12.9082 8.02231 12.8588C8.09217 12.7601 8.1926 12.62 8.31633 12.4522C8.5631 12.1174 8.90578 11.6682 9.28556 11.2163C9.66192 10.7686 10.0909 10.2988 10.5098 9.93457C10.719 9.75275 10.9431 9.58179 11.1716 9.4527C11.3886 9.33009 11.6776 9.2059 11.9997 9.2059C12.3218 9.2059 12.6108 9.33007 12.8278 9.45265C13.0563 9.58171 13.2805 9.75264 13.4897 9.93445C13.9089 10.2986 14.3381 10.7684 14.7147 11.2161C15.0947 11.668 15.4376 12.1172 15.6846 12.4519C15.8084 12.6198 15.9089 12.7599 15.9788 12.8586C16.0138 12.908 16.0412 12.9471 16.06 12.9741L16.0818 13.0055L16.0877 13.014L16.09 13.0174C16.09 13.0174 16.0901 13.0176 15.4717 13.4419L16.09 13.0174C16.3244 13.3589 16.2376 13.826 15.896 14.0603C15.5545 14.2946 15.0877 14.2078 14.8534 13.8663L14.8523 13.8647L14.8478 13.8583L14.8291 13.8314C14.8124 13.8074 14.7873 13.7716 14.7548 13.7256C14.6897 13.6337 14.5949 13.5015 14.4776 13.3425C14.2423 13.0236 13.9197 12.6013 13.5667 12.1817C13.2103 11.7579 12.839 11.3562 12.5059 11.0667C12.339 10.9217 12.1992 10.8203 12.0901 10.7587C12.0487 10.7353 12.0189 10.7217 11.9997 10.714C11.9806 10.7217 11.9508 10.7353 11.9095 10.7587C11.8005 10.8202 11.6607 10.9216 11.4939 11.0666C11.161 11.356 10.79 11.7577 10.4338 12.1815C10.0811 12.6011 9.7588 13.0234 9.52369 13.3423C9.40649 13.5012 9.31176 13.6334 9.2467 13.7254C9.21418 13.7713 9.18912 13.8071 9.1724 13.8312L9.15373 13.8581L9.14931 13.8645L9.14836 13.8659M8.1056 14.0605C8.44721 14.2947 8.91412 14.2074 9.14836 13.8659L8.1056 14.0605Z" fill="black"/>
</svg>
