<svg width="24" height="24" viewBox="0 0 24 24" fill="none" xmlns="http://www.w3.org/2000/svg">
<path fill-rule="evenodd" clip-rule="evenodd" d="M6.43771 3.07552C7.8237 2.83004 9.63687 2.72368 12 2.72368C14.3631 2.72368 16.1763 2.83004 17.5623 3.07552C18.9431 3.32009 19.9781 3.71548 20.7128 4.35438C21.4694 5.01235 21.8208 5.8516 21.9867 6.78981C22.1451 7.68493 22.145 8.74057 22.145 9.88959V9.94232C22.145 10.3565 21.8092 10.6923 21.395 10.6923C20.9413 10.6923 20.6521 10.8594 20.4662 11.075C20.2669 11.306 20.1493 11.639 20.1493 11.9995C20.1493 12.3601 20.2669 12.693 20.4662 12.9241C20.6521 13.1397 20.9413 13.3067 21.395 13.3067C21.8092 13.3067 22.145 13.6425 22.145 14.0567V14.1095C22.145 15.2587 22.1451 16.3145 21.9867 17.2098C21.8208 18.1481 21.4694 18.9874 20.7128 19.6455C19.9781 20.2845 18.9431 20.6799 17.5623 20.9245C16.1763 21.17 14.3631 21.2763 12 21.2763C9.63688 21.2763 7.8237 21.17 6.43771 20.9245C5.05686 20.6799 4.02188 20.2845 3.28719 19.6455C2.53057 18.9874 2.17921 18.1481 2.01326 17.2098C1.85493 16.3145 1.85496 15.2587 1.855 14.1095L1.855 14.0567C1.855 13.6425 2.19079 13.3067 2.605 13.3067C3.05865 13.3067 3.34791 13.1397 3.53383 12.9241C3.73308 12.693 3.85075 12.3601 3.85075 11.9995C3.85075 11.639 3.73308 11.306 3.53383 11.075C3.34791 10.8594 3.05865 10.6923 2.605 10.6923C2.19079 10.6923 1.855 10.3565 1.855 9.94232L1.855 9.88959C1.85496 8.74057 1.85493 7.68493 2.01326 6.78981C2.17922 5.8516 2.5306 5.01235 3.28722 4.35438C4.0219 3.71548 5.05688 3.32009 6.43771 3.07552ZM3.35613 9.28464C3.89139 9.42265 4.33614 9.70848 4.6698 10.0954C5.13579 10.6358 5.35075 11.3315 5.35075 11.9995C5.35075 12.6676 5.13579 13.3633 4.6698 13.9036C4.33614 14.2906 3.89139 14.5764 3.35613 14.7144C3.36059 15.6146 3.38257 16.3392 3.49033 16.9485C3.61798 17.6703 3.8538 18.1503 4.27156 18.5137C4.71125 18.8961 5.43782 19.224 6.69932 19.4475C7.95567 19.67 9.66562 19.7763 12 19.7763C14.3344 19.7763 16.0443 19.67 17.3007 19.4475C18.5622 19.224 19.2888 18.8961 19.7284 18.5137C20.1462 18.1503 20.382 17.6703 20.5097 16.9485C20.6174 16.3392 20.6394 15.6146 20.6439 14.7144C20.1086 14.5764 19.6639 14.2906 19.3302 13.9036C18.8642 13.3633 18.6493 12.6676 18.6493 11.9995C18.6493 11.3315 18.8642 10.6358 19.3302 10.0954C19.6639 9.70848 20.1086 9.42265 20.6439 9.28464C20.6394 8.38472 20.6174 7.66029 20.5097 7.05108C20.382 6.32951 20.1462 5.84954 19.7285 5.48625C19.2888 5.10389 18.5622 4.77596 17.3007 4.55253C16.0443 4.33001 14.3344 4.22368 12 4.22368C9.66563 4.22368 7.95567 4.33001 6.69932 4.55253C5.43781 4.77596 4.71122 5.10389 4.27153 5.48625C3.85377 5.84954 3.61797 6.32951 3.49033 7.05108C3.38257 7.66029 3.36059 8.38472 3.35613 9.28464Z" fill="black"/>
<path fill-rule="evenodd" clip-rule="evenodd" d="M10.6418 9.50483C10.788 9.19726 11.1557 8.48387 12 8.48387C12.8443 8.48387 13.212 9.19726 13.3582 9.50483C13.4031 9.5992 13.4442 9.69463 13.4791 9.7755C13.516 9.86102 13.5462 9.9311 13.5766 9.99545C13.6052 10.0559 13.6274 10.0965 13.643 10.1229C13.6553 10.1251 13.67 10.1274 13.6876 10.1297C13.7799 10.1419 13.8659 10.1457 13.9809 10.1509C14.0456 10.1537 14.1196 10.157 14.209 10.1624C14.4063 10.1744 14.7032 10.1986 14.9773 10.3102C15.2933 10.4388 15.61 10.6988 15.7263 11.1499L15.7266 11.1511C15.8309 11.5587 15.7288 11.917 15.5466 12.192C15.3882 12.4313 15.1692 12.6072 15.0262 12.7179C14.9682 12.7628 14.9193 12.7996 14.8767 12.8318C14.7874 12.8992 14.7254 12.9459 14.6639 13.003C14.6488 13.0171 14.6374 13.0286 14.6291 13.0376C14.631 13.0603 14.6359 13.0977 14.6482 13.1542C14.6613 13.2145 14.6791 13.2808 14.7022 13.364C14.7056 13.3762 14.7092 13.3889 14.7129 13.4021C14.7325 13.472 14.7556 13.5548 14.7757 13.6357C14.8209 13.8179 14.8796 14.0963 14.8375 14.3915C14.7889 14.7321 14.6136 15.0505 14.2849 15.278L14.2835 15.2789C13.567 15.7726 12.8532 15.3717 12.5648 15.2048C12.4778 15.1544 12.412 15.1142 12.3551 15.0795C12.2736 15.0298 12.2102 14.991 12.1282 14.949C12.0542 14.9111 12.0145 14.8987 12 14.8947C11.9855 14.8987 11.9458 14.9111 11.8718 14.949C11.7898 14.991 11.7264 15.0298 11.6449 15.0795C11.588 15.1142 11.5222 15.1544 11.4352 15.2048C11.1468 15.3717 10.433 15.7726 9.71648 15.2789L9.71466 15.2777C9.38614 15.0499 9.21128 14.7315 9.16289 14.3913C9.12094 14.0963 9.17951 13.8181 9.2246 13.636C9.24461 13.5551 9.26773 13.4724 9.28727 13.4025C9.29096 13.3893 9.29453 13.3765 9.29793 13.3643C9.32105 13.2812 9.33876 13.2149 9.35187 13.1545C9.36418 13.0979 9.36905 13.0604 9.37098 13.0376C9.3626 13.0286 9.35123 13.0171 9.33608 13.003C9.27458 12.9459 9.21259 12.8992 9.12328 12.8318C9.08065 12.7996 9.0318 12.7628 8.9738 12.7179C8.83082 12.6072 8.61183 12.4313 8.4534 12.192C8.27122 11.917 8.16913 11.5587 8.2734 11.1511L8.27372 11.1499C8.38996 10.6988 8.70668 10.4388 9.02272 10.3102C9.29676 10.1986 9.59374 10.1744 9.79098 10.1624C9.88041 10.157 9.95436 10.1537 10.0191 10.1509C10.1341 10.1457 10.2201 10.1419 10.3124 10.1297C10.33 10.1274 10.3447 10.1251 10.357 10.1229C10.3726 10.0965 10.3948 10.0559 10.4234 9.99545C10.4538 9.9311 10.4839 9.86137 10.5207 9.77584C10.5556 9.69498 10.5969 9.5992 10.6418 9.50483ZM11.7797 10.6361C11.6991 10.8067 11.5706 11.0551 11.3625 11.2528L11.3611 11.254C11.0781 11.5215 10.7179 11.5892 10.5088 11.6168C10.3639 11.636 10.1903 11.645 10.05 11.6515C10.1475 11.7258 10.2618 11.8156 10.357 11.9041C10.5223 12.0576 10.746 12.3058 10.8322 12.6642L10.8325 12.6654C10.907 12.9776 10.8613 13.2723 10.8177 13.4731C10.7947 13.5789 10.7668 13.6811 10.7431 13.7662C10.7386 13.7822 10.7344 13.7975 10.7302 13.8123C10.7223 13.8408 10.7149 13.8672 10.708 13.8923C10.7331 13.8774 10.7633 13.8592 10.797 13.8388C10.9103 13.7703 11.0624 13.6783 11.1873 13.6143C11.3811 13.5149 11.6658 13.3931 12 13.3931C12.3342 13.3931 12.6189 13.5149 12.8127 13.6143C12.9376 13.6783 13.0897 13.7703 13.203 13.8388C13.2368 13.8593 13.2672 13.8776 13.2924 13.8925C13.2854 13.8674 13.2781 13.8409 13.2701 13.8124C13.266 13.7977 13.2617 13.7825 13.2573 13.7666C13.2335 13.6814 13.2056 13.5792 13.1826 13.4734C13.1388 13.2726 13.0929 12.9778 13.1675 12.6654L13.1678 12.6642C13.254 12.3058 13.4777 12.0576 13.643 11.9041C13.7382 11.8156 13.8525 11.7258 13.95 11.6515C13.8097 11.645 13.6361 11.636 13.4912 11.6168C13.2821 11.5892 12.9219 11.5215 12.6389 11.254L12.6375 11.2528C12.4294 11.0551 12.3009 10.8067 12.2203 10.6361C12.1786 10.5479 12.1396 10.4573 12.1061 10.3796L12.1018 10.3697C12.0654 10.2853 12.0348 10.2146 12.0035 10.1488C12.0023 10.1463 12.0012 10.1439 12 10.1414C11.9988 10.1439 11.9977 10.1463 11.9965 10.1488C11.9652 10.2146 11.9346 10.2853 11.8982 10.3697L11.8939 10.3796C11.8604 10.4573 11.8214 10.5479 11.7797 10.6361ZM12.1182 9.94129C12.1182 9.9417 12.1158 9.94454 12.111 9.94858C12.1158 9.9429 12.1182 9.94088 12.1182 9.94129ZM11.889 9.94858C11.8842 9.94454 11.8818 9.9417 11.8818 9.94129C11.8818 9.94088 11.8842 9.9429 11.889 9.94858ZM13.5464 14.0164C13.5466 14.0167 13.5437 14.0164 13.5369 14.0144C13.5428 14.0151 13.5462 14.0161 13.5464 14.0164ZM10.4536 14.0164C10.4538 14.0161 10.4572 14.0151 10.4631 14.0144C10.4563 14.0164 10.4534 14.0167 10.4536 14.0164Z" fill="black"/>
</svg>
