<svg width="24" height="24" viewBox="0 0 24 24" fill="none" xmlns="http://www.w3.org/2000/svg">
<path d="M8.96892 8.10381V6.59242C8.4369 6.65389 7.93702 6.73562 7.46892 6.84036L7.46892 8.38317C7.91508 8.26695 8.4132 8.17396 8.96892 8.10381Z" fill="black"/>
<path d="M8.96892 6.59242V8.10381C9.833 7.99474 10.8363 7.9409 12 7.9409C13.1636 7.9409 14.1669 7.99473 15.0309 8.10378V6.5924C14.1162 6.48672 13.1065 6.4409 12 6.4409C10.8934 6.4409 9.88368 6.48672 8.96892 6.59242Z" fill="black"/>
<path d="M15.0309 6.5924V8.10378C15.5866 8.17392 16.0848 8.26691 16.5309 8.38311V6.84032C16.0628 6.73558 15.5629 6.65386 15.0309 6.5924Z" fill="black"/>
<path d="M3.73102 14.2499C3.73102 11.6867 4.27929 10.2157 5.41628 9.32576C5.93194 8.92216 6.60242 8.60887 7.46892 8.38317L7.46892 6.84036C6.27005 7.10863 5.27965 7.52787 4.49176 8.14454C2.81024 9.46064 2.23102 11.5191 2.23102 14.2499C2.23102 16.9802 2.81026 19.0385 4.49179 20.3544C6.11625 21.6257 8.60159 22.0579 12 22.0579C15.3984 22.0579 17.8838 21.6257 19.5082 20.3544C21.1898 19.0385 21.769 16.9802 21.769 14.2499C21.769 11.5191 21.1898 9.46064 19.5083 8.14454C18.7203 7.52784 17.7299 7.10858 16.5309 6.84032V8.38311C17.3975 8.60882 18.0681 8.92212 18.5838 9.32576C19.7207 10.2157 20.269 11.6867 20.269 14.2499C20.269 16.8126 19.7208 18.2833 18.5838 19.1731C17.3898 20.1076 15.3656 20.5579 12 20.5579C8.63445 20.5579 6.61028 20.1076 5.41624 19.1731C4.27927 18.2833 3.73102 16.8126 3.73102 14.2499Z" fill="black"/>
<path d="M12.0104 1.9421C9.50733 1.93731 7.47491 3.96118 7.46892 6.4633V6.84036C7.93702 6.73562 8.4369 6.65389 8.96892 6.59242V6.46605C8.97338 4.79268 10.3329 3.43909 12.0075 3.4421C13.6811 3.4463 15.0349 4.80666 15.0309 6.4803L15.0309 6.4821V6.5924C15.5629 6.65386 16.0628 6.73558 16.5309 6.84032V6.48263L16.5309 6.4839L15.7809 6.4821L16.5309 6.48263C16.5362 3.98097 14.5121 1.94809 12.0104 1.9421Z" fill="black"/>
<path d="M15.7809 10.2641C16.1951 10.2641 16.5309 9.92831 16.5309 9.5141V8.38311C16.0848 8.26691 15.5866 8.17392 15.0309 8.10378V9.5141C15.0309 9.92831 15.3667 10.2641 15.7809 10.2641Z" fill="black"/>
<path d="M8.21892 10.2641C8.63313 10.2641 8.96892 9.92831 8.96892 9.5141V8.10381C8.4132 8.17396 7.91508 8.26695 7.46892 8.38317L7.46892 9.5141C7.46892 9.92831 7.8047 10.2641 8.21892 10.2641Z" fill="black"/>
</svg>
