<svg width="24" height="24" viewBox="0 0 24 24" fill="none" xmlns="http://www.w3.org/2000/svg">
<path fill-rule="evenodd" clip-rule="evenodd" d="M8.97445 12.1208C8.97445 11.7066 9.31024 11.3708 9.72445 11.3708H19.9508H21.7654C22.1797 11.3708 22.5154 11.7066 22.5154 12.1208C22.5154 12.535 22.1797 12.8708 21.7654 12.8708H19.9508H9.72445C9.31024 12.8708 8.97445 12.535 8.97445 12.1208Z" fill="black"/>
<path fill-rule="evenodd" clip-rule="evenodd" d="M14.2627 4.45009C15.0394 5.02564 15.4277 5.96655 15.5874 7.69884C15.6254 8.11131 15.9906 8.41485 16.4031 8.37683C16.8156 8.33881 17.1191 7.97362 17.0811 7.56116C16.9108 5.71345 16.4641 4.21436 15.1558 3.24491C13.9015 2.31546 12.0117 2 9.33425 2C5.78442 2 3.60188 2.55654 2.48182 4.37994C1.94798 5.249 1.71207 6.3253 1.59743 7.55739C1.48324 8.78465 1.48325 10.259 1.48325 11.9684V12.0316C1.48325 13.741 1.48324 15.2154 1.59743 16.4426C1.71207 17.6747 1.94798 18.751 2.48182 19.6201C3.60188 21.4435 5.78442 22 9.33425 22C12.0117 22 13.9015 21.6845 15.1558 20.7551C16.4641 19.7856 16.9108 18.2866 17.0811 16.4388C17.1191 16.0264 16.8156 15.6612 16.4031 15.6232C15.9906 15.5851 15.6254 15.8887 15.5874 16.3012C15.4277 18.0335 15.0394 18.9744 14.2627 19.5499C13.432 20.1655 11.9868 20.5 9.33425 20.5C5.78308 20.5 4.41512 19.9015 3.75994 18.8349C3.40615 18.259 3.19825 17.4565 3.09098 16.3036C2.98396 15.1535 2.98325 13.7472 2.98325 12C2.98325 10.2528 2.98396 8.84654 3.09098 7.69636C3.19825 6.54345 3.40615 5.741 3.75994 5.16506C4.41512 4.09846 5.78308 3.5 9.33425 3.5C11.9868 3.5 13.432 3.83454 14.2627 4.45009Z" fill="black"/>
<path d="M21.7654 11.3708C22.1797 11.3708 22.5154 11.7066 22.5154 12.1208C22.5154 12.535 22.1797 12.8708 21.7654 12.8708H19.9508L18.3095 14.5054C18.016 14.7977 18.015 15.2725 18.3073 15.566C18.5996 15.8595 19.0745 15.8605 19.368 15.5682L22.296 12.6522C22.4373 12.5115 22.5168 12.3202 22.5168 12.1208C22.5168 11.9214 22.4373 11.7301 22.296 11.5894L19.368 8.67338C19.0745 8.38109 18.5996 8.38207 18.3073 8.67556C18.015 8.96905 18.016 9.44393 18.3095 9.73622L19.9508 11.3708H21.7654Z" fill="black"/>
</svg>
