<svg width="24" height="24" viewBox="0 0 24 24" fill="none" xmlns="http://www.w3.org/2000/svg">
<path fill-rule="evenodd" clip-rule="evenodd" d="M1.9451 12.1208C1.9451 11.7066 2.28089 11.3708 2.6951 11.3708H12.9215H14.7361C15.1503 11.3708 15.4861 11.7066 15.4861 12.1208C15.4861 12.535 15.1503 12.8708 14.7361 12.8708H12.9215H2.6951C2.28089 12.8708 1.9451 12.535 1.9451 12.1208Z" fill="black"/>
<path fill-rule="evenodd" clip-rule="evenodd" d="M9.27542 4.45009C8.49871 5.02564 8.11041 5.96655 7.95073 7.69884C7.91271 8.11131 7.54752 8.41485 7.13506 8.37683C6.72259 8.33881 6.41905 7.97362 6.45707 7.56116C6.62739 5.71345 7.07409 4.21436 8.38238 3.24491C9.63669 2.31546 11.5265 2 14.2039 2C17.7537 2 19.9363 2.55654 21.0563 4.37994C21.5902 5.249 21.8261 6.3253 21.9407 7.55739C22.0549 8.78465 22.0549 10.259 22.0549 11.9684V12.0316C22.0549 13.741 22.0549 15.2154 21.9407 16.4426C21.8261 17.6747 21.5902 18.751 21.0563 19.6201C19.9363 21.4435 17.7537 22 14.2039 22C11.5265 22 9.63669 21.6845 8.38238 20.7551C7.07409 19.7856 6.62739 18.2866 6.45707 16.4388C6.41905 16.0264 6.72259 15.6612 7.13506 15.6232C7.54752 15.5851 7.91271 15.8887 7.95073 16.3012C8.11041 18.0335 8.49871 18.9744 9.27542 19.5499C10.1061 20.1655 11.5513 20.5 14.2039 20.5C17.7551 20.5 19.123 19.9015 19.7782 18.8349C20.132 18.259 20.3399 17.4565 20.4472 16.3036C20.5542 15.1535 20.5549 13.7472 20.5549 12C20.5549 10.2528 20.5542 8.84654 20.4472 7.69636C20.3399 6.54345 20.132 5.741 19.7782 5.16506C19.123 4.09846 17.7551 3.5 14.2039 3.5C11.5513 3.5 10.1061 3.83454 9.27542 4.45009Z" fill="black"/>
<path d="M14.7361 11.3708C15.1503 11.3708 15.4861 11.7066 15.4861 12.1208C15.4861 12.535 15.1503 12.8708 14.7361 12.8708H12.9215L11.2802 14.5054C10.9867 14.7977 10.9857 15.2725 11.278 15.566C11.5703 15.8595 12.0451 15.8605 12.3386 15.5682L15.2666 12.6522C15.408 12.5115 15.4874 12.3202 15.4874 12.1208C15.4874 11.9214 15.408 11.7301 15.2666 11.5894L12.3386 8.67338C12.0451 8.38109 11.5703 8.38207 11.278 8.67556C10.9857 8.96905 10.9867 9.44393 11.2802 9.73622L12.9215 11.3708H14.7361Z" fill="black"/>
</svg>
