<svg width="24" height="24" viewBox="0 0 24 24" fill="none" xmlns="http://www.w3.org/2000/svg">
<path fill-rule="evenodd" clip-rule="evenodd" d="M13.3593 8.50525C13.7735 8.50525 14.1093 8.84104 14.1093 9.25525V14.5439C14.1093 14.9581 13.7735 15.2939 13.3593 15.2939C12.945 15.2939 12.6093 14.9581 12.6093 14.5439V9.25525C12.6093 8.84104 12.945 8.50525 13.3593 8.50525Z" fill="black"/>
<path fill-rule="evenodd" clip-rule="evenodd" d="M6.3788 3.10047C7.77869 2.85603 9.61084 2.75 12 2.75C14.3892 2.75 16.2213 2.85603 17.6212 3.10047C19.0155 3.34393 20.0594 3.73726 20.8007 4.37278C21.5652 5.02825 21.9215 5.8658 22.0898 6.80368C22.2501 7.69713 22.25 8.7505 22.25 9.89536V9.94867C22.25 10.3629 21.9142 10.6987 21.5 10.6987C21.0351 10.6987 20.7394 10.8679 20.551 11.0833C20.3497 11.3134 20.2319 11.6434 20.2319 11.9995C20.2319 12.3557 20.3497 12.6856 20.551 12.9157C20.7394 13.1311 21.0351 13.3004 21.5 13.3004C21.9142 13.3004 22.25 13.6362 22.25 14.0504V14.1037C22.25 15.2488 22.2501 16.3023 22.0898 17.1959C21.9215 18.1339 21.5652 18.9715 20.8007 19.6271C20.0594 20.2627 19.0155 20.656 17.6212 20.8995C16.2213 21.144 14.3892 21.25 12 21.25C9.61084 21.25 7.77869 21.144 6.37879 20.8995C4.98452 20.656 3.94057 20.2627 3.1993 19.6271C2.43479 18.9715 2.07848 18.1339 1.91022 17.1959C1.74992 16.3023 1.74996 15.2488 1.75 14.1037L1.75 14.0504C1.75 13.6362 2.08579 13.3004 2.5 13.3004C2.96491 13.3004 3.26062 13.1311 3.44902 12.9157C3.65026 12.6856 3.76805 12.3557 3.76805 11.9995C3.76805 11.6434 3.65026 11.3134 3.44902 11.0833C3.26062 10.8679 2.96491 10.6987 2.5 10.6987C2.08579 10.6987 1.75 10.3629 1.75 9.94867L1.75 9.89536C1.74996 8.7505 1.74993 7.69713 1.91023 6.80368C2.0785 5.8658 2.43482 5.02825 3.19934 4.37278C3.9406 3.73726 4.98454 3.34393 6.3788 3.10047ZM3.25116 9.28919C3.79092 9.42559 4.24022 9.70953 4.57807 10.0958C5.0495 10.6348 5.26805 11.3302 5.26805 11.9995C5.26805 12.6688 5.0495 13.3643 4.57807 13.9033C4.24022 14.2895 3.79092 14.5735 3.25116 14.7099C3.25572 15.6053 3.27803 16.3255 3.38665 16.931C3.51526 17.648 3.75271 18.1257 4.1757 18.4884C4.62193 18.871 5.35923 19.1988 6.63683 19.4219C7.90881 19.644 9.63916 19.75 12 19.75C12.2079 19.75 12.411 19.7492 12.6093 19.7475C13.1431 19.7431 13.6423 19.7326 14.1093 19.716C15.4379 19.6688 16.5049 19.5718 17.3632 19.4219C18.6408 19.1988 19.3781 18.871 19.8243 18.4884C20.2473 18.1257 20.4847 17.648 20.6133 16.931C20.722 16.3255 20.7443 15.6053 20.7488 14.7099C20.2091 14.5735 19.7598 14.2895 19.4219 13.9033C18.9505 13.3643 18.7319 12.6688 18.7319 11.9995C18.7319 11.3302 18.9505 10.6348 19.4219 10.0958C19.7598 9.70953 20.2091 9.4256 20.7488 9.2892C20.7443 8.39396 20.722 7.67398 20.6133 7.06857C20.4847 6.35178 20.2473 5.87419 19.8243 5.51155C19.3781 5.12896 18.6408 4.80121 17.3632 4.57811C16.5049 4.42824 15.4379 4.33123 14.1093 4.28398C13.6423 4.26738 13.1431 4.25692 12.6093 4.25247C12.411 4.25082 12.2079 4.25 12 4.25C9.63916 4.25 7.90881 4.356 6.63682 4.57811C5.35921 4.80121 4.6219 5.12896 4.17566 5.51155C3.75268 5.87419 3.51525 6.35178 3.38665 7.06857C3.27803 7.67397 3.25572 8.39396 3.25116 9.28919Z" fill="black"/>
<path d="M13.3593 7.00525C13.7735 7.00525 14.1093 6.66946 14.1093 6.25525V4.28398C13.6423 4.26738 13.1431 4.25692 12.6093 4.25247V6.25525C12.6093 6.66946 12.945 7.00525 13.3593 7.00525Z" fill="black"/>
<path d="M14.1093 17.5439C14.1093 17.1297 13.7735 16.7939 13.3593 16.7939C12.945 16.7939 12.6093 17.1297 12.6093 17.5439V19.7475C13.1431 19.7431 13.6423 19.7326 14.1093 19.716V17.5439Z" fill="black"/>
<path fill-rule="evenodd" clip-rule="evenodd" d="M14.1093 4.28398C13.6423 4.26738 13.1431 4.25692 12.6093 4.25247C12.411 4.25082 12.2079 4.25 12 4.25C9.63916 4.25 7.90881 4.356 6.63682 4.57811C5.35921 4.80121 4.6219 5.12896 4.17566 5.51155C3.75268 5.87419 3.51525 6.35178 3.38665 7.06857C3.27803 7.67397 3.25572 8.39396 3.25116 9.28919C3.79092 9.42559 4.24022 9.70953 4.57807 10.0958C5.0495 10.6348 5.26805 11.3302 5.26805 11.9995C5.26805 12.6688 5.0495 13.3643 4.57807 13.9033C4.24022 14.2895 3.79092 14.5735 3.25116 14.7099C3.25572 15.6053 3.27803 16.3255 3.38665 16.931C3.51526 17.648 3.75271 18.1257 4.1757 18.4884C4.62193 18.871 5.35923 19.1988 6.63683 19.4219C7.90881 19.644 9.63916 19.75 12 19.75C12.2079 19.75 12.411 19.7492 12.6093 19.7475C13.1431 19.7431 13.6423 19.7326 14.1093 19.716C15.4379 19.6688 16.5049 19.5718 17.3632 19.4219C18.6408 19.1988 19.3781 18.871 19.8243 18.4884C20.2473 18.1257 20.4847 17.648 20.6133 16.931C20.722 16.3255 20.7443 15.6053 20.7488 14.7099C20.2091 14.5735 19.7598 14.2895 19.4219 13.9033C18.9505 13.3643 18.7319 12.6688 18.7319 11.9995C18.7319 11.3302 18.9505 10.6348 19.4219 10.0958C19.7598 9.70953 20.2091 9.4256 20.7488 9.2892C20.7443 8.39396 20.722 7.67398 20.6133 7.06857C20.4847 6.35178 20.2473 5.87419 19.8243 5.51155C19.3781 5.12896 18.6408 4.80121 17.3632 4.57811C16.5049 4.42824 15.4379 4.33123 14.1093 4.28398ZM13.3593 8.50525C13.7735 8.50525 14.1093 8.84104 14.1093 9.25525V14.5439C14.1093 14.9581 13.7735 15.2939 13.3593 15.2939C12.945 15.2939 12.6093 14.9581 12.6093 14.5439V9.25525C12.6093 8.84104 12.945 8.50525 13.3593 8.50525ZM12 2.75C9.61084 2.75 7.77869 2.85603 6.3788 3.10047C4.98454 3.34393 3.9406 3.73726 3.19934 4.37278C2.43482 5.02825 2.0785 5.8658 1.91023 6.80368C1.74993 7.69713 1.74996 8.7505 1.75 9.89536L1.75 9.94867C1.75 10.3629 2.08579 10.6987 2.5 10.6987C2.96491 10.6987 3.26062 10.8679 3.44902 11.0833C3.65026 11.3134 3.76805 11.6434 3.76805 11.9995C3.76805 12.3557 3.65026 12.6856 3.44902 12.9157C3.26062 13.1311 2.96491 13.3004 2.5 13.3004C2.08579 13.3004 1.75 13.6362 1.75 14.0504L1.75 14.1037C1.74996 15.2488 1.74992 16.3023 1.91022 17.1959C2.07848 18.1339 2.43479 18.9715 3.1993 19.6271C3.94057 20.2627 4.98452 20.656 6.37879 20.8995C7.77869 21.144 9.61084 21.25 12 21.25C14.3892 21.25 16.2213 21.144 17.6212 20.8995C19.0155 20.656 20.0594 20.2627 20.8007 19.6271C21.5652 18.9715 21.9215 18.1339 22.0898 17.1959C22.2501 16.3023 22.25 15.2488 22.25 14.1037V14.0504C22.25 13.6362 21.9142 13.3004 21.5 13.3004C21.0351 13.3004 20.7394 13.1311 20.551 12.9157C20.3497 12.6856 20.2319 12.3557 20.2319 11.9995C20.2319 11.6434 20.3497 11.3134 20.551 11.0833C20.7394 10.8679 21.0351 10.6987 21.5 10.6987C21.9142 10.6987 22.25 10.3629 22.25 9.94867V9.89536C22.25 8.7505 22.2501 7.69713 22.0898 6.80368C21.9215 5.8658 21.5652 5.02825 20.8007 4.37278C20.0594 3.73726 19.0155 3.34393 17.6212 3.10047C16.2213 2.85603 14.3892 2.75 12 2.75Z" fill="black"/>
</svg>
