<svg width="24" height="24" viewBox="0 0 24 24" fill="none" xmlns="http://www.w3.org/2000/svg">
<path fill-rule="evenodd" clip-rule="evenodd" d="M12 3.5C7.30616 3.5 3.5 7.30527 3.5 12C3.5 16.6938 7.30621 20.5 12 20.5C16.6947 20.5 20.5 16.6938 20.5 12C20.5 7.30521 16.6948 3.5 12 3.5ZM2 12C2 6.47673 6.47784 2 12 2C17.5232 2 22 6.47679 22 12C22 17.5222 17.5233 22 12 22C6.47779 22 2 17.5222 2 12Z" fill="black"/>
<path fill-rule="evenodd" clip-rule="evenodd" d="M11.6609 7.0961C12.0751 7.0961 12.4109 7.43189 12.4109 7.8461V11.9553L16.2031 12.0172C16.6173 12.024 16.9476 12.3652 16.9408 12.7794C16.934 13.1935 16.5928 13.5238 16.1786 13.517L11.6487 13.443C11.2393 13.4363 10.9109 13.1025 10.9109 12.6931V7.8461C10.9109 7.43189 11.2467 7.0961 11.6609 7.0961Z" fill="black"/>
</svg>
